M48
;Layer_Color=9474304
;FILE_FORMAT=2:5
INCH,LZ
;TYPE=PLATED
T1F00S00C0.01200
T2F00S00C0.03500
T3F00S00C0.03937
T4F00S00C0.04000
T5F00S00C0.15748
%
T01
X0295079Y0058858
X03525Y01675
X03555Y01725
X0359Y01775
X03625Y01825
X0366Y01875
X03695Y01925
X0373Y01975
X03765Y02025
X03525Y02425
X03555Y02475
X0359Y02525
X03625Y02575
X0366Y02625
X03695Y02675
X0373Y02725
X03765Y02775
X028Y02725
Y02475
X026Y02525
X025Y02575
Y02625
X026Y02675
X02275Y02725
Y02475
X02075Y02525
X01975Y02575
Y02625
X02075Y02675
Y01925
X01975Y01875
Y01825
X02075Y01775
X02275Y01725
Y01975
X025Y01875
Y01825
X026Y01775
Y01925
X028Y01975
Y01725
X03025Y01825
Y01875
X03125Y01925
Y01775
X03325Y01725
Y01975
X0175
X0155Y01925
X0145Y01875
Y01825
X0155Y01775
X0175Y01725
X01225
X01025Y01775
X00925Y01825
Y01875
X01025Y01925
X01225Y01975
X0145Y02575
Y02625
X0155Y02675
Y02525
X0175Y02475
Y02725
X015Y03225
Y03475
X013Y03425
X012Y03375
Y03325
X013Y03275
X02275Y03325
Y03375
X02375Y03425
Y03275
X02575Y03225
Y03475
X028Y03375
Y03325
X029Y03275
Y03425
X031Y03475
Y03225
T02
X0025Y0095
X0035
Y0125
X0025
X0045
X0055
X0065
X0075
X0085
X0095
X0105
X0115
X01375
X01475
X01575
X01675
X01775
X01875
Y0095
X01775
X01675
X01575
X01475
X01375
X0115
X0105
X0095
X0085
X0075
X0065
X0055
X0045
X01975
X02075
X023
X024
X025
X026
X027
X028
X029
X03
Y0125
X029
X028
X027
X026
X025
X024
X023
X02075
X01975
T03
X0332677Y0064961
Y0082677
Y0098425
Y0116142
X0358268
Y0098425
Y0082677
Y0064961
X03425Y0155
X03325
X03225
X03125
X03025
X029
X028
X027
X026
X025
X02375
X02275
X02175
X02075
X01975
Y0215
X02075
X02175
X02275
X02375
X025
X026
X027
X028
X029
X03025
X03125
X03225
X03325
X03425
X029Y023
X028
X027
X026
X025
X02375
X02275
X02175
X02075
X01975
Y029
X02075
X02175
X02275
X02375
X025
X026
X027
X028
X029
X0185
X0175
X0165
X0155
X0145
X01325
X01225
X01125
X01025
X00925
Y023
X01025
X01125
X01225
X01325
X0145
X0155
X0165
X0175
X0185
Y0215
X0175
X0165
X0155
X0145
X01325
X01225
X01125
X01025
X00925
X008
X007
X006
X005
X004
Y0155
X005
X006
X007
X008
X00925
X01025
X01125
X01225
X01325
X0145
X0155
X0165
X0175
X0185
X016Y0305
X015
X014
X013
X012
X01075
X00975
X00875
X00775
X00675
Y0365
X00775
X00875
X00975
X01075
X012
X013
X014
X015
X016
X02275
X02375
X02475
X02575
X02675
X028
X029
X03
X031
X032
Y0305
X031
X03
X029
X028
X02675
X02575
X02475
X02375
X02275
T04
X00725Y00125
X00825
X00925
X01025
X01125
X01225
X01325
X01425
X01525
X01625
X01725
X01825
X01925
Y00725
X01825
X01725
X01625
X01525
X01425
X01325
X01225
X01125
X01025
X00925
X00825
X00725
X02025
X02125
X02225
X02325
X02425
X02525
X02625
Y00125
X02525
X02425
X02325
X02225
X02125
X02025
T05
X003937Y003937
X0346457
X003937Y0346457
X0192913
X0346457
M30
