G04 Layer_Color=255*
%FSLAX25Y25*%
%MOIN*%
G70*
G01*
G75*
%ADD12O,0.06500X0.08000*%
%ADD13R,0.06500X0.08000*%
%ADD14R,0.05000X0.07000*%
%ADD15O,0.05000X0.07000*%
%ADD16C,0.19685*%
%ADD17R,0.07000X0.10000*%
%ADD18O,0.07000X0.10000*%
%ADD19O,0.07087X0.09449*%
D12*
X80000Y215000D02*
D03*
X70000D02*
D03*
X60000D02*
D03*
X50000D02*
D03*
X40000D02*
D03*
X80000Y155000D02*
D03*
X70000D02*
D03*
X60000D02*
D03*
X50000D02*
D03*
X132500Y215000D02*
D03*
X122500D02*
D03*
X112500D02*
D03*
X102500D02*
D03*
X92500D02*
D03*
X132500Y155000D02*
D03*
X122500D02*
D03*
X112500D02*
D03*
X102500D02*
D03*
X185000Y215000D02*
D03*
X175000D02*
D03*
X165000D02*
D03*
X155000D02*
D03*
X145000D02*
D03*
X185000Y155000D02*
D03*
X175000D02*
D03*
X165000D02*
D03*
X155000D02*
D03*
X237500Y215000D02*
D03*
X227500D02*
D03*
X217500D02*
D03*
X207500D02*
D03*
X197500D02*
D03*
X237500Y155000D02*
D03*
X227500D02*
D03*
X217500D02*
D03*
X207500D02*
D03*
X290000Y215000D02*
D03*
X280000D02*
D03*
X270000D02*
D03*
X260000D02*
D03*
X250000D02*
D03*
X290000Y155000D02*
D03*
X280000D02*
D03*
X270000D02*
D03*
X260000D02*
D03*
X342500Y215000D02*
D03*
X332500D02*
D03*
X322500D02*
D03*
X312500D02*
D03*
X302500D02*
D03*
X342500Y155000D02*
D03*
X332500D02*
D03*
X322500D02*
D03*
X312500D02*
D03*
X107500Y365000D02*
D03*
X97500D02*
D03*
X87500D02*
D03*
X77500D02*
D03*
X67500D02*
D03*
X107500Y305000D02*
D03*
X97500D02*
D03*
X87500D02*
D03*
X77500D02*
D03*
X160000Y365000D02*
D03*
X150000D02*
D03*
X140000D02*
D03*
X130000D02*
D03*
X120000D02*
D03*
X160000Y305000D02*
D03*
X150000D02*
D03*
X140000D02*
D03*
X130000D02*
D03*
X267500Y365000D02*
D03*
X257500D02*
D03*
X247500D02*
D03*
X237500D02*
D03*
X227500D02*
D03*
X267500Y305000D02*
D03*
X257500D02*
D03*
X247500D02*
D03*
X237500D02*
D03*
X320000Y365000D02*
D03*
X310000D02*
D03*
X300000D02*
D03*
X290000D02*
D03*
X280000D02*
D03*
X320000Y305000D02*
D03*
X310000D02*
D03*
X300000D02*
D03*
X290000D02*
D03*
X132500Y290000D02*
D03*
X122500D02*
D03*
X112500D02*
D03*
X102500D02*
D03*
X92500D02*
D03*
X132500Y230000D02*
D03*
X122500D02*
D03*
X112500D02*
D03*
X102500D02*
D03*
X185000Y290000D02*
D03*
X175000D02*
D03*
X165000D02*
D03*
X155000D02*
D03*
X145000D02*
D03*
X185000Y230000D02*
D03*
X175000D02*
D03*
X165000D02*
D03*
X155000D02*
D03*
X237500Y290000D02*
D03*
X227500D02*
D03*
X217500D02*
D03*
X207500D02*
D03*
X197500D02*
D03*
X237500Y230000D02*
D03*
X227500D02*
D03*
X217500D02*
D03*
X207500D02*
D03*
X290000Y290000D02*
D03*
X280000D02*
D03*
X270000D02*
D03*
X260000D02*
D03*
X250000D02*
D03*
X290000Y230000D02*
D03*
X280000D02*
D03*
X270000D02*
D03*
X260000D02*
D03*
D13*
X40000Y155000D02*
D03*
X92500D02*
D03*
X145000D02*
D03*
X197500D02*
D03*
X250000D02*
D03*
X302500D02*
D03*
X67500Y305000D02*
D03*
X120000D02*
D03*
X227500D02*
D03*
X280000D02*
D03*
X92500Y230000D02*
D03*
X145000D02*
D03*
X197500D02*
D03*
X250000D02*
D03*
D14*
X230000Y95000D02*
D03*
X137500D02*
D03*
X25000D02*
D03*
D15*
X240000D02*
D03*
X250000D02*
D03*
X260000D02*
D03*
X270000D02*
D03*
X280000D02*
D03*
X290000D02*
D03*
X300000D02*
D03*
X230000Y125000D02*
D03*
X240000D02*
D03*
X250000D02*
D03*
X260000D02*
D03*
X270000D02*
D03*
X280000D02*
D03*
X290000D02*
D03*
X300000D02*
D03*
X147500Y95000D02*
D03*
X157500D02*
D03*
X167500D02*
D03*
X177500D02*
D03*
X187500D02*
D03*
X197500D02*
D03*
X207500D02*
D03*
X137500Y125000D02*
D03*
X147500D02*
D03*
X157500D02*
D03*
X167500D02*
D03*
X177500D02*
D03*
X187500D02*
D03*
X197500D02*
D03*
X207500D02*
D03*
X35000Y95000D02*
D03*
X45000D02*
D03*
X55000D02*
D03*
X65000D02*
D03*
X75000D02*
D03*
X85000D02*
D03*
X95000D02*
D03*
X105000D02*
D03*
X115000D02*
D03*
X25000Y125000D02*
D03*
X35000D02*
D03*
X45000D02*
D03*
X55000D02*
D03*
X65000D02*
D03*
X75000D02*
D03*
X85000D02*
D03*
X95000D02*
D03*
X105000D02*
D03*
X115000D02*
D03*
D16*
X39370Y39370D02*
D03*
Y346457D02*
D03*
X346457D02*
D03*
Y39370D02*
D03*
X192913Y346457D02*
D03*
D17*
X72500Y12500D02*
D03*
D18*
X82500D02*
D03*
X92500D02*
D03*
X102500D02*
D03*
X112500D02*
D03*
X122500D02*
D03*
X132500D02*
D03*
X142500D02*
D03*
X152500D02*
D03*
X162500D02*
D03*
X172500D02*
D03*
X182500D02*
D03*
X192500D02*
D03*
X202500D02*
D03*
X212500D02*
D03*
X222500D02*
D03*
X232500D02*
D03*
X242500D02*
D03*
X252500D02*
D03*
X262500D02*
D03*
X72500Y72500D02*
D03*
X82500D02*
D03*
X92500D02*
D03*
X102500D02*
D03*
X112500D02*
D03*
X122500D02*
D03*
X132500D02*
D03*
X142500D02*
D03*
X152500D02*
D03*
X162500D02*
D03*
X172500D02*
D03*
X182500D02*
D03*
X192500D02*
D03*
X202500D02*
D03*
X212500D02*
D03*
X222500D02*
D03*
X232500D02*
D03*
X242500D02*
D03*
X252500D02*
D03*
X262500D02*
D03*
D19*
X358268Y116142D02*
D03*
X332677D02*
D03*
X358268Y98425D02*
D03*
X332677D02*
D03*
X358268Y82677D02*
D03*
X332677D02*
D03*
X358268Y64961D02*
D03*
X332677D02*
D03*
M02*
