G04 Layer_Color=8388736*
%FSLAX25Y25*%
%MOIN*%
G70*
G01*
G75*
%ADD11C,0.01000*%
%ADD12C,0.00787*%
%ADD24R,0.05524X0.05288*%
%ADD25O,0.07300X0.08800*%
%ADD26R,0.07300X0.08800*%
%ADD27R,0.05800X0.07800*%
%ADD28O,0.05800X0.07800*%
%ADD29C,0.20485*%
%ADD30R,0.07800X0.10800*%
%ADD31O,0.07800X0.10800*%
%ADD32O,0.07887X0.10249*%
%ADD33C,0.03200*%
D11*
X385827Y346457D02*
G03*
X346457Y385827I-39370J0D01*
G01*
X346457Y-0D02*
G03*
X385827Y39370I0J39370D01*
G01*
X0Y39370D02*
G03*
X39370Y0I39370J0D01*
G01*
X39370Y385827D02*
G03*
X-0Y346457I0J-39370D01*
G01*
D12*
X39370Y385827D02*
X346457D01*
X385827Y39370D02*
Y346457D01*
X39370Y0D02*
X346457D01*
X0Y39370D02*
Y346457D01*
D24*
X12500Y113740D02*
D03*
Y106260D02*
D03*
X275000Y33740D02*
D03*
Y26260D02*
D03*
X218500Y113740D02*
D03*
Y106260D02*
D03*
X312500Y113740D02*
D03*
Y106260D02*
D03*
X115000Y141240D02*
D03*
Y133760D02*
D03*
X105000Y141240D02*
D03*
Y133760D02*
D03*
X95000Y141240D02*
D03*
Y133760D02*
D03*
X85000Y141240D02*
D03*
Y133760D02*
D03*
X75000Y141240D02*
D03*
Y133760D02*
D03*
X65000Y141240D02*
D03*
Y133760D02*
D03*
X55000Y141240D02*
D03*
Y133760D02*
D03*
X45000Y141240D02*
D03*
Y133760D02*
D03*
X371063Y106102D02*
D03*
Y98622D02*
D03*
Y72638D02*
D03*
Y65158D02*
D03*
X284500Y26260D02*
D03*
Y33740D02*
D03*
X275197Y58858D02*
D03*
Y66339D02*
D03*
X284646Y58858D02*
D03*
Y66339D02*
D03*
D25*
X80000Y215000D02*
D03*
X70000D02*
D03*
X60000D02*
D03*
X50000D02*
D03*
X40000D02*
D03*
X80000Y155000D02*
D03*
X70000D02*
D03*
X60000D02*
D03*
X50000D02*
D03*
X132500Y215000D02*
D03*
X122500D02*
D03*
X112500D02*
D03*
X102500D02*
D03*
X92500D02*
D03*
X132500Y155000D02*
D03*
X122500D02*
D03*
X112500D02*
D03*
X102500D02*
D03*
X185000Y215000D02*
D03*
X175000D02*
D03*
X165000D02*
D03*
X155000D02*
D03*
X145000D02*
D03*
X185000Y155000D02*
D03*
X175000D02*
D03*
X165000D02*
D03*
X155000D02*
D03*
X237500Y215000D02*
D03*
X227500D02*
D03*
X217500D02*
D03*
X207500D02*
D03*
X197500D02*
D03*
X237500Y155000D02*
D03*
X227500D02*
D03*
X217500D02*
D03*
X207500D02*
D03*
X290000Y215000D02*
D03*
X280000D02*
D03*
X270000D02*
D03*
X260000D02*
D03*
X250000D02*
D03*
X290000Y155000D02*
D03*
X280000D02*
D03*
X270000D02*
D03*
X260000D02*
D03*
X342500Y215000D02*
D03*
X332500D02*
D03*
X322500D02*
D03*
X312500D02*
D03*
X302500D02*
D03*
X342500Y155000D02*
D03*
X332500D02*
D03*
X322500D02*
D03*
X312500D02*
D03*
X107500Y365000D02*
D03*
X97500D02*
D03*
X87500D02*
D03*
X77500D02*
D03*
X67500D02*
D03*
X107500Y305000D02*
D03*
X97500D02*
D03*
X87500D02*
D03*
X77500D02*
D03*
X160000Y365000D02*
D03*
X150000D02*
D03*
X140000D02*
D03*
X130000D02*
D03*
X120000D02*
D03*
X160000Y305000D02*
D03*
X150000D02*
D03*
X140000D02*
D03*
X130000D02*
D03*
X267500Y365000D02*
D03*
X257500D02*
D03*
X247500D02*
D03*
X237500D02*
D03*
X227500D02*
D03*
X267500Y305000D02*
D03*
X257500D02*
D03*
X247500D02*
D03*
X237500D02*
D03*
X320000Y365000D02*
D03*
X310000D02*
D03*
X300000D02*
D03*
X290000D02*
D03*
X280000D02*
D03*
X320000Y305000D02*
D03*
X310000D02*
D03*
X300000D02*
D03*
X290000D02*
D03*
X132500Y290000D02*
D03*
X122500D02*
D03*
X112500D02*
D03*
X102500D02*
D03*
X92500D02*
D03*
X132500Y230000D02*
D03*
X122500D02*
D03*
X112500D02*
D03*
X102500D02*
D03*
X185000Y290000D02*
D03*
X175000D02*
D03*
X165000D02*
D03*
X155000D02*
D03*
X145000D02*
D03*
X185000Y230000D02*
D03*
X175000D02*
D03*
X165000D02*
D03*
X155000D02*
D03*
X237500Y290000D02*
D03*
X227500D02*
D03*
X217500D02*
D03*
X207500D02*
D03*
X197500D02*
D03*
X237500Y230000D02*
D03*
X227500D02*
D03*
X217500D02*
D03*
X207500D02*
D03*
X290000Y290000D02*
D03*
X280000D02*
D03*
X270000D02*
D03*
X260000D02*
D03*
X250000D02*
D03*
X290000Y230000D02*
D03*
X280000D02*
D03*
X270000D02*
D03*
X260000D02*
D03*
D26*
X40000Y155000D02*
D03*
X92500D02*
D03*
X145000D02*
D03*
X197500D02*
D03*
X250000D02*
D03*
X302500D02*
D03*
X67500Y305000D02*
D03*
X120000D02*
D03*
X227500D02*
D03*
X280000D02*
D03*
X92500Y230000D02*
D03*
X145000D02*
D03*
X197500D02*
D03*
X250000D02*
D03*
D27*
X230000Y95000D02*
D03*
X137500D02*
D03*
X25000D02*
D03*
D28*
X240000D02*
D03*
X250000D02*
D03*
X260000D02*
D03*
X270000D02*
D03*
X280000D02*
D03*
X290000D02*
D03*
X300000D02*
D03*
X230000Y125000D02*
D03*
X240000D02*
D03*
X250000D02*
D03*
X260000D02*
D03*
X270000D02*
D03*
X280000D02*
D03*
X290000D02*
D03*
X300000D02*
D03*
X147500Y95000D02*
D03*
X157500D02*
D03*
X167500D02*
D03*
X177500D02*
D03*
X187500D02*
D03*
X197500D02*
D03*
X207500D02*
D03*
X137500Y125000D02*
D03*
X147500D02*
D03*
X157500D02*
D03*
X167500D02*
D03*
X177500D02*
D03*
X187500D02*
D03*
X197500D02*
D03*
X207500D02*
D03*
X35000Y95000D02*
D03*
X45000D02*
D03*
X55000D02*
D03*
X65000D02*
D03*
X75000D02*
D03*
X85000D02*
D03*
X95000D02*
D03*
X105000D02*
D03*
X115000D02*
D03*
X25000Y125000D02*
D03*
X35000D02*
D03*
X45000D02*
D03*
X55000D02*
D03*
X65000D02*
D03*
X75000D02*
D03*
X85000D02*
D03*
X95000D02*
D03*
X105000D02*
D03*
X115000D02*
D03*
D29*
X39370Y39370D02*
D03*
Y346457D02*
D03*
X346457D02*
D03*
Y39370D02*
D03*
X192913Y346457D02*
D03*
D30*
X72500Y12500D02*
D03*
D31*
X82500D02*
D03*
X92500D02*
D03*
X102500D02*
D03*
X112500D02*
D03*
X122500D02*
D03*
X132500D02*
D03*
X142500D02*
D03*
X152500D02*
D03*
X162500D02*
D03*
X172500D02*
D03*
X182500D02*
D03*
X192500D02*
D03*
X202500D02*
D03*
X212500D02*
D03*
X222500D02*
D03*
X232500D02*
D03*
X242500D02*
D03*
X252500D02*
D03*
X262500D02*
D03*
X72500Y72500D02*
D03*
X82500D02*
D03*
X92500D02*
D03*
X102500D02*
D03*
X112500D02*
D03*
X122500D02*
D03*
X132500D02*
D03*
X142500D02*
D03*
X152500D02*
D03*
X162500D02*
D03*
X172500D02*
D03*
X182500D02*
D03*
X192500D02*
D03*
X202500D02*
D03*
X212500D02*
D03*
X222500D02*
D03*
X232500D02*
D03*
X242500D02*
D03*
X252500D02*
D03*
X262500D02*
D03*
D32*
X358268Y116142D02*
D03*
X332677D02*
D03*
X358268Y98425D02*
D03*
X332677D02*
D03*
X358268Y82677D02*
D03*
X332677D02*
D03*
X358268Y64961D02*
D03*
X332677D02*
D03*
D33*
X92500Y182500D02*
D03*
X102500Y177500D02*
D03*
X122500Y172500D02*
D03*
X92500Y187500D02*
D03*
X102500Y192500D02*
D03*
X122500Y197500D02*
D03*
X175000D02*
D03*
X155000Y192500D02*
D03*
X145000Y187500D02*
D03*
X175000Y172500D02*
D03*
X155000Y177500D02*
D03*
X145000Y182500D02*
D03*
X227500Y197500D02*
D03*
X207500Y192500D02*
D03*
X197500Y187500D02*
D03*
X227500Y172500D02*
D03*
X207500Y177500D02*
D03*
X197500Y182500D02*
D03*
X280000Y197500D02*
D03*
X260000Y192500D02*
D03*
X250000Y187500D02*
D03*
X280000Y172500D02*
D03*
X260000Y177500D02*
D03*
X250000Y182500D02*
D03*
X332500Y197500D02*
D03*
X312500Y192500D02*
D03*
X302500Y187500D02*
D03*
X332500Y172500D02*
D03*
X312500Y177500D02*
D03*
X302500Y182500D02*
D03*
X250000Y257500D02*
D03*
X260000Y252500D02*
D03*
X280000Y247500D02*
D03*
X250000Y262500D02*
D03*
X260000Y267500D02*
D03*
X280000Y272500D02*
D03*
X197500Y257500D02*
D03*
X207500Y252500D02*
D03*
X227500Y247500D02*
D03*
X197500Y262500D02*
D03*
X207500Y267500D02*
D03*
X227500Y272500D02*
D03*
X175000D02*
D03*
X155000Y267500D02*
D03*
X145000Y262500D02*
D03*
X175000Y247500D02*
D03*
X155000Y252500D02*
D03*
X145000Y257500D02*
D03*
X150000Y347500D02*
D03*
X130000Y342500D02*
D03*
X120000Y337500D02*
D03*
X150000Y322500D02*
D03*
X130000Y327500D02*
D03*
X120000Y332500D02*
D03*
X227500D02*
D03*
X237500Y327500D02*
D03*
X257500Y322500D02*
D03*
X227500Y337500D02*
D03*
X237500Y342500D02*
D03*
X257500Y347500D02*
D03*
X280000Y332500D02*
D03*
X290000Y327500D02*
D03*
X310000Y322500D02*
D03*
X280000Y337500D02*
D03*
X290000Y342500D02*
D03*
X310000Y347500D02*
D03*
X352500Y167500D02*
D03*
X355500Y172500D02*
D03*
X359000Y177500D02*
D03*
X362500Y182500D02*
D03*
X366000Y187500D02*
D03*
X369500Y192500D02*
D03*
X373000Y197500D02*
D03*
X376500Y202500D02*
D03*
Y277500D02*
D03*
X373000Y272500D02*
D03*
X369500Y267500D02*
D03*
X366000Y262500D02*
D03*
X362500Y257500D02*
D03*
X359000Y252500D02*
D03*
X355500Y247500D02*
D03*
X352500Y242500D02*
D03*
X295079Y58858D02*
D03*
M02*
