G04 Layer_Physical_Order=1*
G04 Layer_Color=255*
%FSLAX25Y25*%
%MOIN*%
G70*
G01*
G75*
%ADD10R,0.04724X0.04488*%
%ADD11C,0.01000*%
%ADD12C,0.00787*%
%ADD13O,0.06500X0.08000*%
%ADD14R,0.06500X0.08000*%
%ADD15R,0.05000X0.07000*%
%ADD16O,0.05000X0.07000*%
%ADD17C,0.19685*%
%ADD18R,0.07000X0.10000*%
%ADD19O,0.07000X0.10000*%
%ADD20O,0.07087X0.09449*%
%ADD21C,0.02400*%
G36*
X358661Y378740D02*
X381102Y356299D01*
Y335433D01*
Y29528D01*
X376772Y25197D01*
X356299Y4724D01*
X29921D01*
X24409Y10236D01*
X4724Y29921D01*
Y30709D01*
X5118Y356299D01*
X29921Y381102D01*
X356299D01*
X358661Y378740D01*
D02*
G37*
%LPC*%
G36*
X240000Y99530D02*
X239086Y99410D01*
X238235Y99057D01*
X237504Y98496D01*
X236943Y97765D01*
X236590Y96914D01*
X236470Y96000D01*
Y94000D01*
X236590Y93086D01*
X236943Y92235D01*
X237504Y91504D01*
X238235Y90943D01*
X239086Y90590D01*
X240000Y90470D01*
X240914Y90590D01*
X241765Y90943D01*
X242496Y91504D01*
X243057Y92235D01*
X243410Y93086D01*
X243530Y94000D01*
Y96000D01*
X243410Y96914D01*
X243057Y97765D01*
X242496Y98496D01*
X241765Y99057D01*
X240914Y99410D01*
X240000Y99530D01*
D02*
G37*
G36*
X250000D02*
X249086Y99410D01*
X248235Y99057D01*
X247504Y98496D01*
X246943Y97765D01*
X246590Y96914D01*
X246470Y96000D01*
Y94000D01*
X246590Y93086D01*
X246943Y92235D01*
X247504Y91504D01*
X248235Y90943D01*
X249086Y90590D01*
X250000Y90470D01*
X250914Y90590D01*
X251765Y90943D01*
X252496Y91504D01*
X253057Y92235D01*
X253410Y93086D01*
X253530Y94000D01*
Y96000D01*
X253410Y96914D01*
X253057Y97765D01*
X252496Y98496D01*
X251765Y99057D01*
X250914Y99410D01*
X250000Y99530D01*
D02*
G37*
G36*
X260000D02*
X259086Y99410D01*
X258235Y99057D01*
X257504Y98496D01*
X256943Y97765D01*
X256590Y96914D01*
X256470Y96000D01*
Y94000D01*
X256590Y93086D01*
X256943Y92235D01*
X257504Y91504D01*
X258235Y90943D01*
X259086Y90590D01*
X260000Y90470D01*
X260914Y90590D01*
X261765Y90943D01*
X262496Y91504D01*
X263057Y92235D01*
X263410Y93086D01*
X263530Y94000D01*
Y96000D01*
X263410Y96914D01*
X263057Y97765D01*
X262496Y98496D01*
X261765Y99057D01*
X260914Y99410D01*
X260000Y99530D01*
D02*
G37*
G36*
X197500D02*
X196586Y99410D01*
X195735Y99057D01*
X195004Y98496D01*
X194443Y97765D01*
X194090Y96914D01*
X193970Y96000D01*
Y94000D01*
X194090Y93086D01*
X194443Y92235D01*
X195004Y91504D01*
X195735Y90943D01*
X196586Y90590D01*
X197500Y90470D01*
X198414Y90590D01*
X199265Y90943D01*
X199996Y91504D01*
X200557Y92235D01*
X200910Y93086D01*
X201030Y94000D01*
Y96000D01*
X200910Y96914D01*
X200557Y97765D01*
X199996Y98496D01*
X199265Y99057D01*
X198414Y99410D01*
X197500Y99530D01*
D02*
G37*
G36*
X167500D02*
X166586Y99410D01*
X165735Y99057D01*
X165004Y98496D01*
X164443Y97765D01*
X164090Y96914D01*
X163970Y96000D01*
Y94000D01*
X164090Y93086D01*
X164443Y92235D01*
X165004Y91504D01*
X165735Y90943D01*
X166586Y90590D01*
X167500Y90470D01*
X168414Y90590D01*
X169265Y90943D01*
X169996Y91504D01*
X170557Y92235D01*
X170910Y93086D01*
X171030Y94000D01*
Y96000D01*
X170910Y96914D01*
X170557Y97765D01*
X169996Y98496D01*
X169265Y99057D01*
X168414Y99410D01*
X167500Y99530D01*
D02*
G37*
G36*
X177500D02*
X176586Y99410D01*
X175735Y99057D01*
X175004Y98496D01*
X174443Y97765D01*
X174090Y96914D01*
X173970Y96000D01*
Y94000D01*
X174090Y93086D01*
X174443Y92235D01*
X175004Y91504D01*
X175735Y90943D01*
X176586Y90590D01*
X177500Y90470D01*
X178414Y90590D01*
X179265Y90943D01*
X179996Y91504D01*
X180557Y92235D01*
X180910Y93086D01*
X181030Y94000D01*
Y96000D01*
X180910Y96914D01*
X180557Y97765D01*
X179996Y98496D01*
X179265Y99057D01*
X178414Y99410D01*
X177500Y99530D01*
D02*
G37*
G36*
X187500D02*
X186586Y99410D01*
X185735Y99057D01*
X185004Y98496D01*
X184443Y97765D01*
X184090Y96914D01*
X183970Y96000D01*
Y94000D01*
X184090Y93086D01*
X184443Y92235D01*
X185004Y91504D01*
X185735Y90943D01*
X186586Y90590D01*
X187500Y90470D01*
X188414Y90590D01*
X189265Y90943D01*
X189996Y91504D01*
X190557Y92235D01*
X190910Y93086D01*
X191030Y94000D01*
Y96000D01*
X190910Y96914D01*
X190557Y97765D01*
X189996Y98496D01*
X189265Y99057D01*
X188414Y99410D01*
X187500Y99530D01*
D02*
G37*
G36*
X270000D02*
X269086Y99410D01*
X268235Y99057D01*
X267504Y98496D01*
X266943Y97765D01*
X266590Y96914D01*
X266470Y96000D01*
Y94000D01*
X266590Y93086D01*
X266943Y92235D01*
X267504Y91504D01*
X268235Y90943D01*
X269086Y90590D01*
X270000Y90470D01*
X270914Y90590D01*
X271765Y90943D01*
X272496Y91504D01*
X273057Y92235D01*
X273410Y93086D01*
X273530Y94000D01*
Y96000D01*
X273410Y96914D01*
X273057Y97765D01*
X272496Y98496D01*
X271765Y99057D01*
X270914Y99410D01*
X270000Y99530D01*
D02*
G37*
G36*
X233500Y99500D02*
X226500D01*
Y90500D01*
X233500D01*
Y99500D01*
D02*
G37*
G36*
X114500Y94500D02*
X111470D01*
Y94000D01*
X111590Y93086D01*
X111943Y92235D01*
X112504Y91504D01*
X113235Y90943D01*
X114086Y90590D01*
X114500Y90536D01*
Y94500D01*
D02*
G37*
G36*
X118530D02*
X115500D01*
Y90536D01*
X115914Y90590D01*
X116765Y90943D01*
X117496Y91504D01*
X118057Y92235D01*
X118410Y93086D01*
X118530Y94000D01*
Y94500D01*
D02*
G37*
G36*
X28500D02*
X25500D01*
Y90500D01*
X28500D01*
Y94500D01*
D02*
G37*
G36*
X280000Y99530D02*
X279086Y99410D01*
X278235Y99057D01*
X277504Y98496D01*
X276943Y97765D01*
X276590Y96914D01*
X276470Y96000D01*
Y94000D01*
X276590Y93086D01*
X276943Y92235D01*
X277504Y91504D01*
X278235Y90943D01*
X279086Y90590D01*
X280000Y90470D01*
X280914Y90590D01*
X281765Y90943D01*
X282496Y91504D01*
X283057Y92235D01*
X283410Y93086D01*
X283530Y94000D01*
Y96000D01*
X283410Y96914D01*
X283057Y97765D01*
X282496Y98496D01*
X281765Y99057D01*
X280914Y99410D01*
X280000Y99530D01*
D02*
G37*
G36*
X290000D02*
X289086Y99410D01*
X288235Y99057D01*
X287504Y98496D01*
X286943Y97765D01*
X286590Y96914D01*
X286470Y96000D01*
Y94000D01*
X286590Y93086D01*
X286943Y92235D01*
X287504Y91504D01*
X288235Y90943D01*
X289086Y90590D01*
X290000Y90470D01*
X290914Y90590D01*
X291765Y90943D01*
X292496Y91504D01*
X293057Y92235D01*
X293410Y93086D01*
X293530Y94000D01*
Y96000D01*
X293410Y96914D01*
X293057Y97765D01*
X292496Y98496D01*
X291765Y99057D01*
X290914Y99410D01*
X290000Y99530D01*
D02*
G37*
G36*
X24500Y94500D02*
X21500D01*
Y90500D01*
X24500D01*
Y94500D01*
D02*
G37*
G36*
X105000Y99530D02*
X104086Y99410D01*
X103235Y99057D01*
X102504Y98496D01*
X101943Y97765D01*
X101590Y96914D01*
X101470Y96000D01*
Y94000D01*
X101590Y93086D01*
X101943Y92235D01*
X102504Y91504D01*
X103235Y90943D01*
X104086Y90590D01*
X105000Y90470D01*
X105914Y90590D01*
X106765Y90943D01*
X107496Y91504D01*
X108057Y92235D01*
X108410Y93086D01*
X108530Y94000D01*
Y96000D01*
X108410Y96914D01*
X108057Y97765D01*
X107496Y98496D01*
X106765Y99057D01*
X105914Y99410D01*
X105000Y99530D01*
D02*
G37*
G36*
X337260Y82177D02*
X333177D01*
Y76979D01*
X333863Y77070D01*
X334968Y77527D01*
X335917Y78256D01*
X336646Y79205D01*
X337104Y80310D01*
X337260Y81496D01*
Y82177D01*
D02*
G37*
G36*
X332177Y88375D02*
X331491Y88285D01*
X330386Y87827D01*
X329437Y87099D01*
X328709Y86150D01*
X328251Y85044D01*
X328095Y83858D01*
Y83177D01*
X332177D01*
Y88375D01*
D02*
G37*
G36*
X333177D02*
Y83177D01*
X337260D01*
Y83858D01*
X337104Y85044D01*
X336646Y86150D01*
X335917Y87099D01*
X334968Y87827D01*
X333863Y88285D01*
X333177Y88375D01*
D02*
G37*
G36*
X332177Y82177D02*
X328095D01*
Y81496D01*
X328251Y80310D01*
X328709Y79205D01*
X329437Y78256D01*
X330386Y77527D01*
X331491Y77070D01*
X332177Y76979D01*
Y82177D01*
D02*
G37*
G36*
X73000Y78473D02*
Y73000D01*
X77039D01*
Y74000D01*
X76884Y75175D01*
X76431Y76269D01*
X75709Y77209D01*
X74769Y77931D01*
X73675Y78384D01*
X73000Y78473D01*
D02*
G37*
G36*
X82000D02*
X81325Y78384D01*
X80231Y77931D01*
X79291Y77209D01*
X78569Y76269D01*
X78116Y75175D01*
X77961Y74000D01*
Y73000D01*
X82000D01*
Y78473D01*
D02*
G37*
G36*
X83000D02*
Y73000D01*
X87039D01*
Y74000D01*
X86884Y75175D01*
X86431Y76269D01*
X85709Y77209D01*
X84769Y77931D01*
X83675Y78384D01*
X83000Y78473D01*
D02*
G37*
G36*
X157500Y99530D02*
X156586Y99410D01*
X155735Y99057D01*
X155004Y98496D01*
X154443Y97765D01*
X154090Y96914D01*
X153970Y96000D01*
Y94000D01*
X154090Y93086D01*
X154443Y92235D01*
X155004Y91504D01*
X155735Y90943D01*
X155971Y90845D01*
Y90000D01*
X156087Y89415D01*
X156419Y88919D01*
X158346Y86991D01*
X158154Y86529D01*
X150634D01*
X149029Y88134D01*
Y90845D01*
X149265Y90943D01*
X149996Y91504D01*
X150557Y92235D01*
X150910Y93086D01*
X151030Y94000D01*
Y96000D01*
X150910Y96914D01*
X150557Y97765D01*
X149996Y98496D01*
X149265Y99057D01*
X148414Y99410D01*
X147500Y99530D01*
X146586Y99410D01*
X145735Y99057D01*
X145004Y98496D01*
X144443Y97765D01*
X144090Y96914D01*
X143970Y96000D01*
Y94000D01*
X144090Y93086D01*
X144443Y92235D01*
X145004Y91504D01*
X145735Y90943D01*
X145971Y90845D01*
Y87500D01*
X146087Y86915D01*
X146419Y86419D01*
X148346Y84491D01*
X148154Y84029D01*
X140633D01*
X139029Y85633D01*
Y90500D01*
X141000D01*
Y99500D01*
X134000D01*
Y90500D01*
X135971D01*
Y85000D01*
X136087Y84415D01*
X136419Y83919D01*
X138919Y81419D01*
X139415Y81087D01*
X140000Y80971D01*
X149366D01*
X150971Y79366D01*
Y78237D01*
X150231Y77931D01*
X149291Y77209D01*
X148569Y76269D01*
X148116Y75175D01*
X147961Y74000D01*
Y71000D01*
X148116Y69825D01*
X148569Y68731D01*
X149291Y67791D01*
X150231Y67069D01*
X151325Y66616D01*
X152500Y66461D01*
X153675Y66616D01*
X154769Y67069D01*
X155709Y67791D01*
X156431Y68731D01*
X156884Y69825D01*
X157039Y71000D01*
Y74000D01*
X156884Y75175D01*
X156431Y76269D01*
X155709Y77209D01*
X154769Y77931D01*
X154029Y78237D01*
Y80000D01*
X153913Y80585D01*
X153581Y81081D01*
X151654Y83009D01*
X151846Y83471D01*
X159367D01*
X160971Y81867D01*
Y78237D01*
X160231Y77931D01*
X159291Y77209D01*
X158569Y76269D01*
X158116Y75175D01*
X157961Y74000D01*
Y71000D01*
X158116Y69825D01*
X158569Y68731D01*
X159291Y67791D01*
X160231Y67069D01*
X161325Y66616D01*
X162500Y66461D01*
X163675Y66616D01*
X164769Y67069D01*
X165709Y67791D01*
X166431Y68731D01*
X166884Y69825D01*
X167039Y71000D01*
Y74000D01*
X166884Y75175D01*
X166431Y76269D01*
X165709Y77209D01*
X164769Y77931D01*
X164029Y78237D01*
Y82500D01*
X163913Y83085D01*
X163581Y83581D01*
X161654Y85509D01*
X161846Y85971D01*
X169367D01*
X170971Y84367D01*
Y78237D01*
X170231Y77931D01*
X169291Y77209D01*
X168569Y76269D01*
X168116Y75175D01*
X167961Y74000D01*
Y71000D01*
X168116Y69825D01*
X168569Y68731D01*
X169291Y67791D01*
X170231Y67069D01*
X171325Y66616D01*
X172500Y66461D01*
X173675Y66616D01*
X174769Y67069D01*
X175709Y67791D01*
X176431Y68731D01*
X176884Y69825D01*
X177039Y71000D01*
Y74000D01*
X176884Y75175D01*
X176431Y76269D01*
X175709Y77209D01*
X174769Y77931D01*
X174029Y78237D01*
Y85000D01*
X173913Y85585D01*
X173581Y86081D01*
X171081Y88581D01*
X170585Y88913D01*
X170000Y89029D01*
X160634D01*
X159262Y90400D01*
X159264Y90666D01*
X159344Y91003D01*
X159996Y91504D01*
X160557Y92235D01*
X160910Y93086D01*
X161030Y94000D01*
Y96000D01*
X160910Y96914D01*
X160557Y97765D01*
X159996Y98496D01*
X159265Y99057D01*
X158414Y99410D01*
X157500Y99530D01*
D02*
G37*
G36*
X75000D02*
X74086Y99410D01*
X73235Y99057D01*
X72504Y98496D01*
X71943Y97765D01*
X71590Y96914D01*
X71470Y96000D01*
Y94000D01*
X71590Y93086D01*
X71943Y92235D01*
X72504Y91504D01*
X73235Y90943D01*
X74086Y90590D01*
X75000Y90470D01*
X75914Y90590D01*
X76765Y90943D01*
X77496Y91504D01*
X78057Y92235D01*
X78410Y93086D01*
X78530Y94000D01*
Y96000D01*
X78410Y96914D01*
X78057Y97765D01*
X77496Y98496D01*
X76765Y99057D01*
X75914Y99410D01*
X75000Y99530D01*
D02*
G37*
G36*
X85000D02*
X84086Y99410D01*
X83235Y99057D01*
X82504Y98496D01*
X81943Y97765D01*
X81590Y96914D01*
X81470Y96000D01*
Y94000D01*
X81590Y93086D01*
X81943Y92235D01*
X82504Y91504D01*
X83235Y90943D01*
X84086Y90590D01*
X85000Y90470D01*
X85914Y90590D01*
X86765Y90943D01*
X87496Y91504D01*
X88057Y92235D01*
X88410Y93086D01*
X88530Y94000D01*
Y96000D01*
X88410Y96914D01*
X88057Y97765D01*
X87496Y98496D01*
X86765Y99057D01*
X85914Y99410D01*
X85000Y99530D01*
D02*
G37*
G36*
X95000D02*
X94086Y99410D01*
X93235Y99057D01*
X92504Y98496D01*
X91943Y97765D01*
X91590Y96914D01*
X91470Y96000D01*
Y94000D01*
X91590Y93086D01*
X91943Y92235D01*
X92504Y91504D01*
X93235Y90943D01*
X94086Y90590D01*
X95000Y90470D01*
X95914Y90590D01*
X96765Y90943D01*
X97496Y91504D01*
X98057Y92235D01*
X98410Y93086D01*
X98530Y94000D01*
Y96000D01*
X98410Y96914D01*
X98057Y97765D01*
X97496Y98496D01*
X96765Y99057D01*
X95914Y99410D01*
X95000Y99530D01*
D02*
G37*
G36*
X65000D02*
X64086Y99410D01*
X63235Y99057D01*
X62504Y98496D01*
X61943Y97765D01*
X61590Y96914D01*
X61470Y96000D01*
Y94000D01*
X61590Y93086D01*
X61943Y92235D01*
X62504Y91504D01*
X63235Y90943D01*
X64086Y90590D01*
X65000Y90470D01*
X65914Y90590D01*
X66765Y90943D01*
X67496Y91504D01*
X68057Y92235D01*
X68410Y93086D01*
X68530Y94000D01*
Y96000D01*
X68410Y96914D01*
X68057Y97765D01*
X67496Y98496D01*
X66765Y99057D01*
X65914Y99410D01*
X65000Y99530D01*
D02*
G37*
G36*
X35000D02*
X34086Y99410D01*
X33235Y99057D01*
X32504Y98496D01*
X31943Y97765D01*
X31590Y96914D01*
X31470Y96000D01*
Y94000D01*
X31590Y93086D01*
X31943Y92235D01*
X32504Y91504D01*
X33235Y90943D01*
X34086Y90590D01*
X35000Y90470D01*
X35914Y90590D01*
X36765Y90943D01*
X37496Y91504D01*
X38057Y92235D01*
X38410Y93086D01*
X38530Y94000D01*
Y96000D01*
X38410Y96914D01*
X38057Y97765D01*
X37496Y98496D01*
X36765Y99057D01*
X35914Y99410D01*
X35000Y99530D01*
D02*
G37*
G36*
X45000D02*
X44086Y99410D01*
X43235Y99057D01*
X42504Y98496D01*
X41943Y97765D01*
X41590Y96914D01*
X41470Y96000D01*
Y94000D01*
X41590Y93086D01*
X41943Y92235D01*
X42504Y91504D01*
X43235Y90943D01*
X44086Y90590D01*
X45000Y90470D01*
X45914Y90590D01*
X46765Y90943D01*
X47496Y91504D01*
X48057Y92235D01*
X48410Y93086D01*
X48530Y94000D01*
Y96000D01*
X48410Y96914D01*
X48057Y97765D01*
X47496Y98496D01*
X46765Y99057D01*
X45914Y99410D01*
X45000Y99530D01*
D02*
G37*
G36*
X55000D02*
X54086Y99410D01*
X53235Y99057D01*
X52504Y98496D01*
X51943Y97765D01*
X51590Y96914D01*
X51470Y96000D01*
Y94000D01*
X51590Y93086D01*
X51943Y92235D01*
X52504Y91504D01*
X53235Y90943D01*
X54086Y90590D01*
X55000Y90470D01*
X55914Y90590D01*
X56765Y90943D01*
X57496Y91504D01*
X58057Y92235D01*
X58410Y93086D01*
X58530Y94000D01*
Y96000D01*
X58410Y96914D01*
X58057Y97765D01*
X57496Y98496D01*
X56765Y99057D01*
X55914Y99410D01*
X55000Y99530D01*
D02*
G37*
G36*
X207000Y94500D02*
X203970D01*
Y94000D01*
X204090Y93086D01*
X204443Y92235D01*
X205004Y91504D01*
X205735Y90943D01*
X206586Y90590D01*
X207000Y90536D01*
Y94500D01*
D02*
G37*
G36*
X312000Y105760D02*
X309138D01*
Y103016D01*
X312000D01*
Y105760D01*
D02*
G37*
G36*
X315862D02*
X313000D01*
Y103016D01*
X315862D01*
Y105760D01*
D02*
G37*
G36*
X12000Y109504D02*
X9138D01*
Y106760D01*
X12000D01*
Y109504D01*
D02*
G37*
G36*
X221862Y105760D02*
X219000D01*
Y103016D01*
X221862D01*
Y105760D01*
D02*
G37*
G36*
X12000D02*
X9138D01*
Y103016D01*
X12000D01*
Y105760D01*
D02*
G37*
G36*
X15862D02*
X13000D01*
Y103016D01*
X15862D01*
Y105760D01*
D02*
G37*
G36*
X218000D02*
X215138D01*
Y103016D01*
X218000D01*
Y105760D01*
D02*
G37*
G36*
X15862Y109504D02*
X13000D01*
Y106760D01*
X15862D01*
Y109504D01*
D02*
G37*
G36*
X358268Y121905D02*
X357082Y121749D01*
X355977Y121291D01*
X355027Y120563D01*
X354299Y119614D01*
X353841Y118509D01*
X353685Y117323D01*
Y114961D01*
X353841Y113775D01*
X354299Y112669D01*
X355027Y111720D01*
X355977Y110992D01*
X357082Y110534D01*
X358268Y110378D01*
X359454Y110534D01*
X360559Y110992D01*
X361508Y111720D01*
X362236Y112669D01*
X362694Y113775D01*
X362850Y114961D01*
Y117323D01*
X362694Y118509D01*
X362236Y119614D01*
X361508Y120563D01*
X360559Y121291D01*
X359454Y121749D01*
X358268Y121905D01*
D02*
G37*
G36*
X332177Y115642D02*
X328095D01*
Y114961D01*
X328251Y113775D01*
X328709Y112669D01*
X329437Y111720D01*
X330386Y110992D01*
X331491Y110534D01*
X332177Y110444D01*
Y115642D01*
D02*
G37*
G36*
X337260D02*
X333177D01*
Y110444D01*
X333863Y110534D01*
X334968Y110992D01*
X335917Y111720D01*
X336646Y112669D01*
X337104Y113775D01*
X337260Y114961D01*
Y115642D01*
D02*
G37*
G36*
X315862Y109504D02*
X313000D01*
Y106760D01*
X315862D01*
Y109504D01*
D02*
G37*
G36*
X218000D02*
X215138D01*
Y106760D01*
X218000D01*
Y109504D01*
D02*
G37*
G36*
X221862D02*
X219000D01*
Y106760D01*
X221862D01*
Y109504D01*
D02*
G37*
G36*
X312000D02*
X309138D01*
Y106760D01*
X312000D01*
Y109504D01*
D02*
G37*
G36*
X333177Y104123D02*
Y98925D01*
X337260D01*
Y99606D01*
X337104Y100792D01*
X336646Y101898D01*
X335917Y102847D01*
X334968Y103575D01*
X333863Y104033D01*
X333177Y104123D01*
D02*
G37*
G36*
X337260Y97925D02*
X333177D01*
Y92727D01*
X333863Y92818D01*
X334968Y93275D01*
X335917Y94004D01*
X336646Y94953D01*
X337104Y96058D01*
X337260Y97244D01*
Y97925D01*
D02*
G37*
G36*
X374425Y109346D02*
X367701D01*
Y102858D01*
X374425D01*
Y104573D01*
X375439D01*
Y93153D01*
X369982Y87696D01*
X369650Y87199D01*
X369534Y86614D01*
Y75882D01*
X367701D01*
Y74167D01*
X342897D01*
X342705Y74629D01*
X349224Y81148D01*
X353731D01*
X353841Y80310D01*
X354299Y79205D01*
X355027Y78256D01*
X355977Y77527D01*
X357082Y77070D01*
X358268Y76913D01*
X359454Y77070D01*
X360559Y77527D01*
X361508Y78256D01*
X362236Y79205D01*
X362694Y80310D01*
X362850Y81496D01*
Y83858D01*
X362694Y85044D01*
X362236Y86150D01*
X361508Y87099D01*
X360559Y87827D01*
X359454Y88285D01*
X358268Y88441D01*
X357082Y88285D01*
X355977Y87827D01*
X355027Y87099D01*
X354299Y86150D01*
X353841Y85044D01*
X353731Y84207D01*
X348590D01*
X348005Y84090D01*
X347509Y83759D01*
X339918Y76167D01*
X322539D01*
X322348Y76629D01*
X322932Y77213D01*
X323263Y77709D01*
X323380Y78295D01*
Y87949D01*
X324452Y89022D01*
X350394D01*
X350979Y89138D01*
X351475Y89470D01*
X355583Y93577D01*
X355977Y93275D01*
X357082Y92818D01*
X358268Y92662D01*
X359454Y92818D01*
X360559Y93275D01*
X361508Y94004D01*
X362236Y94953D01*
X362694Y96058D01*
X362804Y96896D01*
X367701D01*
Y95378D01*
X374425D01*
Y101866D01*
X367701D01*
Y99955D01*
X362804D01*
X362694Y100792D01*
X362236Y101898D01*
X361508Y102847D01*
X360559Y103575D01*
X359454Y104033D01*
X358268Y104189D01*
X357082Y104033D01*
X355977Y103575D01*
X355027Y102847D01*
X354299Y101898D01*
X353841Y100792D01*
X353685Y99606D01*
Y97244D01*
X353829Y96150D01*
X349760Y92081D01*
X323819D01*
X323234Y91964D01*
X322738Y91633D01*
X320769Y89664D01*
X320437Y89168D01*
X320321Y88583D01*
Y78928D01*
X314801Y73408D01*
X314469Y72911D01*
X314352Y72326D01*
Y50643D01*
X313499Y49789D01*
X115189D01*
X114604Y49673D01*
X114108Y49341D01*
X111419Y46652D01*
X111087Y46156D01*
X110971Y45571D01*
Y18237D01*
X110231Y17931D01*
X109291Y17209D01*
X108569Y16269D01*
X108116Y15175D01*
X107961Y14000D01*
Y11000D01*
X108116Y9825D01*
X108569Y8731D01*
X109291Y7791D01*
X110231Y7069D01*
X111325Y6616D01*
X112500Y6461D01*
X113675Y6616D01*
X114769Y7069D01*
X115709Y7791D01*
X116431Y8731D01*
X116884Y9825D01*
X117039Y11000D01*
Y14000D01*
X116884Y15175D01*
X116431Y16269D01*
X115709Y17209D01*
X114769Y17931D01*
X114029Y18237D01*
Y44937D01*
X115823Y46731D01*
X122654D01*
X122846Y46268D01*
X121419Y44841D01*
X121087Y44345D01*
X120971Y43760D01*
Y18237D01*
X120231Y17931D01*
X119291Y17209D01*
X118569Y16269D01*
X118116Y15175D01*
X117961Y14000D01*
Y11000D01*
X118116Y9825D01*
X118569Y8731D01*
X119291Y7791D01*
X120231Y7069D01*
X121325Y6616D01*
X122500Y6461D01*
X123675Y6616D01*
X124769Y7069D01*
X125709Y7791D01*
X126431Y8731D01*
X126884Y9825D01*
X127039Y11000D01*
Y14000D01*
X126884Y15175D01*
X126431Y16269D01*
X125709Y17209D01*
X124769Y17931D01*
X124029Y18237D01*
Y43126D01*
X125634Y44730D01*
X314961D01*
X315546Y44847D01*
X316042Y45178D01*
X317891Y47027D01*
X318353Y46836D01*
Y15397D01*
X316985Y14029D01*
X293634D01*
X292529Y15134D01*
Y32500D01*
X292413Y33085D01*
X292081Y33581D01*
X290841Y34822D01*
X290345Y35153D01*
X289760Y35269D01*
X287862D01*
Y36984D01*
X281138D01*
Y30496D01*
X287862D01*
Y32211D01*
X289126D01*
X289471Y31866D01*
Y14500D01*
X289487Y14416D01*
X289170Y14029D01*
X267035D01*
X266884Y15175D01*
X266431Y16269D01*
X265709Y17209D01*
X264769Y17931D01*
X263675Y18384D01*
X262500Y18539D01*
X261325Y18384D01*
X260231Y17931D01*
X259291Y17209D01*
X258569Y16269D01*
X258116Y15175D01*
X257961Y14000D01*
Y11000D01*
X258116Y9825D01*
X258569Y8731D01*
X259291Y7791D01*
X260231Y7069D01*
X261325Y6616D01*
X262500Y6461D01*
X263675Y6616D01*
X264769Y7069D01*
X265709Y7791D01*
X266431Y8731D01*
X266884Y9825D01*
X267035Y10971D01*
X317618D01*
X318203Y11087D01*
X318700Y11419D01*
X320963Y13682D01*
X321295Y14178D01*
X321411Y14764D01*
Y70036D01*
X322484Y71108D01*
X331765D01*
X331797Y70608D01*
X331491Y70568D01*
X330386Y70110D01*
X329437Y69382D01*
X328709Y68433D01*
X328251Y67328D01*
X328095Y66142D01*
Y65461D01*
X337260D01*
Y66142D01*
X337104Y67328D01*
X336646Y68433D01*
X335917Y69382D01*
X334968Y70110D01*
X333863Y70568D01*
X333557Y70608D01*
X333590Y71108D01*
X357355D01*
X357388Y70608D01*
X357082Y70568D01*
X355977Y70110D01*
X355027Y69382D01*
X354299Y68433D01*
X353841Y67328D01*
X353685Y66142D01*
Y63779D01*
X353841Y62594D01*
X354299Y61488D01*
X355027Y60539D01*
X355977Y59811D01*
X357082Y59353D01*
X358268Y59197D01*
X359454Y59353D01*
X360559Y59811D01*
X361508Y60539D01*
X362236Y61488D01*
X362694Y62594D01*
X362804Y63431D01*
X367701D01*
Y61913D01*
X374425D01*
Y68402D01*
X367701D01*
Y66490D01*
X362804D01*
X362694Y67328D01*
X362236Y68433D01*
X361508Y69382D01*
X360559Y70110D01*
X359454Y70568D01*
X359148Y70608D01*
X359180Y71108D01*
X367701D01*
Y69394D01*
X374425D01*
Y75882D01*
X372592D01*
Y85981D01*
X378050Y91438D01*
X378381Y91934D01*
X378498Y92520D01*
Y105315D01*
X378381Y105900D01*
X378050Y106396D01*
X377066Y107381D01*
X376570Y107712D01*
X375984Y107829D01*
X375399Y107712D01*
X375279Y107632D01*
X374425D01*
Y109346D01*
D02*
G37*
G36*
X24500Y99500D02*
X21500D01*
Y95500D01*
X24500D01*
Y99500D01*
D02*
G37*
G36*
X332177Y97925D02*
X328095D01*
Y97244D01*
X328251Y96058D01*
X328709Y94953D01*
X329437Y94004D01*
X330386Y93275D01*
X331491Y92818D01*
X332177Y92727D01*
Y97925D01*
D02*
G37*
G36*
X211030Y94500D02*
X208000D01*
Y90536D01*
X208414Y90590D01*
X209265Y90943D01*
X209996Y91504D01*
X210557Y92235D01*
X210910Y93086D01*
X211030Y94000D01*
Y94500D01*
D02*
G37*
G36*
X299500D02*
X296470D01*
Y94000D01*
X296590Y93086D01*
X296943Y92235D01*
X297504Y91504D01*
X298235Y90943D01*
X299086Y90590D01*
X299500Y90536D01*
Y94500D01*
D02*
G37*
G36*
X303530D02*
X300500D01*
Y90536D01*
X300914Y90590D01*
X301765Y90943D01*
X302496Y91504D01*
X303057Y92235D01*
X303410Y93086D01*
X303530Y94000D01*
Y94500D01*
D02*
G37*
G36*
X28500Y99500D02*
X25500D01*
Y95500D01*
X28500D01*
Y99500D01*
D02*
G37*
G36*
X299500Y99464D02*
X299086Y99410D01*
X298235Y99057D01*
X297504Y98496D01*
X296943Y97765D01*
X296590Y96914D01*
X296470Y96000D01*
Y95500D01*
X299500D01*
Y99464D01*
D02*
G37*
G36*
X300500D02*
Y95500D01*
X303530D01*
Y96000D01*
X303410Y96914D01*
X303057Y97765D01*
X302496Y98496D01*
X301765Y99057D01*
X300914Y99410D01*
X300500Y99464D01*
D02*
G37*
G36*
X332177Y104123D02*
X331491Y104033D01*
X330386Y103575D01*
X329437Y102847D01*
X328709Y101898D01*
X328251Y100792D01*
X328095Y99606D01*
Y98925D01*
X332177D01*
Y104123D01*
D02*
G37*
G36*
X208000Y99464D02*
Y95500D01*
X211030D01*
Y96000D01*
X210910Y96914D01*
X210557Y97765D01*
X209996Y98496D01*
X209265Y99057D01*
X208414Y99410D01*
X208000Y99464D01*
D02*
G37*
G36*
X114500D02*
X114086Y99410D01*
X113235Y99057D01*
X112504Y98496D01*
X111943Y97765D01*
X111590Y96914D01*
X111470Y96000D01*
Y95500D01*
X114500D01*
Y99464D01*
D02*
G37*
G36*
X115500D02*
Y95500D01*
X118530D01*
Y96000D01*
X118410Y96914D01*
X118057Y97765D01*
X117496Y98496D01*
X116765Y99057D01*
X115914Y99410D01*
X115500Y99464D01*
D02*
G37*
G36*
X207000D02*
X206586Y99410D01*
X205735Y99057D01*
X205004Y98496D01*
X204443Y97765D01*
X204090Y96914D01*
X203970Y96000D01*
Y95500D01*
X207000D01*
Y99464D01*
D02*
G37*
G36*
X278362Y25760D02*
X275500D01*
Y23016D01*
X278362D01*
Y25760D01*
D02*
G37*
G36*
X284000D02*
X281138D01*
Y23016D01*
X284000D01*
Y25760D01*
D02*
G37*
G36*
X287862D02*
X285000D01*
Y23016D01*
X287862D01*
Y25760D01*
D02*
G37*
G36*
X274500D02*
X271638D01*
Y23016D01*
X274500D01*
Y25760D01*
D02*
G37*
G36*
X257039Y12000D02*
X253000D01*
Y6527D01*
X253675Y6616D01*
X254769Y7069D01*
X255709Y7791D01*
X256431Y8731D01*
X256884Y9825D01*
X257039Y11000D01*
Y12000D01*
D02*
G37*
G36*
X252000Y18473D02*
X251325Y18384D01*
X250231Y17931D01*
X249291Y17209D01*
X248569Y16269D01*
X248116Y15175D01*
X247961Y14000D01*
Y13000D01*
X252000D01*
Y18473D01*
D02*
G37*
G36*
X253000D02*
Y13000D01*
X257039D01*
Y14000D01*
X256884Y15175D01*
X256431Y16269D01*
X255709Y17209D01*
X254769Y17931D01*
X253675Y18384D01*
X253000Y18473D01*
D02*
G37*
G36*
X274500Y29504D02*
X271638D01*
Y26760D01*
X274500D01*
Y29504D01*
D02*
G37*
G36*
X50207Y38870D02*
X39870D01*
Y28533D01*
X41072Y28628D01*
X42731Y29026D01*
X44308Y29680D01*
X45763Y30571D01*
X47061Y31680D01*
X48169Y32977D01*
X49061Y34433D01*
X49714Y36009D01*
X50112Y37669D01*
X50207Y38870D01*
D02*
G37*
G36*
X345957D02*
X335620D01*
X335715Y37669D01*
X336113Y36009D01*
X336766Y34433D01*
X337658Y32977D01*
X338766Y31680D01*
X340064Y30571D01*
X341519Y29680D01*
X343096Y29026D01*
X344755Y28628D01*
X345957Y28533D01*
Y38870D01*
D02*
G37*
G36*
X357293D02*
X346957D01*
Y28533D01*
X348158Y28628D01*
X349818Y29026D01*
X351394Y29680D01*
X352850Y30571D01*
X354147Y31680D01*
X355256Y32977D01*
X356147Y34433D01*
X356800Y36009D01*
X357199Y37669D01*
X357293Y38870D01*
D02*
G37*
G36*
X38870D02*
X28533D01*
X28628Y37669D01*
X29026Y36009D01*
X29680Y34433D01*
X30571Y32977D01*
X31680Y31680D01*
X32977Y30571D01*
X34433Y29680D01*
X36009Y29026D01*
X37669Y28628D01*
X38870Y28533D01*
Y38870D01*
D02*
G37*
G36*
X278362Y29504D02*
X275500D01*
Y26760D01*
X278362D01*
Y29504D01*
D02*
G37*
G36*
X284000D02*
X281138D01*
Y26760D01*
X284000D01*
Y29504D01*
D02*
G37*
G36*
X287862D02*
X285000D01*
Y26760D01*
X287862D01*
Y29504D01*
D02*
G37*
G36*
X252000Y12000D02*
X247961D01*
Y11000D01*
X248116Y9825D01*
X248569Y8731D01*
X249291Y7791D01*
X250231Y7069D01*
X251325Y6616D01*
X252000Y6527D01*
Y12000D01*
D02*
G37*
G36*
X142500Y18539D02*
X141325Y18384D01*
X140231Y17931D01*
X139291Y17209D01*
X138569Y16269D01*
X138116Y15175D01*
X137961Y14000D01*
Y11000D01*
X138116Y9825D01*
X138569Y8731D01*
X139291Y7791D01*
X140231Y7069D01*
X141325Y6616D01*
X142500Y6461D01*
X143675Y6616D01*
X144769Y7069D01*
X145709Y7791D01*
X146431Y8731D01*
X146884Y9825D01*
X147039Y11000D01*
Y14000D01*
X146884Y15175D01*
X146431Y16269D01*
X145709Y17209D01*
X144769Y17931D01*
X143675Y18384D01*
X142500Y18539D01*
D02*
G37*
G36*
X152500D02*
X151325Y18384D01*
X150231Y17931D01*
X149291Y17209D01*
X148569Y16269D01*
X148116Y15175D01*
X147961Y14000D01*
Y11000D01*
X148116Y9825D01*
X148569Y8731D01*
X149291Y7791D01*
X150231Y7069D01*
X151325Y6616D01*
X152500Y6461D01*
X153675Y6616D01*
X154769Y7069D01*
X155709Y7791D01*
X156431Y8731D01*
X156884Y9825D01*
X157039Y11000D01*
Y14000D01*
X156884Y15175D01*
X156431Y16269D01*
X155709Y17209D01*
X154769Y17931D01*
X153675Y18384D01*
X152500Y18539D01*
D02*
G37*
G36*
X162500D02*
X161325Y18384D01*
X160231Y17931D01*
X159291Y17209D01*
X158569Y16269D01*
X158116Y15175D01*
X157961Y14000D01*
Y11000D01*
X158116Y9825D01*
X158569Y8731D01*
X159291Y7791D01*
X160231Y7069D01*
X161325Y6616D01*
X162500Y6461D01*
X163675Y6616D01*
X164769Y7069D01*
X165709Y7791D01*
X166431Y8731D01*
X166884Y9825D01*
X167039Y11000D01*
Y14000D01*
X166884Y15175D01*
X166431Y16269D01*
X165709Y17209D01*
X164769Y17931D01*
X163675Y18384D01*
X162500Y18539D01*
D02*
G37*
G36*
X132500D02*
X131325Y18384D01*
X130231Y17931D01*
X129291Y17209D01*
X128569Y16269D01*
X128116Y15175D01*
X127961Y14000D01*
Y11000D01*
X128116Y9825D01*
X128569Y8731D01*
X129291Y7791D01*
X130231Y7069D01*
X131325Y6616D01*
X132500Y6461D01*
X133675Y6616D01*
X134769Y7069D01*
X135709Y7791D01*
X136431Y8731D01*
X136884Y9825D01*
X137039Y11000D01*
Y14000D01*
X136884Y15175D01*
X136431Y16269D01*
X135709Y17209D01*
X134769Y17931D01*
X133675Y18384D01*
X132500Y18539D01*
D02*
G37*
G36*
X82500D02*
X81325Y18384D01*
X80231Y17931D01*
X79291Y17209D01*
X78569Y16269D01*
X78116Y15175D01*
X77961Y14000D01*
Y11000D01*
X78116Y9825D01*
X78569Y8731D01*
X79291Y7791D01*
X80231Y7069D01*
X81325Y6616D01*
X82500Y6461D01*
X83675Y6616D01*
X84769Y7069D01*
X85709Y7791D01*
X86431Y8731D01*
X86884Y9825D01*
X87039Y11000D01*
Y14000D01*
X86884Y15175D01*
X86431Y16269D01*
X85709Y17209D01*
X84769Y17931D01*
X83675Y18384D01*
X82500Y18539D01*
D02*
G37*
G36*
X92500D02*
X91325Y18384D01*
X90231Y17931D01*
X89291Y17209D01*
X88569Y16269D01*
X88116Y15175D01*
X87961Y14000D01*
Y11000D01*
X88116Y9825D01*
X88569Y8731D01*
X89291Y7791D01*
X90231Y7069D01*
X91325Y6616D01*
X92500Y6461D01*
X93675Y6616D01*
X94769Y7069D01*
X95709Y7791D01*
X96431Y8731D01*
X96884Y9825D01*
X97039Y11000D01*
Y14000D01*
X96884Y15175D01*
X96431Y16269D01*
X95709Y17209D01*
X94769Y17931D01*
X93675Y18384D01*
X92500Y18539D01*
D02*
G37*
G36*
X102500D02*
X101325Y18384D01*
X100231Y17931D01*
X99291Y17209D01*
X98569Y16269D01*
X98116Y15175D01*
X97961Y14000D01*
Y11000D01*
X98116Y9825D01*
X98569Y8731D01*
X99291Y7791D01*
X100231Y7069D01*
X101325Y6616D01*
X102500Y6461D01*
X103675Y6616D01*
X104769Y7069D01*
X105709Y7791D01*
X106431Y8731D01*
X106884Y9825D01*
X107039Y11000D01*
Y14000D01*
X106884Y15175D01*
X106431Y16269D01*
X105709Y17209D01*
X104769Y17931D01*
X103675Y18384D01*
X102500Y18539D01*
D02*
G37*
G36*
X172500D02*
X171325Y18384D01*
X170231Y17931D01*
X169291Y17209D01*
X168569Y16269D01*
X168116Y15175D01*
X167961Y14000D01*
Y11000D01*
X168116Y9825D01*
X168569Y8731D01*
X169291Y7791D01*
X170231Y7069D01*
X171325Y6616D01*
X172500Y6461D01*
X173675Y6616D01*
X174769Y7069D01*
X175709Y7791D01*
X176431Y8731D01*
X176884Y9825D01*
X177039Y11000D01*
Y14000D01*
X176884Y15175D01*
X176431Y16269D01*
X175709Y17209D01*
X174769Y17931D01*
X173675Y18384D01*
X172500Y18539D01*
D02*
G37*
G36*
X222500D02*
X221325Y18384D01*
X220231Y17931D01*
X219291Y17209D01*
X218569Y16269D01*
X218116Y15175D01*
X217961Y14000D01*
Y11000D01*
X218116Y9825D01*
X218569Y8731D01*
X219291Y7791D01*
X220231Y7069D01*
X221325Y6616D01*
X222500Y6461D01*
X223675Y6616D01*
X224769Y7069D01*
X225709Y7791D01*
X226431Y8731D01*
X226884Y9825D01*
X227039Y11000D01*
Y14000D01*
X226884Y15175D01*
X226431Y16269D01*
X225709Y17209D01*
X224769Y17931D01*
X223675Y18384D01*
X222500Y18539D01*
D02*
G37*
G36*
X232500D02*
X231325Y18384D01*
X230231Y17931D01*
X229291Y17209D01*
X228569Y16269D01*
X228116Y15175D01*
X227961Y14000D01*
Y11000D01*
X228116Y9825D01*
X228569Y8731D01*
X229291Y7791D01*
X230231Y7069D01*
X231325Y6616D01*
X232500Y6461D01*
X233675Y6616D01*
X234769Y7069D01*
X235709Y7791D01*
X236431Y8731D01*
X236884Y9825D01*
X237039Y11000D01*
Y14000D01*
X236884Y15175D01*
X236431Y16269D01*
X235709Y17209D01*
X234769Y17931D01*
X233675Y18384D01*
X232500Y18539D01*
D02*
G37*
G36*
X77000Y18500D02*
X68000D01*
Y6500D01*
X77000D01*
Y18500D01*
D02*
G37*
G36*
X212500Y18539D02*
X211325Y18384D01*
X210231Y17931D01*
X209291Y17209D01*
X208569Y16269D01*
X208116Y15175D01*
X207961Y14000D01*
Y11000D01*
X208116Y9825D01*
X208569Y8731D01*
X209291Y7791D01*
X210231Y7069D01*
X211325Y6616D01*
X212500Y6461D01*
X213675Y6616D01*
X214769Y7069D01*
X215709Y7791D01*
X216431Y8731D01*
X216884Y9825D01*
X217039Y11000D01*
Y14000D01*
X216884Y15175D01*
X216431Y16269D01*
X215709Y17209D01*
X214769Y17931D01*
X213675Y18384D01*
X212500Y18539D01*
D02*
G37*
G36*
X182500D02*
X181325Y18384D01*
X180231Y17931D01*
X179291Y17209D01*
X178569Y16269D01*
X178116Y15175D01*
X177961Y14000D01*
Y11000D01*
X178116Y9825D01*
X178569Y8731D01*
X179291Y7791D01*
X180231Y7069D01*
X181325Y6616D01*
X182500Y6461D01*
X183675Y6616D01*
X184769Y7069D01*
X185709Y7791D01*
X186431Y8731D01*
X186884Y9825D01*
X187039Y11000D01*
Y14000D01*
X186884Y15175D01*
X186431Y16269D01*
X185709Y17209D01*
X184769Y17931D01*
X183675Y18384D01*
X182500Y18539D01*
D02*
G37*
G36*
X192500D02*
X191325Y18384D01*
X190231Y17931D01*
X189291Y17209D01*
X188569Y16269D01*
X188116Y15175D01*
X187961Y14000D01*
Y11000D01*
X188116Y9825D01*
X188569Y8731D01*
X189291Y7791D01*
X190231Y7069D01*
X191325Y6616D01*
X192500Y6461D01*
X193675Y6616D01*
X194769Y7069D01*
X195709Y7791D01*
X196431Y8731D01*
X196884Y9825D01*
X197039Y11000D01*
Y14000D01*
X196884Y15175D01*
X196431Y16269D01*
X195709Y17209D01*
X194769Y17931D01*
X193675Y18384D01*
X192500Y18539D01*
D02*
G37*
G36*
X202500D02*
X201325Y18384D01*
X200231Y17931D01*
X199291Y17209D01*
X198569Y16269D01*
X198116Y15175D01*
X197961Y14000D01*
Y11000D01*
X198116Y9825D01*
X198569Y8731D01*
X199291Y7791D01*
X200231Y7069D01*
X201325Y6616D01*
X202500Y6461D01*
X203675Y6616D01*
X204769Y7069D01*
X205709Y7791D01*
X206431Y8731D01*
X206884Y9825D01*
X207039Y11000D01*
Y14000D01*
X206884Y15175D01*
X206431Y16269D01*
X205709Y17209D01*
X204769Y17931D01*
X203675Y18384D01*
X202500Y18539D01*
D02*
G37*
G36*
X278362Y36984D02*
X271638D01*
Y35269D01*
X246240D01*
X245655Y35153D01*
X245159Y34822D01*
X241419Y31081D01*
X241087Y30585D01*
X240971Y30000D01*
Y18237D01*
X240231Y17931D01*
X239291Y17209D01*
X238569Y16269D01*
X238116Y15175D01*
X237961Y14000D01*
Y11000D01*
X238116Y9825D01*
X238569Y8731D01*
X239291Y7791D01*
X240231Y7069D01*
X241325Y6616D01*
X242500Y6461D01*
X243675Y6616D01*
X244769Y7069D01*
X245709Y7791D01*
X246431Y8731D01*
X246884Y9825D01*
X247039Y11000D01*
Y14000D01*
X246884Y15175D01*
X246431Y16269D01*
X245709Y17209D01*
X244769Y17931D01*
X244029Y18237D01*
Y29366D01*
X246874Y32211D01*
X271638D01*
Y30496D01*
X278362D01*
Y36984D01*
D02*
G37*
G36*
X202500Y78539D02*
X201325Y78384D01*
X200231Y77931D01*
X199291Y77209D01*
X198569Y76269D01*
X198116Y75175D01*
X197961Y74000D01*
Y71000D01*
X198116Y69825D01*
X198569Y68731D01*
X199291Y67791D01*
X200231Y67069D01*
X201325Y66616D01*
X202500Y66461D01*
X203675Y66616D01*
X204769Y67069D01*
X205709Y67791D01*
X206431Y68731D01*
X206884Y69825D01*
X207039Y71000D01*
Y74000D01*
X206884Y75175D01*
X206431Y76269D01*
X205709Y77209D01*
X204769Y77931D01*
X203675Y78384D01*
X202500Y78539D01*
D02*
G37*
G36*
X212500D02*
X211325Y78384D01*
X210231Y77931D01*
X209291Y77209D01*
X208569Y76269D01*
X208116Y75175D01*
X207961Y74000D01*
Y71000D01*
X208116Y69825D01*
X208569Y68731D01*
X209291Y67791D01*
X210231Y67069D01*
X211325Y66616D01*
X212500Y66461D01*
X213675Y66616D01*
X214769Y67069D01*
X215709Y67791D01*
X216431Y68731D01*
X216884Y69825D01*
X217039Y71000D01*
Y74000D01*
X216884Y75175D01*
X216431Y76269D01*
X215709Y77209D01*
X214769Y77931D01*
X213675Y78384D01*
X212500Y78539D01*
D02*
G37*
G36*
X222500D02*
X221325Y78384D01*
X220231Y77931D01*
X219291Y77209D01*
X218569Y76269D01*
X218116Y75175D01*
X217961Y74000D01*
Y71000D01*
X218116Y69825D01*
X218569Y68731D01*
X219291Y67791D01*
X220231Y67069D01*
X221325Y66616D01*
X222500Y66461D01*
X223675Y66616D01*
X224769Y67069D01*
X225709Y67791D01*
X226431Y68731D01*
X226884Y69825D01*
X227039Y71000D01*
Y74000D01*
X226884Y75175D01*
X226431Y76269D01*
X225709Y77209D01*
X224769Y77931D01*
X223675Y78384D01*
X222500Y78539D01*
D02*
G37*
G36*
X192500D02*
X191325Y78384D01*
X190231Y77931D01*
X189291Y77209D01*
X188569Y76269D01*
X188116Y75175D01*
X187961Y74000D01*
Y71000D01*
X188116Y69825D01*
X188569Y68731D01*
X189291Y67791D01*
X190231Y67069D01*
X191325Y66616D01*
X192500Y66461D01*
X193675Y66616D01*
X194769Y67069D01*
X195709Y67791D01*
X196431Y68731D01*
X196884Y69825D01*
X197039Y71000D01*
Y74000D01*
X196884Y75175D01*
X196431Y76269D01*
X195709Y77209D01*
X194769Y77931D01*
X193675Y78384D01*
X192500Y78539D01*
D02*
G37*
G36*
X132500D02*
X131325Y78384D01*
X130231Y77931D01*
X129291Y77209D01*
X128569Y76269D01*
X128116Y75175D01*
X127961Y74000D01*
Y71000D01*
X128116Y69825D01*
X128569Y68731D01*
X129291Y67791D01*
X130231Y67069D01*
X131325Y66616D01*
X132500Y66461D01*
X133675Y66616D01*
X134769Y67069D01*
X135709Y67791D01*
X136431Y68731D01*
X136884Y69825D01*
X137039Y71000D01*
Y74000D01*
X136884Y75175D01*
X136431Y76269D01*
X135709Y77209D01*
X134769Y77931D01*
X133675Y78384D01*
X132500Y78539D01*
D02*
G37*
G36*
X142500D02*
X141325Y78384D01*
X140231Y77931D01*
X139291Y77209D01*
X138569Y76269D01*
X138116Y75175D01*
X137961Y74000D01*
Y71000D01*
X138116Y69825D01*
X138569Y68731D01*
X139291Y67791D01*
X140231Y67069D01*
X141325Y66616D01*
X142500Y66461D01*
X143675Y66616D01*
X144769Y67069D01*
X145709Y67791D01*
X146431Y68731D01*
X146884Y69825D01*
X147039Y71000D01*
Y74000D01*
X146884Y75175D01*
X146431Y76269D01*
X145709Y77209D01*
X144769Y77931D01*
X143675Y78384D01*
X142500Y78539D01*
D02*
G37*
G36*
X182500D02*
X181325Y78384D01*
X180231Y77931D01*
X179291Y77209D01*
X178569Y76269D01*
X178116Y75175D01*
X177961Y74000D01*
Y71000D01*
X178116Y69825D01*
X178569Y68731D01*
X179291Y67791D01*
X180231Y67069D01*
X181325Y66616D01*
X182500Y66461D01*
X183675Y66616D01*
X184769Y67069D01*
X185709Y67791D01*
X186431Y68731D01*
X186884Y69825D01*
X187039Y71000D01*
Y74000D01*
X186884Y75175D01*
X186431Y76269D01*
X185709Y77209D01*
X184769Y77931D01*
X183675Y78384D01*
X182500Y78539D01*
D02*
G37*
G36*
X232500D02*
X231325Y78384D01*
X230231Y77931D01*
X229291Y77209D01*
X228569Y76269D01*
X228116Y75175D01*
X227961Y74000D01*
Y71000D01*
X228116Y69825D01*
X228569Y68731D01*
X229291Y67791D01*
X230231Y67069D01*
X231325Y66616D01*
X232500Y66461D01*
X233675Y66616D01*
X234769Y67069D01*
X235709Y67791D01*
X236431Y68731D01*
X236884Y69825D01*
X237039Y71000D01*
Y74000D01*
X236884Y75175D01*
X236431Y76269D01*
X235709Y77209D01*
X234769Y77931D01*
X233675Y78384D01*
X232500Y78539D01*
D02*
G37*
G36*
X82000Y72000D02*
X77961D01*
Y71000D01*
X78116Y69825D01*
X78569Y68731D01*
X79291Y67791D01*
X80231Y67069D01*
X81325Y66616D01*
X82000Y66527D01*
Y72000D01*
D02*
G37*
G36*
X87039D02*
X83000D01*
Y66527D01*
X83675Y66616D01*
X84769Y67069D01*
X85709Y67791D01*
X86431Y68731D01*
X86884Y69825D01*
X87039Y71000D01*
Y72000D01*
D02*
G37*
G36*
X72000Y78473D02*
X71325Y78384D01*
X70231Y77931D01*
X69291Y77209D01*
X68569Y76269D01*
X68116Y75175D01*
X67961Y74000D01*
Y73000D01*
X72000D01*
Y78473D01*
D02*
G37*
G36*
X77039Y72000D02*
X73000D01*
Y66527D01*
X73675Y66616D01*
X74769Y67069D01*
X75709Y67791D01*
X76431Y68731D01*
X76884Y69825D01*
X77039Y71000D01*
Y72000D01*
D02*
G37*
G36*
X242500Y78539D02*
X241325Y78384D01*
X240231Y77931D01*
X239291Y77209D01*
X238569Y76269D01*
X238116Y75175D01*
X237961Y74000D01*
Y71000D01*
X238116Y69825D01*
X238569Y68731D01*
X239291Y67791D01*
X240231Y67069D01*
X241325Y66616D01*
X242500Y66461D01*
X243675Y66616D01*
X244769Y67069D01*
X245709Y67791D01*
X246431Y68731D01*
X246884Y69825D01*
X247039Y71000D01*
Y74000D01*
X246884Y75175D01*
X246431Y76269D01*
X245709Y77209D01*
X244769Y77931D01*
X243675Y78384D01*
X242500Y78539D01*
D02*
G37*
G36*
X252500D02*
X251325Y78384D01*
X250231Y77931D01*
X249291Y77209D01*
X248569Y76269D01*
X248116Y75175D01*
X247961Y74000D01*
Y71000D01*
X248116Y69825D01*
X248569Y68731D01*
X249291Y67791D01*
X250231Y67069D01*
X251325Y66616D01*
X252500Y66461D01*
X253675Y66616D01*
X254769Y67069D01*
X255709Y67791D01*
X256431Y68731D01*
X256884Y69825D01*
X257039Y71000D01*
Y74000D01*
X256884Y75175D01*
X256431Y76269D01*
X255709Y77209D01*
X254769Y77931D01*
X253675Y78384D01*
X252500Y78539D01*
D02*
G37*
G36*
X72000Y72000D02*
X67961D01*
Y71000D01*
X68116Y69825D01*
X68569Y68731D01*
X69291Y67791D01*
X70231Y67069D01*
X71325Y66616D01*
X72000Y66527D01*
Y72000D01*
D02*
G37*
G36*
X122500Y78539D02*
X121325Y78384D01*
X120231Y77931D01*
X119291Y77209D01*
X118569Y76269D01*
X118116Y75175D01*
X117961Y74000D01*
Y71000D01*
X118116Y69825D01*
X118569Y68731D01*
X119291Y67791D01*
X120231Y67069D01*
X121325Y66616D01*
X122500Y66461D01*
X123675Y66616D01*
X124769Y67069D01*
X125709Y67791D01*
X126431Y68731D01*
X126884Y69825D01*
X127039Y71000D01*
Y74000D01*
X126884Y75175D01*
X126431Y76269D01*
X125709Y77209D01*
X124769Y77931D01*
X123675Y78384D01*
X122500Y78539D01*
D02*
G37*
G36*
X274697Y58358D02*
X271835D01*
Y55614D01*
X274697D01*
Y58358D01*
D02*
G37*
G36*
X278559D02*
X275697D01*
Y55614D01*
X278559D01*
Y58358D01*
D02*
G37*
G36*
X288008Y62102D02*
X281283D01*
Y55614D01*
X288008D01*
Y57329D01*
X293455D01*
X293493Y57272D01*
X294220Y56786D01*
X295079Y56615D01*
X295937Y56786D01*
X296665Y57272D01*
X297151Y58000D01*
X297322Y58858D01*
X297151Y59717D01*
X296665Y60444D01*
X295937Y60931D01*
X295079Y61101D01*
X294220Y60931D01*
X293493Y60444D01*
X293455Y60388D01*
X288008D01*
Y62102D01*
D02*
G37*
G36*
X346957Y50207D02*
Y39870D01*
X357293D01*
X357199Y41072D01*
X356800Y42731D01*
X356147Y44308D01*
X355256Y45763D01*
X354147Y47061D01*
X352850Y48169D01*
X351394Y49061D01*
X349818Y49714D01*
X348158Y50112D01*
X346957Y50207D01*
D02*
G37*
G36*
X38870D02*
X37669Y50112D01*
X36009Y49714D01*
X34433Y49061D01*
X32977Y48169D01*
X31680Y47061D01*
X30571Y45763D01*
X29680Y44308D01*
X29026Y42731D01*
X28628Y41072D01*
X28533Y39870D01*
X38870D01*
Y50207D01*
D02*
G37*
G36*
X39870D02*
Y39870D01*
X50207D01*
X50112Y41072D01*
X49714Y42731D01*
X49061Y44308D01*
X48169Y45763D01*
X47061Y47061D01*
X45763Y48169D01*
X44308Y49061D01*
X42731Y49714D01*
X41072Y50112D01*
X39870Y50207D01*
D02*
G37*
G36*
X345957D02*
X344755Y50112D01*
X343096Y49714D01*
X341519Y49061D01*
X340064Y48169D01*
X338766Y47061D01*
X337658Y45763D01*
X336766Y44308D01*
X336113Y42731D01*
X335715Y41072D01*
X335620Y39870D01*
X345957D01*
Y50207D01*
D02*
G37*
G36*
X332177Y64461D02*
X328095D01*
Y63779D01*
X328251Y62594D01*
X328709Y61488D01*
X329437Y60539D01*
X330386Y59811D01*
X331491Y59353D01*
X332177Y59263D01*
Y64461D01*
D02*
G37*
G36*
X92500Y78539D02*
X91325Y78384D01*
X90231Y77931D01*
X89291Y77209D01*
X88569Y76269D01*
X88116Y75175D01*
X87961Y74000D01*
Y71000D01*
X88116Y69825D01*
X88569Y68731D01*
X89291Y67791D01*
X90231Y67069D01*
X91325Y66616D01*
X92500Y66461D01*
X93675Y66616D01*
X94769Y67069D01*
X95709Y67791D01*
X96431Y68731D01*
X96884Y69825D01*
X97039Y71000D01*
Y74000D01*
X96884Y75175D01*
X96431Y76269D01*
X95709Y77209D01*
X94769Y77931D01*
X93675Y78384D01*
X92500Y78539D01*
D02*
G37*
G36*
X102500D02*
X101325Y78384D01*
X100231Y77931D01*
X99291Y77209D01*
X98569Y76269D01*
X98116Y75175D01*
X97961Y74000D01*
Y71000D01*
X98116Y69825D01*
X98569Y68731D01*
X99291Y67791D01*
X100231Y67069D01*
X101325Y66616D01*
X102500Y66461D01*
X103675Y66616D01*
X104769Y67069D01*
X105709Y67791D01*
X106431Y68731D01*
X106884Y69825D01*
X107039Y71000D01*
Y74000D01*
X106884Y75175D01*
X106431Y76269D01*
X105709Y77209D01*
X104769Y77931D01*
X103675Y78384D01*
X102500Y78539D01*
D02*
G37*
G36*
X112500D02*
X111325Y78384D01*
X110231Y77931D01*
X109291Y77209D01*
X108569Y76269D01*
X108116Y75175D01*
X107961Y74000D01*
Y71000D01*
X108116Y69825D01*
X108569Y68731D01*
X109291Y67791D01*
X110231Y67069D01*
X111325Y66616D01*
X112500Y66461D01*
X113675Y66616D01*
X114769Y67069D01*
X115709Y67791D01*
X116431Y68731D01*
X116884Y69825D01*
X117039Y71000D01*
Y74000D01*
X116884Y75175D01*
X116431Y76269D01*
X115709Y77209D01*
X114769Y77931D01*
X113675Y78384D01*
X112500Y78539D01*
D02*
G37*
G36*
X262500D02*
X261325Y78384D01*
X260231Y77931D01*
X259291Y77209D01*
X258569Y76269D01*
X258116Y75175D01*
X257961Y74000D01*
Y71000D01*
X258116Y69825D01*
X258569Y68731D01*
X259291Y67791D01*
X260231Y67069D01*
X261325Y66616D01*
X262500Y66461D01*
X263675Y66616D01*
X264769Y67069D01*
X265334Y67503D01*
X267580Y65257D01*
X268076Y64926D01*
X268661Y64809D01*
X271835D01*
Y63095D01*
X278559D01*
Y64809D01*
X281283D01*
Y63095D01*
X288008D01*
Y69583D01*
X281283D01*
Y67868D01*
X278559D01*
Y69583D01*
X271835D01*
Y67868D01*
X269295D01*
X266937Y70226D01*
X267039Y71000D01*
Y74000D01*
X266884Y75175D01*
X266431Y76269D01*
X265709Y77209D01*
X264769Y77931D01*
X263675Y78384D01*
X262500Y78539D01*
D02*
G37*
G36*
X337260Y64461D02*
X333177D01*
Y59263D01*
X333863Y59353D01*
X334968Y59811D01*
X335917Y60539D01*
X336646Y61488D01*
X337104Y62594D01*
X337260Y63779D01*
Y64461D01*
D02*
G37*
G36*
X274697Y62102D02*
X271835D01*
Y59358D01*
X274697D01*
Y62102D01*
D02*
G37*
G36*
X278559D02*
X275697D01*
Y59358D01*
X278559D01*
Y62102D01*
D02*
G37*
G36*
X247500Y310037D02*
X246391Y309891D01*
X245357Y309462D01*
X244469Y308781D01*
X243788Y307893D01*
X243359Y306859D01*
X243213Y305750D01*
Y304250D01*
X243359Y303140D01*
X243788Y302107D01*
X244469Y301219D01*
X245357Y300538D01*
X245971Y300283D01*
Y300000D01*
X246087Y299415D01*
X246419Y298919D01*
X248919Y296419D01*
X249415Y296087D01*
X250000Y295971D01*
X251867D01*
X253416Y294421D01*
X253370Y294060D01*
X252877Y293899D01*
X252143Y294462D01*
X251110Y294891D01*
X250000Y295037D01*
X248890Y294891D01*
X247857Y294462D01*
X246969Y293781D01*
X246288Y292893D01*
X245859Y291860D01*
X245713Y290750D01*
Y289250D01*
X245859Y288141D01*
X246288Y287107D01*
X246969Y286219D01*
X247857Y285538D01*
X248471Y285283D01*
Y264124D01*
X248414Y264086D01*
X247928Y263358D01*
X247757Y262500D01*
X247928Y261642D01*
X248414Y260914D01*
X249142Y260428D01*
X250000Y260257D01*
X250858Y260428D01*
X251586Y260914D01*
X252072Y261642D01*
X252243Y262500D01*
X252072Y263358D01*
X251586Y264086D01*
X251529Y264124D01*
Y285283D01*
X252143Y285538D01*
X252971Y286172D01*
X253471Y286056D01*
Y235000D01*
X251529D01*
Y255876D01*
X251586Y255914D01*
X252072Y256642D01*
X252243Y257500D01*
X252072Y258358D01*
X251586Y259086D01*
X250858Y259572D01*
X250000Y259743D01*
X249142Y259572D01*
X248414Y259086D01*
X247928Y258358D01*
X247757Y257500D01*
X247928Y256642D01*
X248414Y255914D01*
X248471Y255876D01*
Y235000D01*
X245750D01*
Y225000D01*
X253471D01*
Y218944D01*
X252971Y218828D01*
X252143Y219462D01*
X251110Y219891D01*
X250000Y220037D01*
X248890Y219891D01*
X247857Y219462D01*
X246969Y218781D01*
X246288Y217893D01*
X245859Y216860D01*
X245713Y215750D01*
Y214250D01*
X245859Y213141D01*
X246288Y212107D01*
X246969Y211219D01*
X247857Y210538D01*
X248471Y210283D01*
Y189124D01*
X248414Y189086D01*
X247928Y188358D01*
X247757Y187500D01*
X247928Y186642D01*
X248414Y185914D01*
X249142Y185428D01*
X250000Y185257D01*
X250858Y185428D01*
X251586Y185914D01*
X252072Y186642D01*
X252243Y187500D01*
X252072Y188358D01*
X251586Y189086D01*
X251529Y189124D01*
Y210283D01*
X252143Y210538D01*
X252971Y211172D01*
X253471Y211056D01*
Y160000D01*
X251529D01*
Y180876D01*
X251586Y180914D01*
X252072Y181642D01*
X252243Y182500D01*
X252072Y183358D01*
X251586Y184086D01*
X250858Y184572D01*
X250000Y184743D01*
X249142Y184572D01*
X248414Y184086D01*
X247928Y183358D01*
X247757Y182500D01*
X247928Y181642D01*
X248414Y180914D01*
X248471Y180876D01*
Y160000D01*
X245750D01*
Y150000D01*
X253471D01*
Y143133D01*
X248919Y138581D01*
X248587Y138085D01*
X248471Y137500D01*
Y129155D01*
X248235Y129057D01*
X247504Y128496D01*
X246943Y127765D01*
X246590Y126914D01*
X246470Y126000D01*
Y124000D01*
X246590Y123086D01*
X246943Y122235D01*
X247504Y121504D01*
X248235Y120943D01*
X249086Y120590D01*
X250000Y120470D01*
X250914Y120590D01*
X251765Y120943D01*
X252496Y121504D01*
X253057Y122235D01*
X253410Y123086D01*
X253530Y124000D01*
Y126000D01*
X253410Y126914D01*
X253057Y127765D01*
X252496Y128496D01*
X251765Y129057D01*
X251529Y129155D01*
Y136866D01*
X256081Y141419D01*
X256413Y141915D01*
X256529Y142500D01*
Y151056D01*
X257029Y151172D01*
X257857Y150538D01*
X258891Y150109D01*
X260000Y149963D01*
X261109Y150109D01*
X262143Y150538D01*
X262971Y151172D01*
X263471Y151056D01*
Y143133D01*
X258919Y138581D01*
X258587Y138085D01*
X258471Y137500D01*
Y129155D01*
X258235Y129057D01*
X257504Y128496D01*
X256943Y127765D01*
X256590Y126914D01*
X256470Y126000D01*
Y124000D01*
X256590Y123086D01*
X256943Y122235D01*
X257504Y121504D01*
X258235Y120943D01*
X259086Y120590D01*
X260000Y120470D01*
X260914Y120590D01*
X261765Y120943D01*
X262496Y121504D01*
X263057Y122235D01*
X263410Y123086D01*
X263530Y124000D01*
Y126000D01*
X263410Y126914D01*
X263057Y127765D01*
X262496Y128496D01*
X261765Y129057D01*
X261529Y129155D01*
Y136866D01*
X266081Y141419D01*
X266413Y141915D01*
X266529Y142500D01*
Y151056D01*
X267029Y151172D01*
X267857Y150538D01*
X268891Y150109D01*
X270000Y149963D01*
X271110Y150109D01*
X272143Y150538D01*
X273031Y151219D01*
X273712Y152107D01*
X274141Y153140D01*
X274287Y154250D01*
Y155750D01*
X274141Y156860D01*
X273712Y157893D01*
X273031Y158781D01*
X272143Y159462D01*
X271110Y159891D01*
X270000Y160037D01*
X268891Y159891D01*
X267857Y159462D01*
X267029Y158828D01*
X266529Y158944D01*
Y211056D01*
X267029Y211172D01*
X267857Y210538D01*
X268891Y210109D01*
X270000Y209963D01*
X271110Y210109D01*
X272143Y210538D01*
X273031Y211219D01*
X273712Y212107D01*
X274141Y213141D01*
X274287Y214250D01*
Y215750D01*
X274141Y216860D01*
X273712Y217893D01*
X273031Y218781D01*
X272143Y219462D01*
X271110Y219891D01*
X270000Y220037D01*
X268891Y219891D01*
X267857Y219462D01*
X267029Y218828D01*
X266529Y218944D01*
Y224366D01*
X267768Y225605D01*
X267857Y225538D01*
X268891Y225109D01*
X270000Y224963D01*
X271110Y225109D01*
X272143Y225538D01*
X273031Y226219D01*
X273712Y227107D01*
X274141Y228140D01*
X274287Y229250D01*
Y230750D01*
X274141Y231859D01*
X273712Y232893D01*
X273031Y233781D01*
X272143Y234462D01*
X271110Y234891D01*
X270000Y235037D01*
X268891Y234891D01*
X267857Y234462D01*
X266969Y233781D01*
X266288Y232893D01*
X265859Y231859D01*
X265713Y230750D01*
Y229250D01*
X265859Y228140D01*
X265894Y228057D01*
X263919Y226081D01*
X263587Y225585D01*
X263471Y225000D01*
Y218944D01*
X262971Y218828D01*
X262143Y219462D01*
X261109Y219891D01*
X260000Y220037D01*
X258891Y219891D01*
X257857Y219462D01*
X257029Y218828D01*
X256529Y218944D01*
Y226056D01*
X257029Y226172D01*
X257857Y225538D01*
X258891Y225109D01*
X260000Y224963D01*
X261109Y225109D01*
X262143Y225538D01*
X263031Y226219D01*
X263712Y227107D01*
X264141Y228140D01*
X264287Y229250D01*
Y230750D01*
X264141Y231859D01*
X263712Y232893D01*
X263031Y233781D01*
X262143Y234462D01*
X261529Y234717D01*
Y250876D01*
X261586Y250914D01*
X262072Y251642D01*
X262243Y252500D01*
X262072Y253358D01*
X261586Y254086D01*
X260858Y254572D01*
X260000Y254743D01*
X259142Y254572D01*
X258414Y254086D01*
X257928Y253358D01*
X257757Y252500D01*
X257928Y251642D01*
X258414Y250914D01*
X258471Y250876D01*
Y234717D01*
X257857Y234462D01*
X257029Y233828D01*
X256529Y233944D01*
Y286056D01*
X257029Y286172D01*
X257857Y285538D01*
X258471Y285283D01*
Y269124D01*
X258414Y269086D01*
X257928Y268358D01*
X257757Y267500D01*
X257928Y266642D01*
X258414Y265914D01*
X259142Y265428D01*
X260000Y265257D01*
X260858Y265428D01*
X261586Y265914D01*
X262072Y266642D01*
X262243Y267500D01*
X262072Y268358D01*
X261586Y269086D01*
X261529Y269124D01*
Y285283D01*
X262143Y285538D01*
X263031Y286219D01*
X263712Y287107D01*
X264141Y288141D01*
X264287Y289250D01*
Y290750D01*
X264141Y291860D01*
X263712Y292893D01*
X263031Y293781D01*
X262143Y294462D01*
X261109Y294891D01*
X260000Y295037D01*
X258891Y294891D01*
X257857Y294462D01*
X257029Y293828D01*
X256529Y293944D01*
Y295000D01*
X256413Y295585D01*
X256081Y296081D01*
X253581Y298581D01*
X253085Y298913D01*
X252500Y299029D01*
X250634D01*
X249612Y300051D01*
X249750Y300620D01*
X250531Y301219D01*
X251212Y302107D01*
X251641Y303140D01*
X251787Y304250D01*
Y305750D01*
X251641Y306859D01*
X251212Y307893D01*
X250531Y308781D01*
X249643Y309462D01*
X248609Y309891D01*
X247500Y310037D01*
D02*
G37*
G36*
X140000D02*
X138891Y309891D01*
X137857Y309462D01*
X136969Y308781D01*
X136288Y307893D01*
X135859Y306859D01*
X135713Y305750D01*
Y304250D01*
X135859Y303140D01*
X136288Y302107D01*
X136969Y301219D01*
X137857Y300538D01*
X138471Y300283D01*
Y300000D01*
X138587Y299415D01*
X138919Y298919D01*
X138581Y298581D01*
X138085Y298913D01*
X137500Y299029D01*
X90633D01*
X89612Y300051D01*
X89750Y300620D01*
X90531Y301219D01*
X91212Y302107D01*
X91641Y303140D01*
X91787Y304250D01*
Y305750D01*
X91641Y306859D01*
X91212Y307893D01*
X90531Y308781D01*
X89643Y309462D01*
X88609Y309891D01*
X87500Y310037D01*
X86391Y309891D01*
X85357Y309462D01*
X84469Y308781D01*
X83788Y307893D01*
X83359Y306859D01*
X83213Y305750D01*
Y304250D01*
X83359Y303140D01*
X83788Y302107D01*
X84469Y301219D01*
X85357Y300538D01*
X85971Y300283D01*
Y300000D01*
X86087Y299415D01*
X86419Y298919D01*
X88919Y296419D01*
X89415Y296087D01*
X90000Y295971D01*
X136866D01*
X138471Y294367D01*
Y221846D01*
X138009Y221654D01*
X136081Y223581D01*
X135585Y223913D01*
X135000Y224029D01*
X115633D01*
X114612Y225051D01*
X114750Y225620D01*
X115531Y226219D01*
X116212Y227107D01*
X116641Y228140D01*
X116787Y229250D01*
Y230750D01*
X116641Y231859D01*
X116212Y232893D01*
X115531Y233781D01*
X114643Y234462D01*
X113610Y234891D01*
X112500Y235037D01*
X111390Y234891D01*
X110357Y234462D01*
X109469Y233781D01*
X108788Y232893D01*
X108359Y231859D01*
X108213Y230750D01*
Y229250D01*
X108359Y228140D01*
X108788Y227107D01*
X109469Y226219D01*
X110357Y225538D01*
X110971Y225283D01*
Y225000D01*
X111087Y224415D01*
X111419Y223919D01*
X113919Y221419D01*
X114415Y221087D01*
X115000Y220971D01*
X134367D01*
X135916Y219421D01*
X135870Y219060D01*
X135377Y218899D01*
X134643Y219462D01*
X133609Y219891D01*
X132500Y220037D01*
X131391Y219891D01*
X130357Y219462D01*
X129469Y218781D01*
X128788Y217893D01*
X128359Y216860D01*
X128213Y215750D01*
Y214250D01*
X128359Y213141D01*
X128788Y212107D01*
X129469Y211219D01*
X130357Y210538D01*
X130971Y210283D01*
Y198134D01*
X116419Y183581D01*
X116087Y183085D01*
X115971Y182500D01*
Y158944D01*
X115471Y158828D01*
X114643Y159462D01*
X113610Y159891D01*
X112500Y160037D01*
X111390Y159891D01*
X110357Y159462D01*
X109529Y158828D01*
X109029Y158944D01*
Y187500D01*
X108913Y188085D01*
X108581Y188581D01*
X104730Y192433D01*
X104743Y192500D01*
X104572Y193358D01*
X104086Y194086D01*
X104029Y194124D01*
Y210283D01*
X104643Y210538D01*
X105531Y211219D01*
X106212Y212107D01*
X106641Y213141D01*
X106787Y214250D01*
Y215750D01*
X106641Y216860D01*
X106212Y217893D01*
X105531Y218781D01*
X104643Y219462D01*
X103610Y219891D01*
X102500Y220037D01*
X101391Y219891D01*
X100357Y219462D01*
X99469Y218781D01*
X98788Y217893D01*
X98359Y216860D01*
X98213Y215750D01*
Y214250D01*
X98359Y213141D01*
X98788Y212107D01*
X99469Y211219D01*
X100357Y210538D01*
X100971Y210283D01*
Y194124D01*
X100914Y194086D01*
X100428Y193358D01*
X100257Y192500D01*
X100428Y191642D01*
X100914Y190914D01*
X101642Y190428D01*
X102500Y190257D01*
X102567Y190270D01*
X105971Y186866D01*
Y158944D01*
X105471Y158828D01*
X104643Y159462D01*
X104029Y159717D01*
Y175876D01*
X104086Y175914D01*
X104572Y176642D01*
X104743Y177500D01*
X104572Y178358D01*
X104086Y179086D01*
X103358Y179572D01*
X102500Y179743D01*
X101642Y179572D01*
X100914Y179086D01*
X100428Y178358D01*
X100257Y177500D01*
X100428Y176642D01*
X100914Y175914D01*
X100971Y175876D01*
Y159717D01*
X100357Y159462D01*
X99529Y158828D01*
X99029Y158944D01*
Y182500D01*
X98913Y183085D01*
X98581Y183581D01*
X94730Y187433D01*
X94743Y187500D01*
X94572Y188358D01*
X94086Y189086D01*
X94029Y189124D01*
Y210283D01*
X94643Y210538D01*
X95531Y211219D01*
X96212Y212107D01*
X96641Y213141D01*
X96787Y214250D01*
Y215750D01*
X96641Y216860D01*
X96212Y217893D01*
X95531Y218781D01*
X94643Y219462D01*
X93609Y219891D01*
X92500Y220037D01*
X91391Y219891D01*
X90357Y219462D01*
X89469Y218781D01*
X88788Y217893D01*
X88359Y216860D01*
X88213Y215750D01*
Y214250D01*
X88359Y213141D01*
X88788Y212107D01*
X89469Y211219D01*
X90357Y210538D01*
X90971Y210283D01*
Y189124D01*
X90914Y189086D01*
X90428Y188358D01*
X90257Y187500D01*
X90428Y186642D01*
X90914Y185914D01*
X91642Y185428D01*
X92161Y185324D01*
X92223Y185198D01*
X91943Y184632D01*
X91642Y184572D01*
X90914Y184086D01*
X90428Y183358D01*
X90257Y182500D01*
X90428Y181642D01*
X90914Y180914D01*
X90971Y180876D01*
Y160000D01*
X88250D01*
Y150000D01*
X95971D01*
Y148134D01*
X93919Y146081D01*
X93587Y145585D01*
X93471Y145000D01*
Y144484D01*
X91638D01*
Y137996D01*
X98362D01*
Y144484D01*
X97300D01*
X97109Y144946D01*
X98581Y146419D01*
X98913Y146915D01*
X99029Y147500D01*
Y151056D01*
X99529Y151172D01*
X100357Y150538D01*
X101391Y150109D01*
X102500Y149963D01*
X103610Y150109D01*
X104643Y150538D01*
X105471Y151172D01*
X105971Y151056D01*
Y148134D01*
X103919Y146081D01*
X103587Y145585D01*
X103471Y145000D01*
Y144484D01*
X101638D01*
Y137996D01*
X108362D01*
Y144484D01*
X107300D01*
X107109Y144946D01*
X108581Y146419D01*
X108913Y146915D01*
X109029Y147500D01*
Y151056D01*
X109529Y151172D01*
X110357Y150538D01*
X111390Y150109D01*
X112500Y149963D01*
X113610Y150109D01*
X114643Y150538D01*
X115471Y151172D01*
X115971Y151056D01*
Y148134D01*
X113919Y146081D01*
X113587Y145585D01*
X113471Y145000D01*
Y144484D01*
X111638D01*
Y137996D01*
X118362D01*
Y144484D01*
X117300D01*
X117109Y144946D01*
X118581Y146419D01*
X118913Y146915D01*
X119029Y147500D01*
Y151056D01*
X119529Y151172D01*
X120357Y150538D01*
X121390Y150109D01*
X122500Y149963D01*
X123609Y150109D01*
X124643Y150538D01*
X125531Y151219D01*
X126212Y152107D01*
X126641Y153140D01*
X126787Y154250D01*
Y155750D01*
X126641Y156860D01*
X126212Y157893D01*
X125531Y158781D01*
X124643Y159462D01*
X124029Y159717D01*
Y170876D01*
X124086Y170914D01*
X124572Y171642D01*
X124743Y172500D01*
X124572Y173358D01*
X124086Y174086D01*
X123358Y174572D01*
X122500Y174743D01*
X121642Y174572D01*
X120914Y174086D01*
X120428Y173358D01*
X120257Y172500D01*
X120428Y171642D01*
X120914Y170914D01*
X120971Y170876D01*
Y159717D01*
X120357Y159462D01*
X119529Y158828D01*
X119029Y158944D01*
Y181867D01*
X133581Y196419D01*
X133913Y196915D01*
X134029Y197500D01*
Y210283D01*
X134643Y210538D01*
X135471Y211172D01*
X135971Y211056D01*
Y158944D01*
X135471Y158828D01*
X134643Y159462D01*
X133609Y159891D01*
X132500Y160037D01*
X131391Y159891D01*
X130357Y159462D01*
X129469Y158781D01*
X128788Y157893D01*
X128359Y156860D01*
X128213Y155750D01*
Y154250D01*
X128359Y153140D01*
X128788Y152107D01*
X129469Y151219D01*
X130357Y150538D01*
X131391Y150109D01*
X132500Y149963D01*
X133609Y150109D01*
X134643Y150538D01*
X135471Y151172D01*
X135971Y151056D01*
Y140000D01*
X136087Y139415D01*
X136419Y138919D01*
X138919Y136419D01*
X139415Y136087D01*
X140000Y135971D01*
X154367D01*
X155971Y134367D01*
Y129155D01*
X155735Y129057D01*
X155004Y128496D01*
X154443Y127765D01*
X154090Y126914D01*
X153970Y126000D01*
Y124000D01*
X154090Y123086D01*
X154443Y122235D01*
X155004Y121504D01*
X155735Y120943D01*
X156586Y120590D01*
X157500Y120470D01*
X158414Y120590D01*
X159265Y120943D01*
X159996Y121504D01*
X160557Y122235D01*
X160910Y123086D01*
X161030Y124000D01*
Y126000D01*
X160910Y126914D01*
X160557Y127765D01*
X159996Y128496D01*
X159265Y129057D01*
X159029Y129155D01*
Y135000D01*
X158913Y135585D01*
X158581Y136081D01*
X156654Y138009D01*
X156846Y138471D01*
X164366D01*
X165971Y136866D01*
Y129155D01*
X165735Y129057D01*
X165004Y128496D01*
X164443Y127765D01*
X164090Y126914D01*
X163970Y126000D01*
Y124000D01*
X164090Y123086D01*
X164443Y122235D01*
X165004Y121504D01*
X165735Y120943D01*
X166586Y120590D01*
X167500Y120470D01*
X168414Y120590D01*
X169265Y120943D01*
X169996Y121504D01*
X170557Y122235D01*
X170910Y123086D01*
X171030Y124000D01*
Y126000D01*
X170910Y126914D01*
X170557Y127765D01*
X169996Y128496D01*
X169265Y129057D01*
X169029Y129155D01*
Y137500D01*
X168913Y138085D01*
X168581Y138581D01*
X166654Y140509D01*
X166846Y140971D01*
X174366D01*
X175971Y139366D01*
Y129155D01*
X175735Y129057D01*
X175004Y128496D01*
X174443Y127765D01*
X174090Y126914D01*
X173970Y126000D01*
Y124000D01*
X174090Y123086D01*
X174443Y122235D01*
X175004Y121504D01*
X175735Y120943D01*
X176586Y120590D01*
X177500Y120470D01*
X178414Y120590D01*
X179265Y120943D01*
X179996Y121504D01*
X180557Y122235D01*
X180910Y123086D01*
X181030Y124000D01*
Y126000D01*
X180910Y126914D01*
X180557Y127765D01*
X179996Y128496D01*
X179265Y129057D01*
X179029Y129155D01*
Y140000D01*
X178913Y140585D01*
X178581Y141081D01*
X176654Y143009D01*
X176846Y143471D01*
X184367D01*
X185971Y141867D01*
Y129155D01*
X185735Y129057D01*
X185004Y128496D01*
X184443Y127765D01*
X184090Y126914D01*
X183970Y126000D01*
Y124000D01*
X184090Y123086D01*
X184443Y122235D01*
X185004Y121504D01*
X185735Y120943D01*
X186586Y120590D01*
X187500Y120470D01*
X188414Y120590D01*
X189265Y120943D01*
X189996Y121504D01*
X190557Y122235D01*
X190910Y123086D01*
X191030Y124000D01*
Y126000D01*
X190910Y126914D01*
X190557Y127765D01*
X189996Y128496D01*
X189265Y129057D01*
X189029Y129155D01*
Y142500D01*
X188913Y143085D01*
X188581Y143581D01*
X186081Y146081D01*
X185585Y146413D01*
X185000Y146529D01*
X163134D01*
X161529Y148134D01*
Y151056D01*
X162029Y151172D01*
X162857Y150538D01*
X163891Y150109D01*
X165000Y149963D01*
X166110Y150109D01*
X167143Y150538D01*
X168031Y151219D01*
X168712Y152107D01*
X169141Y153140D01*
X169287Y154250D01*
Y155750D01*
X169141Y156860D01*
X168712Y157893D01*
X168031Y158781D01*
X167143Y159462D01*
X166110Y159891D01*
X165000Y160037D01*
X163891Y159891D01*
X162857Y159462D01*
X162029Y158828D01*
X161529Y158944D01*
Y211056D01*
X162029Y211172D01*
X162857Y210538D01*
X163891Y210109D01*
X165000Y209963D01*
X166110Y210109D01*
X167143Y210538D01*
X168031Y211219D01*
X168712Y212107D01*
X169141Y213141D01*
X169287Y214250D01*
Y215750D01*
X169141Y216860D01*
X168712Y217893D01*
X168031Y218781D01*
X167143Y219462D01*
X166110Y219891D01*
X165000Y220037D01*
X163891Y219891D01*
X162857Y219462D01*
X162029Y218828D01*
X161529Y218944D01*
Y224366D01*
X162768Y225605D01*
X162857Y225538D01*
X163891Y225109D01*
X165000Y224963D01*
X166110Y225109D01*
X167143Y225538D01*
X168031Y226219D01*
X168712Y227107D01*
X169141Y228140D01*
X169287Y229250D01*
Y230750D01*
X169141Y231859D01*
X168712Y232893D01*
X168031Y233781D01*
X167143Y234462D01*
X166110Y234891D01*
X165000Y235037D01*
X163891Y234891D01*
X162857Y234462D01*
X161969Y233781D01*
X161288Y232893D01*
X160859Y231859D01*
X160713Y230750D01*
Y229250D01*
X160859Y228140D01*
X160894Y228057D01*
X158919Y226081D01*
X158587Y225585D01*
X158471Y225000D01*
Y218944D01*
X157971Y218828D01*
X157143Y219462D01*
X156109Y219891D01*
X155000Y220037D01*
X153891Y219891D01*
X152857Y219462D01*
X152029Y218828D01*
X151529Y218944D01*
Y226056D01*
X152029Y226172D01*
X152857Y225538D01*
X153891Y225109D01*
X155000Y224963D01*
X156109Y225109D01*
X157143Y225538D01*
X158031Y226219D01*
X158712Y227107D01*
X159141Y228140D01*
X159287Y229250D01*
Y230750D01*
X159141Y231859D01*
X158712Y232893D01*
X158031Y233781D01*
X157143Y234462D01*
X156529Y234717D01*
Y250876D01*
X156586Y250914D01*
X157072Y251642D01*
X157243Y252500D01*
X157072Y253358D01*
X156586Y254086D01*
X155858Y254572D01*
X155000Y254743D01*
X154142Y254572D01*
X153414Y254086D01*
X152928Y253358D01*
X152757Y252500D01*
X152928Y251642D01*
X153414Y250914D01*
X153471Y250876D01*
Y234717D01*
X152857Y234462D01*
X152029Y233828D01*
X151529Y233944D01*
Y286056D01*
X152029Y286172D01*
X152857Y285538D01*
X153471Y285283D01*
Y269124D01*
X153414Y269086D01*
X152928Y268358D01*
X152757Y267500D01*
X152928Y266642D01*
X153414Y265914D01*
X154142Y265428D01*
X155000Y265257D01*
X155858Y265428D01*
X156586Y265914D01*
X157072Y266642D01*
X157243Y267500D01*
X157072Y268358D01*
X156586Y269086D01*
X156529Y269124D01*
Y285283D01*
X157143Y285538D01*
X158031Y286219D01*
X158712Y287107D01*
X159141Y288141D01*
X159287Y289250D01*
Y290750D01*
X159141Y291860D01*
X158712Y292893D01*
X158031Y293781D01*
X157143Y294462D01*
X156109Y294891D01*
X155000Y295037D01*
X153891Y294891D01*
X152857Y294462D01*
X152029Y293828D01*
X151529Y293944D01*
Y295000D01*
X151413Y295585D01*
X151081Y296081D01*
X148581Y298581D01*
X148085Y298913D01*
X147500Y299029D01*
X143133D01*
X142112Y300051D01*
X142250Y300620D01*
X143031Y301219D01*
X143712Y302107D01*
X144141Y303140D01*
X144287Y304250D01*
Y305750D01*
X144141Y306859D01*
X143712Y307893D01*
X143031Y308781D01*
X142143Y309462D01*
X141110Y309891D01*
X140000Y310037D01*
D02*
G37*
G36*
X77500D02*
X76390Y309891D01*
X75357Y309462D01*
X74469Y308781D01*
X73788Y307893D01*
X73359Y306859D01*
X73213Y305750D01*
Y304250D01*
X73359Y303140D01*
X73788Y302107D01*
X74469Y301219D01*
X75357Y300538D01*
X76390Y300109D01*
X77500Y299963D01*
X78610Y300109D01*
X79643Y300538D01*
X80531Y301219D01*
X81212Y302107D01*
X81641Y303140D01*
X81787Y304250D01*
Y305750D01*
X81641Y306859D01*
X81212Y307893D01*
X80531Y308781D01*
X79643Y309462D01*
X78610Y309891D01*
X77500Y310037D01*
D02*
G37*
G36*
X290000Y295037D02*
X288891Y294891D01*
X287857Y294462D01*
X286969Y293781D01*
X286288Y292893D01*
X285859Y291860D01*
X285713Y290750D01*
Y289250D01*
X285859Y288141D01*
X286288Y287107D01*
X286969Y286219D01*
X287857Y285538D01*
X288891Y285109D01*
X290000Y284963D01*
X291109Y285109D01*
X292143Y285538D01*
X293031Y286219D01*
X293712Y287107D01*
X294141Y288141D01*
X294287Y289250D01*
Y290750D01*
X294141Y291860D01*
X293712Y292893D01*
X293031Y293781D01*
X292143Y294462D01*
X291109Y294891D01*
X290000Y295037D01*
D02*
G37*
G36*
X217500D02*
X216390Y294891D01*
X215357Y294462D01*
X214469Y293781D01*
X213788Y292893D01*
X213359Y291860D01*
X213213Y290750D01*
Y289250D01*
X213359Y288141D01*
X213788Y287107D01*
X214469Y286219D01*
X215357Y285538D01*
X216390Y285109D01*
X217500Y284963D01*
X218609Y285109D01*
X219643Y285538D01*
X220531Y286219D01*
X221212Y287107D01*
X221641Y288141D01*
X221787Y289250D01*
Y290750D01*
X221641Y291860D01*
X221212Y292893D01*
X220531Y293781D01*
X219643Y294462D01*
X218609Y294891D01*
X217500Y295037D01*
D02*
G37*
G36*
X237500D02*
X236390Y294891D01*
X235357Y294462D01*
X234469Y293781D01*
X233788Y292893D01*
X233359Y291860D01*
X233213Y290750D01*
Y289250D01*
X233359Y288141D01*
X233788Y287107D01*
X234469Y286219D01*
X235357Y285538D01*
X236390Y285109D01*
X237500Y284963D01*
X238610Y285109D01*
X239643Y285538D01*
X240531Y286219D01*
X241212Y287107D01*
X241641Y288141D01*
X241787Y289250D01*
Y290750D01*
X241641Y291860D01*
X241212Y292893D01*
X240531Y293781D01*
X239643Y294462D01*
X238610Y294891D01*
X237500Y295037D01*
D02*
G37*
G36*
X270000D02*
X268891Y294891D01*
X267857Y294462D01*
X266969Y293781D01*
X266288Y292893D01*
X265859Y291860D01*
X265713Y290750D01*
Y289250D01*
X265859Y288141D01*
X266288Y287107D01*
X266969Y286219D01*
X267857Y285538D01*
X268891Y285109D01*
X270000Y284963D01*
X271110Y285109D01*
X272143Y285538D01*
X273031Y286219D01*
X273712Y287107D01*
X274141Y288141D01*
X274287Y289250D01*
Y290750D01*
X274141Y291860D01*
X273712Y292893D01*
X273031Y293781D01*
X272143Y294462D01*
X271110Y294891D01*
X270000Y295037D01*
D02*
G37*
G36*
X97500Y310037D02*
X96390Y309891D01*
X95357Y309462D01*
X94469Y308781D01*
X93788Y307893D01*
X93359Y306859D01*
X93213Y305750D01*
Y304250D01*
X93359Y303140D01*
X93788Y302107D01*
X94469Y301219D01*
X95357Y300538D01*
X96390Y300109D01*
X97500Y299963D01*
X98610Y300109D01*
X99643Y300538D01*
X100531Y301219D01*
X101212Y302107D01*
X101641Y303140D01*
X101787Y304250D01*
Y305750D01*
X101641Y306859D01*
X101212Y307893D01*
X100531Y308781D01*
X99643Y309462D01*
X98610Y309891D01*
X97500Y310037D01*
D02*
G37*
G36*
X237500Y329743D02*
X236642Y329572D01*
X235914Y329086D01*
X235428Y328358D01*
X235257Y327500D01*
X235428Y326642D01*
X235914Y325914D01*
X235971Y325876D01*
Y309717D01*
X235357Y309462D01*
X234469Y308781D01*
X233788Y307893D01*
X233359Y306859D01*
X233213Y305750D01*
Y304250D01*
X233359Y303140D01*
X233788Y302107D01*
X234469Y301219D01*
X235357Y300538D01*
X236390Y300109D01*
X237500Y299963D01*
X238610Y300109D01*
X239643Y300538D01*
X240531Y301219D01*
X241212Y302107D01*
X241641Y303140D01*
X241787Y304250D01*
Y305750D01*
X241641Y306859D01*
X241212Y307893D01*
X240531Y308781D01*
X239643Y309462D01*
X239029Y309717D01*
Y325876D01*
X239086Y325914D01*
X239572Y326642D01*
X239743Y327500D01*
X239572Y328358D01*
X239086Y329086D01*
X238358Y329572D01*
X237500Y329743D01*
D02*
G37*
G36*
X257500Y324743D02*
X256642Y324572D01*
X255914Y324086D01*
X255428Y323358D01*
X255257Y322500D01*
X255428Y321642D01*
X255914Y320914D01*
X255971Y320876D01*
Y309717D01*
X255357Y309462D01*
X254469Y308781D01*
X253788Y307893D01*
X253359Y306859D01*
X253213Y305750D01*
Y304250D01*
X253359Y303140D01*
X253788Y302107D01*
X254469Y301219D01*
X255357Y300538D01*
X256391Y300109D01*
X257500Y299963D01*
X258610Y300109D01*
X259643Y300538D01*
X260531Y301219D01*
X261212Y302107D01*
X261641Y303140D01*
X261787Y304250D01*
Y305750D01*
X261641Y306859D01*
X261212Y307893D01*
X260531Y308781D01*
X259643Y309462D01*
X259029Y309717D01*
Y320876D01*
X259086Y320914D01*
X259572Y321642D01*
X259743Y322500D01*
X259572Y323358D01*
X259086Y324086D01*
X258358Y324572D01*
X257500Y324743D01*
D02*
G37*
G36*
X267500Y310037D02*
X266390Y309891D01*
X265357Y309462D01*
X264469Y308781D01*
X263788Y307893D01*
X263359Y306859D01*
X263213Y305750D01*
Y304250D01*
X263359Y303140D01*
X263788Y302107D01*
X264469Y301219D01*
X265357Y300538D01*
X266390Y300109D01*
X267500Y299963D01*
X268609Y300109D01*
X269643Y300538D01*
X270531Y301219D01*
X271212Y302107D01*
X271641Y303140D01*
X271787Y304250D01*
Y305750D01*
X271641Y306859D01*
X271212Y307893D01*
X270531Y308781D01*
X269643Y309462D01*
X268609Y309891D01*
X267500Y310037D01*
D02*
G37*
G36*
X160000D02*
X158890Y309891D01*
X157857Y309462D01*
X156969Y308781D01*
X156288Y307893D01*
X155859Y306859D01*
X155713Y305750D01*
Y304250D01*
X155859Y303140D01*
X156288Y302107D01*
X156969Y301219D01*
X157857Y300538D01*
X158890Y300109D01*
X160000Y299963D01*
X161109Y300109D01*
X162143Y300538D01*
X163031Y301219D01*
X163712Y302107D01*
X164141Y303140D01*
X164287Y304250D01*
Y305750D01*
X164141Y306859D01*
X163712Y307893D01*
X163031Y308781D01*
X162143Y309462D01*
X161109Y309891D01*
X160000Y310037D01*
D02*
G37*
G36*
X107500D02*
X106391Y309891D01*
X105357Y309462D01*
X104469Y308781D01*
X103788Y307893D01*
X103359Y306859D01*
X103213Y305750D01*
Y304250D01*
X103359Y303140D01*
X103788Y302107D01*
X104469Y301219D01*
X105357Y300538D01*
X106391Y300109D01*
X107500Y299963D01*
X108609Y300109D01*
X109643Y300538D01*
X110531Y301219D01*
X111212Y302107D01*
X111641Y303140D01*
X111787Y304250D01*
Y305750D01*
X111641Y306859D01*
X111212Y307893D01*
X110531Y308781D01*
X109643Y309462D01*
X108609Y309891D01*
X107500Y310037D01*
D02*
G37*
G36*
X130000Y329743D02*
X129142Y329572D01*
X128414Y329086D01*
X127928Y328358D01*
X127757Y327500D01*
X127928Y326642D01*
X128414Y325914D01*
X128471Y325876D01*
Y309717D01*
X127857Y309462D01*
X126969Y308781D01*
X126288Y307893D01*
X125859Y306859D01*
X125713Y305750D01*
Y304250D01*
X125859Y303140D01*
X126288Y302107D01*
X126969Y301219D01*
X127857Y300538D01*
X128891Y300109D01*
X130000Y299963D01*
X131109Y300109D01*
X132143Y300538D01*
X133031Y301219D01*
X133712Y302107D01*
X134141Y303140D01*
X134287Y304250D01*
Y305750D01*
X134141Y306859D01*
X133712Y307893D01*
X133031Y308781D01*
X132143Y309462D01*
X131529Y309717D01*
Y325876D01*
X131586Y325914D01*
X132072Y326642D01*
X132243Y327500D01*
X132072Y328358D01*
X131586Y329086D01*
X130858Y329572D01*
X130000Y329743D01*
D02*
G37*
G36*
X150000Y324743D02*
X149142Y324572D01*
X148414Y324086D01*
X147928Y323358D01*
X147757Y322500D01*
X147928Y321642D01*
X148414Y320914D01*
X148471Y320876D01*
Y309717D01*
X147857Y309462D01*
X146969Y308781D01*
X146288Y307893D01*
X145859Y306859D01*
X145713Y305750D01*
Y304250D01*
X145859Y303140D01*
X146288Y302107D01*
X146969Y301219D01*
X147857Y300538D01*
X148890Y300109D01*
X150000Y299963D01*
X151110Y300109D01*
X152143Y300538D01*
X153031Y301219D01*
X153712Y302107D01*
X154141Y303140D01*
X154287Y304250D01*
Y305750D01*
X154141Y306859D01*
X153712Y307893D01*
X153031Y308781D01*
X152143Y309462D01*
X151529Y309717D01*
Y320876D01*
X151586Y320914D01*
X152072Y321642D01*
X152243Y322500D01*
X152072Y323358D01*
X151586Y324086D01*
X150858Y324572D01*
X150000Y324743D01*
D02*
G37*
G36*
X185000Y295037D02*
X183890Y294891D01*
X182857Y294462D01*
X181969Y293781D01*
X181288Y292893D01*
X180859Y291860D01*
X180713Y290750D01*
Y289250D01*
X180859Y288141D01*
X181288Y287107D01*
X181969Y286219D01*
X182857Y285538D01*
X183890Y285109D01*
X185000Y284963D01*
X186109Y285109D01*
X187143Y285538D01*
X188031Y286219D01*
X188712Y287107D01*
X189141Y288141D01*
X189287Y289250D01*
Y290750D01*
X189141Y291860D01*
X188712Y292893D01*
X188031Y293781D01*
X187143Y294462D01*
X186109Y294891D01*
X185000Y295037D01*
D02*
G37*
G36*
X197500D02*
X196390Y294891D01*
X195357Y294462D01*
X194469Y293781D01*
X193788Y292893D01*
X193359Y291860D01*
X193213Y290750D01*
Y289250D01*
X193359Y288141D01*
X193788Y287107D01*
X194469Y286219D01*
X195357Y285538D01*
X195971Y285283D01*
Y264124D01*
X195914Y264086D01*
X195428Y263358D01*
X195257Y262500D01*
X195428Y261642D01*
X195914Y260914D01*
X196642Y260428D01*
X197500Y260257D01*
X198358Y260428D01*
X199086Y260914D01*
X199572Y261642D01*
X199743Y262500D01*
X199572Y263358D01*
X199086Y264086D01*
X199029Y264124D01*
Y285283D01*
X199643Y285538D01*
X200531Y286219D01*
X201212Y287107D01*
X201641Y288141D01*
X201787Y289250D01*
Y290750D01*
X201641Y291860D01*
X201212Y292893D01*
X200531Y293781D01*
X199643Y294462D01*
X198609Y294891D01*
X197500Y295037D01*
D02*
G37*
G36*
X207500D02*
X206391Y294891D01*
X205357Y294462D01*
X204469Y293781D01*
X203788Y292893D01*
X203359Y291860D01*
X203213Y290750D01*
Y289250D01*
X203359Y288141D01*
X203788Y287107D01*
X204469Y286219D01*
X205357Y285538D01*
X205971Y285283D01*
Y269124D01*
X205914Y269086D01*
X205428Y268358D01*
X205257Y267500D01*
X205428Y266642D01*
X205914Y265914D01*
X206642Y265428D01*
X207500Y265257D01*
X208358Y265428D01*
X209086Y265914D01*
X209572Y266642D01*
X209743Y267500D01*
X209572Y268358D01*
X209086Y269086D01*
X209029Y269124D01*
Y285283D01*
X209643Y285538D01*
X210531Y286219D01*
X211212Y287107D01*
X211641Y288141D01*
X211787Y289250D01*
Y290750D01*
X211641Y291860D01*
X211212Y292893D01*
X210531Y293781D01*
X209643Y294462D01*
X208610Y294891D01*
X207500Y295037D01*
D02*
G37*
G36*
X175000D02*
X173890Y294891D01*
X172857Y294462D01*
X171969Y293781D01*
X171288Y292893D01*
X170859Y291860D01*
X170713Y290750D01*
Y289250D01*
X170859Y288141D01*
X171288Y287107D01*
X171969Y286219D01*
X172857Y285538D01*
X173471Y285283D01*
Y274124D01*
X173414Y274086D01*
X172928Y273358D01*
X172757Y272500D01*
X172928Y271642D01*
X173414Y270914D01*
X174142Y270428D01*
X175000Y270257D01*
X175858Y270428D01*
X176586Y270914D01*
X177072Y271642D01*
X177243Y272500D01*
X177072Y273358D01*
X176586Y274086D01*
X176529Y274124D01*
Y285283D01*
X177143Y285538D01*
X178031Y286219D01*
X178712Y287107D01*
X179141Y288141D01*
X179287Y289250D01*
Y290750D01*
X179141Y291860D01*
X178712Y292893D01*
X178031Y293781D01*
X177143Y294462D01*
X176110Y294891D01*
X175000Y295037D01*
D02*
G37*
G36*
X197500Y259743D02*
X196642Y259572D01*
X195914Y259086D01*
X195428Y258358D01*
X195257Y257500D01*
X195428Y256642D01*
X195914Y255914D01*
X195971Y255876D01*
Y235000D01*
X193250D01*
Y225000D01*
X201750D01*
Y235000D01*
X199029D01*
Y255876D01*
X199086Y255914D01*
X199572Y256642D01*
X199743Y257500D01*
X199572Y258358D01*
X199086Y259086D01*
X198358Y259572D01*
X197500Y259743D01*
D02*
G37*
G36*
X280000Y249743D02*
X279142Y249572D01*
X278414Y249086D01*
X277928Y248358D01*
X277757Y247500D01*
X277928Y246642D01*
X278414Y245914D01*
X278471Y245876D01*
Y234717D01*
X277857Y234462D01*
X276969Y233781D01*
X276288Y232893D01*
X275859Y231859D01*
X275713Y230750D01*
Y229250D01*
X275859Y228140D01*
X276288Y227107D01*
X276969Y226219D01*
X277857Y225538D01*
X278890Y225109D01*
X280000Y224963D01*
X281109Y225109D01*
X282143Y225538D01*
X283031Y226219D01*
X283712Y227107D01*
X284141Y228140D01*
X284287Y229250D01*
Y230750D01*
X284141Y231859D01*
X283712Y232893D01*
X283031Y233781D01*
X282143Y234462D01*
X281529Y234717D01*
Y245876D01*
X281586Y245914D01*
X282072Y246642D01*
X282243Y247500D01*
X282072Y248358D01*
X281586Y249086D01*
X280858Y249572D01*
X280000Y249743D01*
D02*
G37*
G36*
X290000Y235037D02*
X288891Y234891D01*
X287857Y234462D01*
X286969Y233781D01*
X286288Y232893D01*
X285859Y231859D01*
X285713Y230750D01*
Y229250D01*
X285859Y228140D01*
X286288Y227107D01*
X286969Y226219D01*
X287857Y225538D01*
X288891Y225109D01*
X290000Y224963D01*
X291109Y225109D01*
X292143Y225538D01*
X293031Y226219D01*
X293712Y227107D01*
X294141Y228140D01*
X294287Y229250D01*
Y230750D01*
X294141Y231859D01*
X293712Y232893D01*
X293031Y233781D01*
X292143Y234462D01*
X291109Y234891D01*
X290000Y235037D01*
D02*
G37*
G36*
X96750Y235000D02*
X88250D01*
Y225000D01*
X96750D01*
Y235000D01*
D02*
G37*
G36*
X227500Y295037D02*
X226391Y294891D01*
X225357Y294462D01*
X224469Y293781D01*
X223788Y292893D01*
X223359Y291860D01*
X223213Y290750D01*
Y289250D01*
X223359Y288141D01*
X223788Y287107D01*
X224469Y286219D01*
X225357Y285538D01*
X225971Y285283D01*
Y274124D01*
X225914Y274086D01*
X225428Y273358D01*
X225257Y272500D01*
X225428Y271642D01*
X225914Y270914D01*
X226642Y270428D01*
X227500Y270257D01*
X228358Y270428D01*
X229086Y270914D01*
X229572Y271642D01*
X229743Y272500D01*
X229572Y273358D01*
X229086Y274086D01*
X229029Y274124D01*
Y285283D01*
X229643Y285538D01*
X230531Y286219D01*
X231212Y287107D01*
X231641Y288141D01*
X231787Y289250D01*
Y290750D01*
X231641Y291860D01*
X231212Y292893D01*
X230531Y293781D01*
X229643Y294462D01*
X228609Y294891D01*
X227500Y295037D01*
D02*
G37*
G36*
X122500D02*
X121390Y294891D01*
X120357Y294462D01*
X119469Y293781D01*
X118788Y292893D01*
X118359Y291860D01*
X118213Y290750D01*
Y289250D01*
X118359Y288141D01*
X118788Y287107D01*
X119469Y286219D01*
X120357Y285538D01*
X121390Y285109D01*
X122500Y284963D01*
X123609Y285109D01*
X124643Y285538D01*
X125531Y286219D01*
X126212Y287107D01*
X126641Y288141D01*
X126787Y289250D01*
Y290750D01*
X126641Y291860D01*
X126212Y292893D01*
X125531Y293781D01*
X124643Y294462D01*
X123609Y294891D01*
X122500Y295037D01*
D02*
G37*
G36*
X132500D02*
X131391Y294891D01*
X130357Y294462D01*
X129469Y293781D01*
X128788Y292893D01*
X128359Y291860D01*
X128213Y290750D01*
Y289250D01*
X128359Y288141D01*
X128788Y287107D01*
X129469Y286219D01*
X130357Y285538D01*
X131391Y285109D01*
X132500Y284963D01*
X133609Y285109D01*
X134643Y285538D01*
X135531Y286219D01*
X136212Y287107D01*
X136641Y288141D01*
X136787Y289250D01*
Y290750D01*
X136641Y291860D01*
X136212Y292893D01*
X135531Y293781D01*
X134643Y294462D01*
X133609Y294891D01*
X132500Y295037D01*
D02*
G37*
G36*
X165000D02*
X163891Y294891D01*
X162857Y294462D01*
X161969Y293781D01*
X161288Y292893D01*
X160859Y291860D01*
X160713Y290750D01*
Y289250D01*
X160859Y288141D01*
X161288Y287107D01*
X161969Y286219D01*
X162857Y285538D01*
X163891Y285109D01*
X165000Y284963D01*
X166110Y285109D01*
X167143Y285538D01*
X168031Y286219D01*
X168712Y287107D01*
X169141Y288141D01*
X169287Y289250D01*
Y290750D01*
X169141Y291860D01*
X168712Y292893D01*
X168031Y293781D01*
X167143Y294462D01*
X166110Y294891D01*
X165000Y295037D01*
D02*
G37*
G36*
X112500D02*
X111390Y294891D01*
X110357Y294462D01*
X109469Y293781D01*
X108788Y292893D01*
X108359Y291860D01*
X108213Y290750D01*
Y289250D01*
X108359Y288141D01*
X108788Y287107D01*
X109469Y286219D01*
X110357Y285538D01*
X111390Y285109D01*
X112500Y284963D01*
X113610Y285109D01*
X114643Y285538D01*
X115531Y286219D01*
X116212Y287107D01*
X116641Y288141D01*
X116787Y289250D01*
Y290750D01*
X116641Y291860D01*
X116212Y292893D01*
X115531Y293781D01*
X114643Y294462D01*
X113610Y294891D01*
X112500Y295037D01*
D02*
G37*
G36*
X280000D02*
X278890Y294891D01*
X277857Y294462D01*
X276969Y293781D01*
X276288Y292893D01*
X275859Y291860D01*
X275713Y290750D01*
Y289250D01*
X275859Y288141D01*
X276288Y287107D01*
X276969Y286219D01*
X277857Y285538D01*
X278471Y285283D01*
Y274124D01*
X278414Y274086D01*
X277928Y273358D01*
X277757Y272500D01*
X277928Y271642D01*
X278414Y270914D01*
X279142Y270428D01*
X280000Y270257D01*
X280858Y270428D01*
X281586Y270914D01*
X282072Y271642D01*
X282243Y272500D01*
X282072Y273358D01*
X281586Y274086D01*
X281529Y274124D01*
Y285283D01*
X282143Y285538D01*
X283031Y286219D01*
X283712Y287107D01*
X284141Y288141D01*
X284287Y289250D01*
Y290750D01*
X284141Y291860D01*
X283712Y292893D01*
X283031Y293781D01*
X282143Y294462D01*
X281109Y294891D01*
X280000Y295037D01*
D02*
G37*
G36*
X92500D02*
X91391Y294891D01*
X90357Y294462D01*
X89469Y293781D01*
X88788Y292893D01*
X88359Y291860D01*
X88213Y290750D01*
Y289250D01*
X88359Y288141D01*
X88788Y287107D01*
X89469Y286219D01*
X90357Y285538D01*
X91391Y285109D01*
X92500Y284963D01*
X93609Y285109D01*
X94643Y285538D01*
X95531Y286219D01*
X96212Y287107D01*
X96641Y288141D01*
X96787Y289250D01*
Y290750D01*
X96641Y291860D01*
X96212Y292893D01*
X95531Y293781D01*
X94643Y294462D01*
X93609Y294891D01*
X92500Y295037D01*
D02*
G37*
G36*
X102500D02*
X101391Y294891D01*
X100357Y294462D01*
X99469Y293781D01*
X98788Y292893D01*
X98359Y291860D01*
X98213Y290750D01*
Y289250D01*
X98359Y288141D01*
X98788Y287107D01*
X99469Y286219D01*
X100357Y285538D01*
X101391Y285109D01*
X102500Y284963D01*
X103610Y285109D01*
X104643Y285538D01*
X105531Y286219D01*
X106212Y287107D01*
X106641Y288141D01*
X106787Y289250D01*
Y290750D01*
X106641Y291860D01*
X106212Y292893D01*
X105531Y293781D01*
X104643Y294462D01*
X103610Y294891D01*
X102500Y295037D01*
D02*
G37*
G36*
X71750Y310000D02*
X63250D01*
Y300000D01*
X71750D01*
Y310000D01*
D02*
G37*
G36*
X346957Y357293D02*
Y346957D01*
X357293D01*
X357199Y348158D01*
X356800Y349818D01*
X356147Y351394D01*
X355256Y352850D01*
X354147Y354147D01*
X352850Y355256D01*
X351394Y356147D01*
X349818Y356800D01*
X348158Y357199D01*
X346957Y357293D01*
D02*
G37*
G36*
X67500Y370037D02*
X66391Y369891D01*
X65357Y369462D01*
X64469Y368781D01*
X63788Y367893D01*
X63359Y366860D01*
X63213Y365750D01*
Y364250D01*
X63359Y363141D01*
X63788Y362107D01*
X64469Y361219D01*
X65357Y360538D01*
X66391Y360109D01*
X67500Y359963D01*
X68609Y360109D01*
X69643Y360538D01*
X70531Y361219D01*
X71212Y362107D01*
X71641Y363141D01*
X71787Y364250D01*
Y365750D01*
X71641Y366860D01*
X71212Y367893D01*
X70531Y368781D01*
X69643Y369462D01*
X68609Y369891D01*
X67500Y370037D01*
D02*
G37*
G36*
X77500D02*
X76390Y369891D01*
X75357Y369462D01*
X74469Y368781D01*
X73788Y367893D01*
X73359Y366860D01*
X73213Y365750D01*
Y364250D01*
X73359Y363141D01*
X73788Y362107D01*
X74469Y361219D01*
X75357Y360538D01*
X76390Y360109D01*
X77500Y359963D01*
X78610Y360109D01*
X79643Y360538D01*
X80531Y361219D01*
X81212Y362107D01*
X81641Y363141D01*
X81787Y364250D01*
Y365750D01*
X81641Y366860D01*
X81212Y367893D01*
X80531Y368781D01*
X79643Y369462D01*
X78610Y369891D01*
X77500Y370037D01*
D02*
G37*
G36*
X345957Y357293D02*
X344755Y357199D01*
X343096Y356800D01*
X341519Y356147D01*
X340064Y355256D01*
X338766Y354147D01*
X337658Y352850D01*
X336766Y351394D01*
X336113Y349818D01*
X335715Y348158D01*
X335620Y346957D01*
X345957D01*
Y357293D01*
D02*
G37*
G36*
X39870D02*
Y346957D01*
X50207D01*
X50112Y348158D01*
X49714Y349818D01*
X49061Y351394D01*
X48169Y352850D01*
X47061Y354147D01*
X45763Y355256D01*
X44308Y356147D01*
X42731Y356800D01*
X41072Y357199D01*
X39870Y357293D01*
D02*
G37*
G36*
X192413D02*
X191212Y357199D01*
X189552Y356800D01*
X187976Y356147D01*
X186521Y355256D01*
X185223Y354147D01*
X184115Y352850D01*
X183223Y351394D01*
X182570Y349818D01*
X182171Y348158D01*
X182077Y346957D01*
X192413D01*
Y357293D01*
D02*
G37*
G36*
X193413D02*
Y346957D01*
X203750D01*
X203656Y348158D01*
X203257Y349818D01*
X202604Y351394D01*
X201712Y352850D01*
X200604Y354147D01*
X199306Y355256D01*
X197851Y356147D01*
X196274Y356800D01*
X194615Y357199D01*
X193413Y357293D01*
D02*
G37*
G36*
X87500Y370037D02*
X86391Y369891D01*
X85357Y369462D01*
X84469Y368781D01*
X83788Y367893D01*
X83359Y366860D01*
X83213Y365750D01*
Y364250D01*
X83359Y363141D01*
X83788Y362107D01*
X84469Y361219D01*
X85357Y360538D01*
X86391Y360109D01*
X87500Y359963D01*
X88609Y360109D01*
X89643Y360538D01*
X90531Y361219D01*
X91212Y362107D01*
X91641Y363141D01*
X91787Y364250D01*
Y365750D01*
X91641Y366860D01*
X91212Y367893D01*
X90531Y368781D01*
X89643Y369462D01*
X88609Y369891D01*
X87500Y370037D01*
D02*
G37*
G36*
X247500D02*
X246391Y369891D01*
X245357Y369462D01*
X244469Y368781D01*
X243788Y367893D01*
X243359Y366860D01*
X243213Y365750D01*
Y364250D01*
X243359Y363141D01*
X243788Y362107D01*
X244469Y361219D01*
X245357Y360538D01*
X246391Y360109D01*
X247500Y359963D01*
X248609Y360109D01*
X249643Y360538D01*
X250531Y361219D01*
X251212Y362107D01*
X251641Y363141D01*
X251787Y364250D01*
Y365750D01*
X251641Y366860D01*
X251212Y367893D01*
X250531Y368781D01*
X249643Y369462D01*
X248609Y369891D01*
X247500Y370037D01*
D02*
G37*
G36*
X267500D02*
X266390Y369891D01*
X265357Y369462D01*
X264469Y368781D01*
X263788Y367893D01*
X263359Y366860D01*
X263213Y365750D01*
Y364250D01*
X263359Y363141D01*
X263788Y362107D01*
X264469Y361219D01*
X265357Y360538D01*
X266390Y360109D01*
X267500Y359963D01*
X268609Y360109D01*
X269643Y360538D01*
X270531Y361219D01*
X271212Y362107D01*
X271641Y363141D01*
X271787Y364250D01*
Y365750D01*
X271641Y366860D01*
X271212Y367893D01*
X270531Y368781D01*
X269643Y369462D01*
X268609Y369891D01*
X267500Y370037D01*
D02*
G37*
G36*
X300000D02*
X298890Y369891D01*
X297857Y369462D01*
X296969Y368781D01*
X296288Y367893D01*
X295859Y366860D01*
X295713Y365750D01*
Y364250D01*
X295859Y363141D01*
X296288Y362107D01*
X296969Y361219D01*
X297857Y360538D01*
X298890Y360109D01*
X300000Y359963D01*
X301110Y360109D01*
X302143Y360538D01*
X303031Y361219D01*
X303712Y362107D01*
X304141Y363141D01*
X304287Y364250D01*
Y365750D01*
X304141Y366860D01*
X303712Y367893D01*
X303031Y368781D01*
X302143Y369462D01*
X301110Y369891D01*
X300000Y370037D01*
D02*
G37*
G36*
X160000D02*
X158890Y369891D01*
X157857Y369462D01*
X156969Y368781D01*
X156288Y367893D01*
X155859Y366860D01*
X155713Y365750D01*
Y364250D01*
X155859Y363141D01*
X156288Y362107D01*
X156969Y361219D01*
X157857Y360538D01*
X158890Y360109D01*
X160000Y359963D01*
X161109Y360109D01*
X162143Y360538D01*
X163031Y361219D01*
X163712Y362107D01*
X164141Y363141D01*
X164287Y364250D01*
Y365750D01*
X164141Y366860D01*
X163712Y367893D01*
X163031Y368781D01*
X162143Y369462D01*
X161109Y369891D01*
X160000Y370037D01*
D02*
G37*
G36*
X97500D02*
X96390Y369891D01*
X95357Y369462D01*
X94469Y368781D01*
X93788Y367893D01*
X93359Y366860D01*
X93213Y365750D01*
Y364250D01*
X93359Y363141D01*
X93788Y362107D01*
X94469Y361219D01*
X95357Y360538D01*
X96390Y360109D01*
X97500Y359963D01*
X98610Y360109D01*
X99643Y360538D01*
X100531Y361219D01*
X101212Y362107D01*
X101641Y363141D01*
X101787Y364250D01*
Y365750D01*
X101641Y366860D01*
X101212Y367893D01*
X100531Y368781D01*
X99643Y369462D01*
X98610Y369891D01*
X97500Y370037D01*
D02*
G37*
G36*
X107500D02*
X106391Y369891D01*
X105357Y369462D01*
X104469Y368781D01*
X103788Y367893D01*
X103359Y366860D01*
X103213Y365750D01*
Y364250D01*
X103359Y363141D01*
X103788Y362107D01*
X104469Y361219D01*
X105357Y360538D01*
X106391Y360109D01*
X107500Y359963D01*
X108609Y360109D01*
X109643Y360538D01*
X110531Y361219D01*
X111212Y362107D01*
X111641Y363141D01*
X111787Y364250D01*
Y365750D01*
X111641Y366860D01*
X111212Y367893D01*
X110531Y368781D01*
X109643Y369462D01*
X108609Y369891D01*
X107500Y370037D01*
D02*
G37*
G36*
X140000D02*
X138891Y369891D01*
X137857Y369462D01*
X136969Y368781D01*
X136288Y367893D01*
X135859Y366860D01*
X135713Y365750D01*
Y364250D01*
X135859Y363141D01*
X136288Y362107D01*
X136969Y361219D01*
X137857Y360538D01*
X138891Y360109D01*
X140000Y359963D01*
X141110Y360109D01*
X142143Y360538D01*
X143031Y361219D01*
X143712Y362107D01*
X144141Y363141D01*
X144287Y364250D01*
Y365750D01*
X144141Y366860D01*
X143712Y367893D01*
X143031Y368781D01*
X142143Y369462D01*
X141110Y369891D01*
X140000Y370037D01*
D02*
G37*
G36*
X38870Y357293D02*
X37669Y357199D01*
X36009Y356800D01*
X34433Y356147D01*
X32977Y355256D01*
X31680Y354147D01*
X30571Y352850D01*
X29680Y351394D01*
X29026Y349818D01*
X28628Y348158D01*
X28533Y346957D01*
X38870D01*
Y357293D01*
D02*
G37*
G36*
Y345957D02*
X28533D01*
X28628Y344755D01*
X29026Y343096D01*
X29680Y341519D01*
X30571Y340064D01*
X31680Y338766D01*
X32977Y337658D01*
X34433Y336766D01*
X36009Y336113D01*
X37669Y335715D01*
X38870Y335620D01*
Y345957D01*
D02*
G37*
G36*
X50207D02*
X39870D01*
Y335620D01*
X41072Y335715D01*
X42731Y336113D01*
X44308Y336766D01*
X45763Y337658D01*
X47061Y338766D01*
X48169Y340064D01*
X49061Y341519D01*
X49714Y343096D01*
X50112Y344755D01*
X50207Y345957D01*
D02*
G37*
G36*
X192413D02*
X182077D01*
X182171Y344755D01*
X182570Y343096D01*
X183223Y341519D01*
X184115Y340064D01*
X185223Y338766D01*
X186521Y337658D01*
X187976Y336766D01*
X189552Y336113D01*
X191212Y335715D01*
X192413Y335620D01*
Y345957D01*
D02*
G37*
G36*
X227500Y370037D02*
X226391Y369891D01*
X225357Y369462D01*
X224469Y368781D01*
X223788Y367893D01*
X223359Y366860D01*
X223213Y365750D01*
Y364250D01*
X223359Y363141D01*
X223788Y362107D01*
X224469Y361219D01*
X225357Y360538D01*
X225971Y360283D01*
Y339124D01*
X225914Y339086D01*
X225428Y338358D01*
X225257Y337500D01*
X225428Y336642D01*
X225914Y335914D01*
X226642Y335428D01*
X227500Y335257D01*
X228358Y335428D01*
X229086Y335914D01*
X229572Y336642D01*
X229743Y337500D01*
X229572Y338358D01*
X229086Y339086D01*
X229029Y339124D01*
Y360283D01*
X229643Y360538D01*
X230531Y361219D01*
X231212Y362107D01*
X231641Y363141D01*
X231787Y364250D01*
Y365750D01*
X231641Y366860D01*
X231212Y367893D01*
X230531Y368781D01*
X229643Y369462D01*
X228609Y369891D01*
X227500Y370037D01*
D02*
G37*
G36*
X120000Y334743D02*
X119142Y334572D01*
X118414Y334086D01*
X117928Y333358D01*
X117757Y332500D01*
X117928Y331642D01*
X118414Y330914D01*
X118471Y330876D01*
Y310000D01*
X115750D01*
Y300000D01*
X124250D01*
Y310000D01*
X121529D01*
Y330876D01*
X121586Y330914D01*
X122072Y331642D01*
X122243Y332500D01*
X122072Y333358D01*
X121586Y334086D01*
X120858Y334572D01*
X120000Y334743D01*
D02*
G37*
G36*
X227500D02*
X226642Y334572D01*
X225914Y334086D01*
X225428Y333358D01*
X225257Y332500D01*
X225428Y331642D01*
X225914Y330914D01*
X225971Y330876D01*
Y310000D01*
X223250D01*
Y300000D01*
X231750D01*
Y310000D01*
X229029D01*
Y330876D01*
X229086Y330914D01*
X229572Y331642D01*
X229743Y332500D01*
X229572Y333358D01*
X229086Y334086D01*
X228358Y334572D01*
X227500Y334743D01*
D02*
G37*
G36*
X120000Y370037D02*
X118891Y369891D01*
X117857Y369462D01*
X116969Y368781D01*
X116288Y367893D01*
X115859Y366860D01*
X115713Y365750D01*
Y364250D01*
X115859Y363141D01*
X116288Y362107D01*
X116969Y361219D01*
X117857Y360538D01*
X118471Y360283D01*
Y339124D01*
X118414Y339086D01*
X117928Y338358D01*
X117757Y337500D01*
X117928Y336642D01*
X118414Y335914D01*
X119142Y335428D01*
X120000Y335257D01*
X120858Y335428D01*
X121586Y335914D01*
X122072Y336642D01*
X122243Y337500D01*
X122072Y338358D01*
X121586Y339086D01*
X121529Y339124D01*
Y360283D01*
X122143Y360538D01*
X123031Y361219D01*
X123712Y362107D01*
X124141Y363141D01*
X124287Y364250D01*
Y365750D01*
X124141Y366860D01*
X123712Y367893D01*
X123031Y368781D01*
X122143Y369462D01*
X121109Y369891D01*
X120000Y370037D01*
D02*
G37*
G36*
X203750Y345957D02*
X193413D01*
Y335620D01*
X194615Y335715D01*
X196274Y336113D01*
X197851Y336766D01*
X199306Y337658D01*
X200604Y338766D01*
X201712Y340064D01*
X202604Y341519D01*
X203257Y343096D01*
X203656Y344755D01*
X203750Y345957D01*
D02*
G37*
G36*
X237500Y370037D02*
X236390Y369891D01*
X235357Y369462D01*
X234469Y368781D01*
X233788Y367893D01*
X233359Y366860D01*
X233213Y365750D01*
Y364250D01*
X233359Y363141D01*
X233788Y362107D01*
X234469Y361219D01*
X235357Y360538D01*
X235971Y360283D01*
Y344124D01*
X235914Y344086D01*
X235428Y343358D01*
X235257Y342500D01*
X235428Y341642D01*
X235914Y340914D01*
X236642Y340428D01*
X237500Y340257D01*
X238358Y340428D01*
X239086Y340914D01*
X239572Y341642D01*
X239743Y342500D01*
X239572Y343358D01*
X239086Y344086D01*
X239029Y344124D01*
Y360283D01*
X239643Y360538D01*
X240531Y361219D01*
X241212Y362107D01*
X241641Y363141D01*
X241787Y364250D01*
Y365750D01*
X241641Y366860D01*
X241212Y367893D01*
X240531Y368781D01*
X239643Y369462D01*
X238610Y369891D01*
X237500Y370037D01*
D02*
G37*
G36*
X150000D02*
X148890Y369891D01*
X147857Y369462D01*
X146969Y368781D01*
X146288Y367893D01*
X145859Y366860D01*
X145713Y365750D01*
Y364250D01*
X145859Y363141D01*
X146288Y362107D01*
X146969Y361219D01*
X147857Y360538D01*
X148471Y360283D01*
Y349124D01*
X148414Y349086D01*
X147928Y348358D01*
X147757Y347500D01*
X147928Y346642D01*
X148414Y345914D01*
X149142Y345428D01*
X150000Y345257D01*
X150858Y345428D01*
X151586Y345914D01*
X152072Y346642D01*
X152243Y347500D01*
X152072Y348358D01*
X151586Y349086D01*
X151529Y349124D01*
Y360283D01*
X152143Y360538D01*
X153031Y361219D01*
X153712Y362107D01*
X154141Y363141D01*
X154287Y364250D01*
Y365750D01*
X154141Y366860D01*
X153712Y367893D01*
X153031Y368781D01*
X152143Y369462D01*
X151110Y369891D01*
X150000Y370037D01*
D02*
G37*
G36*
X257500D02*
X256391Y369891D01*
X255357Y369462D01*
X254469Y368781D01*
X253788Y367893D01*
X253359Y366860D01*
X253213Y365750D01*
Y364250D01*
X253359Y363141D01*
X253788Y362107D01*
X254469Y361219D01*
X255357Y360538D01*
X255971Y360283D01*
Y349124D01*
X255914Y349086D01*
X255428Y348358D01*
X255257Y347500D01*
X255428Y346642D01*
X255914Y345914D01*
X256642Y345428D01*
X257500Y345257D01*
X258358Y345428D01*
X259086Y345914D01*
X259572Y346642D01*
X259743Y347500D01*
X259572Y348358D01*
X259086Y349086D01*
X259029Y349124D01*
Y360283D01*
X259643Y360538D01*
X260531Y361219D01*
X261212Y362107D01*
X261641Y363141D01*
X261787Y364250D01*
Y365750D01*
X261641Y366860D01*
X261212Y367893D01*
X260531Y368781D01*
X259643Y369462D01*
X258610Y369891D01*
X257500Y370037D01*
D02*
G37*
G36*
X130000D02*
X128891Y369891D01*
X127857Y369462D01*
X126969Y368781D01*
X126288Y367893D01*
X125859Y366860D01*
X125713Y365750D01*
Y364250D01*
X125859Y363141D01*
X126288Y362107D01*
X126969Y361219D01*
X127857Y360538D01*
X128471Y360283D01*
Y344124D01*
X128414Y344086D01*
X127928Y343358D01*
X127757Y342500D01*
X127928Y341642D01*
X128414Y340914D01*
X129142Y340428D01*
X130000Y340257D01*
X130858Y340428D01*
X131586Y340914D01*
X132072Y341642D01*
X132243Y342500D01*
X132072Y343358D01*
X131586Y344086D01*
X131529Y344124D01*
Y360283D01*
X132143Y360538D01*
X133031Y361219D01*
X133712Y362107D01*
X134141Y363141D01*
X134287Y364250D01*
Y365750D01*
X134141Y366860D01*
X133712Y367893D01*
X133031Y368781D01*
X132143Y369462D01*
X131109Y369891D01*
X130000Y370037D01*
D02*
G37*
G36*
X345957Y345957D02*
X335620D01*
X335715Y344755D01*
X336113Y343096D01*
X336766Y341519D01*
X337658Y340064D01*
X338766Y338766D01*
X340064Y337658D01*
X341519Y336766D01*
X343096Y336113D01*
X344755Y335715D01*
X345957Y335620D01*
Y345957D01*
D02*
G37*
G36*
X357293D02*
X346957D01*
Y335620D01*
X348158Y335715D01*
X349818Y336113D01*
X351394Y336766D01*
X352850Y337658D01*
X354147Y338766D01*
X355256Y340064D01*
X356147Y341519D01*
X356800Y343096D01*
X357199Y344755D01*
X357293Y345957D01*
D02*
G37*
G36*
X320000Y370037D02*
X318891Y369891D01*
X317857Y369462D01*
X316969Y368781D01*
X316288Y367893D01*
X315859Y366860D01*
X315713Y365750D01*
Y364250D01*
X315859Y363141D01*
X316288Y362107D01*
X316969Y361219D01*
X317857Y360538D01*
X318471Y360283D01*
Y335988D01*
X318009Y335796D01*
X311529Y342276D01*
Y345876D01*
X311586Y345914D01*
X312072Y346642D01*
X312243Y347500D01*
X312072Y348358D01*
X311586Y349086D01*
X311529Y349124D01*
Y360283D01*
X312143Y360538D01*
X313031Y361219D01*
X313712Y362107D01*
X314141Y363141D01*
X314287Y364250D01*
Y365750D01*
X314141Y366860D01*
X313712Y367893D01*
X313031Y368781D01*
X312143Y369462D01*
X311109Y369891D01*
X310000Y370037D01*
X308891Y369891D01*
X307857Y369462D01*
X306969Y368781D01*
X306288Y367893D01*
X305859Y366860D01*
X305713Y365750D01*
Y364250D01*
X305859Y363141D01*
X306288Y362107D01*
X306969Y361219D01*
X307857Y360538D01*
X308471Y360283D01*
Y349124D01*
X308414Y349086D01*
X307928Y348358D01*
X307757Y347500D01*
X307928Y346642D01*
X308414Y345914D01*
X308471Y345876D01*
Y343159D01*
X308009Y342968D01*
X307395Y343581D01*
X306899Y343913D01*
X306314Y344029D01*
X291624D01*
X291586Y344086D01*
X291529Y344124D01*
Y360283D01*
X292143Y360538D01*
X293031Y361219D01*
X293712Y362107D01*
X294141Y363141D01*
X294287Y364250D01*
Y365750D01*
X294141Y366860D01*
X293712Y367893D01*
X293031Y368781D01*
X292143Y369462D01*
X291109Y369891D01*
X290000Y370037D01*
X288891Y369891D01*
X287857Y369462D01*
X286969Y368781D01*
X286288Y367893D01*
X285859Y366860D01*
X285713Y365750D01*
Y364250D01*
X285859Y363141D01*
X286288Y362107D01*
X286969Y361219D01*
X287857Y360538D01*
X288471Y360283D01*
Y344124D01*
X288414Y344086D01*
X287928Y343358D01*
X287757Y342500D01*
X287928Y341642D01*
X288414Y340914D01*
X289142Y340428D01*
X290000Y340257D01*
X290858Y340428D01*
X291586Y340914D01*
X291624Y340971D01*
X305680D01*
X307159Y339491D01*
X306968Y339029D01*
X281624D01*
X281586Y339086D01*
X281529Y339124D01*
Y360283D01*
X282143Y360538D01*
X283031Y361219D01*
X283712Y362107D01*
X284141Y363141D01*
X284287Y364250D01*
Y365750D01*
X284141Y366860D01*
X283712Y367893D01*
X283031Y368781D01*
X282143Y369462D01*
X281109Y369891D01*
X280000Y370037D01*
X278890Y369891D01*
X277857Y369462D01*
X276969Y368781D01*
X276288Y367893D01*
X275859Y366860D01*
X275713Y365750D01*
Y364250D01*
X275859Y363141D01*
X276288Y362107D01*
X276969Y361219D01*
X277857Y360538D01*
X278471Y360283D01*
Y339124D01*
X278414Y339086D01*
X277928Y338358D01*
X277757Y337500D01*
X277928Y336642D01*
X278414Y335914D01*
X279142Y335428D01*
X280000Y335257D01*
X280858Y335428D01*
X281586Y335914D01*
X281624Y335971D01*
X307852D01*
X309331Y334491D01*
X309140Y334029D01*
X281624D01*
X281586Y334086D01*
X280858Y334572D01*
X280000Y334743D01*
X279142Y334572D01*
X278414Y334086D01*
X277928Y333358D01*
X277757Y332500D01*
X277928Y331642D01*
X278414Y330914D01*
X278471Y330876D01*
Y310000D01*
X275750D01*
Y300000D01*
X284250D01*
Y310000D01*
X281529D01*
Y330876D01*
X281586Y330914D01*
X281624Y330971D01*
X310023D01*
X311503Y329491D01*
X311311Y329029D01*
X291624D01*
X291586Y329086D01*
X290858Y329572D01*
X290000Y329743D01*
X289142Y329572D01*
X288414Y329086D01*
X287928Y328358D01*
X287757Y327500D01*
X287928Y326642D01*
X288414Y325914D01*
X288471Y325876D01*
Y309717D01*
X287857Y309462D01*
X286969Y308781D01*
X286288Y307893D01*
X285859Y306859D01*
X285713Y305750D01*
Y304250D01*
X285859Y303140D01*
X286288Y302107D01*
X286969Y301219D01*
X287857Y300538D01*
X288891Y300109D01*
X290000Y299963D01*
X291109Y300109D01*
X292143Y300538D01*
X293031Y301219D01*
X293712Y302107D01*
X294141Y303140D01*
X294287Y304250D01*
Y305750D01*
X294141Y306859D01*
X293712Y307893D01*
X293031Y308781D01*
X292143Y309462D01*
X291529Y309717D01*
Y325876D01*
X291586Y325914D01*
X291624Y325971D01*
X312195D01*
X313674Y324491D01*
X313483Y324029D01*
X311624D01*
X311586Y324086D01*
X310858Y324572D01*
X310000Y324743D01*
X309142Y324572D01*
X308414Y324086D01*
X307928Y323358D01*
X307757Y322500D01*
X307928Y321642D01*
X308414Y320914D01*
X308471Y320876D01*
Y309717D01*
X307857Y309462D01*
X306969Y308781D01*
X306288Y307893D01*
X305859Y306859D01*
X305713Y305750D01*
Y304250D01*
X305859Y303140D01*
X306288Y302107D01*
X306969Y301219D01*
X307857Y300538D01*
X308891Y300109D01*
X310000Y299963D01*
X311109Y300109D01*
X312143Y300538D01*
X313031Y301219D01*
X313712Y302107D01*
X314141Y303140D01*
X314287Y304250D01*
Y305750D01*
X314141Y306859D01*
X313712Y307893D01*
X313031Y308781D01*
X312143Y309462D01*
X311529Y309717D01*
Y320876D01*
X311586Y320914D01*
X311624Y320971D01*
X314367D01*
X325971Y309366D01*
Y301846D01*
X325509Y301654D01*
X324106Y303057D01*
X324141Y303140D01*
X324287Y304250D01*
Y305750D01*
X324141Y306859D01*
X323712Y307893D01*
X323031Y308781D01*
X322143Y309462D01*
X321110Y309891D01*
X320000Y310037D01*
X318891Y309891D01*
X317857Y309462D01*
X316969Y308781D01*
X316288Y307893D01*
X315859Y306859D01*
X315713Y305750D01*
Y304250D01*
X315859Y303140D01*
X316288Y302107D01*
X316969Y301219D01*
X317857Y300538D01*
X318891Y300109D01*
X320000Y299963D01*
X321110Y300109D01*
X322143Y300538D01*
X322232Y300605D01*
X350971Y271866D01*
Y244124D01*
X350914Y244086D01*
X350428Y243358D01*
X350257Y242500D01*
X350428Y241642D01*
X350914Y240914D01*
X350971Y240876D01*
Y169124D01*
X350914Y169086D01*
X350428Y168358D01*
X350257Y167500D01*
X350428Y166642D01*
X350914Y165914D01*
X351642Y165428D01*
X352500Y165257D01*
X353358Y165428D01*
X354086Y165914D01*
X354572Y166642D01*
X354743Y167500D01*
X354572Y168358D01*
X354086Y169086D01*
X354029Y169124D01*
Y170306D01*
X354470Y170542D01*
X354642Y170428D01*
X355500Y170257D01*
X356358Y170428D01*
X357086Y170914D01*
X357572Y171642D01*
X357743Y172500D01*
X357572Y173358D01*
X357086Y174086D01*
X357029Y174124D01*
Y175658D01*
X357529Y175837D01*
X358142Y175428D01*
X359000Y175257D01*
X359858Y175428D01*
X360586Y175914D01*
X361072Y176642D01*
X361243Y177500D01*
X361072Y178358D01*
X360586Y179086D01*
X360529Y179124D01*
Y180658D01*
X361029Y180837D01*
X361642Y180428D01*
X362500Y180257D01*
X363358Y180428D01*
X364086Y180914D01*
X364572Y181642D01*
X364743Y182500D01*
X364572Y183358D01*
X364086Y184086D01*
X364029Y184124D01*
Y185658D01*
X364529Y185837D01*
X365142Y185428D01*
X366000Y185257D01*
X366858Y185428D01*
X367586Y185914D01*
X368072Y186642D01*
X368243Y187500D01*
X368072Y188358D01*
X367586Y189086D01*
X367529Y189124D01*
Y190658D01*
X368029Y190837D01*
X368642Y190428D01*
X369500Y190257D01*
X370358Y190428D01*
X371086Y190914D01*
X371572Y191642D01*
X371743Y192500D01*
X371572Y193358D01*
X371086Y194086D01*
X371029Y194124D01*
Y195658D01*
X371529Y195837D01*
X372142Y195428D01*
X373000Y195257D01*
X373858Y195428D01*
X374586Y195914D01*
X375072Y196642D01*
X375243Y197500D01*
X375072Y198358D01*
X374586Y199086D01*
X374529Y199124D01*
Y200658D01*
X375029Y200837D01*
X375642Y200428D01*
X376500Y200257D01*
X377358Y200428D01*
X378086Y200914D01*
X378572Y201642D01*
X378743Y202500D01*
X378572Y203358D01*
X378086Y204086D01*
X378029Y204124D01*
Y275876D01*
X378086Y275914D01*
X378572Y276642D01*
X378743Y277500D01*
X378572Y278358D01*
X378086Y279086D01*
X377358Y279572D01*
X376987Y279646D01*
X321529Y335104D01*
Y360283D01*
X322143Y360538D01*
X323031Y361219D01*
X323712Y362107D01*
X324141Y363141D01*
X324287Y364250D01*
Y365750D01*
X324141Y366860D01*
X323712Y367893D01*
X323031Y368781D01*
X322143Y369462D01*
X321110Y369891D01*
X320000Y370037D01*
D02*
G37*
G36*
X237500Y235037D02*
X236390Y234891D01*
X235357Y234462D01*
X234469Y233781D01*
X233788Y232893D01*
X233359Y231859D01*
X233213Y230750D01*
Y229250D01*
X233359Y228140D01*
X233788Y227107D01*
X234469Y226219D01*
X235357Y225538D01*
X236390Y225109D01*
X237500Y224963D01*
X238610Y225109D01*
X239643Y225538D01*
X240531Y226219D01*
X241212Y227107D01*
X241641Y228140D01*
X241787Y229250D01*
Y230750D01*
X241641Y231859D01*
X241212Y232893D01*
X240531Y233781D01*
X239643Y234462D01*
X238610Y234891D01*
X237500Y235037D01*
D02*
G37*
G36*
X38530Y124500D02*
X35500D01*
Y120536D01*
X35914Y120590D01*
X36765Y120943D01*
X37496Y121504D01*
X38057Y122235D01*
X38410Y123086D01*
X38530Y124000D01*
Y124500D01*
D02*
G37*
G36*
X34500Y129464D02*
X34086Y129410D01*
X33235Y129057D01*
X32504Y128496D01*
X31943Y127765D01*
X31590Y126914D01*
X31470Y126000D01*
Y125500D01*
X34500D01*
Y129464D01*
D02*
G37*
G36*
X35500D02*
Y125500D01*
X38530D01*
Y126000D01*
X38410Y126914D01*
X38057Y127765D01*
X37496Y128496D01*
X36765Y129057D01*
X35914Y129410D01*
X35500Y129464D01*
D02*
G37*
G36*
X34500Y124500D02*
X31470D01*
Y124000D01*
X31590Y123086D01*
X31943Y122235D01*
X32504Y121504D01*
X33235Y120943D01*
X34086Y120590D01*
X34500Y120536D01*
Y124500D01*
D02*
G37*
G36*
X240000Y129530D02*
X239086Y129410D01*
X238235Y129057D01*
X237504Y128496D01*
X236943Y127765D01*
X236590Y126914D01*
X236470Y126000D01*
Y124000D01*
X236590Y123086D01*
X236943Y122235D01*
X237504Y121504D01*
X238235Y120943D01*
X239086Y120590D01*
X240000Y120470D01*
X240914Y120590D01*
X241765Y120943D01*
X242496Y121504D01*
X243057Y122235D01*
X243410Y123086D01*
X243530Y124000D01*
Y126000D01*
X243410Y126914D01*
X243057Y127765D01*
X242496Y128496D01*
X241765Y129057D01*
X240914Y129410D01*
X240000Y129530D01*
D02*
G37*
G36*
X270000D02*
X269086Y129410D01*
X268235Y129057D01*
X267504Y128496D01*
X266943Y127765D01*
X266590Y126914D01*
X266470Y126000D01*
Y124000D01*
X266590Y123086D01*
X266943Y122235D01*
X267504Y121504D01*
X268235Y120943D01*
X269086Y120590D01*
X270000Y120470D01*
X270914Y120590D01*
X271765Y120943D01*
X272496Y121504D01*
X273057Y122235D01*
X273410Y123086D01*
X273530Y124000D01*
Y126000D01*
X273410Y126914D01*
X273057Y127765D01*
X272496Y128496D01*
X271765Y129057D01*
X270914Y129410D01*
X270000Y129530D01*
D02*
G37*
G36*
X290000D02*
X289086Y129410D01*
X288235Y129057D01*
X287504Y128496D01*
X286943Y127765D01*
X286590Y126914D01*
X286470Y126000D01*
Y124000D01*
X286590Y123086D01*
X286943Y122235D01*
X287504Y121504D01*
X288235Y120943D01*
X289086Y120590D01*
X290000Y120470D01*
X290914Y120590D01*
X291765Y120943D01*
X292496Y121504D01*
X293057Y122235D01*
X293410Y123086D01*
X293530Y124000D01*
Y126000D01*
X293410Y126914D01*
X293057Y127765D01*
X292496Y128496D01*
X291765Y129057D01*
X290914Y129410D01*
X290000Y129530D01*
D02*
G37*
G36*
X44250Y160000D02*
X35750D01*
Y150000D01*
X38471D01*
Y146240D01*
X38587Y145655D01*
X38919Y145159D01*
X41638Y142439D01*
Y137996D01*
X48362D01*
Y144484D01*
X43919D01*
X41529Y146874D01*
Y150000D01*
X44250D01*
Y160000D01*
D02*
G37*
G36*
X185000Y160037D02*
X183890Y159891D01*
X182857Y159462D01*
X181969Y158781D01*
X181288Y157893D01*
X180859Y156860D01*
X180713Y155750D01*
Y154250D01*
X180859Y153140D01*
X181288Y152107D01*
X181969Y151219D01*
X182857Y150538D01*
X183890Y150109D01*
X185000Y149963D01*
X186109Y150109D01*
X187143Y150538D01*
X188031Y151219D01*
X188712Y152107D01*
X189141Y153140D01*
X189287Y154250D01*
Y155750D01*
X189141Y156860D01*
X188712Y157893D01*
X188031Y158781D01*
X187143Y159462D01*
X186109Y159891D01*
X185000Y160037D01*
D02*
G37*
G36*
X227500Y174743D02*
X226642Y174572D01*
X225914Y174086D01*
X225428Y173358D01*
X225257Y172500D01*
X225428Y171642D01*
X225914Y170914D01*
X225971Y170876D01*
Y159717D01*
X225357Y159462D01*
X224469Y158781D01*
X223788Y157893D01*
X223359Y156860D01*
X223213Y155750D01*
Y154250D01*
X223359Y153140D01*
X223788Y152107D01*
X224469Y151219D01*
X225357Y150538D01*
X226391Y150109D01*
X227500Y149963D01*
X228609Y150109D01*
X229643Y150538D01*
X230531Y151219D01*
X231212Y152107D01*
X231641Y153140D01*
X231787Y154250D01*
Y155750D01*
X231641Y156860D01*
X231212Y157893D01*
X230531Y158781D01*
X229643Y159462D01*
X229029Y159717D01*
Y170876D01*
X229086Y170914D01*
X229572Y171642D01*
X229743Y172500D01*
X229572Y173358D01*
X229086Y174086D01*
X228358Y174572D01*
X227500Y174743D01*
D02*
G37*
G36*
X237500Y160037D02*
X236390Y159891D01*
X235357Y159462D01*
X234469Y158781D01*
X233788Y157893D01*
X233359Y156860D01*
X233213Y155750D01*
Y154250D01*
X233359Y153140D01*
X233788Y152107D01*
X234469Y151219D01*
X235357Y150538D01*
X236390Y150109D01*
X237500Y149963D01*
X238610Y150109D01*
X239643Y150538D01*
X240531Y151219D01*
X241212Y152107D01*
X241641Y153140D01*
X241787Y154250D01*
Y155750D01*
X241641Y156860D01*
X241212Y157893D01*
X240531Y158781D01*
X239643Y159462D01*
X238610Y159891D01*
X237500Y160037D01*
D02*
G37*
G36*
X175000Y174743D02*
X174142Y174572D01*
X173414Y174086D01*
X172928Y173358D01*
X172757Y172500D01*
X172928Y171642D01*
X173414Y170914D01*
X173471Y170876D01*
Y159717D01*
X172857Y159462D01*
X171969Y158781D01*
X171288Y157893D01*
X170859Y156860D01*
X170713Y155750D01*
Y154250D01*
X170859Y153140D01*
X171288Y152107D01*
X171969Y151219D01*
X172857Y150538D01*
X173890Y150109D01*
X175000Y149963D01*
X176110Y150109D01*
X177143Y150538D01*
X178031Y151219D01*
X178712Y152107D01*
X179141Y153140D01*
X179287Y154250D01*
Y155750D01*
X179141Y156860D01*
X178712Y157893D01*
X178031Y158781D01*
X177143Y159462D01*
X176529Y159717D01*
Y170876D01*
X176586Y170914D01*
X177072Y171642D01*
X177243Y172500D01*
X177072Y173358D01*
X176586Y174086D01*
X175858Y174572D01*
X175000Y174743D01*
D02*
G37*
G36*
X50000Y160037D02*
X48891Y159891D01*
X47857Y159462D01*
X46969Y158781D01*
X46288Y157893D01*
X45859Y156860D01*
X45713Y155750D01*
Y154250D01*
X45859Y153140D01*
X46288Y152107D01*
X46969Y151219D01*
X47857Y150538D01*
X48471Y150283D01*
Y146240D01*
X48587Y145655D01*
X48919Y145159D01*
X51638Y142439D01*
Y137996D01*
X58362D01*
Y144484D01*
X53919D01*
X51529Y146874D01*
Y150283D01*
X52143Y150538D01*
X53031Y151219D01*
X53712Y152107D01*
X54141Y153140D01*
X54287Y154250D01*
Y155750D01*
X54141Y156860D01*
X53712Y157893D01*
X53031Y158781D01*
X52143Y159462D01*
X51109Y159891D01*
X50000Y160037D01*
D02*
G37*
G36*
X70000D02*
X68891Y159891D01*
X67857Y159462D01*
X66969Y158781D01*
X66288Y157893D01*
X65859Y156860D01*
X65713Y155750D01*
Y154250D01*
X65859Y153140D01*
X66288Y152107D01*
X66969Y151219D01*
X67857Y150538D01*
X68471Y150283D01*
Y146874D01*
X66081Y144484D01*
X61638D01*
Y137996D01*
X68362D01*
Y142439D01*
X71081Y145159D01*
X71413Y145655D01*
X71529Y146240D01*
Y150283D01*
X72143Y150538D01*
X73031Y151219D01*
X73712Y152107D01*
X74141Y153140D01*
X74287Y154250D01*
Y155750D01*
X74141Y156860D01*
X73712Y157893D01*
X73031Y158781D01*
X72143Y159462D01*
X71109Y159891D01*
X70000Y160037D01*
D02*
G37*
G36*
X60000D02*
X58890Y159891D01*
X57857Y159462D01*
X56969Y158781D01*
X56288Y157893D01*
X55859Y156860D01*
X55713Y155750D01*
Y154250D01*
X55859Y153140D01*
X56288Y152107D01*
X56969Y151219D01*
X57857Y150538D01*
X58890Y150109D01*
X60000Y149963D01*
X61110Y150109D01*
X62143Y150538D01*
X63031Y151219D01*
X63712Y152107D01*
X64141Y153140D01*
X64287Y154250D01*
Y155750D01*
X64141Y156860D01*
X63712Y157893D01*
X63031Y158781D01*
X62143Y159462D01*
X61110Y159891D01*
X60000Y160037D01*
D02*
G37*
G36*
X197500Y129530D02*
X196586Y129410D01*
X195735Y129057D01*
X195004Y128496D01*
X194443Y127765D01*
X194090Y126914D01*
X193970Y126000D01*
Y124000D01*
X194090Y123086D01*
X194443Y122235D01*
X195004Y121504D01*
X195735Y120943D01*
X196586Y120590D01*
X197500Y120470D01*
X198414Y120590D01*
X199265Y120943D01*
X199996Y121504D01*
X200557Y122235D01*
X200910Y123086D01*
X201030Y124000D01*
Y126000D01*
X200910Y126914D01*
X200557Y127765D01*
X199996Y128496D01*
X199265Y129057D01*
X198414Y129410D01*
X197500Y129530D01*
D02*
G37*
G36*
X333177Y121839D02*
Y116642D01*
X337260D01*
Y117323D01*
X337104Y118509D01*
X336646Y119614D01*
X335917Y120563D01*
X334968Y121291D01*
X333863Y121749D01*
X333177Y121839D01*
D02*
G37*
G36*
X48362Y137004D02*
X41638D01*
Y130516D01*
X43471D01*
Y129155D01*
X43235Y129057D01*
X42504Y128496D01*
X41943Y127765D01*
X41590Y126914D01*
X41470Y126000D01*
Y124000D01*
X41590Y123086D01*
X41943Y122235D01*
X42504Y121504D01*
X43235Y120943D01*
X44086Y120590D01*
X45000Y120470D01*
X45914Y120590D01*
X46765Y120943D01*
X47496Y121504D01*
X48057Y122235D01*
X48410Y123086D01*
X48530Y124000D01*
Y126000D01*
X48410Y126914D01*
X48057Y127765D01*
X47496Y128496D01*
X46765Y129057D01*
X46529Y129155D01*
Y130516D01*
X48362D01*
Y137004D01*
D02*
G37*
G36*
X58362D02*
X51638D01*
Y130516D01*
X53471D01*
Y129155D01*
X53235Y129057D01*
X52504Y128496D01*
X51943Y127765D01*
X51590Y126914D01*
X51470Y126000D01*
Y124000D01*
X51590Y123086D01*
X51943Y122235D01*
X52504Y121504D01*
X53235Y120943D01*
X54086Y120590D01*
X55000Y120470D01*
X55914Y120590D01*
X56765Y120943D01*
X57496Y121504D01*
X58057Y122235D01*
X58410Y123086D01*
X58530Y124000D01*
Y126000D01*
X58410Y126914D01*
X58057Y127765D01*
X57496Y128496D01*
X56765Y129057D01*
X56529Y129155D01*
Y130516D01*
X58362D01*
Y137004D01*
D02*
G37*
G36*
X332177Y121839D02*
X331491Y121749D01*
X330386Y121291D01*
X329437Y120563D01*
X328709Y119614D01*
X328251Y118509D01*
X328095Y117323D01*
Y116642D01*
X332177D01*
Y121839D01*
D02*
G37*
G36*
X207500Y129530D02*
X206586Y129410D01*
X205735Y129057D01*
X205004Y128496D01*
X204443Y127765D01*
X204090Y126914D01*
X203970Y126000D01*
Y124000D01*
X204090Y123086D01*
X204443Y122235D01*
X205004Y121504D01*
X205735Y120943D01*
X205971Y120845D01*
Y115000D01*
X206087Y114415D01*
X206419Y113919D01*
X207678Y112659D01*
X208175Y112327D01*
X208760Y112211D01*
X215138D01*
Y110496D01*
X221862D01*
Y116984D01*
X215138D01*
Y115269D01*
X209393D01*
X209029Y115633D01*
Y120845D01*
X209265Y120943D01*
X209996Y121504D01*
X210557Y122235D01*
X210910Y123086D01*
X211030Y124000D01*
Y126000D01*
X210910Y126914D01*
X210557Y127765D01*
X209996Y128496D01*
X209265Y129057D01*
X208414Y129410D01*
X207500Y129530D01*
D02*
G37*
G36*
X300000D02*
X299086Y129410D01*
X298235Y129057D01*
X297504Y128496D01*
X296943Y127765D01*
X296590Y126914D01*
X296470Y126000D01*
Y124000D01*
X296590Y123086D01*
X296943Y122235D01*
X297504Y121504D01*
X298235Y120943D01*
X298471Y120845D01*
Y115000D01*
X298587Y114415D01*
X298919Y113919D01*
X300178Y112659D01*
X300675Y112327D01*
X301260Y112211D01*
X309138D01*
Y110496D01*
X315862D01*
Y116984D01*
X309138D01*
Y115269D01*
X301893D01*
X301529Y115633D01*
Y120845D01*
X301765Y120943D01*
X302496Y121504D01*
X303057Y122235D01*
X303410Y123086D01*
X303530Y124000D01*
Y126000D01*
X303410Y126914D01*
X303057Y127765D01*
X302496Y128496D01*
X301765Y129057D01*
X300914Y129410D01*
X300000Y129530D01*
D02*
G37*
G36*
X25000D02*
X24086Y129410D01*
X23235Y129057D01*
X22504Y128496D01*
X21943Y127765D01*
X21590Y126914D01*
X21470Y126000D01*
Y124000D01*
X21590Y123086D01*
X21943Y122235D01*
X22504Y121504D01*
X23235Y120943D01*
X23471Y120845D01*
Y115633D01*
X23107Y115269D01*
X15862D01*
Y116984D01*
X9138D01*
Y110496D01*
X15862D01*
Y112211D01*
X23740D01*
X24325Y112327D01*
X24822Y112659D01*
X26081Y113919D01*
X26413Y114415D01*
X26529Y115000D01*
Y120845D01*
X26765Y120943D01*
X27496Y121504D01*
X28057Y122235D01*
X28410Y123086D01*
X28530Y124000D01*
Y126000D01*
X28410Y126914D01*
X28057Y127765D01*
X27496Y128496D01*
X26765Y129057D01*
X25914Y129410D01*
X25000Y129530D01*
D02*
G37*
G36*
X68362Y137004D02*
X61638D01*
Y130516D01*
X63471D01*
Y129155D01*
X63235Y129057D01*
X62504Y128496D01*
X61943Y127765D01*
X61590Y126914D01*
X61470Y126000D01*
Y124000D01*
X61590Y123086D01*
X61943Y122235D01*
X62504Y121504D01*
X63235Y120943D01*
X64086Y120590D01*
X65000Y120470D01*
X65914Y120590D01*
X66765Y120943D01*
X67496Y121504D01*
X68057Y122235D01*
X68410Y123086D01*
X68530Y124000D01*
Y126000D01*
X68410Y126914D01*
X68057Y127765D01*
X67496Y128496D01*
X66765Y129057D01*
X66529Y129155D01*
Y130516D01*
X68362D01*
Y137004D01*
D02*
G37*
G36*
X118362D02*
X111638D01*
Y130516D01*
X113471D01*
Y129155D01*
X113235Y129057D01*
X112504Y128496D01*
X111943Y127765D01*
X111590Y126914D01*
X111470Y126000D01*
Y124000D01*
X111590Y123086D01*
X111943Y122235D01*
X112504Y121504D01*
X113235Y120943D01*
X114086Y120590D01*
X115000Y120470D01*
X115914Y120590D01*
X116765Y120943D01*
X117496Y121504D01*
X118057Y122235D01*
X118410Y123086D01*
X118530Y124000D01*
Y126000D01*
X118410Y126914D01*
X118057Y127765D01*
X117496Y128496D01*
X116765Y129057D01*
X116529Y129155D01*
Y130516D01*
X118362D01*
Y137004D01*
D02*
G37*
G36*
X137500Y129530D02*
X136586Y129410D01*
X135735Y129057D01*
X135004Y128496D01*
X134443Y127765D01*
X134090Y126914D01*
X133970Y126000D01*
Y124000D01*
X134090Y123086D01*
X134443Y122235D01*
X135004Y121504D01*
X135735Y120943D01*
X136586Y120590D01*
X137500Y120470D01*
X138414Y120590D01*
X139265Y120943D01*
X139996Y121504D01*
X140557Y122235D01*
X140910Y123086D01*
X141030Y124000D01*
Y126000D01*
X140910Y126914D01*
X140557Y127765D01*
X139996Y128496D01*
X139265Y129057D01*
X138414Y129410D01*
X137500Y129530D01*
D02*
G37*
G36*
X147500D02*
X146586Y129410D01*
X145735Y129057D01*
X145004Y128496D01*
X144443Y127765D01*
X144090Y126914D01*
X143970Y126000D01*
Y124000D01*
X144090Y123086D01*
X144443Y122235D01*
X145004Y121504D01*
X145735Y120943D01*
X146586Y120590D01*
X147500Y120470D01*
X148414Y120590D01*
X149265Y120943D01*
X149996Y121504D01*
X150557Y122235D01*
X150910Y123086D01*
X151030Y124000D01*
Y126000D01*
X150910Y126914D01*
X150557Y127765D01*
X149996Y128496D01*
X149265Y129057D01*
X148414Y129410D01*
X147500Y129530D01*
D02*
G37*
G36*
X108362Y137004D02*
X101638D01*
Y130516D01*
X103471D01*
Y129155D01*
X103235Y129057D01*
X102504Y128496D01*
X101943Y127765D01*
X101590Y126914D01*
X101470Y126000D01*
Y124000D01*
X101590Y123086D01*
X101943Y122235D01*
X102504Y121504D01*
X103235Y120943D01*
X104086Y120590D01*
X105000Y120470D01*
X105914Y120590D01*
X106765Y120943D01*
X107496Y121504D01*
X108057Y122235D01*
X108410Y123086D01*
X108530Y124000D01*
Y126000D01*
X108410Y126914D01*
X108057Y127765D01*
X107496Y128496D01*
X106765Y129057D01*
X106529Y129155D01*
Y130516D01*
X108362D01*
Y137004D01*
D02*
G37*
G36*
X78362D02*
X71638D01*
Y130516D01*
X73471D01*
Y129155D01*
X73235Y129057D01*
X72504Y128496D01*
X71943Y127765D01*
X71590Y126914D01*
X71470Y126000D01*
Y124000D01*
X71590Y123086D01*
X71943Y122235D01*
X72504Y121504D01*
X73235Y120943D01*
X74086Y120590D01*
X75000Y120470D01*
X75914Y120590D01*
X76765Y120943D01*
X77496Y121504D01*
X78057Y122235D01*
X78410Y123086D01*
X78530Y124000D01*
Y126000D01*
X78410Y126914D01*
X78057Y127765D01*
X77496Y128496D01*
X76765Y129057D01*
X76529Y129155D01*
Y130516D01*
X78362D01*
Y137004D01*
D02*
G37*
G36*
X88362D02*
X81638D01*
Y130516D01*
X83471D01*
Y129155D01*
X83235Y129057D01*
X82504Y128496D01*
X81943Y127765D01*
X81590Y126914D01*
X81470Y126000D01*
Y124000D01*
X81590Y123086D01*
X81943Y122235D01*
X82504Y121504D01*
X83235Y120943D01*
X84086Y120590D01*
X85000Y120470D01*
X85914Y120590D01*
X86765Y120943D01*
X87496Y121504D01*
X88057Y122235D01*
X88410Y123086D01*
X88530Y124000D01*
Y126000D01*
X88410Y126914D01*
X88057Y127765D01*
X87496Y128496D01*
X86765Y129057D01*
X86529Y129155D01*
Y130516D01*
X88362D01*
Y137004D01*
D02*
G37*
G36*
X98362D02*
X91638D01*
Y130516D01*
X93471D01*
Y129155D01*
X93235Y129057D01*
X92504Y128496D01*
X91943Y127765D01*
X91590Y126914D01*
X91470Y126000D01*
Y124000D01*
X91590Y123086D01*
X91943Y122235D01*
X92504Y121504D01*
X93235Y120943D01*
X94086Y120590D01*
X95000Y120470D01*
X95914Y120590D01*
X96765Y120943D01*
X97496Y121504D01*
X98057Y122235D01*
X98410Y123086D01*
X98530Y124000D01*
Y126000D01*
X98410Y126914D01*
X98057Y127765D01*
X97496Y128496D01*
X96765Y129057D01*
X96529Y129155D01*
Y130516D01*
X98362D01*
Y137004D01*
D02*
G37*
G36*
X280000Y174743D02*
X279142Y174572D01*
X278414Y174086D01*
X277928Y173358D01*
X277757Y172500D01*
X277928Y171642D01*
X278414Y170914D01*
X278471Y170876D01*
Y159717D01*
X277857Y159462D01*
X276969Y158781D01*
X276288Y157893D01*
X275859Y156860D01*
X275713Y155750D01*
Y154250D01*
X275859Y153140D01*
X276288Y152107D01*
X276969Y151219D01*
X277857Y150538D01*
X278890Y150109D01*
X280000Y149963D01*
X281109Y150109D01*
X282143Y150538D01*
X283031Y151219D01*
X283712Y152107D01*
X284141Y153140D01*
X284287Y154250D01*
Y155750D01*
X284141Y156860D01*
X283712Y157893D01*
X283031Y158781D01*
X282143Y159462D01*
X281529Y159717D01*
Y170876D01*
X281586Y170914D01*
X282072Y171642D01*
X282243Y172500D01*
X282072Y173358D01*
X281586Y174086D01*
X280858Y174572D01*
X280000Y174743D01*
D02*
G37*
G36*
X290000Y220037D02*
X288891Y219891D01*
X287857Y219462D01*
X286969Y218781D01*
X286288Y217893D01*
X285859Y216860D01*
X285713Y215750D01*
Y214250D01*
X285859Y213141D01*
X286288Y212107D01*
X286969Y211219D01*
X287857Y210538D01*
X288891Y210109D01*
X290000Y209963D01*
X291109Y210109D01*
X292143Y210538D01*
X293031Y211219D01*
X293712Y212107D01*
X294141Y213141D01*
X294287Y214250D01*
Y215750D01*
X294141Y216860D01*
X293712Y217893D01*
X293031Y218781D01*
X292143Y219462D01*
X291109Y219891D01*
X290000Y220037D01*
D02*
G37*
G36*
X342500D02*
X341390Y219891D01*
X340357Y219462D01*
X339469Y218781D01*
X338788Y217893D01*
X338359Y216860D01*
X338213Y215750D01*
Y214250D01*
X338359Y213141D01*
X338788Y212107D01*
X339469Y211219D01*
X340357Y210538D01*
X341390Y210109D01*
X342500Y209963D01*
X343609Y210109D01*
X344643Y210538D01*
X345531Y211219D01*
X346212Y212107D01*
X346641Y213141D01*
X346787Y214250D01*
Y215750D01*
X346641Y216860D01*
X346212Y217893D01*
X345531Y218781D01*
X344643Y219462D01*
X343609Y219891D01*
X342500Y220037D01*
D02*
G37*
G36*
X300000Y310037D02*
X298890Y309891D01*
X297857Y309462D01*
X296969Y308781D01*
X296288Y307893D01*
X295859Y306859D01*
X295713Y305750D01*
Y304250D01*
X295859Y303140D01*
X296288Y302107D01*
X296969Y301219D01*
X297857Y300538D01*
X298471Y300283D01*
Y240000D01*
X298587Y239415D01*
X298919Y238919D01*
X315971Y221866D01*
Y218944D01*
X315471Y218828D01*
X314643Y219462D01*
X313610Y219891D01*
X312500Y220037D01*
X311390Y219891D01*
X310357Y219462D01*
X309469Y218781D01*
X308788Y217893D01*
X308359Y216860D01*
X308213Y215750D01*
Y214250D01*
X308359Y213141D01*
X308788Y212107D01*
X309469Y211219D01*
X310357Y210538D01*
X310971Y210283D01*
Y194124D01*
X310914Y194086D01*
X310428Y193358D01*
X310257Y192500D01*
X310428Y191642D01*
X310914Y190914D01*
X311642Y190428D01*
X312500Y190257D01*
X313358Y190428D01*
X314086Y190914D01*
X314572Y191642D01*
X314743Y192500D01*
X314572Y193358D01*
X314086Y194086D01*
X314029Y194124D01*
Y210283D01*
X314643Y210538D01*
X315471Y211172D01*
X315971Y211056D01*
Y158944D01*
X315471Y158828D01*
X314643Y159462D01*
X314029Y159717D01*
Y175876D01*
X314086Y175914D01*
X314572Y176642D01*
X314743Y177500D01*
X314572Y178358D01*
X314086Y179086D01*
X313358Y179572D01*
X312500Y179743D01*
X311642Y179572D01*
X310914Y179086D01*
X310428Y178358D01*
X310257Y177500D01*
X310428Y176642D01*
X310914Y175914D01*
X310971Y175876D01*
Y159717D01*
X310357Y159462D01*
X309469Y158781D01*
X308788Y157893D01*
X308359Y156860D01*
X308213Y155750D01*
Y154250D01*
X308359Y153140D01*
X308788Y152107D01*
X309469Y151219D01*
X310357Y150538D01*
X311390Y150109D01*
X312500Y149963D01*
X313610Y150109D01*
X314643Y150538D01*
X315471Y151172D01*
X315971Y151056D01*
Y140633D01*
X314367Y139029D01*
X282500D01*
X281915Y138913D01*
X281419Y138581D01*
X278919Y136081D01*
X278587Y135585D01*
X278471Y135000D01*
Y129155D01*
X278235Y129057D01*
X277504Y128496D01*
X276943Y127765D01*
X276590Y126914D01*
X276470Y126000D01*
Y124000D01*
X276590Y123086D01*
X276943Y122235D01*
X277504Y121504D01*
X278235Y120943D01*
X279086Y120590D01*
X280000Y120470D01*
X280914Y120590D01*
X281765Y120943D01*
X282496Y121504D01*
X283057Y122235D01*
X283410Y123086D01*
X283530Y124000D01*
Y126000D01*
X283410Y126914D01*
X283057Y127765D01*
X282496Y128496D01*
X281765Y129057D01*
X281529Y129155D01*
Y134367D01*
X283134Y135971D01*
X315000D01*
X315585Y136087D01*
X316081Y136419D01*
X318581Y138919D01*
X318913Y139415D01*
X319029Y140000D01*
Y151056D01*
X319529Y151172D01*
X320357Y150538D01*
X321391Y150109D01*
X322500Y149963D01*
X323609Y150109D01*
X324643Y150538D01*
X325531Y151219D01*
X326212Y152107D01*
X326641Y153140D01*
X326787Y154250D01*
Y155750D01*
X326641Y156860D01*
X326212Y157893D01*
X325531Y158781D01*
X324643Y159462D01*
X323609Y159891D01*
X322500Y160037D01*
X321391Y159891D01*
X320357Y159462D01*
X319529Y158828D01*
X319029Y158944D01*
Y211056D01*
X319529Y211172D01*
X320357Y210538D01*
X321391Y210109D01*
X322500Y209963D01*
X323609Y210109D01*
X324643Y210538D01*
X325531Y211219D01*
X326212Y212107D01*
X326641Y213141D01*
X326787Y214250D01*
Y215750D01*
X326641Y216860D01*
X326212Y217893D01*
X325531Y218781D01*
X324643Y219462D01*
X323609Y219891D01*
X322500Y220037D01*
X321391Y219891D01*
X320357Y219462D01*
X319529Y218828D01*
X319029Y218944D01*
Y222500D01*
X318913Y223085D01*
X318581Y223581D01*
X301529Y240634D01*
Y300283D01*
X302143Y300538D01*
X303031Y301219D01*
X303712Y302107D01*
X304141Y303140D01*
X304287Y304250D01*
Y305750D01*
X304141Y306859D01*
X303712Y307893D01*
X303031Y308781D01*
X302143Y309462D01*
X301110Y309891D01*
X300000Y310037D01*
D02*
G37*
G36*
X237500Y220037D02*
X236390Y219891D01*
X235357Y219462D01*
X234469Y218781D01*
X233788Y217893D01*
X233359Y216860D01*
X233213Y215750D01*
Y214250D01*
X233359Y213141D01*
X233788Y212107D01*
X234469Y211219D01*
X235357Y210538D01*
X236390Y210109D01*
X237500Y209963D01*
X238610Y210109D01*
X239643Y210538D01*
X240531Y211219D01*
X241212Y212107D01*
X241641Y213141D01*
X241787Y214250D01*
Y215750D01*
X241641Y216860D01*
X241212Y217893D01*
X240531Y218781D01*
X239643Y219462D01*
X238610Y219891D01*
X237500Y220037D01*
D02*
G37*
G36*
X80000D02*
X78891Y219891D01*
X77857Y219462D01*
X76969Y218781D01*
X76288Y217893D01*
X75859Y216860D01*
X75713Y215750D01*
Y214250D01*
X75859Y213141D01*
X76288Y212107D01*
X76969Y211219D01*
X77857Y210538D01*
X78891Y210109D01*
X80000Y209963D01*
X81109Y210109D01*
X82143Y210538D01*
X83031Y211219D01*
X83712Y212107D01*
X84141Y213141D01*
X84287Y214250D01*
Y215750D01*
X84141Y216860D01*
X83712Y217893D01*
X83031Y218781D01*
X82143Y219462D01*
X81109Y219891D01*
X80000Y220037D01*
D02*
G37*
G36*
X112500D02*
X111390Y219891D01*
X110357Y219462D01*
X109469Y218781D01*
X108788Y217893D01*
X108359Y216860D01*
X108213Y215750D01*
Y214250D01*
X108359Y213141D01*
X108788Y212107D01*
X109469Y211219D01*
X110357Y210538D01*
X111390Y210109D01*
X112500Y209963D01*
X113610Y210109D01*
X114643Y210538D01*
X115531Y211219D01*
X116212Y212107D01*
X116641Y213141D01*
X116787Y214250D01*
Y215750D01*
X116641Y216860D01*
X116212Y217893D01*
X115531Y218781D01*
X114643Y219462D01*
X113610Y219891D01*
X112500Y220037D01*
D02*
G37*
G36*
X185000D02*
X183890Y219891D01*
X182857Y219462D01*
X181969Y218781D01*
X181288Y217893D01*
X180859Y216860D01*
X180713Y215750D01*
Y214250D01*
X180859Y213141D01*
X181288Y212107D01*
X181969Y211219D01*
X182857Y210538D01*
X183890Y210109D01*
X185000Y209963D01*
X186109Y210109D01*
X187143Y210538D01*
X188031Y211219D01*
X188712Y212107D01*
X189141Y213141D01*
X189287Y214250D01*
Y215750D01*
X189141Y216860D01*
X188712Y217893D01*
X188031Y218781D01*
X187143Y219462D01*
X186109Y219891D01*
X185000Y220037D01*
D02*
G37*
G36*
X102500Y235037D02*
X101391Y234891D01*
X100357Y234462D01*
X99469Y233781D01*
X98788Y232893D01*
X98359Y231859D01*
X98213Y230750D01*
Y229250D01*
X98359Y228140D01*
X98788Y227107D01*
X99469Y226219D01*
X100357Y225538D01*
X101391Y225109D01*
X102500Y224963D01*
X103610Y225109D01*
X104643Y225538D01*
X105531Y226219D01*
X106212Y227107D01*
X106641Y228140D01*
X106787Y229250D01*
Y230750D01*
X106641Y231859D01*
X106212Y232893D01*
X105531Y233781D01*
X104643Y234462D01*
X103610Y234891D01*
X102500Y235037D01*
D02*
G37*
G36*
X207500Y254743D02*
X206642Y254572D01*
X205914Y254086D01*
X205428Y253358D01*
X205257Y252500D01*
X205428Y251642D01*
X205914Y250914D01*
X205971Y250876D01*
Y234717D01*
X205357Y234462D01*
X204469Y233781D01*
X203788Y232893D01*
X203359Y231859D01*
X203213Y230750D01*
Y229250D01*
X203359Y228140D01*
X203788Y227107D01*
X204469Y226219D01*
X205357Y225538D01*
X206391Y225109D01*
X207500Y224963D01*
X208610Y225109D01*
X209643Y225538D01*
X210531Y226219D01*
X211212Y227107D01*
X211641Y228140D01*
X211787Y229250D01*
Y230750D01*
X211641Y231859D01*
X211212Y232893D01*
X210531Y233781D01*
X209643Y234462D01*
X209029Y234717D01*
Y250876D01*
X209086Y250914D01*
X209572Y251642D01*
X209743Y252500D01*
X209572Y253358D01*
X209086Y254086D01*
X208358Y254572D01*
X207500Y254743D01*
D02*
G37*
G36*
X217500Y235037D02*
X216390Y234891D01*
X215357Y234462D01*
X214469Y233781D01*
X213788Y232893D01*
X213359Y231859D01*
X213213Y230750D01*
Y229250D01*
X213359Y228140D01*
X213394Y228057D01*
X211419Y226081D01*
X211087Y225585D01*
X210971Y225000D01*
Y218944D01*
X210471Y218828D01*
X209643Y219462D01*
X208610Y219891D01*
X207500Y220037D01*
X206391Y219891D01*
X205357Y219462D01*
X204469Y218781D01*
X203788Y217893D01*
X203359Y216860D01*
X203213Y215750D01*
Y214250D01*
X203359Y213141D01*
X203788Y212107D01*
X204469Y211219D01*
X205357Y210538D01*
X205971Y210283D01*
Y194124D01*
X205914Y194086D01*
X205428Y193358D01*
X205257Y192500D01*
X205428Y191642D01*
X205914Y190914D01*
X206642Y190428D01*
X207500Y190257D01*
X208358Y190428D01*
X209086Y190914D01*
X209572Y191642D01*
X209743Y192500D01*
X209572Y193358D01*
X209086Y194086D01*
X209029Y194124D01*
Y210283D01*
X209643Y210538D01*
X210471Y211172D01*
X210971Y211056D01*
Y158944D01*
X210471Y158828D01*
X209643Y159462D01*
X209029Y159717D01*
Y175876D01*
X209086Y175914D01*
X209572Y176642D01*
X209743Y177500D01*
X209572Y178358D01*
X209086Y179086D01*
X208358Y179572D01*
X207500Y179743D01*
X206642Y179572D01*
X205914Y179086D01*
X205428Y178358D01*
X205257Y177500D01*
X205428Y176642D01*
X205914Y175914D01*
X205971Y175876D01*
Y159717D01*
X205357Y159462D01*
X204469Y158781D01*
X203788Y157893D01*
X203359Y156860D01*
X203213Y155750D01*
Y154250D01*
X203359Y153140D01*
X203788Y152107D01*
X204469Y151219D01*
X205357Y150538D01*
X206391Y150109D01*
X207500Y149963D01*
X208610Y150109D01*
X209643Y150538D01*
X210471Y151172D01*
X210971Y151056D01*
Y140000D01*
X211087Y139415D01*
X211419Y138919D01*
X213919Y136419D01*
X214415Y136087D01*
X215000Y135971D01*
X226867D01*
X228471Y134367D01*
Y129155D01*
X228235Y129057D01*
X227504Y128496D01*
X226943Y127765D01*
X226590Y126914D01*
X226470Y126000D01*
Y124000D01*
X226590Y123086D01*
X226943Y122235D01*
X227504Y121504D01*
X228235Y120943D01*
X229086Y120590D01*
X230000Y120470D01*
X230914Y120590D01*
X231765Y120943D01*
X232496Y121504D01*
X233057Y122235D01*
X233410Y123086D01*
X233530Y124000D01*
Y126000D01*
X233410Y126914D01*
X233057Y127765D01*
X232496Y128496D01*
X231765Y129057D01*
X231529Y129155D01*
Y135000D01*
X231413Y135585D01*
X231081Y136081D01*
X228581Y138581D01*
X228085Y138913D01*
X227500Y139029D01*
X215634D01*
X214029Y140633D01*
Y151056D01*
X214529Y151172D01*
X215357Y150538D01*
X216390Y150109D01*
X217500Y149963D01*
X218609Y150109D01*
X219643Y150538D01*
X220531Y151219D01*
X221212Y152107D01*
X221641Y153140D01*
X221787Y154250D01*
Y155750D01*
X221641Y156860D01*
X221212Y157893D01*
X220531Y158781D01*
X219643Y159462D01*
X218609Y159891D01*
X217500Y160037D01*
X216390Y159891D01*
X215357Y159462D01*
X214529Y158828D01*
X214029Y158944D01*
Y211056D01*
X214529Y211172D01*
X215357Y210538D01*
X216390Y210109D01*
X217500Y209963D01*
X218609Y210109D01*
X219643Y210538D01*
X220531Y211219D01*
X221212Y212107D01*
X221641Y213141D01*
X221787Y214250D01*
Y215750D01*
X221641Y216860D01*
X221212Y217893D01*
X220531Y218781D01*
X219643Y219462D01*
X218609Y219891D01*
X217500Y220037D01*
X216390Y219891D01*
X215357Y219462D01*
X214529Y218828D01*
X214029Y218944D01*
Y224366D01*
X215268Y225605D01*
X215357Y225538D01*
X216390Y225109D01*
X217500Y224963D01*
X218609Y225109D01*
X219643Y225538D01*
X220531Y226219D01*
X221212Y227107D01*
X221641Y228140D01*
X221787Y229250D01*
Y230750D01*
X221641Y231859D01*
X221212Y232893D01*
X220531Y233781D01*
X219643Y234462D01*
X218609Y234891D01*
X217500Y235037D01*
D02*
G37*
G36*
X227500Y249743D02*
X226642Y249572D01*
X225914Y249086D01*
X225428Y248358D01*
X225257Y247500D01*
X225428Y246642D01*
X225914Y245914D01*
X225971Y245876D01*
Y234717D01*
X225357Y234462D01*
X224469Y233781D01*
X223788Y232893D01*
X223359Y231859D01*
X223213Y230750D01*
Y229250D01*
X223359Y228140D01*
X223788Y227107D01*
X224469Y226219D01*
X225357Y225538D01*
X226391Y225109D01*
X227500Y224963D01*
X228609Y225109D01*
X229643Y225538D01*
X230531Y226219D01*
X231212Y227107D01*
X231641Y228140D01*
X231787Y229250D01*
Y230750D01*
X231641Y231859D01*
X231212Y232893D01*
X230531Y233781D01*
X229643Y234462D01*
X229029Y234717D01*
Y245876D01*
X229086Y245914D01*
X229572Y246642D01*
X229743Y247500D01*
X229572Y248358D01*
X229086Y249086D01*
X228358Y249572D01*
X227500Y249743D01*
D02*
G37*
G36*
X185000Y235037D02*
X183890Y234891D01*
X182857Y234462D01*
X181969Y233781D01*
X181288Y232893D01*
X180859Y231859D01*
X180713Y230750D01*
Y229250D01*
X180859Y228140D01*
X181288Y227107D01*
X181969Y226219D01*
X182857Y225538D01*
X183890Y225109D01*
X185000Y224963D01*
X186109Y225109D01*
X187143Y225538D01*
X188031Y226219D01*
X188712Y227107D01*
X189141Y228140D01*
X189287Y229250D01*
Y230750D01*
X189141Y231859D01*
X188712Y232893D01*
X188031Y233781D01*
X187143Y234462D01*
X186109Y234891D01*
X185000Y235037D01*
D02*
G37*
G36*
X122500D02*
X121390Y234891D01*
X120357Y234462D01*
X119469Y233781D01*
X118788Y232893D01*
X118359Y231859D01*
X118213Y230750D01*
Y229250D01*
X118359Y228140D01*
X118788Y227107D01*
X119469Y226219D01*
X120357Y225538D01*
X121390Y225109D01*
X122500Y224963D01*
X123609Y225109D01*
X124643Y225538D01*
X125531Y226219D01*
X126212Y227107D01*
X126641Y228140D01*
X126787Y229250D01*
Y230750D01*
X126641Y231859D01*
X126212Y232893D01*
X125531Y233781D01*
X124643Y234462D01*
X123609Y234891D01*
X122500Y235037D01*
D02*
G37*
G36*
X132500D02*
X131391Y234891D01*
X130357Y234462D01*
X129469Y233781D01*
X128788Y232893D01*
X128359Y231859D01*
X128213Y230750D01*
Y229250D01*
X128359Y228140D01*
X128788Y227107D01*
X129469Y226219D01*
X130357Y225538D01*
X131391Y225109D01*
X132500Y224963D01*
X133609Y225109D01*
X134643Y225538D01*
X135531Y226219D01*
X136212Y227107D01*
X136641Y228140D01*
X136787Y229250D01*
Y230750D01*
X136641Y231859D01*
X136212Y232893D01*
X135531Y233781D01*
X134643Y234462D01*
X133609Y234891D01*
X132500Y235037D01*
D02*
G37*
G36*
X175000Y249743D02*
X174142Y249572D01*
X173414Y249086D01*
X172928Y248358D01*
X172757Y247500D01*
X172928Y246642D01*
X173414Y245914D01*
X173471Y245876D01*
Y234717D01*
X172857Y234462D01*
X171969Y233781D01*
X171288Y232893D01*
X170859Y231859D01*
X170713Y230750D01*
Y229250D01*
X170859Y228140D01*
X171288Y227107D01*
X171969Y226219D01*
X172857Y225538D01*
X173890Y225109D01*
X175000Y224963D01*
X176110Y225109D01*
X177143Y225538D01*
X178031Y226219D01*
X178712Y227107D01*
X179141Y228140D01*
X179287Y229250D01*
Y230750D01*
X179141Y231859D01*
X178712Y232893D01*
X178031Y233781D01*
X177143Y234462D01*
X176529Y234717D01*
Y245876D01*
X176586Y245914D01*
X177072Y246642D01*
X177243Y247500D01*
X177072Y248358D01*
X176586Y249086D01*
X175858Y249572D01*
X175000Y249743D01*
D02*
G37*
G36*
X60000Y220037D02*
X58890Y219891D01*
X57857Y219462D01*
X56969Y218781D01*
X56288Y217893D01*
X55859Y216860D01*
X55713Y215750D01*
Y214250D01*
X55859Y213141D01*
X56288Y212107D01*
X56969Y211219D01*
X57857Y210538D01*
X58890Y210109D01*
X60000Y209963D01*
X61110Y210109D01*
X62143Y210538D01*
X63031Y211219D01*
X63712Y212107D01*
X64141Y213141D01*
X64287Y214250D01*
Y215750D01*
X64141Y216860D01*
X63712Y217893D01*
X63031Y218781D01*
X62143Y219462D01*
X61110Y219891D01*
X60000Y220037D01*
D02*
G37*
G36*
X302500Y184743D02*
X301642Y184572D01*
X300914Y184086D01*
X300428Y183358D01*
X300257Y182500D01*
X300428Y181642D01*
X300914Y180914D01*
X300971Y180876D01*
Y160000D01*
X298250D01*
Y150000D01*
X306750D01*
Y160000D01*
X304029D01*
Y180876D01*
X304086Y180914D01*
X304572Y181642D01*
X304743Y182500D01*
X304572Y183358D01*
X304086Y184086D01*
X303358Y184572D01*
X302500Y184743D01*
D02*
G37*
G36*
X70000Y220037D02*
X68891Y219891D01*
X67857Y219462D01*
X66969Y218781D01*
X66288Y217893D01*
X65859Y216860D01*
X65713Y215750D01*
Y214250D01*
X65859Y213141D01*
X66288Y212107D01*
X66969Y211219D01*
X67857Y210538D01*
X68471Y210283D01*
Y200000D01*
X68587Y199415D01*
X68919Y198919D01*
X83471Y184367D01*
Y158944D01*
X82971Y158828D01*
X82143Y159462D01*
X81109Y159891D01*
X80000Y160037D01*
X78891Y159891D01*
X77857Y159462D01*
X76969Y158781D01*
X76288Y157893D01*
X75859Y156860D01*
X75713Y155750D01*
Y154250D01*
X75859Y153140D01*
X76288Y152107D01*
X76969Y151219D01*
X77857Y150538D01*
X78471Y150283D01*
Y146874D01*
X76081Y144484D01*
X71638D01*
Y137996D01*
X78362D01*
Y142439D01*
X81081Y145159D01*
X81413Y145655D01*
X81529Y146240D01*
Y150283D01*
X82143Y150538D01*
X82971Y151172D01*
X83471Y151056D01*
Y144484D01*
X81638D01*
Y137996D01*
X88362D01*
Y144484D01*
X86529D01*
Y185000D01*
X86413Y185585D01*
X86081Y186081D01*
X71529Y200634D01*
Y210283D01*
X72143Y210538D01*
X73031Y211219D01*
X73712Y212107D01*
X74141Y213141D01*
X74287Y214250D01*
Y215750D01*
X74141Y216860D01*
X73712Y217893D01*
X73031Y218781D01*
X72143Y219462D01*
X71109Y219891D01*
X70000Y220037D01*
D02*
G37*
G36*
X197500D02*
X196390Y219891D01*
X195357Y219462D01*
X194469Y218781D01*
X193788Y217893D01*
X193359Y216860D01*
X193213Y215750D01*
Y214250D01*
X193359Y213141D01*
X193788Y212107D01*
X194469Y211219D01*
X195357Y210538D01*
X195971Y210283D01*
Y189124D01*
X195914Y189086D01*
X195428Y188358D01*
X195257Y187500D01*
X195428Y186642D01*
X195914Y185914D01*
X196642Y185428D01*
X197500Y185257D01*
X198358Y185428D01*
X199086Y185914D01*
X199572Y186642D01*
X199743Y187500D01*
X199572Y188358D01*
X199086Y189086D01*
X199029Y189124D01*
Y210283D01*
X199643Y210538D01*
X200531Y211219D01*
X201212Y212107D01*
X201641Y213141D01*
X201787Y214250D01*
Y215750D01*
X201641Y216860D01*
X201212Y217893D01*
X200531Y218781D01*
X199643Y219462D01*
X198609Y219891D01*
X197500Y220037D01*
D02*
G37*
G36*
Y184743D02*
X196642Y184572D01*
X195914Y184086D01*
X195428Y183358D01*
X195257Y182500D01*
X195428Y181642D01*
X195914Y180914D01*
X195971Y180876D01*
Y160000D01*
X193250D01*
Y150000D01*
X201750D01*
Y160000D01*
X199029D01*
Y180876D01*
X199086Y180914D01*
X199572Y181642D01*
X199743Y182500D01*
X199572Y183358D01*
X199086Y184086D01*
X198358Y184572D01*
X197500Y184743D01*
D02*
G37*
G36*
X290000Y160037D02*
X288891Y159891D01*
X287857Y159462D01*
X286969Y158781D01*
X286288Y157893D01*
X285859Y156860D01*
X285713Y155750D01*
Y154250D01*
X285859Y153140D01*
X286288Y152107D01*
X286969Y151219D01*
X287857Y150538D01*
X288891Y150109D01*
X290000Y149963D01*
X291109Y150109D01*
X292143Y150538D01*
X293031Y151219D01*
X293712Y152107D01*
X294141Y153140D01*
X294287Y154250D01*
Y155750D01*
X294141Y156860D01*
X293712Y157893D01*
X293031Y158781D01*
X292143Y159462D01*
X291109Y159891D01*
X290000Y160037D01*
D02*
G37*
G36*
X332500Y174743D02*
X331642Y174572D01*
X330914Y174086D01*
X330428Y173358D01*
X330257Y172500D01*
X330428Y171642D01*
X330914Y170914D01*
X330971Y170876D01*
Y159717D01*
X330357Y159462D01*
X329469Y158781D01*
X328788Y157893D01*
X328359Y156860D01*
X328213Y155750D01*
Y154250D01*
X328359Y153140D01*
X328788Y152107D01*
X329469Y151219D01*
X330357Y150538D01*
X331391Y150109D01*
X332500Y149963D01*
X333610Y150109D01*
X334643Y150538D01*
X335531Y151219D01*
X336212Y152107D01*
X336641Y153140D01*
X336787Y154250D01*
Y155750D01*
X336641Y156860D01*
X336212Y157893D01*
X335531Y158781D01*
X334643Y159462D01*
X334029Y159717D01*
Y170876D01*
X334086Y170914D01*
X334572Y171642D01*
X334743Y172500D01*
X334572Y173358D01*
X334086Y174086D01*
X333358Y174572D01*
X332500Y174743D01*
D02*
G37*
G36*
X342500Y160037D02*
X341390Y159891D01*
X340357Y159462D01*
X339469Y158781D01*
X338788Y157893D01*
X338359Y156860D01*
X338213Y155750D01*
Y154250D01*
X338359Y153140D01*
X338788Y152107D01*
X339469Y151219D01*
X340357Y150538D01*
X341390Y150109D01*
X342500Y149963D01*
X343609Y150109D01*
X344643Y150538D01*
X345531Y151219D01*
X346212Y152107D01*
X346641Y153140D01*
X346787Y154250D01*
Y155750D01*
X346641Y156860D01*
X346212Y157893D01*
X345531Y158781D01*
X344643Y159462D01*
X343609Y159891D01*
X342500Y160037D01*
D02*
G37*
G36*
X302500Y220037D02*
X301391Y219891D01*
X300357Y219462D01*
X299469Y218781D01*
X298788Y217893D01*
X298359Y216860D01*
X298213Y215750D01*
Y214250D01*
X298359Y213141D01*
X298788Y212107D01*
X299469Y211219D01*
X300357Y210538D01*
X300971Y210283D01*
Y189124D01*
X300914Y189086D01*
X300428Y188358D01*
X300257Y187500D01*
X300428Y186642D01*
X300914Y185914D01*
X301642Y185428D01*
X302500Y185257D01*
X303358Y185428D01*
X304086Y185914D01*
X304572Y186642D01*
X304743Y187500D01*
X304572Y188358D01*
X304086Y189086D01*
X304029Y189124D01*
Y210283D01*
X304643Y210538D01*
X305531Y211219D01*
X306212Y212107D01*
X306641Y213141D01*
X306787Y214250D01*
Y215750D01*
X306641Y216860D01*
X306212Y217893D01*
X305531Y218781D01*
X304643Y219462D01*
X303609Y219891D01*
X302500Y220037D01*
D02*
G37*
G36*
X332500D02*
X331391Y219891D01*
X330357Y219462D01*
X329469Y218781D01*
X328788Y217893D01*
X328359Y216860D01*
X328213Y215750D01*
Y214250D01*
X328359Y213141D01*
X328788Y212107D01*
X329469Y211219D01*
X330357Y210538D01*
X330971Y210283D01*
Y199124D01*
X330914Y199086D01*
X330428Y198358D01*
X330257Y197500D01*
X330428Y196642D01*
X330914Y195914D01*
X331642Y195428D01*
X332500Y195257D01*
X333358Y195428D01*
X334086Y195914D01*
X334572Y196642D01*
X334743Y197500D01*
X334572Y198358D01*
X334086Y199086D01*
X334029Y199124D01*
Y210283D01*
X334643Y210538D01*
X335531Y211219D01*
X336212Y212107D01*
X336641Y213141D01*
X336787Y214250D01*
Y215750D01*
X336641Y216860D01*
X336212Y217893D01*
X335531Y218781D01*
X334643Y219462D01*
X333610Y219891D01*
X332500Y220037D01*
D02*
G37*
G36*
X40000D02*
X38890Y219891D01*
X37857Y219462D01*
X36969Y218781D01*
X36288Y217893D01*
X35859Y216860D01*
X35713Y215750D01*
Y214250D01*
X35859Y213141D01*
X36288Y212107D01*
X36969Y211219D01*
X37857Y210538D01*
X38890Y210109D01*
X40000Y209963D01*
X41109Y210109D01*
X42143Y210538D01*
X43031Y211219D01*
X43712Y212107D01*
X44141Y213141D01*
X44287Y214250D01*
Y215750D01*
X44141Y216860D01*
X43712Y217893D01*
X43031Y218781D01*
X42143Y219462D01*
X41109Y219891D01*
X40000Y220037D01*
D02*
G37*
G36*
X50000D02*
X48891Y219891D01*
X47857Y219462D01*
X46969Y218781D01*
X46288Y217893D01*
X45859Y216860D01*
X45713Y215750D01*
Y214250D01*
X45859Y213141D01*
X46288Y212107D01*
X46969Y211219D01*
X47857Y210538D01*
X48891Y210109D01*
X50000Y209963D01*
X51109Y210109D01*
X52143Y210538D01*
X53031Y211219D01*
X53712Y212107D01*
X54141Y213141D01*
X54287Y214250D01*
Y215750D01*
X54141Y216860D01*
X53712Y217893D01*
X53031Y218781D01*
X52143Y219462D01*
X51109Y219891D01*
X50000Y220037D01*
D02*
G37*
G36*
X280000D02*
X278890Y219891D01*
X277857Y219462D01*
X276969Y218781D01*
X276288Y217893D01*
X275859Y216860D01*
X275713Y215750D01*
Y214250D01*
X275859Y213141D01*
X276288Y212107D01*
X276969Y211219D01*
X277857Y210538D01*
X278471Y210283D01*
Y199124D01*
X278414Y199086D01*
X277928Y198358D01*
X277757Y197500D01*
X277928Y196642D01*
X278414Y195914D01*
X279142Y195428D01*
X280000Y195257D01*
X280858Y195428D01*
X281586Y195914D01*
X282072Y196642D01*
X282243Y197500D01*
X282072Y198358D01*
X281586Y199086D01*
X281529Y199124D01*
Y210283D01*
X282143Y210538D01*
X283031Y211219D01*
X283712Y212107D01*
X284141Y213141D01*
X284287Y214250D01*
Y215750D01*
X284141Y216860D01*
X283712Y217893D01*
X283031Y218781D01*
X282143Y219462D01*
X281109Y219891D01*
X280000Y220037D01*
D02*
G37*
G36*
X122500D02*
X121390Y219891D01*
X120357Y219462D01*
X119469Y218781D01*
X118788Y217893D01*
X118359Y216860D01*
X118213Y215750D01*
Y214250D01*
X118359Y213141D01*
X118788Y212107D01*
X119469Y211219D01*
X120357Y210538D01*
X120971Y210283D01*
Y199124D01*
X120914Y199086D01*
X120428Y198358D01*
X120257Y197500D01*
X120428Y196642D01*
X120914Y195914D01*
X121642Y195428D01*
X122500Y195257D01*
X123358Y195428D01*
X124086Y195914D01*
X124572Y196642D01*
X124743Y197500D01*
X124572Y198358D01*
X124086Y199086D01*
X124029Y199124D01*
Y210283D01*
X124643Y210538D01*
X125531Y211219D01*
X126212Y212107D01*
X126641Y213141D01*
X126787Y214250D01*
Y215750D01*
X126641Y216860D01*
X126212Y217893D01*
X125531Y218781D01*
X124643Y219462D01*
X123609Y219891D01*
X122500Y220037D01*
D02*
G37*
G36*
X175000D02*
X173890Y219891D01*
X172857Y219462D01*
X171969Y218781D01*
X171288Y217893D01*
X170859Y216860D01*
X170713Y215750D01*
Y214250D01*
X170859Y213141D01*
X171288Y212107D01*
X171969Y211219D01*
X172857Y210538D01*
X173471Y210283D01*
Y199124D01*
X173414Y199086D01*
X172928Y198358D01*
X172757Y197500D01*
X172928Y196642D01*
X173414Y195914D01*
X174142Y195428D01*
X175000Y195257D01*
X175858Y195428D01*
X176586Y195914D01*
X177072Y196642D01*
X177243Y197500D01*
X177072Y198358D01*
X176586Y199086D01*
X176529Y199124D01*
Y210283D01*
X177143Y210538D01*
X178031Y211219D01*
X178712Y212107D01*
X179141Y213141D01*
X179287Y214250D01*
Y215750D01*
X179141Y216860D01*
X178712Y217893D01*
X178031Y218781D01*
X177143Y219462D01*
X176110Y219891D01*
X175000Y220037D01*
D02*
G37*
G36*
X227500D02*
X226391Y219891D01*
X225357Y219462D01*
X224469Y218781D01*
X223788Y217893D01*
X223359Y216860D01*
X223213Y215750D01*
Y214250D01*
X223359Y213141D01*
X223788Y212107D01*
X224469Y211219D01*
X225357Y210538D01*
X225971Y210283D01*
Y199124D01*
X225914Y199086D01*
X225428Y198358D01*
X225257Y197500D01*
X225428Y196642D01*
X225914Y195914D01*
X226642Y195428D01*
X227500Y195257D01*
X228358Y195428D01*
X229086Y195914D01*
X229572Y196642D01*
X229743Y197500D01*
X229572Y198358D01*
X229086Y199086D01*
X229029Y199124D01*
Y210283D01*
X229643Y210538D01*
X230531Y211219D01*
X231212Y212107D01*
X231641Y213141D01*
X231787Y214250D01*
Y215750D01*
X231641Y216860D01*
X231212Y217893D01*
X230531Y218781D01*
X229643Y219462D01*
X228609Y219891D01*
X227500Y220037D01*
D02*
G37*
%LPD*%
D10*
X12500Y113740D02*
D03*
Y106260D02*
D03*
X275000Y33740D02*
D03*
Y26260D02*
D03*
X218500Y113740D02*
D03*
Y106260D02*
D03*
X312500Y113740D02*
D03*
Y106260D02*
D03*
X115000Y141240D02*
D03*
Y133760D02*
D03*
X105000Y141240D02*
D03*
Y133760D02*
D03*
X95000Y141240D02*
D03*
Y133760D02*
D03*
X85000Y141240D02*
D03*
Y133760D02*
D03*
X75000Y141240D02*
D03*
Y133760D02*
D03*
X65000Y141240D02*
D03*
Y133760D02*
D03*
X55000Y141240D02*
D03*
Y133760D02*
D03*
X45000Y141240D02*
D03*
Y133760D02*
D03*
X371063Y106102D02*
D03*
Y98622D02*
D03*
Y72638D02*
D03*
Y65158D02*
D03*
X284500Y26260D02*
D03*
Y33740D02*
D03*
X275197Y58858D02*
D03*
Y66339D02*
D03*
X284646Y58858D02*
D03*
Y66339D02*
D03*
D11*
X115000Y125000D02*
Y133760D01*
X105000Y125000D02*
Y133760D01*
X95000Y125000D02*
Y133760D01*
X85000Y125000D02*
Y133760D01*
X75000Y125000D02*
Y133760D01*
X65000Y125000D02*
Y133760D01*
X55000Y125000D02*
Y133760D01*
X45000Y125000D02*
Y133760D01*
X92500Y155000D02*
Y182500D01*
X102500Y155000D02*
Y177500D01*
X122500Y155000D02*
Y172500D01*
X92500Y187500D02*
Y215000D01*
X102500Y192500D02*
Y215000D01*
X122500Y197500D02*
Y215000D01*
X175000Y197500D02*
Y215000D01*
X155000Y192500D02*
Y215000D01*
X145000Y187500D02*
Y215000D01*
X175000Y155000D02*
Y172500D01*
X155000Y155000D02*
Y177500D01*
X145000Y155000D02*
Y182500D01*
X227500Y197500D02*
Y215000D01*
X207500Y192500D02*
Y215000D01*
X197500Y187500D02*
Y215000D01*
X227500Y155000D02*
Y172500D01*
X207500Y155000D02*
Y177500D01*
X197500Y155000D02*
Y182500D01*
X280000Y197500D02*
Y215000D01*
X260000Y192500D02*
Y215000D01*
X250000Y187500D02*
Y215000D01*
X280000Y155000D02*
Y172500D01*
X260000Y155000D02*
Y177500D01*
X250000Y155000D02*
Y182500D01*
X332500Y197500D02*
Y215000D01*
X312500Y192500D02*
Y215000D01*
X302500Y187500D02*
Y215000D01*
X332500Y155000D02*
Y172500D01*
X312500Y155000D02*
Y177500D01*
X302500Y155000D02*
Y182500D01*
X250000Y230000D02*
Y257500D01*
X260000Y230000D02*
Y252500D01*
X280000Y230000D02*
Y247500D01*
X250000Y262500D02*
Y290000D01*
X260000Y267500D02*
Y290000D01*
X280000Y272500D02*
Y290000D01*
X197500Y230000D02*
Y257500D01*
X207500Y230000D02*
Y252500D01*
X227500Y230000D02*
Y247500D01*
X197500Y262500D02*
Y290000D01*
X207500Y267500D02*
Y290000D01*
X227500Y272500D02*
Y290000D01*
X175000Y272500D02*
Y290000D01*
X155000Y267500D02*
Y290000D01*
X145000Y262500D02*
Y290000D01*
X175000Y230000D02*
Y247500D01*
X155000Y230000D02*
Y252500D01*
X145000Y230000D02*
Y257500D01*
X150000Y347500D02*
Y365000D01*
X130000Y342500D02*
Y365000D01*
X120000Y337500D02*
Y365000D01*
X150000Y305000D02*
Y322500D01*
X130000Y305000D02*
Y327500D01*
X120000Y305000D02*
Y332500D01*
X227500Y305000D02*
Y332500D01*
X237500Y305000D02*
Y327500D01*
X257500Y305000D02*
Y322500D01*
X227500Y337500D02*
Y365000D01*
X237500Y342500D02*
Y365000D01*
X257500Y347500D02*
Y365000D01*
X280000Y305000D02*
Y332500D01*
X290000Y305000D02*
Y327500D01*
X310000Y305000D02*
Y322500D01*
X280000Y337500D02*
Y365000D01*
X290000Y342500D02*
Y365000D01*
X310000Y347500D02*
Y365000D01*
X352500Y167500D02*
Y242500D01*
X355500Y172500D02*
Y247500D01*
X359000Y177500D02*
Y252500D01*
X362500Y182500D02*
Y257500D01*
X366000Y187500D02*
Y262500D01*
X369500Y192500D02*
Y267500D01*
X373000Y197500D02*
Y272500D01*
X376500Y202500D02*
Y277500D01*
X310000Y322500D02*
X315000D01*
X352500Y242500D02*
Y272500D01*
X320000Y305000D02*
X352500Y272500D01*
X327500Y300328D02*
Y310000D01*
Y300328D02*
X355500Y272328D01*
Y247500D02*
Y272328D01*
X315000Y322500D02*
X327500Y310000D01*
X290000Y327500D02*
X312828D01*
X329500Y310828D01*
Y301157D02*
Y310828D01*
Y301157D02*
X359000Y271657D01*
Y252500D02*
Y271657D01*
X280000Y332500D02*
X310657D01*
X331500Y311657D01*
Y301985D02*
Y311657D01*
Y301985D02*
X362500Y270985D01*
Y257500D02*
Y270985D01*
X280000Y337500D02*
X308485D01*
X333500Y312485D01*
Y302814D02*
Y312485D01*
Y302814D02*
X366000Y270314D01*
Y262500D02*
Y270314D01*
X290000Y342500D02*
X306314D01*
X369500Y267500D02*
Y279314D01*
X306314Y342500D02*
X369500Y279314D01*
X310000Y341642D02*
Y347500D01*
Y341642D02*
X373000Y278642D01*
Y272500D02*
Y278642D01*
X320000Y334471D02*
Y365000D01*
Y334471D02*
X376500Y277971D01*
Y277500D02*
Y277971D01*
X40000Y146240D02*
Y155000D01*
Y146240D02*
X45000Y141240D01*
X50000Y146240D02*
Y155000D01*
Y146240D02*
X55000Y141240D01*
X65000D02*
X70000Y146240D01*
Y155000D01*
X75000Y141240D02*
X80000Y146240D01*
Y155000D01*
X85000Y141240D02*
Y185000D01*
X70000Y200000D02*
X85000Y185000D01*
X70000Y200000D02*
Y215000D01*
X95000Y141240D02*
Y145000D01*
X97500Y147500D01*
Y182500D01*
X92500Y187500D02*
X97500Y182500D01*
X105000Y141240D02*
Y145000D01*
X107500Y147500D01*
Y187500D01*
X102500Y192500D02*
X107500Y187500D01*
X115000Y141240D02*
Y145000D01*
X117500Y147500D01*
Y182500D01*
X132500Y197500D01*
Y215000D01*
X300000Y240000D02*
Y305000D01*
Y240000D02*
X317500Y222500D01*
Y140000D02*
Y222500D01*
X265000Y225000D02*
X270000Y230000D01*
X265000Y142500D02*
Y225000D01*
X247500Y300000D02*
Y305000D01*
Y300000D02*
X250000Y297500D01*
X252500D01*
X255000Y295000D01*
Y142500D02*
Y295000D01*
X212500Y225000D02*
X217500Y230000D01*
X160000Y225000D02*
X165000Y230000D01*
X140000Y300000D02*
Y305000D01*
Y300000D02*
X142500Y297500D01*
X147500D01*
X150000Y295000D01*
X112500Y225000D02*
Y230000D01*
Y225000D02*
X115000Y222500D01*
X135000D01*
X137500Y220000D01*
X87500Y300000D02*
Y305000D01*
Y300000D02*
X90000Y297500D01*
X137500D01*
X140000Y295000D01*
X157172Y125000D02*
X157500D01*
X250000D02*
Y137500D01*
X255000Y142500D01*
X260000Y125000D02*
Y137500D01*
X265000Y142500D01*
X280000Y125000D02*
Y135000D01*
X282500Y137500D01*
X315000D01*
X317500Y140000D01*
X212500D02*
X215000Y137500D01*
X227500D01*
X230000Y135000D01*
Y125000D02*
Y135000D01*
X212500Y140000D02*
Y225000D01*
X160000Y147500D02*
X162500Y145000D01*
X185000D01*
X187500Y142500D01*
X160000Y147500D02*
Y225000D01*
X187500Y125000D02*
Y142500D01*
X150000Y145000D02*
Y295000D01*
Y145000D02*
X152500Y142500D01*
X175000D01*
X177500Y140000D01*
Y125000D02*
Y140000D01*
X140000Y142500D02*
X142500Y140000D01*
X165000D01*
X167500Y137500D01*
X140000Y142500D02*
Y295000D01*
X167500Y125000D02*
Y137500D01*
X137500Y140000D02*
Y220000D01*
Y140000D02*
X140000Y137500D01*
X155000D01*
X157500Y135000D01*
Y125000D02*
Y135000D01*
X12500Y113740D02*
X23740D01*
X25000Y115000D01*
Y125000D01*
X12500Y106260D02*
X23740D01*
X25000Y105000D01*
Y95000D02*
Y105000D01*
X208760Y106260D02*
X218500D01*
X207500Y105000D02*
X208760Y106260D01*
X207500Y95000D02*
Y105000D01*
X208760Y113740D02*
X218500D01*
X207500Y115000D02*
X208760Y113740D01*
X207500Y115000D02*
Y125000D01*
X301260Y106260D02*
X312500D01*
X300000Y105000D02*
X301260Y106260D01*
X300000Y95000D02*
Y105000D01*
X301260Y113740D02*
X312500D01*
X300000Y115000D02*
X301260Y113740D01*
X300000Y115000D02*
Y125000D01*
X137500Y85000D02*
Y95000D01*
Y85000D02*
X140000Y82500D01*
X150000D01*
X152500Y80000D01*
Y72500D02*
Y80000D01*
X147500Y87500D02*
Y95000D01*
Y87500D02*
X150000Y85000D01*
X160000D01*
X162500Y82500D01*
Y72500D02*
Y82500D01*
X157500Y90000D02*
Y95000D01*
Y90000D02*
X160000Y87500D01*
X170000D01*
X172500Y85000D01*
Y72500D02*
Y85000D01*
X252500Y12500D02*
Y22500D01*
X256260Y26260D01*
X275000D01*
X242500Y12500D02*
Y30000D01*
X246240Y33740D01*
X275000D01*
X317618Y12500D02*
X319882Y14764D01*
X358268Y98425D02*
X370866D01*
X371063Y98622D01*
X358268Y64961D02*
X370866D01*
X371063Y65158D01*
Y72638D02*
Y86614D01*
X376969Y92520D01*
Y105315D01*
X375984Y106299D02*
X376969Y105315D01*
X375787Y106102D02*
X375984Y106299D01*
X371063Y106102D02*
X375787D01*
X319882Y70669D02*
X321850Y72638D01*
X319882Y14764D02*
Y70669D01*
X321850Y72638D02*
X371063D01*
X348590Y82677D02*
X358268D01*
X340551Y74638D02*
X348590Y82677D01*
X321022Y74638D02*
X340551D01*
X317882Y71498D02*
X321022Y74638D01*
X122500Y43760D02*
X125000Y46260D01*
X122500Y12500D02*
Y43760D01*
X315882Y72326D02*
X321850Y78295D01*
Y88583D01*
X323819Y90551D01*
X350394D01*
X358268Y98425D01*
X125000Y46260D02*
X314961D01*
X317882Y49181D01*
Y71498D01*
X314132Y48260D02*
X315882Y50010D01*
Y72326D01*
X112500Y12500D02*
Y45571D01*
X115189Y48260D01*
X314132D01*
X275000Y26260D02*
X284500D01*
Y33740D02*
X289760D01*
X291000Y32500D01*
Y14500D02*
Y32500D01*
Y14500D02*
X293000Y12500D01*
X262500D02*
X293000D01*
X317618D01*
X262500Y72500D02*
X268661Y66339D01*
X275197D01*
X284646D01*
Y58858D02*
X295079D01*
X385827Y346457D02*
G03*
X346457Y385827I-39370J0D01*
G01*
X346457Y-0D02*
G03*
X385827Y39370I0J39370D01*
G01*
X0Y39370D02*
G03*
X39370Y0I39370J0D01*
G01*
X39370Y385827D02*
G03*
X-0Y346457I0J-39370D01*
G01*
D12*
X39370Y385827D02*
X346457D01*
X385827Y39370D02*
Y346457D01*
X39370Y0D02*
X346457D01*
X0Y39370D02*
Y346457D01*
D13*
X80000Y215000D02*
D03*
X70000D02*
D03*
X60000D02*
D03*
X50000D02*
D03*
X40000D02*
D03*
X80000Y155000D02*
D03*
X70000D02*
D03*
X60000D02*
D03*
X50000D02*
D03*
X132500Y215000D02*
D03*
X122500D02*
D03*
X112500D02*
D03*
X102500D02*
D03*
X92500D02*
D03*
X132500Y155000D02*
D03*
X122500D02*
D03*
X112500D02*
D03*
X102500D02*
D03*
X185000Y215000D02*
D03*
X175000D02*
D03*
X165000D02*
D03*
X155000D02*
D03*
X145000D02*
D03*
X185000Y155000D02*
D03*
X175000D02*
D03*
X165000D02*
D03*
X155000D02*
D03*
X237500Y215000D02*
D03*
X227500D02*
D03*
X217500D02*
D03*
X207500D02*
D03*
X197500D02*
D03*
X237500Y155000D02*
D03*
X227500D02*
D03*
X217500D02*
D03*
X207500D02*
D03*
X290000Y215000D02*
D03*
X280000D02*
D03*
X270000D02*
D03*
X260000D02*
D03*
X250000D02*
D03*
X290000Y155000D02*
D03*
X280000D02*
D03*
X270000D02*
D03*
X260000D02*
D03*
X342500Y215000D02*
D03*
X332500D02*
D03*
X322500D02*
D03*
X312500D02*
D03*
X302500D02*
D03*
X342500Y155000D02*
D03*
X332500D02*
D03*
X322500D02*
D03*
X312500D02*
D03*
X107500Y365000D02*
D03*
X97500D02*
D03*
X87500D02*
D03*
X77500D02*
D03*
X67500D02*
D03*
X107500Y305000D02*
D03*
X97500D02*
D03*
X87500D02*
D03*
X77500D02*
D03*
X160000Y365000D02*
D03*
X150000D02*
D03*
X140000D02*
D03*
X130000D02*
D03*
X120000D02*
D03*
X160000Y305000D02*
D03*
X150000D02*
D03*
X140000D02*
D03*
X130000D02*
D03*
X267500Y365000D02*
D03*
X257500D02*
D03*
X247500D02*
D03*
X237500D02*
D03*
X227500D02*
D03*
X267500Y305000D02*
D03*
X257500D02*
D03*
X247500D02*
D03*
X237500D02*
D03*
X320000Y365000D02*
D03*
X310000D02*
D03*
X300000D02*
D03*
X290000D02*
D03*
X280000D02*
D03*
X320000Y305000D02*
D03*
X310000D02*
D03*
X300000D02*
D03*
X290000D02*
D03*
X132500Y290000D02*
D03*
X122500D02*
D03*
X112500D02*
D03*
X102500D02*
D03*
X92500D02*
D03*
X132500Y230000D02*
D03*
X122500D02*
D03*
X112500D02*
D03*
X102500D02*
D03*
X185000Y290000D02*
D03*
X175000D02*
D03*
X165000D02*
D03*
X155000D02*
D03*
X145000D02*
D03*
X185000Y230000D02*
D03*
X175000D02*
D03*
X165000D02*
D03*
X155000D02*
D03*
X237500Y290000D02*
D03*
X227500D02*
D03*
X217500D02*
D03*
X207500D02*
D03*
X197500D02*
D03*
X237500Y230000D02*
D03*
X227500D02*
D03*
X217500D02*
D03*
X207500D02*
D03*
X290000Y290000D02*
D03*
X280000D02*
D03*
X270000D02*
D03*
X260000D02*
D03*
X250000D02*
D03*
X290000Y230000D02*
D03*
X280000D02*
D03*
X270000D02*
D03*
X260000D02*
D03*
D14*
X40000Y155000D02*
D03*
X92500D02*
D03*
X145000D02*
D03*
X197500D02*
D03*
X250000D02*
D03*
X302500D02*
D03*
X67500Y305000D02*
D03*
X120000D02*
D03*
X227500D02*
D03*
X280000D02*
D03*
X92500Y230000D02*
D03*
X145000D02*
D03*
X197500D02*
D03*
X250000D02*
D03*
D15*
X230000Y95000D02*
D03*
X137500D02*
D03*
X25000D02*
D03*
D16*
X240000D02*
D03*
X250000D02*
D03*
X260000D02*
D03*
X270000D02*
D03*
X280000D02*
D03*
X290000D02*
D03*
X300000D02*
D03*
X230000Y125000D02*
D03*
X240000D02*
D03*
X250000D02*
D03*
X260000D02*
D03*
X270000D02*
D03*
X280000D02*
D03*
X290000D02*
D03*
X300000D02*
D03*
X147500Y95000D02*
D03*
X157500D02*
D03*
X167500D02*
D03*
X177500D02*
D03*
X187500D02*
D03*
X197500D02*
D03*
X207500D02*
D03*
X137500Y125000D02*
D03*
X147500D02*
D03*
X157500D02*
D03*
X167500D02*
D03*
X177500D02*
D03*
X187500D02*
D03*
X197500D02*
D03*
X207500D02*
D03*
X35000Y95000D02*
D03*
X45000D02*
D03*
X55000D02*
D03*
X65000D02*
D03*
X75000D02*
D03*
X85000D02*
D03*
X95000D02*
D03*
X105000D02*
D03*
X115000D02*
D03*
X25000Y125000D02*
D03*
X35000D02*
D03*
X45000D02*
D03*
X55000D02*
D03*
X65000D02*
D03*
X75000D02*
D03*
X85000D02*
D03*
X95000D02*
D03*
X105000D02*
D03*
X115000D02*
D03*
D17*
X39370Y39370D02*
D03*
Y346457D02*
D03*
X346457D02*
D03*
Y39370D02*
D03*
X192913Y346457D02*
D03*
D18*
X72500Y12500D02*
D03*
D19*
X82500D02*
D03*
X92500D02*
D03*
X102500D02*
D03*
X112500D02*
D03*
X122500D02*
D03*
X132500D02*
D03*
X142500D02*
D03*
X152500D02*
D03*
X162500D02*
D03*
X172500D02*
D03*
X182500D02*
D03*
X192500D02*
D03*
X202500D02*
D03*
X212500D02*
D03*
X222500D02*
D03*
X232500D02*
D03*
X242500D02*
D03*
X252500D02*
D03*
X262500D02*
D03*
X72500Y72500D02*
D03*
X82500D02*
D03*
X92500D02*
D03*
X102500D02*
D03*
X112500D02*
D03*
X122500D02*
D03*
X132500D02*
D03*
X142500D02*
D03*
X152500D02*
D03*
X162500D02*
D03*
X172500D02*
D03*
X182500D02*
D03*
X192500D02*
D03*
X202500D02*
D03*
X212500D02*
D03*
X222500D02*
D03*
X232500D02*
D03*
X242500D02*
D03*
X252500D02*
D03*
X262500D02*
D03*
D20*
X358268Y116142D02*
D03*
X332677D02*
D03*
X358268Y98425D02*
D03*
X332677D02*
D03*
X358268Y82677D02*
D03*
X332677D02*
D03*
X358268Y64961D02*
D03*
X332677D02*
D03*
D21*
X92500Y182500D02*
D03*
X102500Y177500D02*
D03*
X122500Y172500D02*
D03*
X92500Y187500D02*
D03*
X102500Y192500D02*
D03*
X122500Y197500D02*
D03*
X175000D02*
D03*
X155000Y192500D02*
D03*
X145000Y187500D02*
D03*
X175000Y172500D02*
D03*
X155000Y177500D02*
D03*
X145000Y182500D02*
D03*
X227500Y197500D02*
D03*
X207500Y192500D02*
D03*
X197500Y187500D02*
D03*
X227500Y172500D02*
D03*
X207500Y177500D02*
D03*
X197500Y182500D02*
D03*
X280000Y197500D02*
D03*
X260000Y192500D02*
D03*
X250000Y187500D02*
D03*
X280000Y172500D02*
D03*
X260000Y177500D02*
D03*
X250000Y182500D02*
D03*
X332500Y197500D02*
D03*
X312500Y192500D02*
D03*
X302500Y187500D02*
D03*
X332500Y172500D02*
D03*
X312500Y177500D02*
D03*
X302500Y182500D02*
D03*
X250000Y257500D02*
D03*
X260000Y252500D02*
D03*
X280000Y247500D02*
D03*
X250000Y262500D02*
D03*
X260000Y267500D02*
D03*
X280000Y272500D02*
D03*
X197500Y257500D02*
D03*
X207500Y252500D02*
D03*
X227500Y247500D02*
D03*
X197500Y262500D02*
D03*
X207500Y267500D02*
D03*
X227500Y272500D02*
D03*
X175000D02*
D03*
X155000Y267500D02*
D03*
X145000Y262500D02*
D03*
X175000Y247500D02*
D03*
X155000Y252500D02*
D03*
X145000Y257500D02*
D03*
X150000Y347500D02*
D03*
X130000Y342500D02*
D03*
X120000Y337500D02*
D03*
X150000Y322500D02*
D03*
X130000Y327500D02*
D03*
X120000Y332500D02*
D03*
X227500D02*
D03*
X237500Y327500D02*
D03*
X257500Y322500D02*
D03*
X227500Y337500D02*
D03*
X237500Y342500D02*
D03*
X257500Y347500D02*
D03*
X280000Y332500D02*
D03*
X290000Y327500D02*
D03*
X310000Y322500D02*
D03*
X280000Y337500D02*
D03*
X290000Y342500D02*
D03*
X310000Y347500D02*
D03*
X352500Y167500D02*
D03*
X355500Y172500D02*
D03*
X359000Y177500D02*
D03*
X362500Y182500D02*
D03*
X366000Y187500D02*
D03*
X369500Y192500D02*
D03*
X373000Y197500D02*
D03*
X376500Y202500D02*
D03*
Y277500D02*
D03*
X373000Y272500D02*
D03*
X369500Y267500D02*
D03*
X366000Y262500D02*
D03*
X362500Y257500D02*
D03*
X359000Y252500D02*
D03*
X355500Y247500D02*
D03*
X352500Y242500D02*
D03*
X295079Y58858D02*
D03*
M02*
