G04 Layer_Color=65535*
%FSLAX25Y25*%
%MOIN*%
G70*
G01*
G75*
%ADD11C,0.01000*%
%ADD21C,0.00787*%
%ADD22C,0.01000*%
%ADD23C,0.00800*%
D11*
X77650Y168071D02*
G03*
X77650Y168071I-2296J0D01*
G01*
X130150D02*
G03*
X130150Y168071I-2296J0D01*
G01*
X182650D02*
G03*
X182650Y168071I-2296J0D01*
G01*
X235150D02*
G03*
X235150Y168071I-2296J0D01*
G01*
X287650D02*
G03*
X287650Y168071I-2296J0D01*
G01*
X225000Y107500D02*
G03*
X225000Y112500I0J2500D01*
G01*
X132500Y107500D02*
G03*
X132500Y112500I0J2500D01*
G01*
X0Y39370D02*
G03*
X39370Y0I39370J0D01*
G01*
X39370Y385827D02*
G03*
X-0Y346457I0J-39370D01*
G01*
X346457Y-0D02*
G03*
X385827Y39370I0J39370D01*
G01*
X340150Y168071D02*
G03*
X340150Y168071I-2296J0D01*
G01*
X20000Y107500D02*
G03*
X20000Y112500I0J2500D01*
G01*
X67500Y40000D02*
G03*
X67500Y45000I0J2500D01*
G01*
X105150Y318071D02*
G03*
X105150Y318071I-2296J0D01*
G01*
X157650D02*
G03*
X157650Y318071I-2296J0D01*
G01*
X265150D02*
G03*
X265150Y318071I-2296J0D01*
G01*
X317650D02*
G03*
X317650Y318071I-2296J0D01*
G01*
X130150Y243071D02*
G03*
X130150Y243071I-2296J0D01*
G01*
X182650D02*
G03*
X182650Y243071I-2296J0D01*
G01*
X235150D02*
G03*
X235150Y243071I-2296J0D01*
G01*
X287650D02*
G03*
X287650Y243071I-2296J0D01*
G01*
X225000Y101500D02*
Y107500D01*
Y112500D02*
Y118500D01*
X305000D01*
Y101500D02*
Y118500D01*
X225000Y101500D02*
X305000D01*
X132500D02*
Y107500D01*
Y112500D02*
Y118500D01*
X212500D01*
Y101500D02*
Y118500D01*
X132500Y101500D02*
X212500D01*
X20000D02*
Y107500D01*
Y112500D02*
Y118500D01*
X120000D01*
Y101500D02*
Y118500D01*
X20000Y101500D02*
X120000D01*
X67500Y21000D02*
Y40000D01*
Y45000D02*
Y64000D01*
X267500D01*
Y21000D02*
Y64000D01*
X67500Y21000D02*
X267500D01*
X10931Y146457D02*
X16929D01*
Y149456D01*
X15929Y150455D01*
X14930D01*
X13930Y149456D01*
Y146457D01*
Y149456D01*
X12930Y150455D01*
X11931D01*
X10931Y149456D01*
Y146457D01*
X16929Y152455D02*
Y154454D01*
Y153454D01*
X10931D01*
Y152455D01*
X12930Y157453D02*
X15929D01*
X16929Y158453D01*
Y161452D01*
X12930D01*
X16929Y166450D02*
Y164451D01*
X15929Y163451D01*
X13930D01*
X12930Y164451D01*
Y166450D01*
X13930Y167450D01*
X14930D01*
Y163451D01*
X16929Y169449D02*
X10931D01*
Y172448D01*
X11931Y173448D01*
X13930D01*
X14930Y172448D01*
Y169449D01*
X16929Y175447D02*
Y177447D01*
Y176447D01*
X12930D01*
Y175447D01*
X16929Y180446D02*
Y182445D01*
Y181445D01*
X10931D01*
Y180446D01*
X16929Y185444D02*
Y187443D01*
Y186444D01*
X10931D01*
Y185444D01*
X11931Y200439D02*
X10931Y199440D01*
Y197440D01*
X11931Y196440D01*
X15929D01*
X16929Y197440D01*
Y199440D01*
X15929Y200439D01*
X16929Y202439D02*
Y204438D01*
Y203438D01*
X10931D01*
Y202439D01*
X16929Y208437D02*
Y210436D01*
X15929Y211436D01*
X13930D01*
X12930Y210436D01*
Y208437D01*
X13930Y207437D01*
X15929D01*
X16929Y208437D01*
X12930Y217434D02*
Y214435D01*
X13930Y213435D01*
X15929D01*
X16929Y214435D01*
Y217434D01*
Y219433D02*
X10931D01*
X14930D02*
X12930Y222432D01*
X14930Y219433D02*
X16929Y222432D01*
D21*
X8563Y117559D02*
X12500D01*
X8563Y102441D02*
Y117559D01*
Y102441D02*
X16437D01*
Y117559D01*
X12500D02*
X16437D01*
X34409Y148779D02*
X85590D01*
Y221220D01*
X34409D02*
X85590D01*
X34409Y148779D02*
Y221220D01*
X86910Y148779D02*
X138091D01*
Y221220D01*
X86910D02*
X138091D01*
X86910Y148779D02*
Y221220D01*
X139409Y148779D02*
X190591D01*
Y221220D01*
X139409D02*
X190591D01*
X139409Y148779D02*
Y221220D01*
X191909Y148779D02*
X243091D01*
Y221220D01*
X191909D02*
X243091D01*
X191909Y148779D02*
Y221220D01*
X244409Y148779D02*
X295590D01*
Y221220D01*
X244409D02*
X295590D01*
X244409Y148779D02*
Y221220D01*
X271063Y37559D02*
X275000D01*
X271063Y22441D02*
Y37559D01*
Y22441D02*
X278937D01*
Y37559D01*
X275000D02*
X278937D01*
X214563Y117559D02*
X218500D01*
X214563Y102441D02*
Y117559D01*
Y102441D02*
X222437D01*
Y117559D01*
X218500D02*
X222437D01*
X308563D02*
X312500D01*
X308563Y102441D02*
Y117559D01*
Y102441D02*
X316437D01*
Y117559D01*
X312500D02*
X316437D01*
X0Y39370D02*
Y346457D01*
X385827Y39370D02*
Y346457D01*
X39370Y0D02*
X346457D01*
X296909Y148779D02*
X348091D01*
Y221220D01*
X296909D02*
X348091D01*
X296909Y148779D02*
Y221220D01*
X111063Y129941D02*
X115000D01*
X111063D02*
Y145059D01*
X118937D01*
Y129941D02*
Y145059D01*
X115000Y129941D02*
X118937D01*
X101063D02*
X105000D01*
X101063D02*
Y145059D01*
X108937D01*
Y129941D02*
Y145059D01*
X105000Y129941D02*
X108937D01*
X91063D02*
X95000D01*
X91063D02*
Y145059D01*
X98937D01*
Y129941D02*
Y145059D01*
X95000Y129941D02*
X98937D01*
X81063D02*
X85000D01*
X81063D02*
Y145059D01*
X88937D01*
Y129941D02*
Y145059D01*
X85000Y129941D02*
X88937D01*
X71063D02*
X75000D01*
X71063D02*
Y145059D01*
X78937D01*
Y129941D02*
Y145059D01*
X75000Y129941D02*
X78937D01*
X61063D02*
X65000D01*
X61063D02*
Y145059D01*
X68937D01*
Y129941D02*
Y145059D01*
X65000Y129941D02*
X68937D01*
X51063D02*
X55000D01*
X51063D02*
Y145059D01*
X58937D01*
Y129941D02*
Y145059D01*
X55000Y129941D02*
X58937D01*
X41063D02*
X45000D01*
X41063D02*
Y145059D01*
X48937D01*
Y129941D02*
Y145059D01*
X45000Y129941D02*
X48937D01*
X61910Y298780D02*
X113091D01*
Y371220D01*
X61910D02*
X113091D01*
X61910Y298780D02*
Y371220D01*
X114409Y298780D02*
X165591D01*
Y371220D01*
X114409D02*
X165591D01*
X114409Y298780D02*
Y371220D01*
X221909Y298780D02*
X273091D01*
Y371220D01*
X221909D02*
X273091D01*
X221909Y298780D02*
Y371220D01*
X274410Y298780D02*
X325590D01*
Y371220D01*
X274410D02*
X325590D01*
X274410Y298780D02*
Y371220D01*
X86910Y223780D02*
X138091D01*
Y296220D01*
X86910D02*
X138091D01*
X86910Y223780D02*
Y296220D01*
X139409Y223780D02*
X190591D01*
Y296220D01*
X139409D02*
X190591D01*
X139409Y223780D02*
Y296220D01*
X191909Y223780D02*
X243091D01*
Y296220D01*
X191909D02*
X243091D01*
X191909Y223780D02*
Y296220D01*
X244409Y223780D02*
X295590D01*
Y296220D01*
X244409D02*
X295590D01*
X244409Y223780D02*
Y296220D01*
X325787Y91535D02*
X365158D01*
Y123031D01*
X325787D02*
X365158D01*
X325787Y91535D02*
Y123031D01*
Y58071D02*
X365158D01*
Y89567D01*
X325787D02*
X365158D01*
X325787Y58071D02*
Y89567D01*
X367126Y94803D02*
X371063D01*
X367126D02*
Y109921D01*
X375000D01*
Y94803D02*
Y109921D01*
X371063Y94803D02*
X375000D01*
X367126Y61339D02*
X371063D01*
X367126D02*
Y76457D01*
X375000D01*
Y61339D02*
Y76457D01*
X371063Y61339D02*
X375000D01*
X284500Y37559D02*
X288437D01*
Y22441D02*
Y37559D01*
X280563Y22441D02*
X288437D01*
X280563D02*
Y37559D01*
X284500D01*
X275197Y70157D02*
X279134D01*
Y55039D02*
Y70157D01*
X271260Y55039D02*
X279134D01*
X271260D02*
Y70157D01*
X275197D01*
X284646D02*
X288583D01*
Y55039D02*
Y70157D01*
X280709Y55039D02*
X288583D01*
X280709D02*
Y70157D01*
X284646D01*
D22*
X43954Y174676D02*
X46955Y183662D01*
X43954Y174676D02*
X44954Y170683D01*
X48956Y173678D02*
X50956Y180667D01*
X44954Y170683D02*
X48956Y173678D01*
X46955Y183662D02*
X50956Y180667D01*
X45955Y189652D02*
X48956Y198638D01*
X45955Y189652D02*
X46955Y185659D01*
X50956Y188654D02*
X52956Y195643D01*
X46955Y185659D02*
X50956Y188654D01*
X48956Y198638D02*
X52956Y195643D01*
X67960Y180667D02*
X71961Y183662D01*
X72961Y179668D01*
X69961Y170683D02*
X72961Y179668D01*
X65960Y173678D02*
X67960Y180667D01*
X65960Y173678D02*
X69961Y170683D01*
Y195643D02*
X73962Y198638D01*
X74962Y194644D01*
X71961Y185659D02*
X74962Y194644D01*
X67960Y188654D02*
X69961Y195643D01*
X67960Y188654D02*
X71961Y185659D01*
X64960Y172679D02*
X68960Y169684D01*
X64960Y166689D02*
X68960Y169684D01*
X49956Y166689D02*
X64960D01*
X49956Y172679D02*
X64960D01*
X45955Y169684D02*
X49956Y166689D01*
X45955Y169684D02*
X49956Y172679D01*
X66960Y187655D02*
X70961Y184660D01*
X66960Y181665D02*
X70961Y184660D01*
X51956Y181665D02*
X66960D01*
X51956Y187655D02*
X66960D01*
X47955Y184660D02*
X51956Y181665D01*
X47955Y184660D02*
X51956Y187655D01*
X68960Y202632D02*
X72961Y199636D01*
X68960Y196641D02*
X72961Y199636D01*
X53957Y196641D02*
X68960D01*
X53957Y202632D02*
X68960D01*
X49956Y199636D02*
X53957Y196641D01*
X49956Y199636D02*
X53957Y202632D01*
X96454Y174676D02*
X99455Y183662D01*
X96454Y174676D02*
X97455Y170683D01*
X101455Y173678D02*
X103456Y180667D01*
X97455Y170683D02*
X101455Y173678D01*
X99455Y183662D02*
X103456Y180667D01*
X98455Y189652D02*
X101455Y198638D01*
X98455Y189652D02*
X99455Y185659D01*
X103456Y188654D02*
X105456Y195643D01*
X99455Y185659D02*
X103456Y188654D01*
X101455Y198638D02*
X105456Y195643D01*
X120460Y180667D02*
X124461Y183662D01*
X125461Y179668D01*
X122461Y170683D02*
X125461Y179668D01*
X118460Y173678D02*
X120460Y180667D01*
X118460Y173678D02*
X122461Y170683D01*
Y195643D02*
X126462Y198638D01*
X127462Y194644D01*
X124461Y185659D02*
X127462Y194644D01*
X120460Y188654D02*
X122461Y195643D01*
X120460Y188654D02*
X124461Y185659D01*
X117459Y172679D02*
X121460Y169684D01*
X117459Y166689D02*
X121460Y169684D01*
X102456Y166689D02*
X117459D01*
X102456Y172679D02*
X117459D01*
X98455Y169684D02*
X102456Y166689D01*
X98455Y169684D02*
X102456Y172679D01*
X119460Y187655D02*
X123461Y184660D01*
X119460Y181665D02*
X123461Y184660D01*
X104456Y181665D02*
X119460D01*
X104456Y187655D02*
X119460D01*
X100455Y184660D02*
X104456Y181665D01*
X100455Y184660D02*
X104456Y187655D01*
X121460Y202632D02*
X125461Y199636D01*
X121460Y196641D02*
X125461Y199636D01*
X106457Y196641D02*
X121460D01*
X106457Y202632D02*
X121460D01*
X102456Y199636D02*
X106457Y196641D01*
X102456Y199636D02*
X106457Y202632D01*
X148954Y174676D02*
X151955Y183662D01*
X148954Y174676D02*
X149954Y170683D01*
X153955Y173678D02*
X155956Y180667D01*
X149954Y170683D02*
X153955Y173678D01*
X151955Y183662D02*
X155956Y180667D01*
X150955Y189652D02*
X153955Y198638D01*
X150955Y189652D02*
X151955Y185659D01*
X155956Y188654D02*
X157957Y195643D01*
X151955Y185659D02*
X155956Y188654D01*
X153955Y198638D02*
X157957Y195643D01*
X172960Y180667D02*
X176961Y183662D01*
X177962Y179668D01*
X174961Y170683D02*
X177962Y179668D01*
X170960Y173678D02*
X172960Y180667D01*
X170960Y173678D02*
X174961Y170683D01*
Y195643D02*
X178962Y198638D01*
X179962Y194644D01*
X176961Y185659D02*
X179962Y194644D01*
X172960Y188654D02*
X174961Y195643D01*
X172960Y188654D02*
X176961Y185659D01*
X169959Y172679D02*
X173960Y169684D01*
X169959Y166689D02*
X173960Y169684D01*
X154956Y166689D02*
X169959D01*
X154956Y172679D02*
X169959D01*
X150955Y169684D02*
X154956Y166689D01*
X150955Y169684D02*
X154956Y172679D01*
X171960Y187655D02*
X175961Y184660D01*
X171960Y181665D02*
X175961Y184660D01*
X156956Y181665D02*
X171960D01*
X156956Y187655D02*
X171960D01*
X152955Y184660D02*
X156956Y181665D01*
X152955Y184660D02*
X156956Y187655D01*
X173960Y202632D02*
X177962Y199636D01*
X173960Y196641D02*
X177962Y199636D01*
X158957Y196641D02*
X173960D01*
X158957Y202632D02*
X173960D01*
X154956Y199636D02*
X158957Y196641D01*
X154956Y199636D02*
X158957Y202632D01*
X201454Y174676D02*
X204455Y183662D01*
X201454Y174676D02*
X202454Y170683D01*
X206455Y173678D02*
X208456Y180667D01*
X202454Y170683D02*
X206455Y173678D01*
X204455Y183662D02*
X208456Y180667D01*
X203455Y189652D02*
X206455Y198638D01*
X203455Y189652D02*
X204455Y185659D01*
X208456Y188654D02*
X210456Y195643D01*
X204455Y185659D02*
X208456Y188654D01*
X206455Y198638D02*
X210456Y195643D01*
X225460Y180667D02*
X229461Y183662D01*
X230462Y179668D01*
X227461Y170683D02*
X230462Y179668D01*
X223460Y173678D02*
X225460Y180667D01*
X223460Y173678D02*
X227461Y170683D01*
Y195643D02*
X231462Y198638D01*
X232462Y194644D01*
X229461Y185659D02*
X232462Y194644D01*
X225460Y188654D02*
X227461Y195643D01*
X225460Y188654D02*
X229461Y185659D01*
X222460Y172679D02*
X226461Y169684D01*
X222460Y166689D02*
X226461Y169684D01*
X207456Y166689D02*
X222460D01*
X207456Y172679D02*
X222460D01*
X203455Y169684D02*
X207456Y166689D01*
X203455Y169684D02*
X207456Y172679D01*
X224460Y187655D02*
X228461Y184660D01*
X224460Y181665D02*
X228461Y184660D01*
X209456Y181665D02*
X224460D01*
X209456Y187655D02*
X224460D01*
X205455Y184660D02*
X209456Y181665D01*
X205455Y184660D02*
X209456Y187655D01*
X226461Y202632D02*
X230462Y199636D01*
X226461Y196641D02*
X230462Y199636D01*
X211457Y196641D02*
X226461D01*
X211457Y202632D02*
X226461D01*
X207456Y199636D02*
X211457Y196641D01*
X207456Y199636D02*
X211457Y202632D01*
X253954Y174676D02*
X256955Y183662D01*
X253954Y174676D02*
X254955Y170683D01*
X258956Y173678D02*
X260956Y180667D01*
X254955Y170683D02*
X258956Y173678D01*
X256955Y183662D02*
X260956Y180667D01*
X255955Y189652D02*
X258956Y198638D01*
X255955Y189652D02*
X256955Y185659D01*
X260956Y188654D02*
X262957Y195643D01*
X256955Y185659D02*
X260956Y188654D01*
X258956Y198638D02*
X262957Y195643D01*
X277960Y180667D02*
X281961Y183662D01*
X282962Y179668D01*
X279961Y170683D02*
X282962Y179668D01*
X275960Y173678D02*
X277960Y180667D01*
X275960Y173678D02*
X279961Y170683D01*
Y195643D02*
X283962Y198638D01*
X284962Y194644D01*
X281961Y185659D02*
X284962Y194644D01*
X277960Y188654D02*
X279961Y195643D01*
X277960Y188654D02*
X281961Y185659D01*
X274959Y172679D02*
X278960Y169684D01*
X274959Y166689D02*
X278960Y169684D01*
X259956Y166689D02*
X274959D01*
X259956Y172679D02*
X274959D01*
X255955Y169684D02*
X259956Y166689D01*
X255955Y169684D02*
X259956Y172679D01*
X276960Y187655D02*
X280961Y184660D01*
X276960Y181665D02*
X280961Y184660D01*
X261956Y181665D02*
X276960D01*
X261956Y187655D02*
X276960D01*
X257955Y184660D02*
X261956Y181665D01*
X257955Y184660D02*
X261956Y187655D01*
X278960Y202632D02*
X282962Y199636D01*
X278960Y196641D02*
X282962Y199636D01*
X263957Y196641D02*
X278960D01*
X263957Y202632D02*
X278960D01*
X259956Y199636D02*
X263957Y196641D01*
X259956Y199636D02*
X263957Y202632D01*
X306454Y174676D02*
X309455Y183662D01*
X306454Y174676D02*
X307454Y170683D01*
X311455Y173678D02*
X313456Y180667D01*
X307454Y170683D02*
X311455Y173678D01*
X309455Y183662D02*
X313456Y180667D01*
X308455Y189652D02*
X311455Y198638D01*
X308455Y189652D02*
X309455Y185659D01*
X313456Y188654D02*
X315457Y195643D01*
X309455Y185659D02*
X313456Y188654D01*
X311455Y198638D02*
X315457Y195643D01*
X330460Y180667D02*
X334461Y183662D01*
X335461Y179668D01*
X332461Y170683D02*
X335461Y179668D01*
X328460Y173678D02*
X330460Y180667D01*
X328460Y173678D02*
X332461Y170683D01*
Y195643D02*
X336462Y198638D01*
X337462Y194644D01*
X334461Y185659D02*
X337462Y194644D01*
X330460Y188654D02*
X332461Y195643D01*
X330460Y188654D02*
X334461Y185659D01*
X327460Y172679D02*
X331460Y169684D01*
X327460Y166689D02*
X331460Y169684D01*
X312456Y166689D02*
X327460D01*
X312456Y172679D02*
X327460D01*
X308455Y169684D02*
X312456Y166689D01*
X308455Y169684D02*
X312456Y172679D01*
X329460Y187655D02*
X333461Y184660D01*
X329460Y181665D02*
X333461Y184660D01*
X314456Y181665D02*
X329460D01*
X314456Y187655D02*
X329460D01*
X310455Y184660D02*
X314456Y181665D01*
X310455Y184660D02*
X314456Y187655D01*
X331460Y202632D02*
X335461Y199636D01*
X331460Y196641D02*
X335461Y199636D01*
X316457Y196641D02*
X331460D01*
X316457Y202632D02*
X331460D01*
X312456Y199636D02*
X316457Y196641D01*
X312456Y199636D02*
X316457Y202632D01*
X71454Y324676D02*
X74455Y333662D01*
X71454Y324676D02*
X72455Y320683D01*
X76455Y323678D02*
X78456Y330667D01*
X72455Y320683D02*
X76455Y323678D01*
X74455Y333662D02*
X78456Y330667D01*
X73455Y339652D02*
X76455Y348638D01*
X73455Y339652D02*
X74455Y335659D01*
X78456Y338654D02*
X80457Y345643D01*
X74455Y335659D02*
X78456Y338654D01*
X76455Y348638D02*
X80457Y345643D01*
X95460Y330667D02*
X99461Y333662D01*
X100461Y329668D01*
X97461Y320683D02*
X100461Y329668D01*
X93460Y323678D02*
X95460Y330667D01*
X93460Y323678D02*
X97461Y320683D01*
Y345643D02*
X101462Y348638D01*
X102462Y344644D01*
X99461Y335659D02*
X102462Y344644D01*
X95460Y338654D02*
X97461Y345643D01*
X95460Y338654D02*
X99461Y335659D01*
X92459Y322679D02*
X96460Y319684D01*
X92459Y316689D02*
X96460Y319684D01*
X77456Y316689D02*
X92459D01*
X77456Y322679D02*
X92459D01*
X73455Y319684D02*
X77456Y316689D01*
X73455Y319684D02*
X77456Y322679D01*
X94460Y337655D02*
X98461Y334660D01*
X94460Y331665D02*
X98461Y334660D01*
X79456Y331665D02*
X94460D01*
X79456Y337655D02*
X94460D01*
X75455Y334660D02*
X79456Y331665D01*
X75455Y334660D02*
X79456Y337655D01*
X96460Y352632D02*
X100461Y349636D01*
X96460Y346641D02*
X100461Y349636D01*
X81457Y346641D02*
X96460D01*
X81457Y352632D02*
X96460D01*
X77456Y349636D02*
X81457Y346641D01*
X77456Y349636D02*
X81457Y352632D01*
X123954Y324676D02*
X126955Y333662D01*
X123954Y324676D02*
X124954Y320683D01*
X128955Y323678D02*
X130956Y330667D01*
X124954Y320683D02*
X128955Y323678D01*
X126955Y333662D02*
X130956Y330667D01*
X125955Y339652D02*
X128955Y348638D01*
X125955Y339652D02*
X126955Y335659D01*
X130956Y338654D02*
X132957Y345643D01*
X126955Y335659D02*
X130956Y338654D01*
X128955Y348638D02*
X132957Y345643D01*
X147960Y330667D02*
X151961Y333662D01*
X152962Y329668D01*
X149961Y320683D02*
X152962Y329668D01*
X145960Y323678D02*
X147960Y330667D01*
X145960Y323678D02*
X149961Y320683D01*
Y345643D02*
X153962Y348638D01*
X154962Y344644D01*
X151961Y335659D02*
X154962Y344644D01*
X147960Y338654D02*
X149961Y345643D01*
X147960Y338654D02*
X151961Y335659D01*
X144959Y322679D02*
X148960Y319684D01*
X144959Y316689D02*
X148960Y319684D01*
X129956Y316689D02*
X144959D01*
X129956Y322679D02*
X144959D01*
X125955Y319684D02*
X129956Y316689D01*
X125955Y319684D02*
X129956Y322679D01*
X146960Y337655D02*
X150961Y334660D01*
X146960Y331665D02*
X150961Y334660D01*
X131956Y331665D02*
X146960D01*
X131956Y337655D02*
X146960D01*
X127955Y334660D02*
X131956Y331665D01*
X127955Y334660D02*
X131956Y337655D01*
X148960Y352632D02*
X152962Y349636D01*
X148960Y346641D02*
X152962Y349636D01*
X133957Y346641D02*
X148960D01*
X133957Y352632D02*
X148960D01*
X129956Y349636D02*
X133957Y346641D01*
X129956Y349636D02*
X133957Y352632D01*
X231454Y324676D02*
X234455Y333662D01*
X231454Y324676D02*
X232454Y320683D01*
X236455Y323678D02*
X238456Y330667D01*
X232454Y320683D02*
X236455Y323678D01*
X234455Y333662D02*
X238456Y330667D01*
X233455Y339652D02*
X236455Y348638D01*
X233455Y339652D02*
X234455Y335659D01*
X238456Y338654D02*
X240457Y345643D01*
X234455Y335659D02*
X238456Y338654D01*
X236455Y348638D02*
X240457Y345643D01*
X255460Y330667D02*
X259461Y333662D01*
X260461Y329668D01*
X257461Y320683D02*
X260461Y329668D01*
X253460Y323678D02*
X255460Y330667D01*
X253460Y323678D02*
X257461Y320683D01*
Y345643D02*
X261462Y348638D01*
X262462Y344644D01*
X259461Y335659D02*
X262462Y344644D01*
X255460Y338654D02*
X257461Y345643D01*
X255460Y338654D02*
X259461Y335659D01*
X252460Y322679D02*
X256460Y319684D01*
X252460Y316689D02*
X256460Y319684D01*
X237456Y316689D02*
X252460D01*
X237456Y322679D02*
X252460D01*
X233455Y319684D02*
X237456Y316689D01*
X233455Y319684D02*
X237456Y322679D01*
X254460Y337655D02*
X258461Y334660D01*
X254460Y331665D02*
X258461Y334660D01*
X239456Y331665D02*
X254460D01*
X239456Y337655D02*
X254460D01*
X235455Y334660D02*
X239456Y331665D01*
X235455Y334660D02*
X239456Y337655D01*
X256460Y352632D02*
X260461Y349636D01*
X256460Y346641D02*
X260461Y349636D01*
X241457Y346641D02*
X256460D01*
X241457Y352632D02*
X256460D01*
X237456Y349636D02*
X241457Y346641D01*
X237456Y349636D02*
X241457Y352632D01*
X283954Y324676D02*
X286955Y333662D01*
X283954Y324676D02*
X284955Y320683D01*
X288955Y323678D02*
X290956Y330667D01*
X284955Y320683D02*
X288955Y323678D01*
X286955Y333662D02*
X290956Y330667D01*
X285955Y339652D02*
X288955Y348638D01*
X285955Y339652D02*
X286955Y335659D01*
X290956Y338654D02*
X292956Y345643D01*
X286955Y335659D02*
X290956Y338654D01*
X288955Y348638D02*
X292956Y345643D01*
X307960Y330667D02*
X311961Y333662D01*
X312962Y329668D01*
X309961Y320683D02*
X312962Y329668D01*
X305960Y323678D02*
X307960Y330667D01*
X305960Y323678D02*
X309961Y320683D01*
Y345643D02*
X313962Y348638D01*
X314962Y344644D01*
X311961Y335659D02*
X314962Y344644D01*
X307960Y338654D02*
X309961Y345643D01*
X307960Y338654D02*
X311961Y335659D01*
X304960Y322679D02*
X308961Y319684D01*
X304960Y316689D02*
X308961Y319684D01*
X289956Y316689D02*
X304960D01*
X289956Y322679D02*
X304960D01*
X285955Y319684D02*
X289956Y316689D01*
X285955Y319684D02*
X289956Y322679D01*
X306960Y337655D02*
X310961Y334660D01*
X306960Y331665D02*
X310961Y334660D01*
X291956Y331665D02*
X306960D01*
X291956Y337655D02*
X306960D01*
X287955Y334660D02*
X291956Y331665D01*
X287955Y334660D02*
X291956Y337655D01*
X308961Y352632D02*
X312962Y349636D01*
X308961Y346641D02*
X312962Y349636D01*
X293957Y346641D02*
X308961D01*
X293957Y352632D02*
X308961D01*
X289956Y349636D02*
X293957Y346641D01*
X289956Y349636D02*
X293957Y352632D01*
X96454Y249676D02*
X99455Y258662D01*
X96454Y249676D02*
X97455Y245683D01*
X101455Y248678D02*
X103456Y255667D01*
X97455Y245683D02*
X101455Y248678D01*
X99455Y258662D02*
X103456Y255667D01*
X98455Y264652D02*
X101455Y273638D01*
X98455Y264652D02*
X99455Y260659D01*
X103456Y263654D02*
X105456Y270643D01*
X99455Y260659D02*
X103456Y263654D01*
X101455Y273638D02*
X105456Y270643D01*
X120460Y255667D02*
X124461Y258662D01*
X125461Y254668D01*
X122461Y245683D02*
X125461Y254668D01*
X118460Y248678D02*
X120460Y255667D01*
X118460Y248678D02*
X122461Y245683D01*
Y270643D02*
X126462Y273638D01*
X127462Y269644D01*
X124461Y260659D02*
X127462Y269644D01*
X120460Y263654D02*
X122461Y270643D01*
X120460Y263654D02*
X124461Y260659D01*
X117459Y247679D02*
X121460Y244684D01*
X117459Y241689D02*
X121460Y244684D01*
X102456Y241689D02*
X117459D01*
X102456Y247679D02*
X117459D01*
X98455Y244684D02*
X102456Y241689D01*
X98455Y244684D02*
X102456Y247679D01*
X119460Y262655D02*
X123461Y259660D01*
X119460Y256665D02*
X123461Y259660D01*
X104456Y256665D02*
X119460D01*
X104456Y262655D02*
X119460D01*
X100455Y259660D02*
X104456Y256665D01*
X100455Y259660D02*
X104456Y262655D01*
X121460Y277632D02*
X125461Y274636D01*
X121460Y271641D02*
X125461Y274636D01*
X106457Y271641D02*
X121460D01*
X106457Y277632D02*
X121460D01*
X102456Y274636D02*
X106457Y271641D01*
X102456Y274636D02*
X106457Y277632D01*
X148954Y249676D02*
X151955Y258662D01*
X148954Y249676D02*
X149954Y245683D01*
X153955Y248678D02*
X155956Y255667D01*
X149954Y245683D02*
X153955Y248678D01*
X151955Y258662D02*
X155956Y255667D01*
X150955Y264652D02*
X153955Y273638D01*
X150955Y264652D02*
X151955Y260659D01*
X155956Y263654D02*
X157957Y270643D01*
X151955Y260659D02*
X155956Y263654D01*
X153955Y273638D02*
X157957Y270643D01*
X172960Y255667D02*
X176961Y258662D01*
X177962Y254668D01*
X174961Y245683D02*
X177962Y254668D01*
X170960Y248678D02*
X172960Y255667D01*
X170960Y248678D02*
X174961Y245683D01*
Y270643D02*
X178962Y273638D01*
X179962Y269644D01*
X176961Y260659D02*
X179962Y269644D01*
X172960Y263654D02*
X174961Y270643D01*
X172960Y263654D02*
X176961Y260659D01*
X169959Y247679D02*
X173960Y244684D01*
X169959Y241689D02*
X173960Y244684D01*
X154956Y241689D02*
X169959D01*
X154956Y247679D02*
X169959D01*
X150955Y244684D02*
X154956Y241689D01*
X150955Y244684D02*
X154956Y247679D01*
X171960Y262655D02*
X175961Y259660D01*
X171960Y256665D02*
X175961Y259660D01*
X156956Y256665D02*
X171960D01*
X156956Y262655D02*
X171960D01*
X152955Y259660D02*
X156956Y256665D01*
X152955Y259660D02*
X156956Y262655D01*
X173960Y277632D02*
X177962Y274636D01*
X173960Y271641D02*
X177962Y274636D01*
X158957Y271641D02*
X173960D01*
X158957Y277632D02*
X173960D01*
X154956Y274636D02*
X158957Y271641D01*
X154956Y274636D02*
X158957Y277632D01*
X201454Y249676D02*
X204455Y258662D01*
X201454Y249676D02*
X202454Y245683D01*
X206455Y248678D02*
X208456Y255667D01*
X202454Y245683D02*
X206455Y248678D01*
X204455Y258662D02*
X208456Y255667D01*
X203455Y264652D02*
X206455Y273638D01*
X203455Y264652D02*
X204455Y260659D01*
X208456Y263654D02*
X210456Y270643D01*
X204455Y260659D02*
X208456Y263654D01*
X206455Y273638D02*
X210456Y270643D01*
X225460Y255667D02*
X229461Y258662D01*
X230462Y254668D01*
X227461Y245683D02*
X230462Y254668D01*
X223460Y248678D02*
X225460Y255667D01*
X223460Y248678D02*
X227461Y245683D01*
Y270643D02*
X231462Y273638D01*
X232462Y269644D01*
X229461Y260659D02*
X232462Y269644D01*
X225460Y263654D02*
X227461Y270643D01*
X225460Y263654D02*
X229461Y260659D01*
X222460Y247679D02*
X226461Y244684D01*
X222460Y241689D02*
X226461Y244684D01*
X207456Y241689D02*
X222460D01*
X207456Y247679D02*
X222460D01*
X203455Y244684D02*
X207456Y241689D01*
X203455Y244684D02*
X207456Y247679D01*
X224460Y262655D02*
X228461Y259660D01*
X224460Y256665D02*
X228461Y259660D01*
X209456Y256665D02*
X224460D01*
X209456Y262655D02*
X224460D01*
X205455Y259660D02*
X209456Y256665D01*
X205455Y259660D02*
X209456Y262655D01*
X226461Y277632D02*
X230462Y274636D01*
X226461Y271641D02*
X230462Y274636D01*
X211457Y271641D02*
X226461D01*
X211457Y277632D02*
X226461D01*
X207456Y274636D02*
X211457Y271641D01*
X207456Y274636D02*
X211457Y277632D01*
X253954Y249676D02*
X256955Y258662D01*
X253954Y249676D02*
X254955Y245683D01*
X258956Y248678D02*
X260956Y255667D01*
X254955Y245683D02*
X258956Y248678D01*
X256955Y258662D02*
X260956Y255667D01*
X255955Y264652D02*
X258956Y273638D01*
X255955Y264652D02*
X256955Y260659D01*
X260956Y263654D02*
X262957Y270643D01*
X256955Y260659D02*
X260956Y263654D01*
X258956Y273638D02*
X262957Y270643D01*
X277960Y255667D02*
X281961Y258662D01*
X282962Y254668D01*
X279961Y245683D02*
X282962Y254668D01*
X275960Y248678D02*
X277960Y255667D01*
X275960Y248678D02*
X279961Y245683D01*
Y270643D02*
X283962Y273638D01*
X284962Y269644D01*
X281961Y260659D02*
X284962Y269644D01*
X277960Y263654D02*
X279961Y270643D01*
X277960Y263654D02*
X281961Y260659D01*
X274959Y247679D02*
X278960Y244684D01*
X274959Y241689D02*
X278960Y244684D01*
X259956Y241689D02*
X274959D01*
X259956Y247679D02*
X274959D01*
X255955Y244684D02*
X259956Y241689D01*
X255955Y244684D02*
X259956Y247679D01*
X276960Y262655D02*
X280961Y259660D01*
X276960Y256665D02*
X280961Y259660D01*
X261956Y256665D02*
X276960D01*
X261956Y262655D02*
X276960D01*
X257955Y259660D02*
X261956Y256665D01*
X257955Y259660D02*
X261956Y262655D01*
X278960Y277632D02*
X282962Y274636D01*
X278960Y271641D02*
X282962Y274636D01*
X263957Y271641D02*
X278960D01*
X263957Y277632D02*
X278960D01*
X259956Y274636D02*
X263957Y271641D01*
X259956Y274636D02*
X263957Y277632D01*
D23*
X35000Y225999D02*
Y222500D01*
X36749D01*
X37333Y223083D01*
Y225416D01*
X36749Y225999D01*
X35000D01*
X38499Y223083D02*
X39082Y222500D01*
X40248D01*
X40832Y223083D01*
Y225416D01*
X40248Y225999D01*
X39082D01*
X38499Y225416D01*
Y224833D01*
X39082Y224249D01*
X40832D01*
X127500Y145999D02*
Y142500D01*
X129249D01*
X129833Y143083D01*
Y145416D01*
X129249Y145999D01*
X127500D01*
X130999Y142500D02*
X132165D01*
X131582D01*
Y145999D01*
X130999Y145416D01*
X133915D02*
X134498Y145999D01*
X135664D01*
X136247Y145416D01*
Y143083D01*
X135664Y142500D01*
X134498D01*
X133915Y143083D01*
Y145416D01*
X140000Y145999D02*
Y142500D01*
X141749D01*
X142333Y143083D01*
Y145416D01*
X141749Y145999D01*
X140000D01*
X143499Y142500D02*
X144665D01*
X144082D01*
Y145999D01*
X143499Y145416D01*
X146415Y142500D02*
X147581D01*
X146998D01*
Y145999D01*
X146415Y145416D01*
X192500Y145999D02*
Y142500D01*
X194249D01*
X194833Y143083D01*
Y145416D01*
X194249Y145999D01*
X192500D01*
X195999Y142500D02*
X197165D01*
X196582D01*
Y145999D01*
X195999Y145416D01*
X201247Y142500D02*
X198915D01*
X201247Y144833D01*
Y145416D01*
X200664Y145999D01*
X199498D01*
X198915Y145416D01*
X245000Y145999D02*
Y142500D01*
X246749D01*
X247333Y143083D01*
Y145416D01*
X246749Y145999D01*
X245000D01*
X248499Y142500D02*
X249665D01*
X249082D01*
Y145999D01*
X248499Y145416D01*
X251415D02*
X251998Y145999D01*
X253164D01*
X253747Y145416D01*
Y144833D01*
X253164Y144249D01*
X252581D01*
X253164D01*
X253747Y143666D01*
Y143083D01*
X253164Y142500D01*
X251998D01*
X251415Y143083D01*
X273068Y42096D02*
X272485Y41513D01*
Y40347D01*
X273068Y39764D01*
X275401D01*
X275984Y40347D01*
Y41513D01*
X275401Y42096D01*
X275984Y45012D02*
X272485D01*
X274235Y43263D01*
Y45595D01*
X217084Y121833D02*
X216501Y121249D01*
Y120083D01*
X217084Y119500D01*
X219417D01*
X220000Y120083D01*
Y121249D01*
X219417Y121833D01*
X217084Y122999D02*
X216501Y123582D01*
Y124748D01*
X217084Y125331D01*
X217667D01*
X218251Y124748D01*
Y124165D01*
Y124748D01*
X218834Y125331D01*
X219417D01*
X220000Y124748D01*
Y123582D01*
X219417Y122999D01*
X309584Y122333D02*
X309001Y121749D01*
Y120583D01*
X309584Y120000D01*
X311917D01*
X312500Y120583D01*
Y121749D01*
X311917Y122333D01*
X312500Y125831D02*
Y123499D01*
X310167Y125831D01*
X309584D01*
X309001Y125248D01*
Y124082D01*
X309584Y123499D01*
X12084Y122333D02*
X11501Y121749D01*
Y120583D01*
X12084Y120000D01*
X14417D01*
X15000Y120583D01*
Y121749D01*
X14417Y122333D01*
X15000Y123499D02*
Y124665D01*
Y124082D01*
X11501D01*
X12084Y123499D01*
X126501Y92500D02*
X129417D01*
X130000Y93083D01*
Y94249D01*
X129417Y94833D01*
X126501D01*
X130000Y97748D02*
X126501D01*
X128251Y95999D01*
Y98331D01*
X221501Y92500D02*
X224417D01*
X225000Y93083D01*
Y94249D01*
X224417Y94833D01*
X221501D01*
X222084Y95999D02*
X221501Y96582D01*
Y97748D01*
X222084Y98331D01*
X222667D01*
X223251Y97748D01*
Y97165D01*
Y97748D01*
X223834Y98331D01*
X224417D01*
X225000Y97748D01*
Y96582D01*
X224417Y95999D01*
X62500Y378499D02*
Y375000D01*
X64249D01*
X64833Y375583D01*
Y377916D01*
X64249Y378499D01*
X62500D01*
X65999Y375000D02*
X67165D01*
X66582D01*
Y378499D01*
X65999Y377916D01*
X115000Y378499D02*
Y375000D01*
X116749D01*
X117333Y375583D01*
Y377916D01*
X116749Y378499D01*
X115000D01*
X120831Y375000D02*
X118499D01*
X120831Y377333D01*
Y377916D01*
X120248Y378499D01*
X119082D01*
X118499Y377916D01*
X222500Y378499D02*
Y375000D01*
X224249D01*
X224833Y375583D01*
Y377916D01*
X224249Y378499D01*
X222500D01*
X225999Y377916D02*
X226582Y378499D01*
X227748D01*
X228331Y377916D01*
Y377333D01*
X227748Y376749D01*
X227165D01*
X227748D01*
X228331Y376166D01*
Y375583D01*
X227748Y375000D01*
X226582D01*
X225999Y375583D01*
X275000Y378499D02*
Y375000D01*
X276749D01*
X277333Y375583D01*
Y377916D01*
X276749Y378499D01*
X275000D01*
X280248Y375000D02*
Y378499D01*
X278499Y376749D01*
X280831D01*
X77500Y295999D02*
Y292500D01*
X79249D01*
X79833Y293083D01*
Y295416D01*
X79249Y295999D01*
X77500D01*
X83331D02*
X80999D01*
Y294249D01*
X82165Y294833D01*
X82748D01*
X83331Y294249D01*
Y293083D01*
X82748Y292500D01*
X81582D01*
X80999Y293083D01*
X182500Y303499D02*
Y300000D01*
X184249D01*
X184833Y300583D01*
Y302916D01*
X184249Y303499D01*
X182500D01*
X188331D02*
X187165Y302916D01*
X185999Y301749D01*
Y300583D01*
X186582Y300000D01*
X187748D01*
X188331Y300583D01*
Y301166D01*
X187748Y301749D01*
X185999D01*
X192500Y303499D02*
Y300000D01*
X194249D01*
X194833Y300583D01*
Y302916D01*
X194249Y303499D01*
X192500D01*
X195999D02*
X198331D01*
Y302916D01*
X195999Y300583D01*
Y300000D01*
X297500Y295999D02*
Y292500D01*
X299249D01*
X299833Y293083D01*
Y295416D01*
X299249Y295999D01*
X297500D01*
X300999Y295416D02*
X301582Y295999D01*
X302748D01*
X303331Y295416D01*
Y294833D01*
X302748Y294249D01*
X303331Y293666D01*
Y293083D01*
X302748Y292500D01*
X301582D01*
X300999Y293083D01*
Y293666D01*
X301582Y294249D01*
X300999Y294833D01*
Y295416D01*
X301582Y294249D02*
X302748D01*
X297500Y145999D02*
Y142500D01*
X299249D01*
X299833Y143083D01*
Y145416D01*
X299249Y145999D01*
X297500D01*
X300999Y142500D02*
X302165D01*
X301582D01*
Y145999D01*
X300999Y145416D01*
X305664Y142500D02*
Y145999D01*
X303915Y144249D01*
X306247D01*
X125000Y132500D02*
X121501D01*
Y134249D01*
X122084Y134833D01*
X123251D01*
X123834Y134249D01*
Y132500D01*
Y133666D02*
X125000Y134833D01*
Y135999D02*
Y137165D01*
Y136582D01*
X121501D01*
X122084Y135999D01*
X130000Y132500D02*
X126501D01*
Y134249D01*
X127084Y134833D01*
X128251D01*
X128834Y134249D01*
Y132500D01*
Y133666D02*
X130000Y134833D01*
Y138331D02*
Y135999D01*
X127667Y138331D01*
X127084D01*
X126501Y137748D01*
Y136582D01*
X127084Y135999D01*
X135000Y132500D02*
X131501D01*
Y134249D01*
X132084Y134833D01*
X133251D01*
X133834Y134249D01*
Y132500D01*
Y133666D02*
X135000Y134833D01*
X132084Y135999D02*
X131501Y136582D01*
Y137748D01*
X132084Y138331D01*
X132667D01*
X133251Y137748D01*
Y137165D01*
Y137748D01*
X133834Y138331D01*
X134417D01*
X135000Y137748D01*
Y136582D01*
X134417Y135999D01*
X140000Y132500D02*
X136501D01*
Y134249D01*
X137084Y134833D01*
X138251D01*
X138834Y134249D01*
Y132500D01*
Y133666D02*
X140000Y134833D01*
Y137748D02*
X136501D01*
X138251Y135999D01*
Y138331D01*
X145000Y132500D02*
X141501D01*
Y134249D01*
X142084Y134833D01*
X143251D01*
X143834Y134249D01*
Y132500D01*
Y133666D02*
X145000Y134833D01*
X141501Y138331D02*
Y135999D01*
X143251D01*
X142667Y137165D01*
Y137748D01*
X143251Y138331D01*
X144417D01*
X145000Y137748D01*
Y136582D01*
X144417Y135999D01*
X150000Y132500D02*
X146501D01*
Y134249D01*
X147084Y134833D01*
X148251D01*
X148834Y134249D01*
Y132500D01*
Y133666D02*
X150000Y134833D01*
X146501Y138331D02*
X147084Y137165D01*
X148251Y135999D01*
X149417D01*
X150000Y136582D01*
Y137748D01*
X149417Y138331D01*
X148834D01*
X148251Y137748D01*
Y135999D01*
X155000Y132500D02*
X151501D01*
Y134249D01*
X152084Y134833D01*
X153251D01*
X153834Y134249D01*
Y132500D01*
Y133666D02*
X155000Y134833D01*
X151501Y135999D02*
Y138331D01*
X152084D01*
X154417Y135999D01*
X155000D01*
X160000Y132500D02*
X156501D01*
Y134249D01*
X157084Y134833D01*
X158251D01*
X158834Y134249D01*
Y132500D01*
Y133666D02*
X160000Y134833D01*
X157084Y135999D02*
X156501Y136582D01*
Y137748D01*
X157084Y138331D01*
X157667D01*
X158251Y137748D01*
X158834Y138331D01*
X159417D01*
X160000Y137748D01*
Y136582D01*
X159417Y135999D01*
X158834D01*
X158251Y136582D01*
X157667Y135999D01*
X157084D01*
X158251Y136582D02*
Y137748D01*
X59001Y20000D02*
X61917D01*
X62500Y20583D01*
Y21749D01*
X61917Y22333D01*
X59001D01*
X62500Y23499D02*
Y24665D01*
Y24082D01*
X59001D01*
X59584Y23499D01*
X14001Y92500D02*
X16917D01*
X17500Y93083D01*
Y94249D01*
X16917Y94833D01*
X14001D01*
X17500Y98331D02*
Y95999D01*
X15167Y98331D01*
X14584D01*
X14001Y97748D01*
Y96582D01*
X14584Y95999D01*
X374016Y112205D02*
X370517D01*
Y113954D01*
X371100Y114537D01*
X372266D01*
X372849Y113954D01*
Y112205D01*
Y113371D02*
X374016Y114537D01*
X373433Y115704D02*
X374016Y116287D01*
Y117453D01*
X373433Y118036D01*
X371100D01*
X370517Y117453D01*
Y116287D01*
X371100Y115704D01*
X371683D01*
X372266Y116287D01*
Y118036D01*
X374016Y78740D02*
X370517D01*
Y80490D01*
X371100Y81073D01*
X372266D01*
X372849Y80490D01*
Y78740D01*
Y79906D02*
X374016Y81073D01*
Y82239D02*
Y83405D01*
Y82822D01*
X370517D01*
X371100Y82239D01*
Y85155D02*
X370517Y85738D01*
Y86904D01*
X371100Y87487D01*
X373433D01*
X374016Y86904D01*
Y85738D01*
X373433Y85155D01*
X371100D01*
X319507Y94466D02*
X318924Y93883D01*
Y92717D01*
X319507Y92133D01*
X320090D01*
X320673Y92717D01*
Y93883D01*
X321256Y94466D01*
X321839D01*
X322422Y93883D01*
Y92717D01*
X321839Y92133D01*
X318924Y95632D02*
X322422D01*
X321256Y96799D01*
X322422Y97965D01*
X318924D01*
X322422Y99131D02*
Y100297D01*
Y99714D01*
X318924D01*
X319507Y99131D01*
Y61001D02*
X318924Y60418D01*
Y59252D01*
X319507Y58669D01*
X320090D01*
X320673Y59252D01*
Y60418D01*
X321256Y61001D01*
X321839D01*
X322422Y60418D01*
Y59252D01*
X321839Y58669D01*
X318924Y62168D02*
X322422D01*
X321256Y63334D01*
X322422Y64500D01*
X318924D01*
X322422Y67999D02*
Y65667D01*
X320090Y67999D01*
X319507D01*
X318924Y67416D01*
Y66250D01*
X319507Y65667D01*
X283084Y42333D02*
X282501Y41749D01*
Y40583D01*
X283084Y40000D01*
X285417D01*
X286000Y40583D01*
Y41749D01*
X285417Y42333D01*
X282501Y45832D02*
Y43499D01*
X284251D01*
X283667Y44665D01*
Y45248D01*
X284251Y45832D01*
X285417D01*
X286000Y45248D01*
Y44082D01*
X285417Y43499D01*
X274250Y74380D02*
X273667Y73797D01*
Y72630D01*
X274250Y72047D01*
X276582D01*
X277165Y72630D01*
Y73797D01*
X276582Y74380D01*
X273667Y77879D02*
X274250Y76712D01*
X275416Y75546D01*
X276582D01*
X277165Y76129D01*
Y77296D01*
X276582Y77879D01*
X275999D01*
X275416Y77296D01*
Y75546D01*
X286221Y72441D02*
X282722D01*
Y74190D01*
X283305Y74774D01*
X284471D01*
X285054Y74190D01*
Y72441D01*
Y73607D02*
X286221Y74774D01*
Y75940D02*
Y77106D01*
Y76523D01*
X282722D01*
X283305Y75940D01*
X286221Y78856D02*
Y80022D01*
Y79439D01*
X282722D01*
X283305Y78856D01*
X26696Y148350D02*
Y149100D01*
X25947Y149849D01*
X22198D01*
Y147600D01*
X22948Y146850D01*
X24447D01*
X25197Y147600D01*
Y149849D01*
Y151349D02*
Y152848D01*
Y152099D01*
X22198D01*
Y151349D01*
X21448Y155848D02*
X22198D01*
Y155098D01*
Y156597D01*
Y155848D01*
X24447D01*
X25197Y156597D01*
X20698Y158846D02*
X25197D01*
X22948D01*
X22198Y159596D01*
Y161096D01*
X22948Y161846D01*
X25197D01*
X22198Y163345D02*
X24447D01*
X25197Y164095D01*
Y166344D01*
X22198D01*
X20698Y167844D02*
X25197D01*
Y170093D01*
X24447Y170843D01*
X23697D01*
X22948D01*
X22198Y170093D01*
Y167844D01*
X25197Y172342D02*
X24447D01*
Y173092D01*
X25197D01*
Y172342D01*
X22198Y179090D02*
Y176841D01*
X22948Y176091D01*
X24447D01*
X25197Y176841D01*
Y179090D01*
Y181339D02*
Y182839D01*
X24447Y183589D01*
X22948D01*
X22198Y182839D01*
Y181339D01*
X22948Y180589D01*
X24447D01*
X25197Y181339D01*
Y185088D02*
X22198D01*
Y185838D01*
X22948Y186588D01*
X25197D01*
X22948D01*
X22198Y187337D01*
X22948Y188087D01*
X25197D01*
Y189587D02*
X22198Y192586D01*
X25197Y194835D02*
X21448D01*
X22948D01*
Y194085D01*
Y195585D01*
Y194835D01*
X21448D01*
X20698Y195585D01*
X22198Y197834D02*
X25197D01*
X23697D01*
X22948Y198584D01*
X22198Y199334D01*
Y200083D01*
Y203082D02*
Y204582D01*
X22948Y205331D01*
X25197D01*
Y203082D01*
X24447Y202332D01*
X23697Y203082D01*
Y205331D01*
X25197Y206831D02*
X22198D01*
Y209080D01*
X22948Y209830D01*
X25197D01*
X22198Y214329D02*
Y212079D01*
X22948Y211330D01*
X24447D01*
X25197Y212079D01*
Y214329D01*
Y218077D02*
Y216578D01*
X24447Y215828D01*
X22948D01*
X22198Y216578D01*
Y218077D01*
X22948Y218827D01*
X23697D01*
Y215828D01*
X25197Y220327D02*
Y222576D01*
X24447Y223326D01*
X23697Y222576D01*
Y221076D01*
X22948Y220327D01*
X22198Y221076D01*
Y223326D01*
Y227824D02*
Y225575D01*
X22948Y224825D01*
X24447D01*
X25197Y225575D01*
Y227824D01*
Y230074D02*
Y231573D01*
X24447Y232323D01*
X22948D01*
X22198Y231573D01*
Y230074D01*
X22948Y229324D01*
X24447D01*
X25197Y230074D01*
Y233822D02*
Y236072D01*
X24447Y236821D01*
X23697Y236072D01*
Y234572D01*
X22948Y233822D01*
X22198Y234572D01*
Y236821D01*
Y239071D02*
Y240570D01*
X22948Y241320D01*
X25197D01*
Y239071D01*
X24447Y238321D01*
X23697Y239071D01*
Y241320D01*
X22198Y245818D02*
Y243569D01*
X22948Y242819D01*
X24447D01*
X25197Y243569D01*
Y245818D01*
X22198Y250317D02*
Y248068D01*
X22948Y247318D01*
X24447D01*
X25197Y248068D01*
Y250317D01*
Y252566D02*
Y254066D01*
X24447Y254816D01*
X22948D01*
X22198Y254066D01*
Y252566D01*
X22948Y251817D01*
X24447D01*
X25197Y252566D01*
Y256315D02*
X22198Y259314D01*
X20698Y260814D02*
X25197D01*
Y263063D01*
X24447Y263813D01*
X23697D01*
X22948Y263063D01*
Y260814D01*
Y263063D01*
X22198Y263813D01*
X21448D01*
X20698Y263063D01*
Y260814D01*
X25197Y265312D02*
Y266812D01*
Y266062D01*
X20698D01*
Y265312D01*
X22198Y269061D02*
X24447D01*
X25197Y269811D01*
Y272060D01*
X22198D01*
X25197Y275809D02*
Y274309D01*
X24447Y273559D01*
X22948D01*
X22198Y274309D01*
Y275809D01*
X22948Y276559D01*
X23697D01*
Y273559D01*
X25197Y278058D02*
X20698D01*
Y280307D01*
X21448Y281057D01*
X22948D01*
X23697Y280307D01*
Y278058D01*
X25197Y282557D02*
Y284056D01*
Y283306D01*
X22198D01*
Y282557D01*
X25197Y286305D02*
Y287805D01*
Y287055D01*
X20698D01*
Y286305D01*
X25197Y290054D02*
Y291554D01*
Y290804D01*
X20698D01*
Y290054D01*
X21448Y296802D02*
X20698Y296052D01*
Y294553D01*
X21448Y293803D01*
X24447D01*
X25197Y294553D01*
Y296052D01*
X24447Y296802D01*
X25197Y298302D02*
Y299801D01*
Y299051D01*
X20698D01*
Y298302D01*
X25197Y302800D02*
Y304300D01*
X24447Y305049D01*
X22948D01*
X22198Y304300D01*
Y302800D01*
X22948Y302050D01*
X24447D01*
X25197Y302800D01*
X22198Y309548D02*
Y307299D01*
X22948Y306549D01*
X24447D01*
X25197Y307299D01*
Y309548D01*
Y311047D02*
X20698D01*
X23697D02*
X22198Y313297D01*
X23697Y311047D02*
X25197Y313297D01*
X28179Y284101D02*
Y281102D01*
X30428D01*
Y282602D01*
Y281102D01*
X32677D01*
Y287850D02*
Y286351D01*
X31927Y285601D01*
X30428D01*
X29678Y286351D01*
Y287850D01*
X30428Y288600D01*
X31178D01*
Y285601D01*
X28179Y290100D02*
X32677D01*
Y292349D01*
X31927Y293098D01*
X31178D01*
X30428D01*
X29678Y292349D01*
Y290100D01*
X32677Y294598D02*
X29678Y297597D01*
X32677Y302096D02*
Y299097D01*
X29678Y302096D01*
X28928D01*
X28179Y301346D01*
Y299846D01*
X28928Y299097D01*
Y303595D02*
X28179Y304345D01*
Y305844D01*
X28928Y306594D01*
X31927D01*
X32677Y305844D01*
Y304345D01*
X31927Y303595D01*
X28928D01*
X32677Y311093D02*
Y308094D01*
X29678Y311093D01*
X28928D01*
X28179Y310343D01*
Y308843D01*
X28928Y308094D01*
X32677Y312592D02*
Y314092D01*
Y313342D01*
X28179D01*
X28928Y312592D01*
M02*
