G04 Layer_Physical_Order=2*
G04 Layer_Color=16711680*
%FSLAX25Y25*%
%MOIN*%
G70*
G01*
G75*
%ADD11C,0.01000*%
%ADD12C,0.00787*%
%ADD13O,0.06500X0.08000*%
%ADD14R,0.06500X0.08000*%
%ADD15R,0.05000X0.07000*%
%ADD16O,0.05000X0.07000*%
%ADD17C,0.19685*%
%ADD18R,0.07000X0.10000*%
%ADD19O,0.07000X0.10000*%
%ADD20O,0.07087X0.09449*%
%ADD21C,0.02400*%
G36*
X380906Y356299D02*
Y29528D01*
X356299Y4921D01*
X29528D01*
X4921Y29528D01*
X4921Y356299D01*
X29528Y380906D01*
X356299D01*
X380906Y356299D01*
D02*
G37*
%LPC*%
G36*
X300000Y129530D02*
X299086Y129410D01*
X298235Y129057D01*
X297504Y128496D01*
X296943Y127765D01*
X296590Y126914D01*
X296470Y126000D01*
Y124000D01*
X296590Y123086D01*
X296943Y122235D01*
X297504Y121504D01*
X298235Y120943D01*
X298471Y120845D01*
Y113134D01*
X296866Y111529D01*
X209211D01*
X208933Y112010D01*
X208936Y112029D01*
X209029Y112500D01*
Y120845D01*
X209265Y120943D01*
X209996Y121504D01*
X210557Y122235D01*
X210910Y123086D01*
X211030Y124000D01*
Y126000D01*
X210910Y126914D01*
X210557Y127765D01*
X209996Y128496D01*
X209265Y129057D01*
X208414Y129410D01*
X207500Y129530D01*
X206586Y129410D01*
X205735Y129057D01*
X205004Y128496D01*
X204443Y127765D01*
X204090Y126914D01*
X203970Y126000D01*
Y124000D01*
X204090Y123086D01*
X204443Y122235D01*
X205004Y121504D01*
X205735Y120943D01*
X205971Y120845D01*
Y113134D01*
X204366Y111529D01*
X28133D01*
X26529Y113134D01*
Y120845D01*
X26765Y120943D01*
X27496Y121504D01*
X28057Y122235D01*
X28410Y123086D01*
X28530Y124000D01*
Y126000D01*
X28410Y126914D01*
X28057Y127765D01*
X27496Y128496D01*
X26765Y129057D01*
X25914Y129410D01*
X25000Y129530D01*
X24086Y129410D01*
X23235Y129057D01*
X22504Y128496D01*
X21943Y127765D01*
X21590Y126914D01*
X21470Y126000D01*
Y124000D01*
X21590Y123086D01*
X21943Y122235D01*
X22504Y121504D01*
X23235Y120943D01*
X23471Y120845D01*
Y112500D01*
X23587Y111915D01*
X23919Y111419D01*
X26419Y108919D01*
X26915Y108587D01*
X27500Y108471D01*
X306867D01*
X308471Y106867D01*
Y90633D01*
X306867Y89029D01*
X290000D01*
X289415Y88913D01*
X288919Y88581D01*
X286991Y86654D01*
X286529Y86846D01*
Y89367D01*
X288162Y90999D01*
X288235Y90943D01*
X289086Y90590D01*
X290000Y90470D01*
X290914Y90590D01*
X291765Y90943D01*
X292496Y91504D01*
X293057Y92235D01*
X293410Y93086D01*
X293530Y94000D01*
Y96000D01*
X293410Y96914D01*
X293057Y97765D01*
X292496Y98496D01*
X291765Y99057D01*
X290914Y99410D01*
X290000Y99530D01*
X289086Y99410D01*
X288235Y99057D01*
X287504Y98496D01*
X286943Y97765D01*
X286590Y96914D01*
X286470Y96000D01*
Y94000D01*
X286512Y93675D01*
X283919Y91081D01*
X283587Y90585D01*
X283471Y90000D01*
Y87174D01*
X283009Y86983D01*
X281529Y88462D01*
Y90845D01*
X281765Y90943D01*
X282496Y91504D01*
X283057Y92235D01*
X283410Y93086D01*
X283530Y94000D01*
Y96000D01*
X283410Y96914D01*
X283057Y97765D01*
X282496Y98496D01*
X281765Y99057D01*
X280914Y99410D01*
X280000Y99530D01*
X279086Y99410D01*
X278235Y99057D01*
X277504Y98496D01*
X276943Y97765D01*
X276590Y96914D01*
X276470Y96000D01*
Y94000D01*
X276590Y93086D01*
X276943Y92235D01*
X277504Y91504D01*
X278235Y90943D01*
X278471Y90845D01*
Y89211D01*
X277971Y88936D01*
X277500Y89029D01*
X273133D01*
X271762Y90400D01*
X271764Y90666D01*
X271844Y91003D01*
X272496Y91504D01*
X273057Y92235D01*
X273410Y93086D01*
X273530Y94000D01*
Y96000D01*
X273410Y96914D01*
X273057Y97765D01*
X272496Y98496D01*
X271765Y99057D01*
X270914Y99410D01*
X270000Y99530D01*
X269086Y99410D01*
X268235Y99057D01*
X267504Y98496D01*
X266943Y97765D01*
X266590Y96914D01*
X266470Y96000D01*
Y94000D01*
X266590Y93086D01*
X266943Y92235D01*
X267504Y91504D01*
X268235Y90943D01*
X268471Y90845D01*
Y90000D01*
X268587Y89415D01*
X268919Y88919D01*
X270846Y86991D01*
X270654Y86529D01*
X263134D01*
X261529Y88134D01*
Y90845D01*
X261765Y90943D01*
X262496Y91504D01*
X263057Y92235D01*
X263410Y93086D01*
X263530Y94000D01*
Y96000D01*
X263410Y96914D01*
X263057Y97765D01*
X262496Y98496D01*
X261765Y99057D01*
X260914Y99410D01*
X260000Y99530D01*
X259086Y99410D01*
X258235Y99057D01*
X257504Y98496D01*
X256943Y97765D01*
X256590Y96914D01*
X256470Y96000D01*
Y94000D01*
X256590Y93086D01*
X256943Y92235D01*
X257504Y91504D01*
X258235Y90943D01*
X258471Y90845D01*
Y87500D01*
X258587Y86915D01*
X258919Y86419D01*
X260846Y84491D01*
X260654Y84029D01*
X253134D01*
X251529Y85633D01*
Y90845D01*
X251765Y90943D01*
X252496Y91504D01*
X253057Y92235D01*
X253410Y93086D01*
X253530Y94000D01*
Y96000D01*
X253410Y96914D01*
X253057Y97765D01*
X252496Y98496D01*
X251765Y99057D01*
X250914Y99410D01*
X250000Y99530D01*
X249086Y99410D01*
X248235Y99057D01*
X247504Y98496D01*
X246943Y97765D01*
X246590Y96914D01*
X246470Y96000D01*
Y94000D01*
X246590Y93086D01*
X246943Y92235D01*
X247504Y91504D01*
X248235Y90943D01*
X248471Y90845D01*
Y85000D01*
X248587Y84415D01*
X248919Y83919D01*
X250846Y81991D01*
X250654Y81529D01*
X243133D01*
X241529Y83134D01*
Y90845D01*
X241765Y90943D01*
X242496Y91504D01*
X243057Y92235D01*
X243410Y93086D01*
X243530Y94000D01*
Y96000D01*
X243410Y96914D01*
X243057Y97765D01*
X242496Y98496D01*
X241765Y99057D01*
X240914Y99410D01*
X240000Y99530D01*
X239086Y99410D01*
X238235Y99057D01*
X237504Y98496D01*
X236943Y97765D01*
X236590Y96914D01*
X236470Y96000D01*
Y94000D01*
X236590Y93086D01*
X236943Y92235D01*
X237504Y91504D01*
X238235Y90943D01*
X238471Y90845D01*
Y82500D01*
X238587Y81915D01*
X238919Y81419D01*
X241419Y78919D01*
X241441Y78904D01*
X241325Y78384D01*
X240231Y77931D01*
X239291Y77209D01*
X238569Y76269D01*
X238116Y75175D01*
X237961Y74000D01*
Y71000D01*
X238116Y69825D01*
X238569Y68731D01*
X239291Y67791D01*
X240231Y67069D01*
X241325Y66616D01*
X242500Y66461D01*
X243675Y66616D01*
X244769Y67069D01*
X245709Y67791D01*
X246431Y68731D01*
X246884Y69825D01*
X247039Y71000D01*
Y74000D01*
X246884Y75175D01*
X246431Y76269D01*
X245709Y77209D01*
X244769Y77931D01*
X244673Y77971D01*
X244773Y78471D01*
X250227D01*
X250327Y77971D01*
X250231Y77931D01*
X249291Y77209D01*
X248569Y76269D01*
X248116Y75175D01*
X247961Y74000D01*
Y71000D01*
X248116Y69825D01*
X248569Y68731D01*
X249291Y67791D01*
X250231Y67069D01*
X251325Y66616D01*
X252500Y66461D01*
X253675Y66616D01*
X254769Y67069D01*
X255709Y67791D01*
X256431Y68731D01*
X256884Y69825D01*
X257039Y71000D01*
Y74000D01*
X256884Y75175D01*
X256431Y76269D01*
X255709Y77209D01*
X254769Y77931D01*
X254673Y77971D01*
X254773Y78471D01*
X260227D01*
X260327Y77971D01*
X260231Y77931D01*
X259291Y77209D01*
X258569Y76269D01*
X258116Y75175D01*
X257961Y74000D01*
Y71000D01*
X258116Y69825D01*
X258569Y68731D01*
X259291Y67791D01*
X260231Y67069D01*
X261325Y66616D01*
X262500Y66461D01*
X263675Y66616D01*
X264769Y67069D01*
X265709Y67791D01*
X266431Y68731D01*
X266884Y69825D01*
X267039Y71000D01*
Y74000D01*
X266884Y75175D01*
X266431Y76269D01*
X265709Y77209D01*
X264769Y77931D01*
X264673Y77971D01*
X264773Y78471D01*
X269367D01*
X270971Y76867D01*
Y63134D01*
X269367Y61529D01*
X175000D01*
X174415Y61413D01*
X173919Y61081D01*
X171419Y58581D01*
X171087Y58085D01*
X170971Y57500D01*
Y18237D01*
X170231Y17931D01*
X169291Y17209D01*
X168569Y16269D01*
X168116Y15175D01*
X167961Y14000D01*
Y11000D01*
X168116Y9825D01*
X168569Y8731D01*
X169291Y7791D01*
X170231Y7069D01*
X171325Y6616D01*
X172500Y6461D01*
X173675Y6616D01*
X174769Y7069D01*
X175709Y7791D01*
X176431Y8731D01*
X176884Y9825D01*
X177039Y11000D01*
Y14000D01*
X176884Y15175D01*
X176431Y16269D01*
X175709Y17209D01*
X174769Y17931D01*
X174029Y18237D01*
Y56867D01*
X175634Y58471D01*
X183154D01*
X183346Y58009D01*
X181419Y56081D01*
X181087Y55585D01*
X180971Y55000D01*
Y18237D01*
X180231Y17931D01*
X179291Y17209D01*
X178569Y16269D01*
X178116Y15175D01*
X177961Y14000D01*
Y11000D01*
X178116Y9825D01*
X178569Y8731D01*
X179291Y7791D01*
X180231Y7069D01*
X181325Y6616D01*
X182500Y6461D01*
X183675Y6616D01*
X184769Y7069D01*
X185709Y7791D01*
X186431Y8731D01*
X186884Y9825D01*
X187039Y11000D01*
Y14000D01*
X186884Y15175D01*
X186431Y16269D01*
X185709Y17209D01*
X184769Y17931D01*
X184029Y18237D01*
Y54366D01*
X185634Y55971D01*
X193154D01*
X193346Y55509D01*
X191419Y53581D01*
X191087Y53085D01*
X190971Y52500D01*
Y18237D01*
X190231Y17931D01*
X189291Y17209D01*
X188569Y16269D01*
X188116Y15175D01*
X187961Y14000D01*
Y11000D01*
X188116Y9825D01*
X188569Y8731D01*
X189291Y7791D01*
X190231Y7069D01*
X191325Y6616D01*
X192500Y6461D01*
X193675Y6616D01*
X194769Y7069D01*
X195709Y7791D01*
X196431Y8731D01*
X196884Y9825D01*
X197039Y11000D01*
Y14000D01*
X196884Y15175D01*
X196431Y16269D01*
X195709Y17209D01*
X194769Y17931D01*
X194029Y18237D01*
Y51867D01*
X195633Y53471D01*
X203154D01*
X203346Y53009D01*
X201419Y51081D01*
X201087Y50585D01*
X200971Y50000D01*
Y18237D01*
X200231Y17931D01*
X199291Y17209D01*
X198569Y16269D01*
X198116Y15175D01*
X197961Y14000D01*
Y11000D01*
X198116Y9825D01*
X198569Y8731D01*
X199291Y7791D01*
X200231Y7069D01*
X201325Y6616D01*
X202500Y6461D01*
X203675Y6616D01*
X204769Y7069D01*
X205709Y7791D01*
X206431Y8731D01*
X206884Y9825D01*
X207039Y11000D01*
Y14000D01*
X206884Y15175D01*
X206431Y16269D01*
X205709Y17209D01*
X204769Y17931D01*
X204029Y18237D01*
Y49367D01*
X205633Y50971D01*
X213154D01*
X213346Y50509D01*
X211419Y48581D01*
X211087Y48085D01*
X210971Y47500D01*
Y18237D01*
X210231Y17931D01*
X209291Y17209D01*
X208569Y16269D01*
X208116Y15175D01*
X207961Y14000D01*
Y11000D01*
X208116Y9825D01*
X208569Y8731D01*
X209291Y7791D01*
X210231Y7069D01*
X211325Y6616D01*
X212500Y6461D01*
X213675Y6616D01*
X214769Y7069D01*
X215709Y7791D01*
X216431Y8731D01*
X216884Y9825D01*
X217039Y11000D01*
Y14000D01*
X216884Y15175D01*
X216431Y16269D01*
X215709Y17209D01*
X214769Y17931D01*
X214029Y18237D01*
Y46867D01*
X215634Y48471D01*
X223154D01*
X223346Y48009D01*
X221419Y46081D01*
X221087Y45585D01*
X220971Y45000D01*
Y18237D01*
X220231Y17931D01*
X219291Y17209D01*
X218569Y16269D01*
X218116Y15175D01*
X217961Y14000D01*
Y11000D01*
X218116Y9825D01*
X218569Y8731D01*
X219291Y7791D01*
X220231Y7069D01*
X221325Y6616D01*
X222500Y6461D01*
X223675Y6616D01*
X224769Y7069D01*
X225709Y7791D01*
X226431Y8731D01*
X226884Y9825D01*
X227039Y11000D01*
Y14000D01*
X226884Y15175D01*
X226431Y16269D01*
X225709Y17209D01*
X224769Y17931D01*
X224029Y18237D01*
Y44366D01*
X225634Y45971D01*
X243154D01*
X243346Y45509D01*
X241419Y43581D01*
X241087Y43085D01*
X240971Y42500D01*
Y18237D01*
X240231Y17931D01*
X239291Y17209D01*
X238569Y16269D01*
X238116Y15175D01*
X237961Y14000D01*
Y11000D01*
X238116Y9825D01*
X238569Y8731D01*
X239291Y7791D01*
X240231Y7069D01*
X241325Y6616D01*
X242500Y6461D01*
X243675Y6616D01*
X244769Y7069D01*
X245709Y7791D01*
X246431Y8731D01*
X246884Y9825D01*
X247039Y11000D01*
Y14000D01*
X246884Y15175D01*
X246431Y16269D01*
X245709Y17209D01*
X244769Y17931D01*
X244029Y18237D01*
Y41866D01*
X245634Y43471D01*
X262702D01*
X262893Y43009D01*
X261419Y41534D01*
X261087Y41038D01*
X260971Y40453D01*
Y18237D01*
X260231Y17931D01*
X259291Y17209D01*
X258569Y16269D01*
X258116Y15175D01*
X257961Y14000D01*
Y11000D01*
X258116Y9825D01*
X258569Y8731D01*
X259291Y7791D01*
X260231Y7069D01*
X261325Y6616D01*
X262500Y6461D01*
X263675Y6616D01*
X264769Y7069D01*
X265709Y7791D01*
X266431Y8731D01*
X266884Y9825D01*
X267039Y11000D01*
Y14000D01*
X266884Y15175D01*
X266431Y16269D01*
X265709Y17209D01*
X264769Y17931D01*
X264029Y18237D01*
Y39819D01*
X265681Y41471D01*
X291425D01*
X292010Y41587D01*
X292507Y41919D01*
X296160Y45572D01*
X296492Y46068D01*
X296608Y46654D01*
Y57234D01*
X296665Y57272D01*
X297151Y58000D01*
X297322Y58858D01*
X297151Y59717D01*
X296665Y60444D01*
X295937Y60931D01*
X295079Y61101D01*
X294220Y60931D01*
X293493Y60444D01*
X293006Y59717D01*
X292836Y58858D01*
X293006Y58000D01*
X293493Y57272D01*
X293549Y57234D01*
Y47287D01*
X290792Y44529D01*
X287346D01*
X287154Y44991D01*
X288581Y46419D01*
X288913Y46915D01*
X289029Y47500D01*
Y84367D01*
X290634Y85971D01*
X307500D01*
X308085Y86087D01*
X308581Y86419D01*
X311081Y88919D01*
X311413Y89415D01*
X311529Y90000D01*
Y107500D01*
X311413Y108085D01*
X311081Y108581D01*
X308581Y111081D01*
X308085Y111413D01*
X307500Y111529D01*
X301711D01*
X301433Y112010D01*
X301436Y112029D01*
X301529Y112500D01*
Y120845D01*
X301765Y120943D01*
X302496Y121504D01*
X303057Y122235D01*
X303410Y123086D01*
X303530Y124000D01*
Y126000D01*
X303410Y126914D01*
X303057Y127765D01*
X302496Y128496D01*
X301765Y129057D01*
X300914Y129410D01*
X300000Y129530D01*
D02*
G37*
G36*
X332177Y121839D02*
X331491Y121749D01*
X330386Y121291D01*
X329437Y120563D01*
X328709Y119614D01*
X328251Y118509D01*
X328095Y117323D01*
Y116642D01*
X332177D01*
Y121839D01*
D02*
G37*
G36*
X333177D02*
Y116642D01*
X337260D01*
Y117323D01*
X337104Y118509D01*
X336646Y119614D01*
X335917Y120563D01*
X334968Y121291D01*
X333863Y121749D01*
X333177Y121839D01*
D02*
G37*
G36*
Y104123D02*
Y98925D01*
X337260D01*
Y99606D01*
X337104Y100792D01*
X336646Y101898D01*
X335917Y102847D01*
X334968Y103575D01*
X333863Y104033D01*
X333177Y104123D01*
D02*
G37*
G36*
X332177Y115642D02*
X328095D01*
Y114961D01*
X328251Y113775D01*
X328709Y112669D01*
X329437Y111720D01*
X330386Y110992D01*
X331491Y110534D01*
X332177Y110444D01*
Y115642D01*
D02*
G37*
G36*
X337260D02*
X333177D01*
Y110444D01*
X333863Y110534D01*
X334968Y110992D01*
X335917Y111720D01*
X336646Y112669D01*
X337104Y113775D01*
X337260Y114961D01*
Y115642D01*
D02*
G37*
G36*
X167500Y129530D02*
X166586Y129410D01*
X165735Y129057D01*
X165004Y128496D01*
X164443Y127765D01*
X164090Y126914D01*
X163970Y126000D01*
Y124000D01*
X164090Y123086D01*
X164443Y122235D01*
X165004Y121504D01*
X165735Y120943D01*
X166586Y120590D01*
X167500Y120470D01*
X168414Y120590D01*
X169265Y120943D01*
X169996Y121504D01*
X170557Y122235D01*
X170910Y123086D01*
X171030Y124000D01*
Y126000D01*
X170910Y126914D01*
X170557Y127765D01*
X169996Y128496D01*
X169265Y129057D01*
X168414Y129410D01*
X167500Y129530D01*
D02*
G37*
G36*
X177500D02*
X176586Y129410D01*
X175735Y129057D01*
X175004Y128496D01*
X174443Y127765D01*
X174090Y126914D01*
X173970Y126000D01*
Y124000D01*
X174090Y123086D01*
X174443Y122235D01*
X175004Y121504D01*
X175735Y120943D01*
X176586Y120590D01*
X177500Y120470D01*
X178414Y120590D01*
X179265Y120943D01*
X179996Y121504D01*
X180557Y122235D01*
X180910Y123086D01*
X181030Y124000D01*
Y126000D01*
X180910Y126914D01*
X180557Y127765D01*
X179996Y128496D01*
X179265Y129057D01*
X178414Y129410D01*
X177500Y129530D01*
D02*
G37*
G36*
X187500D02*
X186586Y129410D01*
X185735Y129057D01*
X185004Y128496D01*
X184443Y127765D01*
X184090Y126914D01*
X183970Y126000D01*
Y124000D01*
X184090Y123086D01*
X184443Y122235D01*
X185004Y121504D01*
X185735Y120943D01*
X186586Y120590D01*
X187500Y120470D01*
X188414Y120590D01*
X189265Y120943D01*
X189996Y121504D01*
X190557Y122235D01*
X190910Y123086D01*
X191030Y124000D01*
Y126000D01*
X190910Y126914D01*
X190557Y127765D01*
X189996Y128496D01*
X189265Y129057D01*
X188414Y129410D01*
X187500Y129530D01*
D02*
G37*
G36*
X45000D02*
X44086Y129410D01*
X43235Y129057D01*
X42504Y128496D01*
X41943Y127765D01*
X41590Y126914D01*
X41470Y126000D01*
Y124000D01*
X41590Y123086D01*
X41943Y122235D01*
X42504Y121504D01*
X43235Y120943D01*
X44086Y120590D01*
X45000Y120470D01*
X45914Y120590D01*
X46765Y120943D01*
X47496Y121504D01*
X48057Y122235D01*
X48410Y123086D01*
X48530Y124000D01*
Y126000D01*
X48410Y126914D01*
X48057Y127765D01*
X47496Y128496D01*
X46765Y129057D01*
X45914Y129410D01*
X45000Y129530D01*
D02*
G37*
G36*
X55000D02*
X54086Y129410D01*
X53235Y129057D01*
X52504Y128496D01*
X51943Y127765D01*
X51590Y126914D01*
X51470Y126000D01*
Y124000D01*
X51590Y123086D01*
X51943Y122235D01*
X52504Y121504D01*
X53235Y120943D01*
X54086Y120590D01*
X55000Y120470D01*
X55914Y120590D01*
X56765Y120943D01*
X57496Y121504D01*
X58057Y122235D01*
X58410Y123086D01*
X58530Y124000D01*
Y126000D01*
X58410Y126914D01*
X58057Y127765D01*
X57496Y128496D01*
X56765Y129057D01*
X55914Y129410D01*
X55000Y129530D01*
D02*
G37*
G36*
X157500D02*
X156586Y129410D01*
X155735Y129057D01*
X155004Y128496D01*
X154443Y127765D01*
X154090Y126914D01*
X153970Y126000D01*
Y124000D01*
X154090Y123086D01*
X154443Y122235D01*
X155004Y121504D01*
X155735Y120943D01*
X156586Y120590D01*
X157500Y120470D01*
X158414Y120590D01*
X159265Y120943D01*
X159996Y121504D01*
X160557Y122235D01*
X160910Y123086D01*
X161030Y124000D01*
Y126000D01*
X160910Y126914D01*
X160557Y127765D01*
X159996Y128496D01*
X159265Y129057D01*
X158414Y129410D01*
X157500Y129530D01*
D02*
G37*
G36*
X332177Y104123D02*
X331491Y104033D01*
X330386Y103575D01*
X329437Y102847D01*
X328709Y101898D01*
X328251Y100792D01*
X328095Y99606D01*
Y98925D01*
X332177D01*
Y104123D01*
D02*
G37*
G36*
X337260Y97925D02*
X333177D01*
Y92727D01*
X333863Y92818D01*
X334968Y93275D01*
X335917Y94004D01*
X336646Y94953D01*
X337104Y96058D01*
X337260Y97244D01*
Y97925D01*
D02*
G37*
G36*
X24500Y99500D02*
X21500D01*
Y95500D01*
X24500D01*
Y99500D01*
D02*
G37*
G36*
X28500D02*
X25500D01*
Y95500D01*
X28500D01*
Y99500D01*
D02*
G37*
G36*
X303530Y94500D02*
X300500D01*
Y90536D01*
X300914Y90590D01*
X301765Y90943D01*
X302496Y91504D01*
X303057Y92235D01*
X303410Y93086D01*
X303530Y94000D01*
Y94500D01*
D02*
G37*
G36*
X358268Y121905D02*
X357082Y121749D01*
X355977Y121291D01*
X355027Y120563D01*
X354299Y119614D01*
X353841Y118509D01*
X353685Y117323D01*
Y114961D01*
X353841Y113775D01*
X354299Y112669D01*
X355027Y111720D01*
X355977Y110992D01*
X356738Y110677D01*
Y103890D01*
X355977Y103575D01*
X355027Y102847D01*
X354299Y101898D01*
X353841Y100792D01*
X353685Y99606D01*
Y97244D01*
X353841Y96058D01*
X354299Y94953D01*
X355027Y94004D01*
X355977Y93275D01*
X357082Y92818D01*
X358268Y92662D01*
X359454Y92818D01*
X360559Y93275D01*
X361508Y94004D01*
X362236Y94953D01*
X362694Y96058D01*
X362850Y97244D01*
Y99606D01*
X362694Y100792D01*
X362236Y101898D01*
X361508Y102847D01*
X360559Y103575D01*
X359797Y103890D01*
Y110677D01*
X360559Y110992D01*
X361508Y111720D01*
X362236Y112669D01*
X362694Y113775D01*
X362850Y114961D01*
Y117323D01*
X362694Y118509D01*
X362236Y119614D01*
X361508Y120563D01*
X360559Y121291D01*
X359454Y121749D01*
X358268Y121905D01*
D02*
G37*
G36*
X332177Y97925D02*
X328095D01*
Y97244D01*
X328251Y96058D01*
X328709Y94953D01*
X329437Y94004D01*
X330386Y93275D01*
X331491Y92818D01*
X332177Y92727D01*
Y97925D01*
D02*
G37*
G36*
X208000Y99464D02*
Y95500D01*
X211030D01*
Y96000D01*
X210910Y96914D01*
X210557Y97765D01*
X209996Y98496D01*
X209265Y99057D01*
X208414Y99410D01*
X208000Y99464D01*
D02*
G37*
G36*
X299500D02*
X299086Y99410D01*
X298235Y99057D01*
X297504Y98496D01*
X296943Y97765D01*
X296590Y96914D01*
X296470Y96000D01*
Y95500D01*
X299500D01*
Y99464D01*
D02*
G37*
G36*
X300500D02*
Y95500D01*
X303530D01*
Y96000D01*
X303410Y96914D01*
X303057Y97765D01*
X302496Y98496D01*
X301765Y99057D01*
X300914Y99410D01*
X300500Y99464D01*
D02*
G37*
G36*
X114500D02*
X114086Y99410D01*
X113235Y99057D01*
X112504Y98496D01*
X111943Y97765D01*
X111590Y96914D01*
X111470Y96000D01*
Y95500D01*
X114500D01*
Y99464D01*
D02*
G37*
G36*
X115500D02*
Y95500D01*
X118530D01*
Y96000D01*
X118410Y96914D01*
X118057Y97765D01*
X117496Y98496D01*
X116765Y99057D01*
X115914Y99410D01*
X115500Y99464D01*
D02*
G37*
G36*
X207000D02*
X206586Y99410D01*
X205735Y99057D01*
X205004Y98496D01*
X204443Y97765D01*
X204090Y96914D01*
X203970Y96000D01*
Y95500D01*
X207000D01*
Y99464D01*
D02*
G37*
G36*
X165000Y160037D02*
X163891Y159891D01*
X162857Y159462D01*
X161969Y158781D01*
X161288Y157893D01*
X160859Y156860D01*
X160713Y155750D01*
Y154250D01*
X160859Y153140D01*
X161288Y152107D01*
X161969Y151219D01*
X162857Y150538D01*
X163471Y150283D01*
Y140000D01*
X163587Y139415D01*
X163919Y138919D01*
X166419Y136419D01*
X166915Y136087D01*
X167500Y135971D01*
X194367D01*
X195971Y134367D01*
Y129155D01*
X195735Y129057D01*
X195004Y128496D01*
X194443Y127765D01*
X194090Y126914D01*
X193970Y126000D01*
Y124000D01*
X194090Y123086D01*
X194443Y122235D01*
X195004Y121504D01*
X195735Y120943D01*
X196586Y120590D01*
X197500Y120470D01*
X198414Y120590D01*
X199265Y120943D01*
X199996Y121504D01*
X200557Y122235D01*
X200910Y123086D01*
X201030Y124000D01*
Y126000D01*
X200910Y126914D01*
X200557Y127765D01*
X199996Y128496D01*
X199265Y129057D01*
X199029Y129155D01*
Y135000D01*
X198913Y135585D01*
X198581Y136081D01*
X196081Y138581D01*
X195585Y138913D01*
X195000Y139029D01*
X168133D01*
X166529Y140633D01*
Y150283D01*
X167143Y150538D01*
X168031Y151219D01*
X168712Y152107D01*
X169141Y153140D01*
X169287Y154250D01*
Y155750D01*
X169141Y156860D01*
X168712Y157893D01*
X168031Y158781D01*
X167143Y159462D01*
X166110Y159891D01*
X165000Y160037D01*
D02*
G37*
G36*
X207500D02*
X206391Y159891D01*
X205357Y159462D01*
X204469Y158781D01*
X203788Y157893D01*
X203359Y156860D01*
X203213Y155750D01*
Y154250D01*
X203359Y153140D01*
X203788Y152107D01*
X204469Y151219D01*
X205357Y150538D01*
X206391Y150109D01*
X207500Y149963D01*
X208610Y150109D01*
X209643Y150538D01*
X210531Y151219D01*
X211212Y152107D01*
X211641Y153140D01*
X211787Y154250D01*
Y155750D01*
X211641Y156860D01*
X211212Y157893D01*
X210531Y158781D01*
X209643Y159462D01*
X208610Y159891D01*
X207500Y160037D01*
D02*
G37*
G36*
X227500D02*
X226391Y159891D01*
X225357Y159462D01*
X224469Y158781D01*
X223788Y157893D01*
X223359Y156860D01*
X223213Y155750D01*
Y154250D01*
X223359Y153140D01*
X223788Y152107D01*
X224469Y151219D01*
X225357Y150538D01*
X226391Y150109D01*
X227500Y149963D01*
X228609Y150109D01*
X229643Y150538D01*
X230531Y151219D01*
X231212Y152107D01*
X231641Y153140D01*
X231787Y154250D01*
Y155750D01*
X231641Y156860D01*
X231212Y157893D01*
X230531Y158781D01*
X229643Y159462D01*
X228609Y159891D01*
X227500Y160037D01*
D02*
G37*
G36*
X260000D02*
X258891Y159891D01*
X257857Y159462D01*
X256969Y158781D01*
X256288Y157893D01*
X255859Y156860D01*
X255713Y155750D01*
Y154250D01*
X255859Y153140D01*
X256288Y152107D01*
X256969Y151219D01*
X257857Y150538D01*
X258891Y150109D01*
X260000Y149963D01*
X261109Y150109D01*
X262143Y150538D01*
X263031Y151219D01*
X263712Y152107D01*
X264141Y153140D01*
X264287Y154250D01*
Y155750D01*
X264141Y156860D01*
X263712Y157893D01*
X263031Y158781D01*
X262143Y159462D01*
X261109Y159891D01*
X260000Y160037D01*
D02*
G37*
G36*
X122500D02*
X121390Y159891D01*
X120357Y159462D01*
X119469Y158781D01*
X118788Y157893D01*
X118359Y156860D01*
X118213Y155750D01*
Y154250D01*
X118359Y153140D01*
X118788Y152107D01*
X119469Y151219D01*
X120357Y150538D01*
X121390Y150109D01*
X122500Y149963D01*
X123609Y150109D01*
X124643Y150538D01*
X125531Y151219D01*
X126212Y152107D01*
X126641Y153140D01*
X126787Y154250D01*
Y155750D01*
X126641Y156860D01*
X126212Y157893D01*
X125531Y158781D01*
X124643Y159462D01*
X123609Y159891D01*
X122500Y160037D01*
D02*
G37*
G36*
X155000D02*
X153891Y159891D01*
X152857Y159462D01*
X151969Y158781D01*
X151288Y157893D01*
X150859Y156860D01*
X150713Y155750D01*
Y154250D01*
X150859Y153140D01*
X151288Y152107D01*
X151969Y151219D01*
X152857Y150538D01*
X153891Y150109D01*
X155000Y149963D01*
X156109Y150109D01*
X157143Y150538D01*
X158031Y151219D01*
X158712Y152107D01*
X159141Y153140D01*
X159287Y154250D01*
Y155750D01*
X159141Y156860D01*
X158712Y157893D01*
X158031Y158781D01*
X157143Y159462D01*
X156109Y159891D01*
X155000Y160037D01*
D02*
G37*
G36*
X175000D02*
X173890Y159891D01*
X172857Y159462D01*
X171969Y158781D01*
X171288Y157893D01*
X170859Y156860D01*
X170713Y155750D01*
Y154250D01*
X170859Y153140D01*
X171288Y152107D01*
X171969Y151219D01*
X172857Y150538D01*
X173890Y150109D01*
X175000Y149963D01*
X176110Y150109D01*
X177143Y150538D01*
X178031Y151219D01*
X178712Y152107D01*
X179141Y153140D01*
X179287Y154250D01*
Y155750D01*
X179141Y156860D01*
X178712Y157893D01*
X178031Y158781D01*
X177143Y159462D01*
X176110Y159891D01*
X175000Y160037D01*
D02*
G37*
G36*
X96750Y160000D02*
X88250D01*
Y150000D01*
X96750D01*
Y160000D01*
D02*
G37*
G36*
X149250D02*
X140750D01*
Y150000D01*
X149250D01*
Y160000D01*
D02*
G37*
G36*
X201750D02*
X193250D01*
Y150000D01*
X201750D01*
Y160000D01*
D02*
G37*
G36*
X280000Y160037D02*
X278890Y159891D01*
X277857Y159462D01*
X276969Y158781D01*
X276288Y157893D01*
X275859Y156860D01*
X275713Y155750D01*
Y154250D01*
X275859Y153140D01*
X276288Y152107D01*
X276969Y151219D01*
X277857Y150538D01*
X278890Y150109D01*
X280000Y149963D01*
X281109Y150109D01*
X282143Y150538D01*
X283031Y151219D01*
X283712Y152107D01*
X284141Y153140D01*
X284287Y154250D01*
Y155750D01*
X284141Y156860D01*
X283712Y157893D01*
X283031Y158781D01*
X282143Y159462D01*
X281109Y159891D01*
X280000Y160037D01*
D02*
G37*
G36*
X312500D02*
X311390Y159891D01*
X310357Y159462D01*
X309469Y158781D01*
X308788Y157893D01*
X308359Y156860D01*
X308213Y155750D01*
Y154250D01*
X308359Y153140D01*
X308788Y152107D01*
X309469Y151219D01*
X310357Y150538D01*
X311390Y150109D01*
X312500Y149963D01*
X313610Y150109D01*
X314643Y150538D01*
X315531Y151219D01*
X316212Y152107D01*
X316641Y153140D01*
X316787Y154250D01*
Y155750D01*
X316641Y156860D01*
X316212Y157893D01*
X315531Y158781D01*
X314643Y159462D01*
X313610Y159891D01*
X312500Y160037D01*
D02*
G37*
G36*
X332500D02*
X331391Y159891D01*
X330357Y159462D01*
X329469Y158781D01*
X328788Y157893D01*
X328359Y156860D01*
X328213Y155750D01*
Y154250D01*
X328359Y153140D01*
X328788Y152107D01*
X329469Y151219D01*
X330357Y150538D01*
X331391Y150109D01*
X332500Y149963D01*
X333610Y150109D01*
X334643Y150538D01*
X335531Y151219D01*
X336212Y152107D01*
X336641Y153140D01*
X336787Y154250D01*
Y155750D01*
X336641Y156860D01*
X336212Y157893D01*
X335531Y158781D01*
X334643Y159462D01*
X333610Y159891D01*
X332500Y160037D01*
D02*
G37*
G36*
X102500D02*
X101391Y159891D01*
X100357Y159462D01*
X99469Y158781D01*
X98788Y157893D01*
X98359Y156860D01*
X98213Y155750D01*
Y154250D01*
X98359Y153140D01*
X98788Y152107D01*
X99469Y151219D01*
X100357Y150538D01*
X101391Y150109D01*
X102500Y149963D01*
X103610Y150109D01*
X104643Y150538D01*
X105531Y151219D01*
X106212Y152107D01*
X106641Y153140D01*
X106787Y154250D01*
Y155750D01*
X106641Y156860D01*
X106212Y157893D01*
X105531Y158781D01*
X104643Y159462D01*
X103610Y159891D01*
X102500Y160037D01*
D02*
G37*
G36*
X260000Y129530D02*
X259086Y129410D01*
X258235Y129057D01*
X257504Y128496D01*
X256943Y127765D01*
X256590Y126914D01*
X256470Y126000D01*
Y124000D01*
X256590Y123086D01*
X256943Y122235D01*
X257504Y121504D01*
X258235Y120943D01*
X259086Y120590D01*
X260000Y120470D01*
X260914Y120590D01*
X261765Y120943D01*
X262496Y121504D01*
X263057Y122235D01*
X263410Y123086D01*
X263530Y124000D01*
Y126000D01*
X263410Y126914D01*
X263057Y127765D01*
X262496Y128496D01*
X261765Y129057D01*
X260914Y129410D01*
X260000Y129530D01*
D02*
G37*
G36*
X270000Y160037D02*
X268891Y159891D01*
X267857Y159462D01*
X266969Y158781D01*
X266288Y157893D01*
X265859Y156860D01*
X265713Y155750D01*
Y154250D01*
X265859Y153140D01*
X266288Y152107D01*
X266969Y151219D01*
X267857Y150538D01*
X268471Y150283D01*
Y129155D01*
X268235Y129057D01*
X267504Y128496D01*
X266943Y127765D01*
X266590Y126914D01*
X266470Y126000D01*
Y124000D01*
X266590Y123086D01*
X266943Y122235D01*
X267504Y121504D01*
X268235Y120943D01*
X269086Y120590D01*
X270000Y120470D01*
X270914Y120590D01*
X271765Y120943D01*
X272496Y121504D01*
X273057Y122235D01*
X273410Y123086D01*
X273530Y124000D01*
Y126000D01*
X273410Y126914D01*
X273057Y127765D01*
X272496Y128496D01*
X271765Y129057D01*
X271529Y129155D01*
Y150283D01*
X272143Y150538D01*
X273031Y151219D01*
X273712Y152107D01*
X274141Y153140D01*
X274287Y154250D01*
Y155750D01*
X274141Y156860D01*
X273712Y157893D01*
X273031Y158781D01*
X272143Y159462D01*
X271110Y159891D01*
X270000Y160037D01*
D02*
G37*
G36*
X280000Y129530D02*
X279086Y129410D01*
X278235Y129057D01*
X277504Y128496D01*
X276943Y127765D01*
X276590Y126914D01*
X276470Y126000D01*
Y124000D01*
X276590Y123086D01*
X276943Y122235D01*
X277504Y121504D01*
X278235Y120943D01*
X279086Y120590D01*
X280000Y120470D01*
X280914Y120590D01*
X281765Y120943D01*
X282496Y121504D01*
X283057Y122235D01*
X283410Y123086D01*
X283530Y124000D01*
Y126000D01*
X283410Y126914D01*
X283057Y127765D01*
X282496Y128496D01*
X281765Y129057D01*
X280914Y129410D01*
X280000Y129530D01*
D02*
G37*
G36*
X230000D02*
X229086Y129410D01*
X228235Y129057D01*
X227504Y128496D01*
X226943Y127765D01*
X226590Y126914D01*
X226470Y126000D01*
Y124000D01*
X226590Y123086D01*
X226943Y122235D01*
X227504Y121504D01*
X228235Y120943D01*
X229086Y120590D01*
X230000Y120470D01*
X230914Y120590D01*
X231765Y120943D01*
X232496Y121504D01*
X233057Y122235D01*
X233410Y123086D01*
X233530Y124000D01*
Y126000D01*
X233410Y126914D01*
X233057Y127765D01*
X232496Y128496D01*
X231765Y129057D01*
X230914Y129410D01*
X230000Y129530D01*
D02*
G37*
G36*
X217500Y160037D02*
X216390Y159891D01*
X215357Y159462D01*
X214469Y158781D01*
X213788Y157893D01*
X213359Y156860D01*
X213213Y155750D01*
Y154250D01*
X213359Y153140D01*
X213788Y152107D01*
X214469Y151219D01*
X215357Y150538D01*
X215971Y150283D01*
Y140000D01*
X216087Y139415D01*
X216419Y138919D01*
X218919Y136419D01*
X219415Y136087D01*
X220000Y135971D01*
X236866D01*
X238471Y134367D01*
Y129155D01*
X238235Y129057D01*
X237504Y128496D01*
X236943Y127765D01*
X236590Y126914D01*
X236470Y126000D01*
Y124000D01*
X236590Y123086D01*
X236943Y122235D01*
X237504Y121504D01*
X238235Y120943D01*
X239086Y120590D01*
X240000Y120470D01*
X240914Y120590D01*
X241765Y120943D01*
X242496Y121504D01*
X243057Y122235D01*
X243410Y123086D01*
X243530Y124000D01*
Y126000D01*
X243410Y126914D01*
X243057Y127765D01*
X242496Y128496D01*
X241765Y129057D01*
X241529Y129155D01*
Y135000D01*
X241413Y135585D01*
X241081Y136081D01*
X238581Y138581D01*
X238085Y138913D01*
X237500Y139029D01*
X220634D01*
X219029Y140633D01*
Y150283D01*
X219643Y150538D01*
X220531Y151219D01*
X221212Y152107D01*
X221641Y153140D01*
X221787Y154250D01*
Y155750D01*
X221641Y156860D01*
X221212Y157893D01*
X220531Y158781D01*
X219643Y159462D01*
X218609Y159891D01*
X217500Y160037D01*
D02*
G37*
G36*
X250000Y129530D02*
X249086Y129410D01*
X248235Y129057D01*
X247504Y128496D01*
X246943Y127765D01*
X246590Y126914D01*
X246470Y126000D01*
Y124000D01*
X246590Y123086D01*
X246943Y122235D01*
X247504Y121504D01*
X248235Y120943D01*
X249086Y120590D01*
X250000Y120470D01*
X250914Y120590D01*
X251765Y120943D01*
X252496Y121504D01*
X253057Y122235D01*
X253410Y123086D01*
X253530Y124000D01*
Y126000D01*
X253410Y126914D01*
X253057Y127765D01*
X252496Y128496D01*
X251765Y129057D01*
X250914Y129410D01*
X250000Y129530D01*
D02*
G37*
G36*
X34500Y129464D02*
X34086Y129410D01*
X33235Y129057D01*
X32504Y128496D01*
X31943Y127765D01*
X31590Y126914D01*
X31470Y126000D01*
Y125500D01*
X34500D01*
Y129464D01*
D02*
G37*
G36*
X35500D02*
Y125500D01*
X38530D01*
Y126000D01*
X38410Y126914D01*
X38057Y127765D01*
X37496Y128496D01*
X36765Y129057D01*
X35914Y129410D01*
X35500Y129464D01*
D02*
G37*
G36*
X112500Y160037D02*
X111390Y159891D01*
X110357Y159462D01*
X109469Y158781D01*
X108788Y157893D01*
X108359Y156860D01*
X108213Y155750D01*
Y154250D01*
X108359Y153140D01*
X108788Y152107D01*
X109469Y151219D01*
X110357Y150538D01*
X110971Y150283D01*
Y135000D01*
X111087Y134415D01*
X111419Y133919D01*
X113346Y131991D01*
X113154Y131529D01*
X63134D01*
X61529Y133133D01*
Y150283D01*
X62143Y150538D01*
X63031Y151219D01*
X63712Y152107D01*
X64141Y153140D01*
X64287Y154250D01*
Y155750D01*
X64141Y156860D01*
X63712Y157893D01*
X63031Y158781D01*
X62143Y159462D01*
X61110Y159891D01*
X60000Y160037D01*
X58890Y159891D01*
X57857Y159462D01*
X56969Y158781D01*
X56288Y157893D01*
X55859Y156860D01*
X55713Y155750D01*
Y154250D01*
X55859Y153140D01*
X56288Y152107D01*
X56969Y151219D01*
X57857Y150538D01*
X58471Y150283D01*
Y132500D01*
X58587Y131915D01*
X58919Y131419D01*
X61419Y128919D01*
X61915Y128587D01*
X61939Y128582D01*
X62117Y128312D01*
X62198Y128098D01*
X61943Y127765D01*
X61590Y126914D01*
X61470Y126000D01*
Y124000D01*
X61590Y123086D01*
X61943Y122235D01*
X62504Y121504D01*
X63235Y120943D01*
X64086Y120590D01*
X65000Y120470D01*
X65914Y120590D01*
X66765Y120943D01*
X67496Y121504D01*
X68057Y122235D01*
X68410Y123086D01*
X68530Y124000D01*
Y126000D01*
X68410Y126914D01*
X68057Y127765D01*
X67860Y128022D01*
X68081Y128471D01*
X71919D01*
X72140Y128022D01*
X71943Y127765D01*
X71590Y126914D01*
X71470Y126000D01*
Y124000D01*
X71590Y123086D01*
X71943Y122235D01*
X72504Y121504D01*
X73235Y120943D01*
X74086Y120590D01*
X75000Y120470D01*
X75914Y120590D01*
X76765Y120943D01*
X77496Y121504D01*
X78057Y122235D01*
X78410Y123086D01*
X78530Y124000D01*
Y126000D01*
X78410Y126914D01*
X78057Y127765D01*
X77860Y128022D01*
X78081Y128471D01*
X81919D01*
X82140Y128022D01*
X81943Y127765D01*
X81590Y126914D01*
X81470Y126000D01*
Y124000D01*
X81590Y123086D01*
X81943Y122235D01*
X82504Y121504D01*
X83235Y120943D01*
X84086Y120590D01*
X85000Y120470D01*
X85914Y120590D01*
X86765Y120943D01*
X87496Y121504D01*
X88057Y122235D01*
X88410Y123086D01*
X88530Y124000D01*
Y126000D01*
X88410Y126914D01*
X88057Y127765D01*
X87860Y128022D01*
X88081Y128471D01*
X91919D01*
X92140Y128022D01*
X91943Y127765D01*
X91590Y126914D01*
X91470Y126000D01*
Y124000D01*
X91590Y123086D01*
X91943Y122235D01*
X92504Y121504D01*
X93235Y120943D01*
X94086Y120590D01*
X95000Y120470D01*
X95914Y120590D01*
X96765Y120943D01*
X97496Y121504D01*
X98057Y122235D01*
X98410Y123086D01*
X98530Y124000D01*
Y126000D01*
X98410Y126914D01*
X98057Y127765D01*
X97860Y128022D01*
X98081Y128471D01*
X101919D01*
X102140Y128022D01*
X101943Y127765D01*
X101590Y126914D01*
X101470Y126000D01*
Y124000D01*
X101590Y123086D01*
X101943Y122235D01*
X102504Y121504D01*
X103235Y120943D01*
X104086Y120590D01*
X105000Y120470D01*
X105914Y120590D01*
X106765Y120943D01*
X107496Y121504D01*
X108057Y122235D01*
X108410Y123086D01*
X108530Y124000D01*
Y126000D01*
X108410Y126914D01*
X108057Y127765D01*
X107860Y128022D01*
X108081Y128471D01*
X111919D01*
X112140Y128022D01*
X111943Y127765D01*
X111590Y126914D01*
X111470Y126000D01*
Y124000D01*
X111590Y123086D01*
X111943Y122235D01*
X112504Y121504D01*
X113235Y120943D01*
X114086Y120590D01*
X115000Y120470D01*
X115914Y120590D01*
X116765Y120943D01*
X117496Y121504D01*
X118057Y122235D01*
X118410Y123086D01*
X118530Y124000D01*
Y126000D01*
X118410Y126914D01*
X118057Y127765D01*
X117860Y128022D01*
X118081Y128471D01*
X131867D01*
X134012Y126325D01*
X133970Y126000D01*
Y124000D01*
X134090Y123086D01*
X134443Y122235D01*
X135004Y121504D01*
X135735Y120943D01*
X136586Y120590D01*
X137500Y120470D01*
X138414Y120590D01*
X139265Y120943D01*
X139996Y121504D01*
X140557Y122235D01*
X140910Y123086D01*
X141030Y124000D01*
Y126000D01*
X140910Y126914D01*
X140557Y127765D01*
X139996Y128496D01*
X139265Y129057D01*
X138414Y129410D01*
X137500Y129530D01*
X136586Y129410D01*
X135735Y129057D01*
X135662Y129001D01*
X134154Y130509D01*
X134346Y130971D01*
X139366D01*
X144012Y126325D01*
X143970Y126000D01*
Y124000D01*
X144090Y123086D01*
X144443Y122235D01*
X145004Y121504D01*
X145735Y120943D01*
X146586Y120590D01*
X147500Y120470D01*
X148414Y120590D01*
X149265Y120943D01*
X149996Y121504D01*
X150557Y122235D01*
X150910Y123086D01*
X151030Y124000D01*
Y126000D01*
X150910Y126914D01*
X150557Y127765D01*
X149996Y128496D01*
X149265Y129057D01*
X148414Y129410D01*
X147500Y129530D01*
X146586Y129410D01*
X145735Y129057D01*
X145662Y129001D01*
X141081Y133581D01*
X140585Y133913D01*
X140000Y134029D01*
X115633D01*
X114029Y135634D01*
Y150283D01*
X114643Y150538D01*
X115531Y151219D01*
X116212Y152107D01*
X116641Y153140D01*
X116787Y154250D01*
Y155750D01*
X116641Y156860D01*
X116212Y157893D01*
X115531Y158781D01*
X114643Y159462D01*
X113610Y159891D01*
X112500Y160037D01*
D02*
G37*
G36*
X322500D02*
X321391Y159891D01*
X320357Y159462D01*
X319469Y158781D01*
X318788Y157893D01*
X318359Y156860D01*
X318213Y155750D01*
Y154250D01*
X318359Y153140D01*
X318788Y152107D01*
X319469Y151219D01*
X320357Y150538D01*
X320971Y150283D01*
Y140633D01*
X319367Y139029D01*
X292500D01*
X291915Y138913D01*
X291419Y138581D01*
X288919Y136081D01*
X288587Y135585D01*
X288471Y135000D01*
Y129155D01*
X288235Y129057D01*
X287504Y128496D01*
X286943Y127765D01*
X286590Y126914D01*
X286470Y126000D01*
Y124000D01*
X286590Y123086D01*
X286943Y122235D01*
X287504Y121504D01*
X288235Y120943D01*
X289086Y120590D01*
X290000Y120470D01*
X290914Y120590D01*
X291765Y120943D01*
X292496Y121504D01*
X293057Y122235D01*
X293410Y123086D01*
X293530Y124000D01*
Y126000D01*
X293410Y126914D01*
X293057Y127765D01*
X292496Y128496D01*
X291765Y129057D01*
X291529Y129155D01*
Y134367D01*
X293133Y135971D01*
X320000D01*
X320585Y136087D01*
X321081Y136419D01*
X323581Y138919D01*
X323913Y139415D01*
X324029Y140000D01*
Y150283D01*
X324643Y150538D01*
X325531Y151219D01*
X326212Y152107D01*
X326641Y153140D01*
X326787Y154250D01*
Y155750D01*
X326641Y156860D01*
X326212Y157893D01*
X325531Y158781D01*
X324643Y159462D01*
X323609Y159891D01*
X322500Y160037D01*
D02*
G37*
G36*
X34500Y124500D02*
X31470D01*
Y124000D01*
X31590Y123086D01*
X31943Y122235D01*
X32504Y121504D01*
X33235Y120943D01*
X34086Y120590D01*
X34500Y120536D01*
Y124500D01*
D02*
G37*
G36*
X38530D02*
X35500D01*
Y120536D01*
X35914Y120590D01*
X36765Y120943D01*
X37496Y121504D01*
X38057Y122235D01*
X38410Y123086D01*
X38530Y124000D01*
Y124500D01*
D02*
G37*
G36*
X39870Y50207D02*
Y39870D01*
X50207D01*
X50112Y41072D01*
X49714Y42731D01*
X49061Y44308D01*
X48169Y45763D01*
X47061Y47061D01*
X45763Y48169D01*
X44308Y49061D01*
X42731Y49714D01*
X41072Y50112D01*
X39870Y50207D01*
D02*
G37*
G36*
X345957D02*
X344755Y50112D01*
X343096Y49714D01*
X341519Y49061D01*
X340064Y48169D01*
X338766Y47061D01*
X337658Y45763D01*
X336766Y44308D01*
X336113Y42731D01*
X335715Y41072D01*
X335620Y39870D01*
X345957D01*
Y50207D01*
D02*
G37*
G36*
X346957D02*
Y39870D01*
X357293D01*
X357199Y41072D01*
X356800Y42731D01*
X356147Y44308D01*
X355256Y45763D01*
X354147Y47061D01*
X352850Y48169D01*
X351394Y49061D01*
X349818Y49714D01*
X348158Y50112D01*
X346957Y50207D01*
D02*
G37*
G36*
X345957Y38870D02*
X335620D01*
X335715Y37669D01*
X336113Y36009D01*
X336766Y34433D01*
X337658Y32977D01*
X338766Y31680D01*
X340064Y30571D01*
X341519Y29680D01*
X343096Y29026D01*
X344755Y28628D01*
X345957Y28533D01*
Y38870D01*
D02*
G37*
G36*
X357293D02*
X346957D01*
Y28533D01*
X348158Y28628D01*
X349818Y29026D01*
X351394Y29680D01*
X352850Y30571D01*
X354147Y31680D01*
X355256Y32977D01*
X356147Y34433D01*
X356800Y36009D01*
X357199Y37669D01*
X357293Y38870D01*
D02*
G37*
G36*
X38870Y50207D02*
X37669Y50112D01*
X36009Y49714D01*
X34433Y49061D01*
X32977Y48169D01*
X31680Y47061D01*
X30571Y45763D01*
X29680Y44308D01*
X29026Y42731D01*
X28628Y41072D01*
X28533Y39870D01*
X38870D01*
Y50207D01*
D02*
G37*
G36*
X337260Y64461D02*
X333177D01*
Y59263D01*
X333863Y59353D01*
X334968Y59811D01*
X335917Y60539D01*
X336646Y61488D01*
X337104Y62594D01*
X337260Y63779D01*
Y64461D01*
D02*
G37*
G36*
X332177Y70658D02*
X331491Y70568D01*
X330386Y70110D01*
X329437Y69382D01*
X328709Y68433D01*
X328251Y67328D01*
X328095Y66142D01*
Y65461D01*
X332177D01*
Y70658D01*
D02*
G37*
G36*
X333177D02*
Y65461D01*
X337260D01*
Y66142D01*
X337104Y67328D01*
X336646Y68433D01*
X335917Y69382D01*
X334968Y70110D01*
X333863Y70568D01*
X333177Y70658D01*
D02*
G37*
G36*
X65000Y99530D02*
X64086Y99410D01*
X63235Y99057D01*
X62504Y98496D01*
X61943Y97765D01*
X61590Y96914D01*
X61470Y96000D01*
Y94000D01*
X61590Y93086D01*
X61943Y92235D01*
X62504Y91504D01*
X63235Y90943D01*
X63471Y90845D01*
Y47556D01*
X63339Y47451D01*
X62996Y47324D01*
X56529Y53790D01*
Y90845D01*
X56765Y90943D01*
X57496Y91504D01*
X58057Y92235D01*
X58410Y93086D01*
X58530Y94000D01*
Y96000D01*
X58410Y96914D01*
X58057Y97765D01*
X57496Y98496D01*
X56765Y99057D01*
X55914Y99410D01*
X55000Y99530D01*
X54086Y99410D01*
X53235Y99057D01*
X52504Y98496D01*
X51943Y97765D01*
X51590Y96914D01*
X51470Y96000D01*
Y94000D01*
X51590Y93086D01*
X51943Y92235D01*
X52504Y91504D01*
X53235Y90943D01*
X53471Y90845D01*
Y54674D01*
X53009Y54483D01*
X46529Y60962D01*
Y90845D01*
X46765Y90943D01*
X47496Y91504D01*
X48057Y92235D01*
X48410Y93086D01*
X48530Y94000D01*
Y96000D01*
X48410Y96914D01*
X48057Y97765D01*
X47496Y98496D01*
X46765Y99057D01*
X45914Y99410D01*
X45000Y99530D01*
X44086Y99410D01*
X43235Y99057D01*
X42504Y98496D01*
X41943Y97765D01*
X41590Y96914D01*
X41470Y96000D01*
Y94000D01*
X41590Y93086D01*
X41943Y92235D01*
X42504Y91504D01*
X43235Y90943D01*
X43471Y90845D01*
Y61846D01*
X43009Y61654D01*
X36529Y68133D01*
Y90845D01*
X36765Y90943D01*
X37496Y91504D01*
X38057Y92235D01*
X38410Y93086D01*
X38530Y94000D01*
Y96000D01*
X38410Y96914D01*
X38057Y97765D01*
X37496Y98496D01*
X36765Y99057D01*
X35914Y99410D01*
X35000Y99530D01*
X34086Y99410D01*
X33235Y99057D01*
X32504Y98496D01*
X31943Y97765D01*
X31590Y96914D01*
X31470Y96000D01*
Y94000D01*
X31590Y93086D01*
X31943Y92235D01*
X32504Y91504D01*
X33235Y90943D01*
X33471Y90845D01*
Y67500D01*
X33587Y66915D01*
X33919Y66419D01*
X70971Y29366D01*
Y18500D01*
X68000D01*
Y6500D01*
X77000D01*
Y18500D01*
X74029D01*
Y30000D01*
X73913Y30585D01*
X73581Y31081D01*
X69154Y35509D01*
X69346Y35971D01*
X79366D01*
X80971Y34367D01*
Y18237D01*
X80231Y17931D01*
X79291Y17209D01*
X78569Y16269D01*
X78116Y15175D01*
X77961Y14000D01*
Y11000D01*
X78116Y9825D01*
X78569Y8731D01*
X79291Y7791D01*
X80231Y7069D01*
X81325Y6616D01*
X82500Y6461D01*
X83675Y6616D01*
X84769Y7069D01*
X85709Y7791D01*
X86431Y8731D01*
X86884Y9825D01*
X87039Y11000D01*
Y14000D01*
X86884Y15175D01*
X86431Y16269D01*
X85709Y17209D01*
X84769Y17931D01*
X84029Y18237D01*
Y35000D01*
X83913Y35585D01*
X83581Y36081D01*
X81654Y38009D01*
X81846Y38471D01*
X89367D01*
X90971Y36867D01*
Y18237D01*
X90231Y17931D01*
X89291Y17209D01*
X88569Y16269D01*
X88116Y15175D01*
X87961Y14000D01*
Y11000D01*
X88116Y9825D01*
X88569Y8731D01*
X89291Y7791D01*
X90231Y7069D01*
X91325Y6616D01*
X92500Y6461D01*
X93675Y6616D01*
X94769Y7069D01*
X95709Y7791D01*
X96431Y8731D01*
X96884Y9825D01*
X97039Y11000D01*
Y14000D01*
X96884Y15175D01*
X96431Y16269D01*
X95709Y17209D01*
X94769Y17931D01*
X94029Y18237D01*
Y37500D01*
X93913Y38085D01*
X93581Y38581D01*
X91654Y40509D01*
X91846Y40971D01*
X99366D01*
X100971Y39366D01*
Y18237D01*
X100231Y17931D01*
X99291Y17209D01*
X98569Y16269D01*
X98116Y15175D01*
X97961Y14000D01*
Y11000D01*
X98116Y9825D01*
X98569Y8731D01*
X99291Y7791D01*
X100231Y7069D01*
X101325Y6616D01*
X102500Y6461D01*
X103675Y6616D01*
X104769Y7069D01*
X105709Y7791D01*
X106431Y8731D01*
X106884Y9825D01*
X107039Y11000D01*
Y14000D01*
X106884Y15175D01*
X106431Y16269D01*
X105709Y17209D01*
X104769Y17931D01*
X104029Y18237D01*
Y40000D01*
X103913Y40585D01*
X103581Y41081D01*
X101081Y43581D01*
X100585Y43913D01*
X100000Y44029D01*
X70634D01*
X66529Y48134D01*
Y90845D01*
X66765Y90943D01*
X67496Y91504D01*
X68057Y92235D01*
X68410Y93086D01*
X68530Y94000D01*
Y96000D01*
X68410Y96914D01*
X68057Y97765D01*
X67496Y98496D01*
X66765Y99057D01*
X65914Y99410D01*
X65000Y99530D01*
D02*
G37*
G36*
X358268Y88441D02*
X357082Y88285D01*
X355977Y87827D01*
X355027Y87099D01*
X354299Y86150D01*
X353841Y85044D01*
X353685Y83858D01*
Y81496D01*
X353841Y80310D01*
X354299Y79205D01*
X355027Y78256D01*
X355977Y77527D01*
X356738Y77212D01*
Y70426D01*
X355977Y70110D01*
X355027Y69382D01*
X354299Y68433D01*
X353841Y67328D01*
X353685Y66142D01*
Y63779D01*
X353841Y62594D01*
X354299Y61488D01*
X355027Y60539D01*
X355977Y59811D01*
X357082Y59353D01*
X358268Y59197D01*
X359454Y59353D01*
X360559Y59811D01*
X361508Y60539D01*
X362236Y61488D01*
X362694Y62594D01*
X362850Y63779D01*
Y66142D01*
X362694Y67328D01*
X362236Y68433D01*
X361508Y69382D01*
X360559Y70110D01*
X359797Y70426D01*
Y77212D01*
X360559Y77527D01*
X361508Y78256D01*
X362236Y79205D01*
X362694Y80310D01*
X362850Y81496D01*
Y83858D01*
X362694Y85044D01*
X362236Y86150D01*
X361508Y87099D01*
X360559Y87827D01*
X359454Y88285D01*
X358268Y88441D01*
D02*
G37*
G36*
X332177Y64461D02*
X328095D01*
Y63779D01*
X328251Y62594D01*
X328709Y61488D01*
X329437Y60539D01*
X330386Y59811D01*
X331491Y59353D01*
X332177Y59263D01*
Y64461D01*
D02*
G37*
G36*
X50207Y38870D02*
X39870D01*
Y28533D01*
X41072Y28628D01*
X42731Y29026D01*
X44308Y29680D01*
X45763Y30571D01*
X47061Y31680D01*
X48169Y32977D01*
X49061Y34433D01*
X49714Y36009D01*
X50112Y37669D01*
X50207Y38870D01*
D02*
G37*
G36*
X142500Y18539D02*
X141325Y18384D01*
X140231Y17931D01*
X139291Y17209D01*
X138569Y16269D01*
X138116Y15175D01*
X137961Y14000D01*
Y11000D01*
X138116Y9825D01*
X138569Y8731D01*
X139291Y7791D01*
X140231Y7069D01*
X141325Y6616D01*
X142500Y6461D01*
X143675Y6616D01*
X144769Y7069D01*
X145709Y7791D01*
X146431Y8731D01*
X146884Y9825D01*
X147039Y11000D01*
Y14000D01*
X146884Y15175D01*
X146431Y16269D01*
X145709Y17209D01*
X144769Y17931D01*
X143675Y18384D01*
X142500Y18539D01*
D02*
G37*
G36*
X152500D02*
X151325Y18384D01*
X150231Y17931D01*
X149291Y17209D01*
X148569Y16269D01*
X148116Y15175D01*
X147961Y14000D01*
Y11000D01*
X148116Y9825D01*
X148569Y8731D01*
X149291Y7791D01*
X150231Y7069D01*
X151325Y6616D01*
X152500Y6461D01*
X153675Y6616D01*
X154769Y7069D01*
X155709Y7791D01*
X156431Y8731D01*
X156884Y9825D01*
X157039Y11000D01*
Y14000D01*
X156884Y15175D01*
X156431Y16269D01*
X155709Y17209D01*
X154769Y17931D01*
X153675Y18384D01*
X152500Y18539D01*
D02*
G37*
G36*
X162500D02*
X161325Y18384D01*
X160231Y17931D01*
X159291Y17209D01*
X158569Y16269D01*
X158116Y15175D01*
X157961Y14000D01*
Y11000D01*
X158116Y9825D01*
X158569Y8731D01*
X159291Y7791D01*
X160231Y7069D01*
X161325Y6616D01*
X162500Y6461D01*
X163675Y6616D01*
X164769Y7069D01*
X165709Y7791D01*
X166431Y8731D01*
X166884Y9825D01*
X167039Y11000D01*
Y14000D01*
X166884Y15175D01*
X166431Y16269D01*
X165709Y17209D01*
X164769Y17931D01*
X163675Y18384D01*
X162500Y18539D01*
D02*
G37*
G36*
X112500D02*
X111325Y18384D01*
X110231Y17931D01*
X109291Y17209D01*
X108569Y16269D01*
X108116Y15175D01*
X107961Y14000D01*
Y11000D01*
X108116Y9825D01*
X108569Y8731D01*
X109291Y7791D01*
X110231Y7069D01*
X111325Y6616D01*
X112500Y6461D01*
X113675Y6616D01*
X114769Y7069D01*
X115709Y7791D01*
X116431Y8731D01*
X116884Y9825D01*
X117039Y11000D01*
Y14000D01*
X116884Y15175D01*
X116431Y16269D01*
X115709Y17209D01*
X114769Y17931D01*
X113675Y18384D01*
X112500Y18539D01*
D02*
G37*
G36*
X122500D02*
X121325Y18384D01*
X120231Y17931D01*
X119291Y17209D01*
X118569Y16269D01*
X118116Y15175D01*
X117961Y14000D01*
Y11000D01*
X118116Y9825D01*
X118569Y8731D01*
X119291Y7791D01*
X120231Y7069D01*
X121325Y6616D01*
X122500Y6461D01*
X123675Y6616D01*
X124769Y7069D01*
X125709Y7791D01*
X126431Y8731D01*
X126884Y9825D01*
X127039Y11000D01*
Y14000D01*
X126884Y15175D01*
X126431Y16269D01*
X125709Y17209D01*
X124769Y17931D01*
X123675Y18384D01*
X122500Y18539D01*
D02*
G37*
G36*
X132500D02*
X131325Y18384D01*
X130231Y17931D01*
X129291Y17209D01*
X128569Y16269D01*
X128116Y15175D01*
X127961Y14000D01*
Y11000D01*
X128116Y9825D01*
X128569Y8731D01*
X129291Y7791D01*
X130231Y7069D01*
X131325Y6616D01*
X132500Y6461D01*
X133675Y6616D01*
X134769Y7069D01*
X135709Y7791D01*
X136431Y8731D01*
X136884Y9825D01*
X137039Y11000D01*
Y14000D01*
X136884Y15175D01*
X136431Y16269D01*
X135709Y17209D01*
X134769Y17931D01*
X133675Y18384D01*
X132500Y18539D01*
D02*
G37*
G36*
X252000Y18473D02*
X251325Y18384D01*
X250231Y17931D01*
X249291Y17209D01*
X248569Y16269D01*
X248116Y15175D01*
X247961Y14000D01*
Y13000D01*
X252000D01*
Y18473D01*
D02*
G37*
G36*
X253000D02*
Y13000D01*
X257039D01*
Y14000D01*
X256884Y15175D01*
X256431Y16269D01*
X255709Y17209D01*
X254769Y17931D01*
X253675Y18384D01*
X253000Y18473D01*
D02*
G37*
G36*
X38870Y38870D02*
X28533D01*
X28628Y37669D01*
X29026Y36009D01*
X29680Y34433D01*
X30571Y32977D01*
X31680Y31680D01*
X32977Y30571D01*
X34433Y29680D01*
X36009Y29026D01*
X37669Y28628D01*
X38870Y28533D01*
Y38870D01*
D02*
G37*
G36*
X232500Y18539D02*
X231325Y18384D01*
X230231Y17931D01*
X229291Y17209D01*
X228569Y16269D01*
X228116Y15175D01*
X227961Y14000D01*
Y11000D01*
X228116Y9825D01*
X228569Y8731D01*
X229291Y7791D01*
X230231Y7069D01*
X231325Y6616D01*
X232500Y6461D01*
X233675Y6616D01*
X234769Y7069D01*
X235709Y7791D01*
X236431Y8731D01*
X236884Y9825D01*
X237039Y11000D01*
Y14000D01*
X236884Y15175D01*
X236431Y16269D01*
X235709Y17209D01*
X234769Y17931D01*
X233675Y18384D01*
X232500Y18539D01*
D02*
G37*
G36*
X252000Y12000D02*
X247961D01*
Y11000D01*
X248116Y9825D01*
X248569Y8731D01*
X249291Y7791D01*
X250231Y7069D01*
X251325Y6616D01*
X252000Y6527D01*
Y12000D01*
D02*
G37*
G36*
X257039D02*
X253000D01*
Y6527D01*
X253675Y6616D01*
X254769Y7069D01*
X255709Y7791D01*
X256431Y8731D01*
X256884Y9825D01*
X257039Y11000D01*
Y12000D01*
D02*
G37*
G36*
X152500Y78539D02*
X151325Y78384D01*
X150231Y77931D01*
X149291Y77209D01*
X148569Y76269D01*
X148116Y75175D01*
X147961Y74000D01*
Y71000D01*
X148116Y69825D01*
X148569Y68731D01*
X149291Y67791D01*
X150231Y67069D01*
X151325Y66616D01*
X152500Y66461D01*
X153675Y66616D01*
X154769Y67069D01*
X155709Y67791D01*
X156431Y68731D01*
X156884Y69825D01*
X157039Y71000D01*
Y74000D01*
X156884Y75175D01*
X156431Y76269D01*
X155709Y77209D01*
X154769Y77931D01*
X153675Y78384D01*
X152500Y78539D01*
D02*
G37*
G36*
X157500Y99530D02*
X156586Y99410D01*
X155735Y99057D01*
X155004Y98496D01*
X154443Y97765D01*
X154090Y96914D01*
X153970Y96000D01*
Y94000D01*
X154090Y93086D01*
X154443Y92235D01*
X155004Y91504D01*
X155735Y90943D01*
X156586Y90590D01*
X157500Y90470D01*
X158414Y90590D01*
X159265Y90943D01*
X159996Y91504D01*
X160557Y92235D01*
X160910Y93086D01*
X161030Y94000D01*
Y96000D01*
X160910Y96914D01*
X160557Y97765D01*
X159996Y98496D01*
X159265Y99057D01*
X158414Y99410D01*
X157500Y99530D01*
D02*
G37*
G36*
X24500Y94500D02*
X21500D01*
Y90500D01*
X24500D01*
Y94500D01*
D02*
G37*
G36*
X28500D02*
X25500D01*
Y90500D01*
X28500D01*
Y94500D01*
D02*
G37*
G36*
X105000Y99530D02*
X104086Y99410D01*
X103235Y99057D01*
X102504Y98496D01*
X101943Y97765D01*
X101590Y96914D01*
X101470Y96000D01*
Y94000D01*
X101590Y93086D01*
X101943Y92235D01*
X102504Y91504D01*
X103235Y90943D01*
X103471Y90845D01*
Y90000D01*
X103587Y89415D01*
X103919Y88919D01*
X105846Y86991D01*
X105654Y86529D01*
X98133D01*
X96529Y88134D01*
Y90845D01*
X96765Y90943D01*
X97496Y91504D01*
X98057Y92235D01*
X98410Y93086D01*
X98530Y94000D01*
Y96000D01*
X98410Y96914D01*
X98057Y97765D01*
X97496Y98496D01*
X96765Y99057D01*
X95914Y99410D01*
X95000Y99530D01*
X94086Y99410D01*
X93235Y99057D01*
X92504Y98496D01*
X91943Y97765D01*
X91590Y96914D01*
X91470Y96000D01*
Y94000D01*
X91590Y93086D01*
X91943Y92235D01*
X92504Y91504D01*
X93235Y90943D01*
X93471Y90845D01*
Y87500D01*
X93587Y86915D01*
X93919Y86419D01*
X95846Y84491D01*
X95654Y84029D01*
X88134D01*
X86529Y85633D01*
Y90845D01*
X86765Y90943D01*
X87496Y91504D01*
X88057Y92235D01*
X88410Y93086D01*
X88530Y94000D01*
Y96000D01*
X88410Y96914D01*
X88057Y97765D01*
X87496Y98496D01*
X86765Y99057D01*
X85914Y99410D01*
X85000Y99530D01*
X84086Y99410D01*
X83235Y99057D01*
X82504Y98496D01*
X81943Y97765D01*
X81590Y96914D01*
X81470Y96000D01*
Y94000D01*
X81590Y93086D01*
X81943Y92235D01*
X82504Y91504D01*
X83235Y90943D01*
X83471Y90845D01*
Y85000D01*
X83587Y84415D01*
X83919Y83919D01*
X85846Y81991D01*
X85654Y81529D01*
X78133D01*
X76529Y83134D01*
Y90845D01*
X76765Y90943D01*
X77496Y91504D01*
X78057Y92235D01*
X78410Y93086D01*
X78530Y94000D01*
Y96000D01*
X78410Y96914D01*
X78057Y97765D01*
X77496Y98496D01*
X76765Y99057D01*
X75914Y99410D01*
X75000Y99530D01*
X74086Y99410D01*
X73235Y99057D01*
X72504Y98496D01*
X71943Y97765D01*
X71590Y96914D01*
X71470Y96000D01*
Y94000D01*
X71590Y93086D01*
X71943Y92235D01*
X72504Y91504D01*
X73235Y90943D01*
X73471Y90845D01*
Y82500D01*
X73587Y81915D01*
X73919Y81419D01*
X76419Y78919D01*
X76915Y78587D01*
X77500Y78471D01*
X80227D01*
X80327Y77971D01*
X80231Y77931D01*
X79291Y77209D01*
X78569Y76269D01*
X78116Y75175D01*
X77961Y74000D01*
Y73000D01*
X87039D01*
Y74000D01*
X86884Y75175D01*
X86431Y76269D01*
X85709Y77209D01*
X84769Y77931D01*
X84673Y77971D01*
X84773Y78471D01*
X90227D01*
X90327Y77971D01*
X90231Y77931D01*
X89291Y77209D01*
X88569Y76269D01*
X88116Y75175D01*
X87961Y74000D01*
Y71000D01*
X88116Y69825D01*
X88569Y68731D01*
X89291Y67791D01*
X90231Y67069D01*
X91325Y66616D01*
X92500Y66461D01*
X93675Y66616D01*
X94769Y67069D01*
X95709Y67791D01*
X96431Y68731D01*
X96884Y69825D01*
X97039Y71000D01*
Y74000D01*
X96884Y75175D01*
X96431Y76269D01*
X95709Y77209D01*
X94769Y77931D01*
X94673Y77971D01*
X94773Y78471D01*
X100227D01*
X100327Y77971D01*
X100231Y77931D01*
X99291Y77209D01*
X98569Y76269D01*
X98116Y75175D01*
X97961Y74000D01*
Y71000D01*
X98116Y69825D01*
X98569Y68731D01*
X99291Y67791D01*
X100231Y67069D01*
X101325Y66616D01*
X102500Y66461D01*
X103675Y66616D01*
X104769Y67069D01*
X105709Y67791D01*
X106431Y68731D01*
X106884Y69825D01*
X107039Y71000D01*
Y74000D01*
X106884Y75175D01*
X106431Y76269D01*
X105709Y77209D01*
X104769Y77931D01*
X104673Y77971D01*
X104773Y78471D01*
X110227D01*
X110324Y77986D01*
X110320Y77968D01*
X110231Y77931D01*
X109291Y77209D01*
X108569Y76269D01*
X108116Y75175D01*
X107961Y74000D01*
Y71000D01*
X108116Y69825D01*
X108569Y68731D01*
X109291Y67791D01*
X110231Y67069D01*
X111325Y66616D01*
X112500Y66461D01*
X113675Y66616D01*
X114769Y67069D01*
X115709Y67791D01*
X116431Y68731D01*
X116884Y69825D01*
X117039Y71000D01*
Y74000D01*
X116884Y75175D01*
X116431Y76269D01*
X115709Y77209D01*
X114769Y77931D01*
X114029Y78237D01*
Y78539D01*
X113913Y79124D01*
X113581Y79620D01*
X112693Y80509D01*
X112884Y80971D01*
X119367D01*
X120971Y79366D01*
Y78237D01*
X120231Y77931D01*
X119291Y77209D01*
X118569Y76269D01*
X118116Y75175D01*
X117961Y74000D01*
Y71000D01*
X118116Y69825D01*
X118569Y68731D01*
X119291Y67791D01*
X120231Y67069D01*
X121325Y66616D01*
X122500Y66461D01*
X123675Y66616D01*
X124769Y67069D01*
X125709Y67791D01*
X126431Y68731D01*
X126884Y69825D01*
X127039Y71000D01*
Y74000D01*
X126884Y75175D01*
X126431Y76269D01*
X125709Y77209D01*
X124769Y77931D01*
X124029Y78237D01*
Y80000D01*
X123913Y80585D01*
X123581Y81081D01*
X121654Y83009D01*
X121846Y83471D01*
X129367D01*
X130971Y81867D01*
Y78237D01*
X130231Y77931D01*
X129291Y77209D01*
X128569Y76269D01*
X128116Y75175D01*
X127961Y74000D01*
Y71000D01*
X128116Y69825D01*
X128569Y68731D01*
X129291Y67791D01*
X130231Y67069D01*
X131325Y66616D01*
X132500Y66461D01*
X133675Y66616D01*
X134769Y67069D01*
X135709Y67791D01*
X136431Y68731D01*
X136884Y69825D01*
X137039Y71000D01*
Y74000D01*
X136884Y75175D01*
X136431Y76269D01*
X135709Y77209D01*
X134769Y77931D01*
X134029Y78237D01*
Y82500D01*
X133913Y83085D01*
X133581Y83581D01*
X131654Y85509D01*
X131846Y85971D01*
X139366D01*
X140971Y84367D01*
Y78237D01*
X140231Y77931D01*
X139291Y77209D01*
X138569Y76269D01*
X138116Y75175D01*
X137961Y74000D01*
Y71000D01*
X138116Y69825D01*
X138569Y68731D01*
X139291Y67791D01*
X140231Y67069D01*
X141325Y66616D01*
X142500Y66461D01*
X143675Y66616D01*
X144769Y67069D01*
X145709Y67791D01*
X146431Y68731D01*
X146884Y69825D01*
X147039Y71000D01*
Y74000D01*
X146884Y75175D01*
X146431Y76269D01*
X145709Y77209D01*
X144769Y77931D01*
X144029Y78237D01*
Y85000D01*
X143913Y85585D01*
X143581Y86081D01*
X141081Y88581D01*
X140585Y88913D01*
X140000Y89029D01*
X108133D01*
X106762Y90400D01*
X106764Y90666D01*
X106844Y91003D01*
X107496Y91504D01*
X108057Y92235D01*
X108410Y93086D01*
X108530Y94000D01*
Y96000D01*
X108410Y96914D01*
X108057Y97765D01*
X107496Y98496D01*
X106765Y99057D01*
X105914Y99410D01*
X105000Y99530D01*
D02*
G37*
G36*
X197500D02*
X196586Y99410D01*
X195735Y99057D01*
X195004Y98496D01*
X194443Y97765D01*
X194090Y96914D01*
X193970Y96000D01*
Y94000D01*
X194090Y93086D01*
X194443Y92235D01*
X195004Y91504D01*
X195735Y90943D01*
X195971Y90845D01*
Y90000D01*
X196087Y89415D01*
X196419Y88919D01*
X198346Y86991D01*
X198154Y86529D01*
X190633D01*
X189029Y88134D01*
Y90845D01*
X189265Y90943D01*
X189996Y91504D01*
X190557Y92235D01*
X190910Y93086D01*
X191030Y94000D01*
Y96000D01*
X190910Y96914D01*
X190557Y97765D01*
X189996Y98496D01*
X189265Y99057D01*
X188414Y99410D01*
X187500Y99530D01*
X186586Y99410D01*
X185735Y99057D01*
X185004Y98496D01*
X184443Y97765D01*
X184090Y96914D01*
X183970Y96000D01*
Y94000D01*
X184090Y93086D01*
X184443Y92235D01*
X185004Y91504D01*
X185735Y90943D01*
X185971Y90845D01*
Y87500D01*
X186087Y86915D01*
X186419Y86419D01*
X188346Y84491D01*
X188154Y84029D01*
X180633D01*
X179029Y85633D01*
Y90845D01*
X179265Y90943D01*
X179996Y91504D01*
X180557Y92235D01*
X180910Y93086D01*
X181030Y94000D01*
Y96000D01*
X180910Y96914D01*
X180557Y97765D01*
X179996Y98496D01*
X179265Y99057D01*
X178414Y99410D01*
X177500Y99530D01*
X176586Y99410D01*
X175735Y99057D01*
X175004Y98496D01*
X174443Y97765D01*
X174090Y96914D01*
X173970Y96000D01*
Y94000D01*
X174090Y93086D01*
X174443Y92235D01*
X175004Y91504D01*
X175735Y90943D01*
X175971Y90845D01*
Y85000D01*
X176087Y84415D01*
X176419Y83919D01*
X178346Y81991D01*
X178154Y81529D01*
X170633D01*
X169029Y83134D01*
Y90845D01*
X169265Y90943D01*
X169996Y91504D01*
X170557Y92235D01*
X170910Y93086D01*
X171030Y94000D01*
Y96000D01*
X170910Y96914D01*
X170557Y97765D01*
X169996Y98496D01*
X169265Y99057D01*
X168414Y99410D01*
X167500Y99530D01*
X166586Y99410D01*
X165735Y99057D01*
X165004Y98496D01*
X164443Y97765D01*
X164090Y96914D01*
X163970Y96000D01*
Y94000D01*
X164090Y93086D01*
X164443Y92235D01*
X165004Y91504D01*
X165735Y90943D01*
X165971Y90845D01*
Y82500D01*
X166087Y81915D01*
X166419Y81419D01*
X168919Y78919D01*
X169415Y78587D01*
X170000Y78471D01*
X170227D01*
X170327Y77971D01*
X170231Y77931D01*
X169291Y77209D01*
X168569Y76269D01*
X168116Y75175D01*
X167961Y74000D01*
Y71000D01*
X168116Y69825D01*
X168569Y68731D01*
X169291Y67791D01*
X170231Y67069D01*
X171325Y66616D01*
X172500Y66461D01*
X173675Y66616D01*
X174769Y67069D01*
X175709Y67791D01*
X176431Y68731D01*
X176884Y69825D01*
X177039Y71000D01*
Y74000D01*
X176884Y75175D01*
X176431Y76269D01*
X175709Y77209D01*
X174769Y77931D01*
X174673Y77971D01*
X174773Y78471D01*
X180227D01*
X180324Y77986D01*
X180320Y77968D01*
X180231Y77931D01*
X179291Y77209D01*
X178569Y76269D01*
X178116Y75175D01*
X177961Y74000D01*
Y71000D01*
X178116Y69825D01*
X178569Y68731D01*
X179291Y67791D01*
X180231Y67069D01*
X181325Y66616D01*
X182500Y66461D01*
X183675Y66616D01*
X184769Y67069D01*
X185709Y67791D01*
X186431Y68731D01*
X186884Y69825D01*
X187039Y71000D01*
Y74000D01*
X186884Y75175D01*
X186431Y76269D01*
X185709Y77209D01*
X184769Y77931D01*
X184029Y78237D01*
Y78539D01*
X183913Y79124D01*
X183581Y79620D01*
X182693Y80509D01*
X182884Y80971D01*
X189366D01*
X190971Y79366D01*
Y78237D01*
X190231Y77931D01*
X189291Y77209D01*
X188569Y76269D01*
X188116Y75175D01*
X187961Y74000D01*
Y71000D01*
X188116Y69825D01*
X188569Y68731D01*
X189291Y67791D01*
X190231Y67069D01*
X191325Y66616D01*
X192500Y66461D01*
X193675Y66616D01*
X194769Y67069D01*
X195709Y67791D01*
X196431Y68731D01*
X196884Y69825D01*
X197039Y71000D01*
Y74000D01*
X196884Y75175D01*
X196431Y76269D01*
X195709Y77209D01*
X194769Y77931D01*
X194029Y78237D01*
Y80000D01*
X193913Y80585D01*
X193581Y81081D01*
X191654Y83009D01*
X191846Y83471D01*
X199366D01*
X200971Y81867D01*
Y78237D01*
X200231Y77931D01*
X199291Y77209D01*
X198569Y76269D01*
X198116Y75175D01*
X197961Y74000D01*
Y71000D01*
X198116Y69825D01*
X198569Y68731D01*
X199291Y67791D01*
X200231Y67069D01*
X201325Y66616D01*
X202500Y66461D01*
X203675Y66616D01*
X204769Y67069D01*
X205709Y67791D01*
X206431Y68731D01*
X206884Y69825D01*
X207039Y71000D01*
Y74000D01*
X206884Y75175D01*
X206431Y76269D01*
X205709Y77209D01*
X204769Y77931D01*
X204029Y78237D01*
Y82500D01*
X203913Y83085D01*
X203581Y83581D01*
X201654Y85509D01*
X201846Y85971D01*
X209366D01*
X210971Y84367D01*
Y78237D01*
X210231Y77931D01*
X209291Y77209D01*
X208569Y76269D01*
X208116Y75175D01*
X207961Y74000D01*
Y71000D01*
X208116Y69825D01*
X208569Y68731D01*
X209291Y67791D01*
X210231Y67069D01*
X211325Y66616D01*
X212500Y66461D01*
X213675Y66616D01*
X214769Y67069D01*
X215709Y67791D01*
X216431Y68731D01*
X216884Y69825D01*
X217039Y71000D01*
Y74000D01*
X216884Y75175D01*
X216431Y76269D01*
X215709Y77209D01*
X214769Y77931D01*
X214029Y78237D01*
Y85000D01*
X213913Y85585D01*
X213581Y86081D01*
X211081Y88581D01*
X210585Y88913D01*
X210000Y89029D01*
X200634D01*
X199262Y90400D01*
X199264Y90666D01*
X199344Y91003D01*
X199996Y91504D01*
X200557Y92235D01*
X200910Y93086D01*
X201030Y94000D01*
Y96000D01*
X200910Y96914D01*
X200557Y97765D01*
X199996Y98496D01*
X199265Y99057D01*
X198414Y99410D01*
X197500Y99530D01*
D02*
G37*
G36*
X147500D02*
X146586Y99410D01*
X145735Y99057D01*
X145004Y98496D01*
X144443Y97765D01*
X144090Y96914D01*
X143970Y96000D01*
Y94000D01*
X144090Y93086D01*
X144443Y92235D01*
X145004Y91504D01*
X145735Y90943D01*
X146586Y90590D01*
X147500Y90470D01*
X148414Y90590D01*
X149265Y90943D01*
X149996Y91504D01*
X150557Y92235D01*
X150910Y93086D01*
X151030Y94000D01*
Y96000D01*
X150910Y96914D01*
X150557Y97765D01*
X149996Y98496D01*
X149265Y99057D01*
X148414Y99410D01*
X147500Y99530D01*
D02*
G37*
G36*
X207000Y94500D02*
X203970D01*
Y94000D01*
X204090Y93086D01*
X204443Y92235D01*
X205004Y91504D01*
X205735Y90943D01*
X206586Y90590D01*
X207000Y90536D01*
Y94500D01*
D02*
G37*
G36*
X211030D02*
X208000D01*
Y90536D01*
X208414Y90590D01*
X209265Y90943D01*
X209996Y91504D01*
X210557Y92235D01*
X210910Y93086D01*
X211030Y94000D01*
Y94500D01*
D02*
G37*
G36*
X299500D02*
X296470D01*
Y94000D01*
X296590Y93086D01*
X296943Y92235D01*
X297504Y91504D01*
X298235Y90943D01*
X299086Y90590D01*
X299500Y90536D01*
Y94500D01*
D02*
G37*
G36*
X141000Y99500D02*
X134000D01*
Y90500D01*
X141000D01*
Y99500D01*
D02*
G37*
G36*
X114500Y94500D02*
X111470D01*
Y94000D01*
X111590Y93086D01*
X111943Y92235D01*
X112504Y91504D01*
X113235Y90943D01*
X114086Y90590D01*
X114500Y90536D01*
Y94500D01*
D02*
G37*
G36*
X118530D02*
X115500D01*
Y90536D01*
X115914Y90590D01*
X116765Y90943D01*
X117496Y91504D01*
X118057Y92235D01*
X118410Y93086D01*
X118530Y94000D01*
Y94500D01*
D02*
G37*
G36*
X333177Y88375D02*
Y83177D01*
X337260D01*
Y83858D01*
X337104Y85044D01*
X336646Y86150D01*
X335917Y87099D01*
X334968Y87827D01*
X333863Y88285D01*
X333177Y88375D01*
D02*
G37*
G36*
X72000Y72000D02*
X67961D01*
Y71000D01*
X68116Y69825D01*
X68569Y68731D01*
X69291Y67791D01*
X70231Y67069D01*
X71325Y66616D01*
X72000Y66527D01*
Y72000D01*
D02*
G37*
G36*
X77039D02*
X73000D01*
Y66527D01*
X73675Y66616D01*
X74769Y67069D01*
X75709Y67791D01*
X76431Y68731D01*
X76884Y69825D01*
X77039Y71000D01*
Y72000D01*
D02*
G37*
G36*
X82000D02*
X77961D01*
Y71000D01*
X78116Y69825D01*
X78569Y68731D01*
X79291Y67791D01*
X80231Y67069D01*
X81325Y66616D01*
X82000Y66527D01*
Y72000D01*
D02*
G37*
G36*
X162500Y78539D02*
X161325Y78384D01*
X160231Y77931D01*
X159291Y77209D01*
X158569Y76269D01*
X158116Y75175D01*
X157961Y74000D01*
Y71000D01*
X158116Y69825D01*
X158569Y68731D01*
X159291Y67791D01*
X160231Y67069D01*
X161325Y66616D01*
X162500Y66461D01*
X163675Y66616D01*
X164769Y67069D01*
X165709Y67791D01*
X166431Y68731D01*
X166884Y69825D01*
X167039Y71000D01*
Y74000D01*
X166884Y75175D01*
X166431Y76269D01*
X165709Y77209D01*
X164769Y77931D01*
X163675Y78384D01*
X162500Y78539D01*
D02*
G37*
G36*
X233500Y99500D02*
X226500D01*
Y93663D01*
X221419Y88581D01*
X221087Y88085D01*
X220971Y87500D01*
Y78237D01*
X220231Y77931D01*
X219291Y77209D01*
X218569Y76269D01*
X218116Y75175D01*
X217961Y74000D01*
Y71000D01*
X218116Y69825D01*
X218569Y68731D01*
X219291Y67791D01*
X220231Y67069D01*
X221325Y66616D01*
X222500Y66461D01*
X223675Y66616D01*
X224769Y67069D01*
X225709Y67791D01*
X226431Y68731D01*
X226884Y69825D01*
X227039Y71000D01*
Y74000D01*
X226884Y75175D01*
X226431Y76269D01*
X225709Y77209D01*
X224769Y77931D01*
X224029Y78237D01*
Y86866D01*
X227663Y90500D01*
X233500D01*
Y99500D01*
D02*
G37*
G36*
X232500Y78539D02*
X231325Y78384D01*
X230231Y77931D01*
X229291Y77209D01*
X228569Y76269D01*
X228116Y75175D01*
X227961Y74000D01*
Y71000D01*
X228116Y69825D01*
X228569Y68731D01*
X229291Y67791D01*
X230231Y67069D01*
X231325Y66616D01*
X232500Y66461D01*
X233675Y66616D01*
X234769Y67069D01*
X235709Y67791D01*
X236431Y68731D01*
X236884Y69825D01*
X237039Y71000D01*
Y74000D01*
X236884Y75175D01*
X236431Y76269D01*
X235709Y77209D01*
X234769Y77931D01*
X233675Y78384D01*
X232500Y78539D01*
D02*
G37*
G36*
X332177Y82177D02*
X328095D01*
Y81496D01*
X328251Y80310D01*
X328709Y79205D01*
X329437Y78256D01*
X330386Y77527D01*
X331491Y77070D01*
X332177Y76979D01*
Y82177D01*
D02*
G37*
G36*
X337260D02*
X333177D01*
Y76979D01*
X333863Y77070D01*
X334968Y77527D01*
X335917Y78256D01*
X336646Y79205D01*
X337104Y80310D01*
X337260Y81496D01*
Y82177D01*
D02*
G37*
G36*
X332177Y88375D02*
X331491Y88285D01*
X330386Y87827D01*
X329437Y87099D01*
X328709Y86150D01*
X328251Y85044D01*
X328095Y83858D01*
Y83177D01*
X332177D01*
Y88375D01*
D02*
G37*
G36*
X87039Y72000D02*
X83000D01*
Y66527D01*
X83675Y66616D01*
X84769Y67069D01*
X85709Y67791D01*
X86431Y68731D01*
X86884Y69825D01*
X87039Y71000D01*
Y72000D01*
D02*
G37*
G36*
X72000Y78473D02*
X71325Y78384D01*
X70231Y77931D01*
X69291Y77209D01*
X68569Y76269D01*
X68116Y75175D01*
X67961Y74000D01*
Y73000D01*
X72000D01*
Y78473D01*
D02*
G37*
G36*
X73000D02*
Y73000D01*
X77039D01*
Y74000D01*
X76884Y75175D01*
X76431Y76269D01*
X75709Y77209D01*
X74769Y77931D01*
X73675Y78384D01*
X73000Y78473D01*
D02*
G37*
G36*
X254250Y160000D02*
X245750D01*
Y150000D01*
X254250D01*
Y160000D01*
D02*
G37*
G36*
X237500Y310037D02*
X236390Y309891D01*
X235357Y309462D01*
X234469Y308781D01*
X233788Y307893D01*
X233359Y306859D01*
X233213Y305750D01*
Y304250D01*
X233359Y303140D01*
X233788Y302107D01*
X234469Y301219D01*
X235357Y300538D01*
X236390Y300109D01*
X237500Y299963D01*
X238610Y300109D01*
X239643Y300538D01*
X240531Y301219D01*
X241212Y302107D01*
X241641Y303140D01*
X241787Y304250D01*
Y305750D01*
X241641Y306859D01*
X241212Y307893D01*
X240531Y308781D01*
X239643Y309462D01*
X238610Y309891D01*
X237500Y310037D01*
D02*
G37*
G36*
X247500D02*
X246391Y309891D01*
X245357Y309462D01*
X244469Y308781D01*
X243788Y307893D01*
X243359Y306859D01*
X243213Y305750D01*
Y304250D01*
X243359Y303140D01*
X243788Y302107D01*
X244469Y301219D01*
X245357Y300538D01*
X246391Y300109D01*
X247500Y299963D01*
X248609Y300109D01*
X249643Y300538D01*
X250531Y301219D01*
X251212Y302107D01*
X251641Y303140D01*
X251787Y304250D01*
Y305750D01*
X251641Y306859D01*
X251212Y307893D01*
X250531Y308781D01*
X249643Y309462D01*
X248609Y309891D01*
X247500Y310037D01*
D02*
G37*
G36*
X257500D02*
X256391Y309891D01*
X255357Y309462D01*
X254469Y308781D01*
X253788Y307893D01*
X253359Y306859D01*
X253213Y305750D01*
Y304250D01*
X253359Y303140D01*
X253788Y302107D01*
X254469Y301219D01*
X255357Y300538D01*
X256391Y300109D01*
X257500Y299963D01*
X258610Y300109D01*
X259643Y300538D01*
X260531Y301219D01*
X261212Y302107D01*
X261641Y303140D01*
X261787Y304250D01*
Y305750D01*
X261641Y306859D01*
X261212Y307893D01*
X260531Y308781D01*
X259643Y309462D01*
X258610Y309891D01*
X257500Y310037D01*
D02*
G37*
G36*
X130000D02*
X128891Y309891D01*
X127857Y309462D01*
X126969Y308781D01*
X126288Y307893D01*
X125859Y306859D01*
X125713Y305750D01*
Y304250D01*
X125859Y303140D01*
X126288Y302107D01*
X126969Y301219D01*
X127857Y300538D01*
X128891Y300109D01*
X130000Y299963D01*
X131109Y300109D01*
X132143Y300538D01*
X133031Y301219D01*
X133712Y302107D01*
X134141Y303140D01*
X134287Y304250D01*
Y305750D01*
X134141Y306859D01*
X133712Y307893D01*
X133031Y308781D01*
X132143Y309462D01*
X131109Y309891D01*
X130000Y310037D01*
D02*
G37*
G36*
X140000D02*
X138891Y309891D01*
X137857Y309462D01*
X136969Y308781D01*
X136288Y307893D01*
X135859Y306859D01*
X135713Y305750D01*
Y304250D01*
X135859Y303140D01*
X136288Y302107D01*
X136969Y301219D01*
X137857Y300538D01*
X138891Y300109D01*
X140000Y299963D01*
X141110Y300109D01*
X142143Y300538D01*
X143031Y301219D01*
X143712Y302107D01*
X144141Y303140D01*
X144287Y304250D01*
Y305750D01*
X144141Y306859D01*
X143712Y307893D01*
X143031Y308781D01*
X142143Y309462D01*
X141110Y309891D01*
X140000Y310037D01*
D02*
G37*
G36*
X150000D02*
X148890Y309891D01*
X147857Y309462D01*
X146969Y308781D01*
X146288Y307893D01*
X145859Y306859D01*
X145713Y305750D01*
Y304250D01*
X145859Y303140D01*
X146288Y302107D01*
X146969Y301219D01*
X147857Y300538D01*
X148890Y300109D01*
X150000Y299963D01*
X151110Y300109D01*
X152143Y300538D01*
X153031Y301219D01*
X153712Y302107D01*
X154141Y303140D01*
X154287Y304250D01*
Y305750D01*
X154141Y306859D01*
X153712Y307893D01*
X153031Y308781D01*
X152143Y309462D01*
X151110Y309891D01*
X150000Y310037D01*
D02*
G37*
G36*
X124250Y310000D02*
X115750D01*
Y300000D01*
X124250D01*
Y310000D01*
D02*
G37*
G36*
X231750D02*
X223250D01*
Y300000D01*
X231750D01*
Y310000D01*
D02*
G37*
G36*
X284250D02*
X275750D01*
Y300000D01*
X284250D01*
Y310000D01*
D02*
G37*
G36*
X290000Y310037D02*
X288891Y309891D01*
X287857Y309462D01*
X286969Y308781D01*
X286288Y307893D01*
X285859Y306859D01*
X285713Y305750D01*
Y304250D01*
X285859Y303140D01*
X286288Y302107D01*
X286969Y301219D01*
X287857Y300538D01*
X288891Y300109D01*
X290000Y299963D01*
X291109Y300109D01*
X292143Y300538D01*
X293031Y301219D01*
X293712Y302107D01*
X294141Y303140D01*
X294287Y304250D01*
Y305750D01*
X294141Y306859D01*
X293712Y307893D01*
X293031Y308781D01*
X292143Y309462D01*
X291109Y309891D01*
X290000Y310037D01*
D02*
G37*
G36*
X300000D02*
X298890Y309891D01*
X297857Y309462D01*
X296969Y308781D01*
X296288Y307893D01*
X295859Y306859D01*
X295713Y305750D01*
Y304250D01*
X295859Y303140D01*
X296288Y302107D01*
X296969Y301219D01*
X297857Y300538D01*
X298890Y300109D01*
X300000Y299963D01*
X301110Y300109D01*
X302143Y300538D01*
X303031Y301219D01*
X303712Y302107D01*
X304141Y303140D01*
X304287Y304250D01*
Y305750D01*
X304141Y306859D01*
X303712Y307893D01*
X303031Y308781D01*
X302143Y309462D01*
X301110Y309891D01*
X300000Y310037D01*
D02*
G37*
G36*
X310000D02*
X308891Y309891D01*
X307857Y309462D01*
X306969Y308781D01*
X306288Y307893D01*
X305859Y306859D01*
X305713Y305750D01*
Y304250D01*
X305859Y303140D01*
X306288Y302107D01*
X306969Y301219D01*
X307857Y300538D01*
X308891Y300109D01*
X310000Y299963D01*
X311109Y300109D01*
X312143Y300538D01*
X313031Y301219D01*
X313712Y302107D01*
X314141Y303140D01*
X314287Y304250D01*
Y305750D01*
X314141Y306859D01*
X313712Y307893D01*
X313031Y308781D01*
X312143Y309462D01*
X311109Y309891D01*
X310000Y310037D01*
D02*
G37*
G36*
X87500D02*
X86391Y309891D01*
X85357Y309462D01*
X84469Y308781D01*
X83788Y307893D01*
X83359Y306859D01*
X83213Y305750D01*
Y304250D01*
X83359Y303140D01*
X83788Y302107D01*
X84469Y301219D01*
X85357Y300538D01*
X86391Y300109D01*
X87500Y299963D01*
X88609Y300109D01*
X89643Y300538D01*
X90531Y301219D01*
X91212Y302107D01*
X91641Y303140D01*
X91787Y304250D01*
Y305750D01*
X91641Y306859D01*
X91212Y307893D01*
X90531Y308781D01*
X89643Y309462D01*
X88609Y309891D01*
X87500Y310037D01*
D02*
G37*
G36*
X175000Y295037D02*
X173890Y294891D01*
X172857Y294462D01*
X171969Y293781D01*
X171288Y292893D01*
X170859Y291860D01*
X170713Y290750D01*
Y289250D01*
X170859Y288141D01*
X171288Y287107D01*
X171969Y286219D01*
X172857Y285538D01*
X173890Y285109D01*
X175000Y284963D01*
X176110Y285109D01*
X177143Y285538D01*
X178031Y286219D01*
X178712Y287107D01*
X179141Y288141D01*
X179287Y289250D01*
Y290750D01*
X179141Y291860D01*
X178712Y292893D01*
X178031Y293781D01*
X177143Y294462D01*
X176110Y294891D01*
X175000Y295037D01*
D02*
G37*
G36*
X197500D02*
X196390Y294891D01*
X195357Y294462D01*
X194469Y293781D01*
X193788Y292893D01*
X193359Y291860D01*
X193213Y290750D01*
Y289250D01*
X193359Y288141D01*
X193788Y287107D01*
X194469Y286219D01*
X195357Y285538D01*
X196390Y285109D01*
X197500Y284963D01*
X198609Y285109D01*
X199643Y285538D01*
X200531Y286219D01*
X201212Y287107D01*
X201641Y288141D01*
X201787Y289250D01*
Y290750D01*
X201641Y291860D01*
X201212Y292893D01*
X200531Y293781D01*
X199643Y294462D01*
X198609Y294891D01*
X197500Y295037D01*
D02*
G37*
G36*
X207500D02*
X206391Y294891D01*
X205357Y294462D01*
X204469Y293781D01*
X203788Y292893D01*
X203359Y291860D01*
X203213Y290750D01*
Y289250D01*
X203359Y288141D01*
X203788Y287107D01*
X204469Y286219D01*
X205357Y285538D01*
X206391Y285109D01*
X207500Y284963D01*
X208610Y285109D01*
X209643Y285538D01*
X210531Y286219D01*
X211212Y287107D01*
X211641Y288141D01*
X211787Y289250D01*
Y290750D01*
X211641Y291860D01*
X211212Y292893D01*
X210531Y293781D01*
X209643Y294462D01*
X208610Y294891D01*
X207500Y295037D01*
D02*
G37*
G36*
X145000D02*
X143891Y294891D01*
X142857Y294462D01*
X141969Y293781D01*
X141288Y292893D01*
X140859Y291860D01*
X140713Y290750D01*
Y289250D01*
X140859Y288141D01*
X141288Y287107D01*
X141969Y286219D01*
X142857Y285538D01*
X143891Y285109D01*
X145000Y284963D01*
X146109Y285109D01*
X147143Y285538D01*
X148031Y286219D01*
X148712Y287107D01*
X149141Y288141D01*
X149287Y289250D01*
Y290750D01*
X149141Y291860D01*
X148712Y292893D01*
X148031Y293781D01*
X147143Y294462D01*
X146109Y294891D01*
X145000Y295037D01*
D02*
G37*
G36*
X155000D02*
X153891Y294891D01*
X152857Y294462D01*
X151969Y293781D01*
X151288Y292893D01*
X150859Y291860D01*
X150713Y290750D01*
Y289250D01*
X150859Y288141D01*
X151288Y287107D01*
X151969Y286219D01*
X152857Y285538D01*
X153891Y285109D01*
X155000Y284963D01*
X156109Y285109D01*
X157143Y285538D01*
X158031Y286219D01*
X158712Y287107D01*
X159141Y288141D01*
X159287Y289250D01*
Y290750D01*
X159141Y291860D01*
X158712Y292893D01*
X158031Y293781D01*
X157143Y294462D01*
X156109Y294891D01*
X155000Y295037D01*
D02*
G37*
G36*
X165000D02*
X163891Y294891D01*
X162857Y294462D01*
X161969Y293781D01*
X161288Y292893D01*
X160859Y291860D01*
X160713Y290750D01*
Y289250D01*
X160859Y288141D01*
X161288Y287107D01*
X161969Y286219D01*
X162857Y285538D01*
X163891Y285109D01*
X165000Y284963D01*
X166110Y285109D01*
X167143Y285538D01*
X168031Y286219D01*
X168712Y287107D01*
X169141Y288141D01*
X169287Y289250D01*
Y290750D01*
X169141Y291860D01*
X168712Y292893D01*
X168031Y293781D01*
X167143Y294462D01*
X166110Y294891D01*
X165000Y295037D01*
D02*
G37*
G36*
X260000D02*
X258891Y294891D01*
X257857Y294462D01*
X256969Y293781D01*
X256288Y292893D01*
X255859Y291860D01*
X255713Y290750D01*
Y289250D01*
X255859Y288141D01*
X256288Y287107D01*
X256969Y286219D01*
X257857Y285538D01*
X258891Y285109D01*
X260000Y284963D01*
X261109Y285109D01*
X262143Y285538D01*
X263031Y286219D01*
X263712Y287107D01*
X264141Y288141D01*
X264287Y289250D01*
Y290750D01*
X264141Y291860D01*
X263712Y292893D01*
X263031Y293781D01*
X262143Y294462D01*
X261109Y294891D01*
X260000Y295037D01*
D02*
G37*
G36*
X270000D02*
X268891Y294891D01*
X267857Y294462D01*
X266969Y293781D01*
X266288Y292893D01*
X265859Y291860D01*
X265713Y290750D01*
Y289250D01*
X265859Y288141D01*
X266288Y287107D01*
X266969Y286219D01*
X267857Y285538D01*
X268891Y285109D01*
X270000Y284963D01*
X271110Y285109D01*
X272143Y285538D01*
X273031Y286219D01*
X273712Y287107D01*
X274141Y288141D01*
X274287Y289250D01*
Y290750D01*
X274141Y291860D01*
X273712Y292893D01*
X273031Y293781D01*
X272143Y294462D01*
X271110Y294891D01*
X270000Y295037D01*
D02*
G37*
G36*
X280000D02*
X278890Y294891D01*
X277857Y294462D01*
X276969Y293781D01*
X276288Y292893D01*
X275859Y291860D01*
X275713Y290750D01*
Y289250D01*
X275859Y288141D01*
X276288Y287107D01*
X276969Y286219D01*
X277857Y285538D01*
X278890Y285109D01*
X280000Y284963D01*
X281109Y285109D01*
X282143Y285538D01*
X283031Y286219D01*
X283712Y287107D01*
X284141Y288141D01*
X284287Y289250D01*
Y290750D01*
X284141Y291860D01*
X283712Y292893D01*
X283031Y293781D01*
X282143Y294462D01*
X281109Y294891D01*
X280000Y295037D01*
D02*
G37*
G36*
X217500D02*
X216390Y294891D01*
X215357Y294462D01*
X214469Y293781D01*
X213788Y292893D01*
X213359Y291860D01*
X213213Y290750D01*
Y289250D01*
X213359Y288141D01*
X213788Y287107D01*
X214469Y286219D01*
X215357Y285538D01*
X216390Y285109D01*
X217500Y284963D01*
X218609Y285109D01*
X219643Y285538D01*
X220531Y286219D01*
X221212Y287107D01*
X221641Y288141D01*
X221787Y289250D01*
Y290750D01*
X221641Y291860D01*
X221212Y292893D01*
X220531Y293781D01*
X219643Y294462D01*
X218609Y294891D01*
X217500Y295037D01*
D02*
G37*
G36*
X227500D02*
X226391Y294891D01*
X225357Y294462D01*
X224469Y293781D01*
X223788Y292893D01*
X223359Y291860D01*
X223213Y290750D01*
Y289250D01*
X223359Y288141D01*
X223788Y287107D01*
X224469Y286219D01*
X225357Y285538D01*
X226391Y285109D01*
X227500Y284963D01*
X228609Y285109D01*
X229643Y285538D01*
X230531Y286219D01*
X231212Y287107D01*
X231641Y288141D01*
X231787Y289250D01*
Y290750D01*
X231641Y291860D01*
X231212Y292893D01*
X230531Y293781D01*
X229643Y294462D01*
X228609Y294891D01*
X227500Y295037D01*
D02*
G37*
G36*
X250000D02*
X248890Y294891D01*
X247857Y294462D01*
X246969Y293781D01*
X246288Y292893D01*
X245859Y291860D01*
X245713Y290750D01*
Y289250D01*
X245859Y288141D01*
X246288Y287107D01*
X246969Y286219D01*
X247857Y285538D01*
X248890Y285109D01*
X250000Y284963D01*
X251110Y285109D01*
X252143Y285538D01*
X253031Y286219D01*
X253712Y287107D01*
X254141Y288141D01*
X254287Y289250D01*
Y290750D01*
X254141Y291860D01*
X253712Y292893D01*
X253031Y293781D01*
X252143Y294462D01*
X251110Y294891D01*
X250000Y295037D01*
D02*
G37*
G36*
X38870Y345957D02*
X28533D01*
X28628Y344755D01*
X29026Y343096D01*
X29680Y341519D01*
X30571Y340064D01*
X31680Y338766D01*
X32977Y337658D01*
X34433Y336766D01*
X36009Y336113D01*
X37669Y335715D01*
X38870Y335620D01*
Y345957D01*
D02*
G37*
G36*
X150000Y370037D02*
X148890Y369891D01*
X147857Y369462D01*
X146969Y368781D01*
X146288Y367893D01*
X145859Y366860D01*
X145713Y365750D01*
Y364250D01*
X145859Y363141D01*
X146288Y362107D01*
X146969Y361219D01*
X147857Y360538D01*
X148890Y360109D01*
X150000Y359963D01*
X151110Y360109D01*
X152143Y360538D01*
X153031Y361219D01*
X153712Y362107D01*
X154141Y363141D01*
X154287Y364250D01*
Y365750D01*
X154141Y366860D01*
X153712Y367893D01*
X153031Y368781D01*
X152143Y369462D01*
X151110Y369891D01*
X150000Y370037D01*
D02*
G37*
G36*
X227500D02*
X226391Y369891D01*
X225357Y369462D01*
X224469Y368781D01*
X223788Y367893D01*
X223359Y366860D01*
X223213Y365750D01*
Y364250D01*
X223359Y363141D01*
X223788Y362107D01*
X224469Y361219D01*
X225357Y360538D01*
X226391Y360109D01*
X227500Y359963D01*
X228609Y360109D01*
X229643Y360538D01*
X230531Y361219D01*
X231212Y362107D01*
X231641Y363141D01*
X231787Y364250D01*
Y365750D01*
X231641Y366860D01*
X231212Y367893D01*
X230531Y368781D01*
X229643Y369462D01*
X228609Y369891D01*
X227500Y370037D01*
D02*
G37*
G36*
X237500D02*
X236390Y369891D01*
X235357Y369462D01*
X234469Y368781D01*
X233788Y367893D01*
X233359Y366860D01*
X233213Y365750D01*
Y364250D01*
X233359Y363141D01*
X233788Y362107D01*
X234469Y361219D01*
X235357Y360538D01*
X236390Y360109D01*
X237500Y359963D01*
X238610Y360109D01*
X239643Y360538D01*
X240531Y361219D01*
X241212Y362107D01*
X241641Y363141D01*
X241787Y364250D01*
Y365750D01*
X241641Y366860D01*
X241212Y367893D01*
X240531Y368781D01*
X239643Y369462D01*
X238610Y369891D01*
X237500Y370037D01*
D02*
G37*
G36*
X120000D02*
X118891Y369891D01*
X117857Y369462D01*
X116969Y368781D01*
X116288Y367893D01*
X115859Y366860D01*
X115713Y365750D01*
Y364250D01*
X115859Y363141D01*
X116288Y362107D01*
X116969Y361219D01*
X117857Y360538D01*
X118891Y360109D01*
X120000Y359963D01*
X121109Y360109D01*
X122143Y360538D01*
X123031Y361219D01*
X123712Y362107D01*
X124141Y363141D01*
X124287Y364250D01*
Y365750D01*
X124141Y366860D01*
X123712Y367893D01*
X123031Y368781D01*
X122143Y369462D01*
X121109Y369891D01*
X120000Y370037D01*
D02*
G37*
G36*
X130000D02*
X128891Y369891D01*
X127857Y369462D01*
X126969Y368781D01*
X126288Y367893D01*
X125859Y366860D01*
X125713Y365750D01*
Y364250D01*
X125859Y363141D01*
X126288Y362107D01*
X126969Y361219D01*
X127857Y360538D01*
X128891Y360109D01*
X130000Y359963D01*
X131109Y360109D01*
X132143Y360538D01*
X133031Y361219D01*
X133712Y362107D01*
X134141Y363141D01*
X134287Y364250D01*
Y365750D01*
X134141Y366860D01*
X133712Y367893D01*
X133031Y368781D01*
X132143Y369462D01*
X131109Y369891D01*
X130000Y370037D01*
D02*
G37*
G36*
X140000D02*
X138891Y369891D01*
X137857Y369462D01*
X136969Y368781D01*
X136288Y367893D01*
X135859Y366860D01*
X135713Y365750D01*
Y364250D01*
X135859Y363141D01*
X136288Y362107D01*
X136969Y361219D01*
X137857Y360538D01*
X138891Y360109D01*
X140000Y359963D01*
X141110Y360109D01*
X142143Y360538D01*
X143031Y361219D01*
X143712Y362107D01*
X144141Y363141D01*
X144287Y364250D01*
Y365750D01*
X144141Y366860D01*
X143712Y367893D01*
X143031Y368781D01*
X142143Y369462D01*
X141110Y369891D01*
X140000Y370037D01*
D02*
G37*
G36*
X290000D02*
X288891Y369891D01*
X287857Y369462D01*
X286969Y368781D01*
X286288Y367893D01*
X285859Y366860D01*
X285713Y365750D01*
Y364250D01*
X285859Y363141D01*
X286288Y362107D01*
X286969Y361219D01*
X287857Y360538D01*
X288891Y360109D01*
X290000Y359963D01*
X291109Y360109D01*
X292143Y360538D01*
X293031Y361219D01*
X293712Y362107D01*
X294141Y363141D01*
X294287Y364250D01*
Y365750D01*
X294141Y366860D01*
X293712Y367893D01*
X293031Y368781D01*
X292143Y369462D01*
X291109Y369891D01*
X290000Y370037D01*
D02*
G37*
G36*
X300000D02*
X298890Y369891D01*
X297857Y369462D01*
X296969Y368781D01*
X296288Y367893D01*
X295859Y366860D01*
X295713Y365750D01*
Y364250D01*
X295859Y363141D01*
X296288Y362107D01*
X296969Y361219D01*
X297857Y360538D01*
X298890Y360109D01*
X300000Y359963D01*
X301110Y360109D01*
X302143Y360538D01*
X303031Y361219D01*
X303712Y362107D01*
X304141Y363141D01*
X304287Y364250D01*
Y365750D01*
X304141Y366860D01*
X303712Y367893D01*
X303031Y368781D01*
X302143Y369462D01*
X301110Y369891D01*
X300000Y370037D01*
D02*
G37*
G36*
X310000D02*
X308891Y369891D01*
X307857Y369462D01*
X306969Y368781D01*
X306288Y367893D01*
X305859Y366860D01*
X305713Y365750D01*
Y364250D01*
X305859Y363141D01*
X306288Y362107D01*
X306969Y361219D01*
X307857Y360538D01*
X308891Y360109D01*
X310000Y359963D01*
X311109Y360109D01*
X312143Y360538D01*
X313031Y361219D01*
X313712Y362107D01*
X314141Y363141D01*
X314287Y364250D01*
Y365750D01*
X314141Y366860D01*
X313712Y367893D01*
X313031Y368781D01*
X312143Y369462D01*
X311109Y369891D01*
X310000Y370037D01*
D02*
G37*
G36*
X247500D02*
X246391Y369891D01*
X245357Y369462D01*
X244469Y368781D01*
X243788Y367893D01*
X243359Y366860D01*
X243213Y365750D01*
Y364250D01*
X243359Y363141D01*
X243788Y362107D01*
X244469Y361219D01*
X245357Y360538D01*
X246391Y360109D01*
X247500Y359963D01*
X248609Y360109D01*
X249643Y360538D01*
X250531Y361219D01*
X251212Y362107D01*
X251641Y363141D01*
X251787Y364250D01*
Y365750D01*
X251641Y366860D01*
X251212Y367893D01*
X250531Y368781D01*
X249643Y369462D01*
X248609Y369891D01*
X247500Y370037D01*
D02*
G37*
G36*
X257500D02*
X256391Y369891D01*
X255357Y369462D01*
X254469Y368781D01*
X253788Y367893D01*
X253359Y366860D01*
X253213Y365750D01*
Y364250D01*
X253359Y363141D01*
X253788Y362107D01*
X254469Y361219D01*
X255357Y360538D01*
X256391Y360109D01*
X257500Y359963D01*
X258610Y360109D01*
X259643Y360538D01*
X260531Y361219D01*
X261212Y362107D01*
X261641Y363141D01*
X261787Y364250D01*
Y365750D01*
X261641Y366860D01*
X261212Y367893D01*
X260531Y368781D01*
X259643Y369462D01*
X258610Y369891D01*
X257500Y370037D01*
D02*
G37*
G36*
X280000D02*
X278890Y369891D01*
X277857Y369462D01*
X276969Y368781D01*
X276288Y367893D01*
X275859Y366860D01*
X275713Y365750D01*
Y364250D01*
X275859Y363141D01*
X276288Y362107D01*
X276969Y361219D01*
X277857Y360538D01*
X278890Y360109D01*
X280000Y359963D01*
X281109Y360109D01*
X282143Y360538D01*
X283031Y361219D01*
X283712Y362107D01*
X284141Y363141D01*
X284287Y364250D01*
Y365750D01*
X284141Y366860D01*
X283712Y367893D01*
X283031Y368781D01*
X282143Y369462D01*
X281109Y369891D01*
X280000Y370037D01*
D02*
G37*
G36*
X87500D02*
X86391Y369891D01*
X85357Y369462D01*
X84469Y368781D01*
X83788Y367893D01*
X83359Y366860D01*
X83213Y365750D01*
Y364250D01*
X83359Y363141D01*
X83788Y362107D01*
X84469Y361219D01*
X85357Y360538D01*
X86391Y360109D01*
X87500Y359963D01*
X88609Y360109D01*
X89643Y360538D01*
X90531Y361219D01*
X91212Y362107D01*
X91641Y363141D01*
X91787Y364250D01*
Y365750D01*
X91641Y366860D01*
X91212Y367893D01*
X90531Y368781D01*
X89643Y369462D01*
X88609Y369891D01*
X87500Y370037D01*
D02*
G37*
G36*
X345957Y345957D02*
X335620D01*
X335715Y344755D01*
X336113Y343096D01*
X336766Y341519D01*
X337658Y340064D01*
X338766Y338766D01*
X340064Y337658D01*
X341519Y336766D01*
X343096Y336113D01*
X344755Y335715D01*
X345957Y335620D01*
Y345957D01*
D02*
G37*
G36*
X357293D02*
X346957D01*
Y335620D01*
X348158Y335715D01*
X349818Y336113D01*
X351394Y336766D01*
X352850Y337658D01*
X354147Y338766D01*
X355256Y340064D01*
X356147Y341519D01*
X356800Y343096D01*
X357199Y344755D01*
X357293Y345957D01*
D02*
G37*
G36*
X38870Y357293D02*
X37669Y357199D01*
X36009Y356800D01*
X34433Y356147D01*
X32977Y355256D01*
X31680Y354147D01*
X30571Y352850D01*
X29680Y351394D01*
X29026Y349818D01*
X28628Y348158D01*
X28533Y346957D01*
X38870D01*
Y357293D01*
D02*
G37*
G36*
X50207Y345957D02*
X39870D01*
Y335620D01*
X41072Y335715D01*
X42731Y336113D01*
X44308Y336766D01*
X45763Y337658D01*
X47061Y338766D01*
X48169Y340064D01*
X49061Y341519D01*
X49714Y343096D01*
X50112Y344755D01*
X50207Y345957D01*
D02*
G37*
G36*
X192413D02*
X182077D01*
X182171Y344755D01*
X182570Y343096D01*
X183223Y341519D01*
X184115Y340064D01*
X185223Y338766D01*
X186521Y337658D01*
X187976Y336766D01*
X189552Y336113D01*
X191212Y335715D01*
X192413Y335620D01*
Y345957D01*
D02*
G37*
G36*
X203750D02*
X193413D01*
Y335620D01*
X194615Y335715D01*
X196274Y336113D01*
X197851Y336766D01*
X199306Y337658D01*
X200604Y338766D01*
X201712Y340064D01*
X202604Y341519D01*
X203257Y343096D01*
X203656Y344755D01*
X203750Y345957D01*
D02*
G37*
G36*
X345957Y357293D02*
X344755Y357199D01*
X343096Y356800D01*
X341519Y356147D01*
X340064Y355256D01*
X338766Y354147D01*
X337658Y352850D01*
X336766Y351394D01*
X336113Y349818D01*
X335715Y348158D01*
X335620Y346957D01*
X345957D01*
Y357293D01*
D02*
G37*
G36*
X346957D02*
Y346957D01*
X357293D01*
X357199Y348158D01*
X356800Y349818D01*
X356147Y351394D01*
X355256Y352850D01*
X354147Y354147D01*
X352850Y355256D01*
X351394Y356147D01*
X349818Y356800D01*
X348158Y357199D01*
X346957Y357293D01*
D02*
G37*
G36*
X320000Y370037D02*
X318891Y369891D01*
X317857Y369462D01*
X316969Y368781D01*
X316288Y367893D01*
X315859Y366860D01*
X315713Y365750D01*
Y364250D01*
X315859Y363141D01*
X316288Y362107D01*
X316969Y361219D01*
X317857Y360538D01*
X318471Y360283D01*
Y355633D01*
X316866Y354029D01*
X270634D01*
X269029Y355633D01*
Y360283D01*
X269643Y360538D01*
X270531Y361219D01*
X271212Y362107D01*
X271641Y363141D01*
X271787Y364250D01*
Y365750D01*
X271641Y366860D01*
X271212Y367893D01*
X270531Y368781D01*
X269643Y369462D01*
X268609Y369891D01*
X267500Y370037D01*
X266390Y369891D01*
X265357Y369462D01*
X264469Y368781D01*
X263788Y367893D01*
X263359Y366860D01*
X263213Y365750D01*
Y364250D01*
X263359Y363141D01*
X263788Y362107D01*
X264469Y361219D01*
X265357Y360538D01*
X265971Y360283D01*
Y355000D01*
X266064Y354529D01*
X265789Y354029D01*
X229015D01*
X228430Y353913D01*
X227933Y353581D01*
X202381Y328029D01*
X185119D01*
X160648Y352500D01*
X161081Y352933D01*
X161413Y353430D01*
X161529Y354015D01*
Y360283D01*
X162143Y360538D01*
X163031Y361219D01*
X163712Y362107D01*
X164141Y363141D01*
X164287Y364250D01*
Y365750D01*
X164141Y366860D01*
X163712Y367893D01*
X163031Y368781D01*
X162143Y369462D01*
X161109Y369891D01*
X160000Y370037D01*
X158890Y369891D01*
X157857Y369462D01*
X156969Y368781D01*
X156288Y367893D01*
X155859Y366860D01*
X155713Y365750D01*
Y364250D01*
X155859Y363141D01*
X156288Y362107D01*
X156969Y361219D01*
X157857Y360538D01*
X158471Y360283D01*
Y354648D01*
X157852Y354029D01*
X110634D01*
X109029Y355633D01*
Y360283D01*
X109643Y360538D01*
X110531Y361219D01*
X111212Y362107D01*
X111641Y363141D01*
X111787Y364250D01*
Y365750D01*
X111641Y366860D01*
X111212Y367893D01*
X110531Y368781D01*
X109643Y369462D01*
X108609Y369891D01*
X107500Y370037D01*
X106391Y369891D01*
X105357Y369462D01*
X104469Y368781D01*
X103788Y367893D01*
X103359Y366860D01*
X103213Y365750D01*
Y364250D01*
X103359Y363141D01*
X103788Y362107D01*
X104469Y361219D01*
X105357Y360538D01*
X105971Y360283D01*
Y355000D01*
X106087Y354415D01*
X106419Y353919D01*
X108919Y351419D01*
X109415Y351087D01*
X110000Y350971D01*
X157852D01*
X159331Y349491D01*
X159140Y349029D01*
X151624D01*
X151586Y349086D01*
X150858Y349572D01*
X150000Y349743D01*
X149142Y349572D01*
X148414Y349086D01*
X148376Y349029D01*
X100634D01*
X99029Y350634D01*
Y360283D01*
X99643Y360538D01*
X100531Y361219D01*
X101212Y362107D01*
X101641Y363141D01*
X101787Y364250D01*
Y365750D01*
X101641Y366860D01*
X101212Y367893D01*
X100531Y368781D01*
X99643Y369462D01*
X98610Y369891D01*
X97500Y370037D01*
X96390Y369891D01*
X95357Y369462D01*
X94469Y368781D01*
X93788Y367893D01*
X93359Y366860D01*
X93213Y365750D01*
Y364250D01*
X93359Y363141D01*
X93788Y362107D01*
X94469Y361219D01*
X95357Y360538D01*
X95971Y360283D01*
Y350000D01*
X96087Y349415D01*
X96419Y348919D01*
X98919Y346419D01*
X99415Y346087D01*
X100000Y345971D01*
X148376D01*
X148414Y345914D01*
X149142Y345428D01*
X150000Y345257D01*
X150858Y345428D01*
X151586Y345914D01*
X151624Y345971D01*
X160023D01*
X161503Y344491D01*
X161311Y344029D01*
X131624D01*
X131586Y344086D01*
X130858Y344572D01*
X130000Y344743D01*
X129142Y344572D01*
X128414Y344086D01*
X128376Y344029D01*
X79663D01*
X79029Y344663D01*
Y360283D01*
X79643Y360538D01*
X80531Y361219D01*
X81212Y362107D01*
X81641Y363141D01*
X81787Y364250D01*
Y365750D01*
X81641Y366860D01*
X81212Y367893D01*
X80531Y368781D01*
X79643Y369462D01*
X78610Y369891D01*
X77500Y370037D01*
X76390Y369891D01*
X75357Y369462D01*
X74469Y368781D01*
X73788Y367893D01*
X73359Y366860D01*
X73213Y365750D01*
Y364250D01*
X73359Y363141D01*
X73788Y362107D01*
X74469Y361219D01*
X75357Y360538D01*
X75971Y360283D01*
Y344029D01*
X76087Y343444D01*
X76419Y342948D01*
X77948Y341419D01*
X78444Y341087D01*
X79029Y340971D01*
X128376D01*
X128414Y340914D01*
X129142Y340428D01*
X130000Y340257D01*
X130858Y340428D01*
X131586Y340914D01*
X131624Y340971D01*
X162195D01*
X163674Y339491D01*
X163483Y339029D01*
X121624D01*
X121586Y339086D01*
X120858Y339572D01*
X120000Y339743D01*
X119142Y339572D01*
X118414Y339086D01*
X118376Y339029D01*
X70805D01*
X69029Y340805D01*
Y360283D01*
X69643Y360538D01*
X70531Y361219D01*
X71212Y362107D01*
X71641Y363141D01*
X71787Y364250D01*
Y365750D01*
X71641Y366860D01*
X71212Y367893D01*
X70531Y368781D01*
X69643Y369462D01*
X68609Y369891D01*
X67500Y370037D01*
X66391Y369891D01*
X65357Y369462D01*
X64469Y368781D01*
X63788Y367893D01*
X63359Y366860D01*
X63213Y365750D01*
Y364250D01*
X63359Y363141D01*
X63788Y362107D01*
X64469Y361219D01*
X65357Y360538D01*
X65971Y360283D01*
Y340000D01*
X66087Y339415D01*
X66419Y338919D01*
X66915Y338587D01*
X66923Y338585D01*
X69090Y336419D01*
X69586Y336087D01*
X70172Y335971D01*
X118376D01*
X118414Y335914D01*
X119142Y335428D01*
X120000Y335257D01*
X120858Y335428D01*
X121586Y335914D01*
X121624Y335971D01*
X164366D01*
X165846Y334491D01*
X165654Y334029D01*
X121624D01*
X121586Y334086D01*
X120858Y334572D01*
X120000Y334743D01*
X119142Y334572D01*
X118414Y334086D01*
X118376Y334029D01*
X70000D01*
X69415Y333913D01*
X68919Y333581D01*
X66419Y331081D01*
X66087Y330585D01*
X65971Y330000D01*
Y310000D01*
X63250D01*
Y300000D01*
X71750D01*
Y310000D01*
X69029D01*
Y329366D01*
X70634Y330971D01*
X118376D01*
X118414Y330914D01*
X119142Y330428D01*
X120000Y330257D01*
X120858Y330428D01*
X121586Y330914D01*
X121624Y330971D01*
X166538D01*
X168017Y329491D01*
X167826Y329029D01*
X131624D01*
X131586Y329086D01*
X130858Y329572D01*
X130000Y329743D01*
X129142Y329572D01*
X128414Y329086D01*
X128376Y329029D01*
X80000D01*
X79415Y328913D01*
X78919Y328581D01*
X76419Y326081D01*
X76087Y325585D01*
X75971Y325000D01*
Y309717D01*
X75357Y309462D01*
X74469Y308781D01*
X73788Y307893D01*
X73359Y306859D01*
X73213Y305750D01*
Y304250D01*
X73359Y303140D01*
X73788Y302107D01*
X74469Y301219D01*
X75357Y300538D01*
X76390Y300109D01*
X77500Y299963D01*
X78610Y300109D01*
X79643Y300538D01*
X80531Y301219D01*
X81212Y302107D01*
X81641Y303140D01*
X81787Y304250D01*
Y305750D01*
X81641Y306859D01*
X81212Y307893D01*
X80531Y308781D01*
X79643Y309462D01*
X79029Y309717D01*
Y324366D01*
X80633Y325971D01*
X128376D01*
X128414Y325914D01*
X129142Y325428D01*
X130000Y325257D01*
X130858Y325428D01*
X131586Y325914D01*
X131624Y325971D01*
X168710D01*
X170189Y324491D01*
X169998Y324029D01*
X151624D01*
X151586Y324086D01*
X150858Y324572D01*
X150000Y324743D01*
X149142Y324572D01*
X148414Y324086D01*
X148376Y324029D01*
X100000D01*
X99415Y323913D01*
X98919Y323581D01*
X96419Y321081D01*
X96087Y320585D01*
X95971Y320000D01*
Y309717D01*
X95357Y309462D01*
X94469Y308781D01*
X93788Y307893D01*
X93359Y306859D01*
X93213Y305750D01*
Y304250D01*
X93359Y303140D01*
X93788Y302107D01*
X94469Y301219D01*
X95357Y300538D01*
X96390Y300109D01*
X97500Y299963D01*
X98610Y300109D01*
X99643Y300538D01*
X100531Y301219D01*
X101212Y302107D01*
X101641Y303140D01*
X101787Y304250D01*
Y305750D01*
X101641Y306859D01*
X101212Y307893D01*
X100531Y308781D01*
X99643Y309462D01*
X99029Y309717D01*
Y319367D01*
X100634Y320971D01*
X148376D01*
X148414Y320914D01*
X149142Y320428D01*
X150000Y320257D01*
X150858Y320428D01*
X151586Y320914D01*
X151624Y320971D01*
X170881D01*
X172361Y319491D01*
X172169Y319029D01*
X110000D01*
X109415Y318913D01*
X108919Y318581D01*
X106419Y316081D01*
X106087Y315585D01*
X105971Y315000D01*
Y309717D01*
X105357Y309462D01*
X104469Y308781D01*
X103788Y307893D01*
X103359Y306859D01*
X103213Y305750D01*
Y304250D01*
X103359Y303140D01*
X103788Y302107D01*
X104469Y301219D01*
X105357Y300538D01*
X106391Y300109D01*
X107500Y299963D01*
X108609Y300109D01*
X109643Y300538D01*
X110531Y301219D01*
X111212Y302107D01*
X111641Y303140D01*
X111787Y304250D01*
Y305750D01*
X111641Y306859D01*
X111212Y307893D01*
X110531Y308781D01*
X109643Y309462D01*
X109029Y309717D01*
Y314367D01*
X110634Y315971D01*
X158289D01*
X158564Y315471D01*
X158471Y315000D01*
Y309717D01*
X157857Y309462D01*
X156969Y308781D01*
X156288Y307893D01*
X155859Y306859D01*
X155713Y305750D01*
Y304250D01*
X155859Y303140D01*
X156288Y302107D01*
X156969Y301219D01*
X157857Y300538D01*
X158890Y300109D01*
X160000Y299963D01*
X161109Y300109D01*
X162143Y300538D01*
X163031Y301219D01*
X163712Y302107D01*
X164141Y303140D01*
X164287Y304250D01*
Y305750D01*
X164141Y306859D01*
X163712Y307893D01*
X163031Y308781D01*
X162143Y309462D01*
X161529Y309717D01*
Y314367D01*
X163134Y315971D01*
X173053D01*
X177605Y311419D01*
X178101Y311087D01*
X178686Y310971D01*
X208814D01*
X209399Y311087D01*
X209895Y311419D01*
X214447Y315971D01*
X265789D01*
X266064Y315471D01*
X265971Y315000D01*
Y309717D01*
X265357Y309462D01*
X264469Y308781D01*
X263788Y307893D01*
X263359Y306859D01*
X263213Y305750D01*
Y304250D01*
X263359Y303140D01*
X263788Y302107D01*
X264469Y301219D01*
X265357Y300538D01*
X266390Y300109D01*
X267500Y299963D01*
X268609Y300109D01*
X269643Y300538D01*
X270531Y301219D01*
X271212Y302107D01*
X271641Y303140D01*
X271787Y304250D01*
Y305750D01*
X271641Y306859D01*
X271212Y307893D01*
X270531Y308781D01*
X269643Y309462D01*
X269029Y309717D01*
Y314367D01*
X270634Y315971D01*
X316866D01*
X318471Y314367D01*
Y309717D01*
X317857Y309462D01*
X316969Y308781D01*
X316288Y307893D01*
X315859Y306859D01*
X315713Y305750D01*
Y304250D01*
X315859Y303140D01*
X316288Y302107D01*
X316969Y301219D01*
X317857Y300538D01*
X318891Y300109D01*
X320000Y299963D01*
X321110Y300109D01*
X322143Y300538D01*
X323031Y301219D01*
X323712Y302107D01*
X324141Y303140D01*
X324287Y304250D01*
Y305750D01*
X324141Y306859D01*
X323712Y307893D01*
X323031Y308781D01*
X322143Y309462D01*
X321529Y309717D01*
Y315000D01*
X321413Y315585D01*
X321081Y316081D01*
X318581Y318581D01*
X318085Y318913D01*
X317500Y319029D01*
X215331D01*
X215140Y319491D01*
X216619Y320971D01*
X255876D01*
X255914Y320914D01*
X256642Y320428D01*
X257500Y320257D01*
X258358Y320428D01*
X259086Y320914D01*
X259124Y320971D01*
X308376D01*
X308414Y320914D01*
X309142Y320428D01*
X310000Y320257D01*
X310858Y320428D01*
X311586Y320914D01*
X312072Y321642D01*
X312243Y322500D01*
X312072Y323358D01*
X311586Y324086D01*
X310858Y324572D01*
X310000Y324743D01*
X309142Y324572D01*
X308414Y324086D01*
X308376Y324029D01*
X259124D01*
X259086Y324086D01*
X258358Y324572D01*
X257500Y324743D01*
X256642Y324572D01*
X255914Y324086D01*
X255876Y324029D01*
X217502D01*
X217311Y324491D01*
X218790Y325971D01*
X235876D01*
X235914Y325914D01*
X236642Y325428D01*
X237500Y325257D01*
X238358Y325428D01*
X239086Y325914D01*
X239124Y325971D01*
X288376D01*
X288414Y325914D01*
X289142Y325428D01*
X290000Y325257D01*
X290858Y325428D01*
X291586Y325914D01*
X292072Y326642D01*
X292243Y327500D01*
X292072Y328358D01*
X291586Y329086D01*
X290858Y329572D01*
X290000Y329743D01*
X289142Y329572D01*
X288414Y329086D01*
X288376Y329029D01*
X239124D01*
X239086Y329086D01*
X238358Y329572D01*
X237500Y329743D01*
X236642Y329572D01*
X235914Y329086D01*
X235876Y329029D01*
X219674D01*
X219483Y329491D01*
X220962Y330971D01*
X225876D01*
X225914Y330914D01*
X226642Y330428D01*
X227500Y330257D01*
X228358Y330428D01*
X229086Y330914D01*
X229124Y330971D01*
X278376D01*
X278414Y330914D01*
X279142Y330428D01*
X280000Y330257D01*
X280858Y330428D01*
X281586Y330914D01*
X282072Y331642D01*
X282243Y332500D01*
X282072Y333358D01*
X281586Y334086D01*
X280858Y334572D01*
X280000Y334743D01*
X279142Y334572D01*
X278414Y334086D01*
X278376Y334029D01*
X229124D01*
X229086Y334086D01*
X228358Y334572D01*
X227500Y334743D01*
X226642Y334572D01*
X225914Y334086D01*
X225876Y334029D01*
X221846D01*
X221654Y334491D01*
X223133Y335971D01*
X225876D01*
X225914Y335914D01*
X226642Y335428D01*
X227500Y335257D01*
X228358Y335428D01*
X229086Y335914D01*
X229124Y335971D01*
X278376D01*
X278414Y335914D01*
X279142Y335428D01*
X280000Y335257D01*
X280858Y335428D01*
X281586Y335914D01*
X282072Y336642D01*
X282243Y337500D01*
X282072Y338358D01*
X281586Y339086D01*
X280858Y339572D01*
X280000Y339743D01*
X279142Y339572D01*
X278414Y339086D01*
X278376Y339029D01*
X229124D01*
X229086Y339086D01*
X228358Y339572D01*
X227500Y339743D01*
X226642Y339572D01*
X225914Y339086D01*
X225876Y339029D01*
X224017D01*
X223826Y339491D01*
X225305Y340971D01*
X235876D01*
X235914Y340914D01*
X236642Y340428D01*
X237500Y340257D01*
X238358Y340428D01*
X239086Y340914D01*
X239124Y340971D01*
X288376D01*
X288414Y340914D01*
X289142Y340428D01*
X290000Y340257D01*
X290858Y340428D01*
X291586Y340914D01*
X292072Y341642D01*
X292243Y342500D01*
X292072Y343358D01*
X291586Y344086D01*
X290858Y344572D01*
X290000Y344743D01*
X289142Y344572D01*
X288414Y344086D01*
X288376Y344029D01*
X239124D01*
X239086Y344086D01*
X238358Y344572D01*
X237500Y344743D01*
X236642Y344572D01*
X235914Y344086D01*
X235876Y344029D01*
X226189D01*
X225997Y344491D01*
X227477Y345971D01*
X255876D01*
X255914Y345914D01*
X256642Y345428D01*
X257500Y345257D01*
X258358Y345428D01*
X259086Y345914D01*
X259124Y345971D01*
X308376D01*
X308414Y345914D01*
X309142Y345428D01*
X310000Y345257D01*
X310858Y345428D01*
X311586Y345914D01*
X312072Y346642D01*
X312243Y347500D01*
X312072Y348358D01*
X311586Y349086D01*
X310858Y349572D01*
X310000Y349743D01*
X309142Y349572D01*
X308414Y349086D01*
X308376Y349029D01*
X259124D01*
X259086Y349086D01*
X258358Y349572D01*
X257500Y349743D01*
X256642Y349572D01*
X255914Y349086D01*
X255876Y349029D01*
X228360D01*
X228169Y349491D01*
X229648Y350971D01*
X317500D01*
X318085Y351087D01*
X318581Y351419D01*
X321081Y353919D01*
X321413Y354415D01*
X321529Y355000D01*
Y360283D01*
X322143Y360538D01*
X323031Y361219D01*
X323712Y362107D01*
X324141Y363141D01*
X324287Y364250D01*
Y365750D01*
X324141Y366860D01*
X323712Y367893D01*
X323031Y368781D01*
X322143Y369462D01*
X321110Y369891D01*
X320000Y370037D01*
D02*
G37*
G36*
X39870Y357293D02*
Y346957D01*
X50207D01*
X50112Y348158D01*
X49714Y349818D01*
X49061Y351394D01*
X48169Y352850D01*
X47061Y354147D01*
X45763Y355256D01*
X44308Y356147D01*
X42731Y356800D01*
X41072Y357199D01*
X39870Y357293D01*
D02*
G37*
G36*
X192413D02*
X191212Y357199D01*
X189552Y356800D01*
X187976Y356147D01*
X186521Y355256D01*
X185223Y354147D01*
X184115Y352850D01*
X183223Y351394D01*
X182570Y349818D01*
X182171Y348158D01*
X182077Y346957D01*
X192413D01*
Y357293D01*
D02*
G37*
G36*
X193413D02*
Y346957D01*
X203750D01*
X203656Y348158D01*
X203257Y349818D01*
X202604Y351394D01*
X201712Y352850D01*
X200604Y354147D01*
X199306Y355256D01*
X197851Y356147D01*
X196274Y356800D01*
X194615Y357199D01*
X193413Y357293D01*
D02*
G37*
G36*
X112500Y295037D02*
X111390Y294891D01*
X110357Y294462D01*
X109469Y293781D01*
X108788Y292893D01*
X108359Y291860D01*
X108213Y290750D01*
Y289250D01*
X108359Y288141D01*
X108788Y287107D01*
X109469Y286219D01*
X110357Y285538D01*
X111390Y285109D01*
X112500Y284963D01*
X113610Y285109D01*
X114643Y285538D01*
X115531Y286219D01*
X116212Y287107D01*
X116641Y288141D01*
X116787Y289250D01*
Y290750D01*
X116641Y291860D01*
X116212Y292893D01*
X115531Y293781D01*
X114643Y294462D01*
X113610Y294891D01*
X112500Y295037D01*
D02*
G37*
G36*
X165000Y220037D02*
X163891Y219891D01*
X162857Y219462D01*
X161969Y218781D01*
X161288Y217893D01*
X160859Y216860D01*
X160713Y215750D01*
Y214250D01*
X160859Y213141D01*
X161288Y212107D01*
X161969Y211219D01*
X162857Y210538D01*
X163891Y210109D01*
X165000Y209963D01*
X166110Y210109D01*
X167143Y210538D01*
X168031Y211219D01*
X168712Y212107D01*
X169141Y213141D01*
X169287Y214250D01*
Y215750D01*
X169141Y216860D01*
X168712Y217893D01*
X168031Y218781D01*
X167143Y219462D01*
X166110Y219891D01*
X165000Y220037D01*
D02*
G37*
G36*
X175000D02*
X173890Y219891D01*
X172857Y219462D01*
X171969Y218781D01*
X171288Y217893D01*
X170859Y216860D01*
X170713Y215750D01*
Y214250D01*
X170859Y213141D01*
X171288Y212107D01*
X171969Y211219D01*
X172857Y210538D01*
X173890Y210109D01*
X175000Y209963D01*
X176110Y210109D01*
X177143Y210538D01*
X178031Y211219D01*
X178712Y212107D01*
X179141Y213141D01*
X179287Y214250D01*
Y215750D01*
X179141Y216860D01*
X178712Y217893D01*
X178031Y218781D01*
X177143Y219462D01*
X176110Y219891D01*
X175000Y220037D01*
D02*
G37*
G36*
X197500D02*
X196390Y219891D01*
X195357Y219462D01*
X194469Y218781D01*
X193788Y217893D01*
X193359Y216860D01*
X193213Y215750D01*
Y214250D01*
X193359Y213141D01*
X193788Y212107D01*
X194469Y211219D01*
X195357Y210538D01*
X196390Y210109D01*
X197500Y209963D01*
X198609Y210109D01*
X199643Y210538D01*
X200531Y211219D01*
X201212Y212107D01*
X201641Y213141D01*
X201787Y214250D01*
Y215750D01*
X201641Y216860D01*
X201212Y217893D01*
X200531Y218781D01*
X199643Y219462D01*
X198609Y219891D01*
X197500Y220037D01*
D02*
G37*
G36*
X122500D02*
X121390Y219891D01*
X120357Y219462D01*
X119469Y218781D01*
X118788Y217893D01*
X118359Y216860D01*
X118213Y215750D01*
Y214250D01*
X118359Y213141D01*
X118788Y212107D01*
X119469Y211219D01*
X120357Y210538D01*
X121390Y210109D01*
X122500Y209963D01*
X123609Y210109D01*
X124643Y210538D01*
X125531Y211219D01*
X126212Y212107D01*
X126641Y213141D01*
X126787Y214250D01*
Y215750D01*
X126641Y216860D01*
X126212Y217893D01*
X125531Y218781D01*
X124643Y219462D01*
X123609Y219891D01*
X122500Y220037D01*
D02*
G37*
G36*
X145000D02*
X143891Y219891D01*
X142857Y219462D01*
X141969Y218781D01*
X141288Y217893D01*
X140859Y216860D01*
X140713Y215750D01*
Y214250D01*
X140859Y213141D01*
X141288Y212107D01*
X141969Y211219D01*
X142857Y210538D01*
X143891Y210109D01*
X145000Y209963D01*
X146109Y210109D01*
X147143Y210538D01*
X148031Y211219D01*
X148712Y212107D01*
X149141Y213141D01*
X149287Y214250D01*
Y215750D01*
X149141Y216860D01*
X148712Y217893D01*
X148031Y218781D01*
X147143Y219462D01*
X146109Y219891D01*
X145000Y220037D01*
D02*
G37*
G36*
X155000D02*
X153891Y219891D01*
X152857Y219462D01*
X151969Y218781D01*
X151288Y217893D01*
X150859Y216860D01*
X150713Y215750D01*
Y214250D01*
X150859Y213141D01*
X151288Y212107D01*
X151969Y211219D01*
X152857Y210538D01*
X153891Y210109D01*
X155000Y209963D01*
X156109Y210109D01*
X157143Y210538D01*
X158031Y211219D01*
X158712Y212107D01*
X159141Y213141D01*
X159287Y214250D01*
Y215750D01*
X159141Y216860D01*
X158712Y217893D01*
X158031Y218781D01*
X157143Y219462D01*
X156109Y219891D01*
X155000Y220037D01*
D02*
G37*
G36*
X250000D02*
X248890Y219891D01*
X247857Y219462D01*
X246969Y218781D01*
X246288Y217893D01*
X245859Y216860D01*
X245713Y215750D01*
Y214250D01*
X245859Y213141D01*
X246288Y212107D01*
X246969Y211219D01*
X247857Y210538D01*
X248890Y210109D01*
X250000Y209963D01*
X251110Y210109D01*
X252143Y210538D01*
X253031Y211219D01*
X253712Y212107D01*
X254141Y213141D01*
X254287Y214250D01*
Y215750D01*
X254141Y216860D01*
X253712Y217893D01*
X253031Y218781D01*
X252143Y219462D01*
X251110Y219891D01*
X250000Y220037D01*
D02*
G37*
G36*
X260000D02*
X258891Y219891D01*
X257857Y219462D01*
X256969Y218781D01*
X256288Y217893D01*
X255859Y216860D01*
X255713Y215750D01*
Y214250D01*
X255859Y213141D01*
X256288Y212107D01*
X256969Y211219D01*
X257857Y210538D01*
X258891Y210109D01*
X260000Y209963D01*
X261109Y210109D01*
X262143Y210538D01*
X263031Y211219D01*
X263712Y212107D01*
X264141Y213141D01*
X264287Y214250D01*
Y215750D01*
X264141Y216860D01*
X263712Y217893D01*
X263031Y218781D01*
X262143Y219462D01*
X261109Y219891D01*
X260000Y220037D01*
D02*
G37*
G36*
X270000D02*
X268891Y219891D01*
X267857Y219462D01*
X266969Y218781D01*
X266288Y217893D01*
X265859Y216860D01*
X265713Y215750D01*
Y214250D01*
X265859Y213141D01*
X266288Y212107D01*
X266969Y211219D01*
X267857Y210538D01*
X268891Y210109D01*
X270000Y209963D01*
X271110Y210109D01*
X272143Y210538D01*
X273031Y211219D01*
X273712Y212107D01*
X274141Y213141D01*
X274287Y214250D01*
Y215750D01*
X274141Y216860D01*
X273712Y217893D01*
X273031Y218781D01*
X272143Y219462D01*
X271110Y219891D01*
X270000Y220037D01*
D02*
G37*
G36*
X207500D02*
X206391Y219891D01*
X205357Y219462D01*
X204469Y218781D01*
X203788Y217893D01*
X203359Y216860D01*
X203213Y215750D01*
Y214250D01*
X203359Y213141D01*
X203788Y212107D01*
X204469Y211219D01*
X205357Y210538D01*
X206391Y210109D01*
X207500Y209963D01*
X208610Y210109D01*
X209643Y210538D01*
X210531Y211219D01*
X211212Y212107D01*
X211641Y213141D01*
X211787Y214250D01*
Y215750D01*
X211641Y216860D01*
X211212Y217893D01*
X210531Y218781D01*
X209643Y219462D01*
X208610Y219891D01*
X207500Y220037D01*
D02*
G37*
G36*
X217500D02*
X216390Y219891D01*
X215357Y219462D01*
X214469Y218781D01*
X213788Y217893D01*
X213359Y216860D01*
X213213Y215750D01*
Y214250D01*
X213359Y213141D01*
X213788Y212107D01*
X214469Y211219D01*
X215357Y210538D01*
X216390Y210109D01*
X217500Y209963D01*
X218609Y210109D01*
X219643Y210538D01*
X220531Y211219D01*
X221212Y212107D01*
X221641Y213141D01*
X221787Y214250D01*
Y215750D01*
X221641Y216860D01*
X221212Y217893D01*
X220531Y218781D01*
X219643Y219462D01*
X218609Y219891D01*
X217500Y220037D01*
D02*
G37*
G36*
X227500D02*
X226391Y219891D01*
X225357Y219462D01*
X224469Y218781D01*
X223788Y217893D01*
X223359Y216860D01*
X223213Y215750D01*
Y214250D01*
X223359Y213141D01*
X223788Y212107D01*
X224469Y211219D01*
X225357Y210538D01*
X226391Y210109D01*
X227500Y209963D01*
X228609Y210109D01*
X229643Y210538D01*
X230531Y211219D01*
X231212Y212107D01*
X231641Y213141D01*
X231787Y214250D01*
Y215750D01*
X231641Y216860D01*
X231212Y217893D01*
X230531Y218781D01*
X229643Y219462D01*
X228609Y219891D01*
X227500Y220037D01*
D02*
G37*
G36*
X112500D02*
X111390Y219891D01*
X110357Y219462D01*
X109469Y218781D01*
X108788Y217893D01*
X108359Y216860D01*
X108213Y215750D01*
Y214250D01*
X108359Y213141D01*
X108788Y212107D01*
X109469Y211219D01*
X110357Y210538D01*
X111390Y210109D01*
X112500Y209963D01*
X113610Y210109D01*
X114643Y210538D01*
X115531Y211219D01*
X116212Y212107D01*
X116641Y213141D01*
X116787Y214250D01*
Y215750D01*
X116641Y216860D01*
X116212Y217893D01*
X115531Y218781D01*
X114643Y219462D01*
X113610Y219891D01*
X112500Y220037D01*
D02*
G37*
G36*
X359000Y179743D02*
X358142Y179572D01*
X357414Y179086D01*
X357376Y179029D01*
X314124D01*
X314086Y179086D01*
X313358Y179572D01*
X312500Y179743D01*
X311642Y179572D01*
X310914Y179086D01*
X310876Y179029D01*
X261624D01*
X261586Y179086D01*
X260858Y179572D01*
X260000Y179743D01*
X259142Y179572D01*
X258414Y179086D01*
X258376Y179029D01*
X209124D01*
X209086Y179086D01*
X208358Y179572D01*
X207500Y179743D01*
X206642Y179572D01*
X205914Y179086D01*
X205876Y179029D01*
X156624D01*
X156586Y179086D01*
X155858Y179572D01*
X155000Y179743D01*
X154142Y179572D01*
X153414Y179086D01*
X153376Y179029D01*
X104124D01*
X104086Y179086D01*
X103358Y179572D01*
X102500Y179743D01*
X101642Y179572D01*
X100914Y179086D01*
X100876Y179029D01*
X52500D01*
X51915Y178913D01*
X51419Y178581D01*
X48919Y176081D01*
X48587Y175585D01*
X48471Y175000D01*
Y159717D01*
X47857Y159462D01*
X46969Y158781D01*
X46288Y157893D01*
X45859Y156860D01*
X45713Y155750D01*
Y154250D01*
X45859Y153140D01*
X46288Y152107D01*
X46969Y151219D01*
X47857Y150538D01*
X48891Y150109D01*
X50000Y149963D01*
X51109Y150109D01*
X52143Y150538D01*
X53031Y151219D01*
X53712Y152107D01*
X54141Y153140D01*
X54287Y154250D01*
Y155750D01*
X54141Y156860D01*
X53712Y157893D01*
X53031Y158781D01*
X52143Y159462D01*
X51529Y159717D01*
Y174366D01*
X53133Y175971D01*
X100876D01*
X100914Y175914D01*
X101642Y175428D01*
X102500Y175257D01*
X103358Y175428D01*
X104086Y175914D01*
X104124Y175971D01*
X153376D01*
X153414Y175914D01*
X154142Y175428D01*
X155000Y175257D01*
X155858Y175428D01*
X156586Y175914D01*
X156624Y175971D01*
X205876D01*
X205914Y175914D01*
X206642Y175428D01*
X207500Y175257D01*
X208358Y175428D01*
X209086Y175914D01*
X209124Y175971D01*
X258376D01*
X258414Y175914D01*
X259142Y175428D01*
X260000Y175257D01*
X260858Y175428D01*
X261586Y175914D01*
X261624Y175971D01*
X310876D01*
X310914Y175914D01*
X311642Y175428D01*
X312500Y175257D01*
X313358Y175428D01*
X314086Y175914D01*
X314124Y175971D01*
X357376D01*
X357414Y175914D01*
X358142Y175428D01*
X359000Y175257D01*
X359858Y175428D01*
X360586Y175914D01*
X361072Y176642D01*
X361243Y177500D01*
X361072Y178358D01*
X360586Y179086D01*
X359858Y179572D01*
X359000Y179743D01*
D02*
G37*
G36*
X362500Y184743D02*
X361642Y184572D01*
X360914Y184086D01*
X360876Y184029D01*
X304124D01*
X304086Y184086D01*
X303358Y184572D01*
X302500Y184743D01*
X301642Y184572D01*
X300914Y184086D01*
X300876Y184029D01*
X251624D01*
X251586Y184086D01*
X250858Y184572D01*
X250000Y184743D01*
X249142Y184572D01*
X248414Y184086D01*
X248376Y184029D01*
X199124D01*
X199086Y184086D01*
X198358Y184572D01*
X197500Y184743D01*
X196642Y184572D01*
X195914Y184086D01*
X195876Y184029D01*
X146624D01*
X146586Y184086D01*
X145858Y184572D01*
X145000Y184743D01*
X144142Y184572D01*
X143414Y184086D01*
X143376Y184029D01*
X94124D01*
X94086Y184086D01*
X93358Y184572D01*
X92500Y184743D01*
X91642Y184572D01*
X90914Y184086D01*
X90876Y184029D01*
X42500D01*
X41915Y183913D01*
X41419Y183581D01*
X38919Y181081D01*
X38587Y180585D01*
X38471Y180000D01*
Y160000D01*
X35750D01*
Y150000D01*
X44250D01*
Y160000D01*
X41529D01*
Y179367D01*
X43134Y180971D01*
X90876D01*
X90914Y180914D01*
X91642Y180428D01*
X92500Y180257D01*
X93358Y180428D01*
X94086Y180914D01*
X94124Y180971D01*
X143376D01*
X143414Y180914D01*
X144142Y180428D01*
X145000Y180257D01*
X145858Y180428D01*
X146586Y180914D01*
X146624Y180971D01*
X195876D01*
X195914Y180914D01*
X196642Y180428D01*
X197500Y180257D01*
X198358Y180428D01*
X199086Y180914D01*
X199124Y180971D01*
X248376D01*
X248414Y180914D01*
X249142Y180428D01*
X250000Y180257D01*
X250858Y180428D01*
X251586Y180914D01*
X251624Y180971D01*
X300876D01*
X300914Y180914D01*
X301642Y180428D01*
X302500Y180257D01*
X303358Y180428D01*
X304086Y180914D01*
X304124Y180971D01*
X360876D01*
X360914Y180914D01*
X361642Y180428D01*
X362500Y180257D01*
X363358Y180428D01*
X364086Y180914D01*
X364572Y181642D01*
X364743Y182500D01*
X364572Y183358D01*
X364086Y184086D01*
X363358Y184572D01*
X362500Y184743D01*
D02*
G37*
G36*
X40000Y220037D02*
X38890Y219891D01*
X37857Y219462D01*
X36969Y218781D01*
X36288Y217893D01*
X35859Y216860D01*
X35713Y215750D01*
Y214250D01*
X35859Y213141D01*
X36288Y212107D01*
X36969Y211219D01*
X37857Y210538D01*
X38471Y210283D01*
Y190000D01*
X38587Y189415D01*
X38919Y188919D01*
X39415Y188587D01*
X39423Y188585D01*
X41590Y186419D01*
X42086Y186087D01*
X42672Y185971D01*
X90876D01*
X90914Y185914D01*
X91642Y185428D01*
X92500Y185257D01*
X93358Y185428D01*
X94086Y185914D01*
X94124Y185971D01*
X143376D01*
X143414Y185914D01*
X144142Y185428D01*
X145000Y185257D01*
X145858Y185428D01*
X146586Y185914D01*
X146624Y185971D01*
X195876D01*
X195914Y185914D01*
X196642Y185428D01*
X197500Y185257D01*
X198358Y185428D01*
X199086Y185914D01*
X199124Y185971D01*
X248376D01*
X248414Y185914D01*
X249142Y185428D01*
X250000Y185257D01*
X250858Y185428D01*
X251586Y185914D01*
X251624Y185971D01*
X300876D01*
X300914Y185914D01*
X301642Y185428D01*
X302500Y185257D01*
X303358Y185428D01*
X304086Y185914D01*
X304124Y185971D01*
X364376D01*
X364414Y185914D01*
X365142Y185428D01*
X366000Y185257D01*
X366858Y185428D01*
X367586Y185914D01*
X368072Y186642D01*
X368243Y187500D01*
X368072Y188358D01*
X367586Y189086D01*
X366858Y189572D01*
X366000Y189743D01*
X365142Y189572D01*
X364414Y189086D01*
X364376Y189029D01*
X304124D01*
X304086Y189086D01*
X303358Y189572D01*
X302500Y189743D01*
X301642Y189572D01*
X300914Y189086D01*
X300876Y189029D01*
X251624D01*
X251586Y189086D01*
X250858Y189572D01*
X250000Y189743D01*
X249142Y189572D01*
X248414Y189086D01*
X248376Y189029D01*
X199124D01*
X199086Y189086D01*
X198358Y189572D01*
X197500Y189743D01*
X196642Y189572D01*
X195914Y189086D01*
X195876Y189029D01*
X146624D01*
X146586Y189086D01*
X145858Y189572D01*
X145000Y189743D01*
X144142Y189572D01*
X143414Y189086D01*
X143376Y189029D01*
X94124D01*
X94086Y189086D01*
X93358Y189572D01*
X92500Y189743D01*
X91642Y189572D01*
X90914Y189086D01*
X90876Y189029D01*
X43305D01*
X41529Y190805D01*
Y210283D01*
X42143Y210538D01*
X43031Y211219D01*
X43712Y212107D01*
X44141Y213141D01*
X44287Y214250D01*
Y215750D01*
X44141Y216860D01*
X43712Y217893D01*
X43031Y218781D01*
X42143Y219462D01*
X41109Y219891D01*
X40000Y220037D01*
D02*
G37*
G36*
X306750Y160000D02*
X298250D01*
Y150000D01*
X306750D01*
Y160000D01*
D02*
G37*
G36*
X352500Y169743D02*
X351642Y169572D01*
X350914Y169086D01*
X350876Y169029D01*
X82500D01*
X81915Y168913D01*
X81419Y168581D01*
X78919Y166081D01*
X78587Y165585D01*
X78471Y165000D01*
Y159717D01*
X77857Y159462D01*
X76969Y158781D01*
X76288Y157893D01*
X75859Y156860D01*
X75713Y155750D01*
Y154250D01*
X75859Y153140D01*
X76288Y152107D01*
X76969Y151219D01*
X77857Y150538D01*
X78891Y150109D01*
X80000Y149963D01*
X81109Y150109D01*
X82143Y150538D01*
X83031Y151219D01*
X83712Y152107D01*
X84141Y153140D01*
X84287Y154250D01*
Y155750D01*
X84141Y156860D01*
X83712Y157893D01*
X83031Y158781D01*
X82143Y159462D01*
X81529Y159717D01*
Y164366D01*
X83134Y165971D01*
X130789D01*
X131064Y165471D01*
X130971Y165000D01*
Y159717D01*
X130357Y159462D01*
X129469Y158781D01*
X128788Y157893D01*
X128359Y156860D01*
X128213Y155750D01*
Y154250D01*
X128359Y153140D01*
X128788Y152107D01*
X129469Y151219D01*
X130357Y150538D01*
X131391Y150109D01*
X132500Y149963D01*
X133609Y150109D01*
X134643Y150538D01*
X135531Y151219D01*
X136212Y152107D01*
X136641Y153140D01*
X136787Y154250D01*
Y155750D01*
X136641Y156860D01*
X136212Y157893D01*
X135531Y158781D01*
X134643Y159462D01*
X134029Y159717D01*
Y164366D01*
X135634Y165971D01*
X183289D01*
X183564Y165471D01*
X183471Y165000D01*
Y159717D01*
X182857Y159462D01*
X181969Y158781D01*
X181288Y157893D01*
X180859Y156860D01*
X180713Y155750D01*
Y154250D01*
X180859Y153140D01*
X181288Y152107D01*
X181969Y151219D01*
X182857Y150538D01*
X183890Y150109D01*
X185000Y149963D01*
X186109Y150109D01*
X187143Y150538D01*
X188031Y151219D01*
X188712Y152107D01*
X189141Y153140D01*
X189287Y154250D01*
Y155750D01*
X189141Y156860D01*
X188712Y157893D01*
X188031Y158781D01*
X187143Y159462D01*
X186529Y159717D01*
Y164366D01*
X188134Y165971D01*
X235789D01*
X236064Y165471D01*
X235971Y165000D01*
Y159717D01*
X235357Y159462D01*
X234469Y158781D01*
X233788Y157893D01*
X233359Y156860D01*
X233213Y155750D01*
Y154250D01*
X233359Y153140D01*
X233788Y152107D01*
X234469Y151219D01*
X235357Y150538D01*
X236390Y150109D01*
X237500Y149963D01*
X238610Y150109D01*
X239643Y150538D01*
X240531Y151219D01*
X241212Y152107D01*
X241641Y153140D01*
X241787Y154250D01*
Y155750D01*
X241641Y156860D01*
X241212Y157893D01*
X240531Y158781D01*
X239643Y159462D01*
X239029Y159717D01*
Y164366D01*
X240634Y165971D01*
X288289D01*
X288564Y165471D01*
X288471Y165000D01*
Y159717D01*
X287857Y159462D01*
X286969Y158781D01*
X286288Y157893D01*
X285859Y156860D01*
X285713Y155750D01*
Y154250D01*
X285859Y153140D01*
X286288Y152107D01*
X286969Y151219D01*
X287857Y150538D01*
X288891Y150109D01*
X290000Y149963D01*
X291109Y150109D01*
X292143Y150538D01*
X293031Y151219D01*
X293712Y152107D01*
X294141Y153140D01*
X294287Y154250D01*
Y155750D01*
X294141Y156860D01*
X293712Y157893D01*
X293031Y158781D01*
X292143Y159462D01*
X291529Y159717D01*
Y164366D01*
X293133Y165971D01*
X340789D01*
X341064Y165471D01*
X340971Y165000D01*
Y159717D01*
X340357Y159462D01*
X339469Y158781D01*
X338788Y157893D01*
X338359Y156860D01*
X338213Y155750D01*
Y154250D01*
X338359Y153140D01*
X338788Y152107D01*
X339469Y151219D01*
X340357Y150538D01*
X341390Y150109D01*
X342500Y149963D01*
X343609Y150109D01*
X344643Y150538D01*
X345531Y151219D01*
X346212Y152107D01*
X346641Y153140D01*
X346787Y154250D01*
Y155750D01*
X346641Y156860D01*
X346212Y157893D01*
X345531Y158781D01*
X344643Y159462D01*
X344029Y159717D01*
Y164366D01*
X345634Y165971D01*
X350876D01*
X350914Y165914D01*
X351642Y165428D01*
X352500Y165257D01*
X353358Y165428D01*
X354086Y165914D01*
X354572Y166642D01*
X354743Y167500D01*
X354572Y168358D01*
X354086Y169086D01*
X353358Y169572D01*
X352500Y169743D01*
D02*
G37*
G36*
X355500Y174743D02*
X354642Y174572D01*
X353914Y174086D01*
X353876Y174029D01*
X334124D01*
X334086Y174086D01*
X333358Y174572D01*
X332500Y174743D01*
X331642Y174572D01*
X330914Y174086D01*
X330876Y174029D01*
X281624D01*
X281586Y174086D01*
X280858Y174572D01*
X280000Y174743D01*
X279142Y174572D01*
X278414Y174086D01*
X278376Y174029D01*
X229124D01*
X229086Y174086D01*
X228358Y174572D01*
X227500Y174743D01*
X226642Y174572D01*
X225914Y174086D01*
X225876Y174029D01*
X176624D01*
X176586Y174086D01*
X175858Y174572D01*
X175000Y174743D01*
X174142Y174572D01*
X173414Y174086D01*
X173376Y174029D01*
X124124D01*
X124086Y174086D01*
X123358Y174572D01*
X122500Y174743D01*
X121642Y174572D01*
X120914Y174086D01*
X120876Y174029D01*
X72500D01*
X71915Y173913D01*
X71419Y173581D01*
X68919Y171081D01*
X68587Y170585D01*
X68471Y170000D01*
Y159717D01*
X67857Y159462D01*
X66969Y158781D01*
X66288Y157893D01*
X65859Y156860D01*
X65713Y155750D01*
Y154250D01*
X65859Y153140D01*
X66288Y152107D01*
X66969Y151219D01*
X67857Y150538D01*
X68891Y150109D01*
X70000Y149963D01*
X71109Y150109D01*
X72143Y150538D01*
X73031Y151219D01*
X73712Y152107D01*
X74141Y153140D01*
X74287Y154250D01*
Y155750D01*
X74141Y156860D01*
X73712Y157893D01*
X73031Y158781D01*
X72143Y159462D01*
X71529Y159717D01*
Y169367D01*
X73133Y170971D01*
X120876D01*
X120914Y170914D01*
X121642Y170428D01*
X122500Y170257D01*
X123358Y170428D01*
X124086Y170914D01*
X124124Y170971D01*
X173376D01*
X173414Y170914D01*
X174142Y170428D01*
X175000Y170257D01*
X175858Y170428D01*
X176586Y170914D01*
X176624Y170971D01*
X225876D01*
X225914Y170914D01*
X226642Y170428D01*
X227500Y170257D01*
X228358Y170428D01*
X229086Y170914D01*
X229124Y170971D01*
X278376D01*
X278414Y170914D01*
X279142Y170428D01*
X280000Y170257D01*
X280858Y170428D01*
X281586Y170914D01*
X281624Y170971D01*
X330876D01*
X330914Y170914D01*
X331642Y170428D01*
X332500Y170257D01*
X333358Y170428D01*
X334086Y170914D01*
X334124Y170971D01*
X353876D01*
X353914Y170914D01*
X354642Y170428D01*
X355500Y170257D01*
X356358Y170428D01*
X357086Y170914D01*
X357572Y171642D01*
X357743Y172500D01*
X357572Y173358D01*
X357086Y174086D01*
X356358Y174572D01*
X355500Y174743D01*
D02*
G37*
G36*
X60000Y220037D02*
X58890Y219891D01*
X57857Y219462D01*
X56969Y218781D01*
X56288Y217893D01*
X55859Y216860D01*
X55713Y215750D01*
Y214250D01*
X55859Y213141D01*
X56288Y212107D01*
X56969Y211219D01*
X57857Y210538D01*
X58890Y210109D01*
X60000Y209963D01*
X61110Y210109D01*
X62143Y210538D01*
X63031Y211219D01*
X63712Y212107D01*
X64141Y213141D01*
X64287Y214250D01*
Y215750D01*
X64141Y216860D01*
X63712Y217893D01*
X63031Y218781D01*
X62143Y219462D01*
X61110Y219891D01*
X60000Y220037D01*
D02*
G37*
G36*
X92500D02*
X91391Y219891D01*
X90357Y219462D01*
X89469Y218781D01*
X88788Y217893D01*
X88359Y216860D01*
X88213Y215750D01*
Y214250D01*
X88359Y213141D01*
X88788Y212107D01*
X89469Y211219D01*
X90357Y210538D01*
X91391Y210109D01*
X92500Y209963D01*
X93609Y210109D01*
X94643Y210538D01*
X95531Y211219D01*
X96212Y212107D01*
X96641Y213141D01*
X96787Y214250D01*
Y215750D01*
X96641Y216860D01*
X96212Y217893D01*
X95531Y218781D01*
X94643Y219462D01*
X93609Y219891D01*
X92500Y220037D01*
D02*
G37*
G36*
X102500D02*
X101391Y219891D01*
X100357Y219462D01*
X99469Y218781D01*
X98788Y217893D01*
X98359Y216860D01*
X98213Y215750D01*
Y214250D01*
X98359Y213141D01*
X98788Y212107D01*
X99469Y211219D01*
X100357Y210538D01*
X101391Y210109D01*
X102500Y209963D01*
X103610Y210109D01*
X104643Y210538D01*
X105531Y211219D01*
X106212Y212107D01*
X106641Y213141D01*
X106787Y214250D01*
Y215750D01*
X106641Y216860D01*
X106212Y217893D01*
X105531Y218781D01*
X104643Y219462D01*
X103610Y219891D01*
X102500Y220037D01*
D02*
G37*
G36*
X50000D02*
X48891Y219891D01*
X47857Y219462D01*
X46969Y218781D01*
X46288Y217893D01*
X45859Y216860D01*
X45713Y215750D01*
Y214250D01*
X45859Y213141D01*
X46288Y212107D01*
X46969Y211219D01*
X47857Y210538D01*
X48471Y210283D01*
Y194029D01*
X48587Y193444D01*
X48919Y192948D01*
X50448Y191419D01*
X50944Y191087D01*
X51529Y190971D01*
X100876D01*
X100914Y190914D01*
X101642Y190428D01*
X102500Y190257D01*
X103358Y190428D01*
X104086Y190914D01*
X104124Y190971D01*
X153376D01*
X153414Y190914D01*
X154142Y190428D01*
X155000Y190257D01*
X155858Y190428D01*
X156586Y190914D01*
X156624Y190971D01*
X205876D01*
X205914Y190914D01*
X206642Y190428D01*
X207500Y190257D01*
X208358Y190428D01*
X209086Y190914D01*
X209124Y190971D01*
X258376D01*
X258414Y190914D01*
X259142Y190428D01*
X260000Y190257D01*
X260858Y190428D01*
X261586Y190914D01*
X261624Y190971D01*
X310876D01*
X310914Y190914D01*
X311642Y190428D01*
X312500Y190257D01*
X313358Y190428D01*
X314086Y190914D01*
X314124Y190971D01*
X367876D01*
X367914Y190914D01*
X368642Y190428D01*
X369500Y190257D01*
X370358Y190428D01*
X371086Y190914D01*
X371572Y191642D01*
X371743Y192500D01*
X371572Y193358D01*
X371086Y194086D01*
X370358Y194572D01*
X369500Y194743D01*
X368642Y194572D01*
X367914Y194086D01*
X367876Y194029D01*
X314124D01*
X314086Y194086D01*
X313358Y194572D01*
X312500Y194743D01*
X311642Y194572D01*
X310914Y194086D01*
X310876Y194029D01*
X261624D01*
X261586Y194086D01*
X260858Y194572D01*
X260000Y194743D01*
X259142Y194572D01*
X258414Y194086D01*
X258376Y194029D01*
X209124D01*
X209086Y194086D01*
X208358Y194572D01*
X207500Y194743D01*
X206642Y194572D01*
X205914Y194086D01*
X205876Y194029D01*
X156624D01*
X156586Y194086D01*
X155858Y194572D01*
X155000Y194743D01*
X154142Y194572D01*
X153414Y194086D01*
X153376Y194029D01*
X104124D01*
X104086Y194086D01*
X103358Y194572D01*
X102500Y194743D01*
X101642Y194572D01*
X100914Y194086D01*
X100876Y194029D01*
X52163D01*
X51529Y194663D01*
Y210283D01*
X52143Y210538D01*
X53031Y211219D01*
X53712Y212107D01*
X54141Y213141D01*
X54287Y214250D01*
Y215750D01*
X54141Y216860D01*
X53712Y217893D01*
X53031Y218781D01*
X52143Y219462D01*
X51109Y219891D01*
X50000Y220037D01*
D02*
G37*
G36*
X70000D02*
X68891Y219891D01*
X67857Y219462D01*
X66969Y218781D01*
X66288Y217893D01*
X65859Y216860D01*
X65713Y215750D01*
Y214250D01*
X65859Y213141D01*
X66288Y212107D01*
X66969Y211219D01*
X67857Y210538D01*
X68471Y210283D01*
Y200000D01*
X68587Y199415D01*
X68919Y198919D01*
X71419Y196419D01*
X71915Y196087D01*
X72500Y195971D01*
X120876D01*
X120914Y195914D01*
X121642Y195428D01*
X122500Y195257D01*
X123358Y195428D01*
X124086Y195914D01*
X124124Y195971D01*
X173376D01*
X173414Y195914D01*
X174142Y195428D01*
X175000Y195257D01*
X175858Y195428D01*
X176586Y195914D01*
X176624Y195971D01*
X225876D01*
X225914Y195914D01*
X226642Y195428D01*
X227500Y195257D01*
X228358Y195428D01*
X229086Y195914D01*
X229124Y195971D01*
X278376D01*
X278414Y195914D01*
X279142Y195428D01*
X280000Y195257D01*
X280858Y195428D01*
X281586Y195914D01*
X281624Y195971D01*
X330876D01*
X330914Y195914D01*
X331642Y195428D01*
X332500Y195257D01*
X333358Y195428D01*
X334086Y195914D01*
X334124Y195971D01*
X371376D01*
X371414Y195914D01*
X372142Y195428D01*
X373000Y195257D01*
X373858Y195428D01*
X374586Y195914D01*
X375072Y196642D01*
X375243Y197500D01*
X375072Y198358D01*
X374586Y199086D01*
X373858Y199572D01*
X373000Y199743D01*
X372142Y199572D01*
X371414Y199086D01*
X371376Y199029D01*
X334124D01*
X334086Y199086D01*
X333358Y199572D01*
X332500Y199743D01*
X331642Y199572D01*
X330914Y199086D01*
X330876Y199029D01*
X281624D01*
X281586Y199086D01*
X280858Y199572D01*
X280000Y199743D01*
X279142Y199572D01*
X278414Y199086D01*
X278376Y199029D01*
X229124D01*
X229086Y199086D01*
X228358Y199572D01*
X227500Y199743D01*
X226642Y199572D01*
X225914Y199086D01*
X225876Y199029D01*
X176624D01*
X176586Y199086D01*
X175858Y199572D01*
X175000Y199743D01*
X174142Y199572D01*
X173414Y199086D01*
X173376Y199029D01*
X124124D01*
X124086Y199086D01*
X123358Y199572D01*
X122500Y199743D01*
X121642Y199572D01*
X120914Y199086D01*
X120876Y199029D01*
X73133D01*
X71529Y200634D01*
Y210283D01*
X72143Y210538D01*
X73031Y211219D01*
X73712Y212107D01*
X74141Y213141D01*
X74287Y214250D01*
Y215750D01*
X74141Y216860D01*
X73712Y217893D01*
X73031Y218781D01*
X72143Y219462D01*
X71109Y219891D01*
X70000Y220037D01*
D02*
G37*
G36*
X342500D02*
X341390Y219891D01*
X340357Y219462D01*
X339469Y218781D01*
X338788Y217893D01*
X338359Y216860D01*
X338213Y215750D01*
Y214250D01*
X338359Y213141D01*
X338788Y212107D01*
X339469Y211219D01*
X340357Y210538D01*
X340971Y210283D01*
Y205000D01*
X341064Y204529D01*
X340789Y204029D01*
X293133D01*
X291529Y205633D01*
Y210283D01*
X292143Y210538D01*
X293031Y211219D01*
X293712Y212107D01*
X294141Y213141D01*
X294287Y214250D01*
Y215750D01*
X294141Y216860D01*
X293712Y217893D01*
X293031Y218781D01*
X292143Y219462D01*
X291109Y219891D01*
X290000Y220037D01*
X288891Y219891D01*
X287857Y219462D01*
X286969Y218781D01*
X286288Y217893D01*
X285859Y216860D01*
X285713Y215750D01*
Y214250D01*
X285859Y213141D01*
X286288Y212107D01*
X286969Y211219D01*
X287857Y210538D01*
X288471Y210283D01*
Y205000D01*
X288564Y204529D01*
X288289Y204029D01*
X240634D01*
X239029Y205633D01*
Y210283D01*
X239643Y210538D01*
X240531Y211219D01*
X241212Y212107D01*
X241641Y213141D01*
X241787Y214250D01*
Y215750D01*
X241641Y216860D01*
X241212Y217893D01*
X240531Y218781D01*
X239643Y219462D01*
X238610Y219891D01*
X237500Y220037D01*
X236390Y219891D01*
X235357Y219462D01*
X234469Y218781D01*
X233788Y217893D01*
X233359Y216860D01*
X233213Y215750D01*
Y214250D01*
X233359Y213141D01*
X233788Y212107D01*
X234469Y211219D01*
X235357Y210538D01*
X235971Y210283D01*
Y205000D01*
X236064Y204529D01*
X235789Y204029D01*
X188134D01*
X186529Y205633D01*
Y210283D01*
X187143Y210538D01*
X188031Y211219D01*
X188712Y212107D01*
X189141Y213141D01*
X189287Y214250D01*
Y215750D01*
X189141Y216860D01*
X188712Y217893D01*
X188031Y218781D01*
X187143Y219462D01*
X186109Y219891D01*
X185000Y220037D01*
X183890Y219891D01*
X182857Y219462D01*
X181969Y218781D01*
X181288Y217893D01*
X180859Y216860D01*
X180713Y215750D01*
Y214250D01*
X180859Y213141D01*
X181288Y212107D01*
X181969Y211219D01*
X182857Y210538D01*
X183471Y210283D01*
Y205000D01*
X183564Y204529D01*
X183289Y204029D01*
X135634D01*
X134029Y205633D01*
Y210283D01*
X134643Y210538D01*
X135531Y211219D01*
X136212Y212107D01*
X136641Y213141D01*
X136787Y214250D01*
Y215750D01*
X136641Y216860D01*
X136212Y217893D01*
X135531Y218781D01*
X134643Y219462D01*
X133609Y219891D01*
X132500Y220037D01*
X131391Y219891D01*
X130357Y219462D01*
X129469Y218781D01*
X128788Y217893D01*
X128359Y216860D01*
X128213Y215750D01*
Y214250D01*
X128359Y213141D01*
X128788Y212107D01*
X129469Y211219D01*
X130357Y210538D01*
X130971Y210283D01*
Y205000D01*
X131064Y204529D01*
X130789Y204029D01*
X83134D01*
X81529Y205633D01*
Y210283D01*
X82143Y210538D01*
X83031Y211219D01*
X83712Y212107D01*
X84141Y213141D01*
X84287Y214250D01*
Y215750D01*
X84141Y216860D01*
X83712Y217893D01*
X83031Y218781D01*
X82143Y219462D01*
X81109Y219891D01*
X80000Y220037D01*
X78891Y219891D01*
X77857Y219462D01*
X76969Y218781D01*
X76288Y217893D01*
X75859Y216860D01*
X75713Y215750D01*
Y214250D01*
X75859Y213141D01*
X76288Y212107D01*
X76969Y211219D01*
X77857Y210538D01*
X78471Y210283D01*
Y205000D01*
X78587Y204415D01*
X78919Y203919D01*
X81419Y201419D01*
X81915Y201087D01*
X82500Y200971D01*
X374876D01*
X374914Y200914D01*
X375642Y200428D01*
X376500Y200257D01*
X377358Y200428D01*
X378086Y200914D01*
X378572Y201642D01*
X378743Y202500D01*
X378572Y203358D01*
X378086Y204086D01*
X377358Y204572D01*
X376500Y204743D01*
X375642Y204572D01*
X374914Y204086D01*
X374876Y204029D01*
X345634D01*
X344029Y205633D01*
Y210283D01*
X344643Y210538D01*
X345531Y211219D01*
X346212Y212107D01*
X346641Y213141D01*
X346787Y214250D01*
Y215750D01*
X346641Y216860D01*
X346212Y217893D01*
X345531Y218781D01*
X344643Y219462D01*
X343609Y219891D01*
X342500Y220037D01*
D02*
G37*
G36*
X280000D02*
X278890Y219891D01*
X277857Y219462D01*
X276969Y218781D01*
X276288Y217893D01*
X275859Y216860D01*
X275713Y215750D01*
Y214250D01*
X275859Y213141D01*
X276288Y212107D01*
X276969Y211219D01*
X277857Y210538D01*
X278890Y210109D01*
X280000Y209963D01*
X281109Y210109D01*
X282143Y210538D01*
X283031Y211219D01*
X283712Y212107D01*
X284141Y213141D01*
X284287Y214250D01*
Y215750D01*
X284141Y216860D01*
X283712Y217893D01*
X283031Y218781D01*
X282143Y219462D01*
X281109Y219891D01*
X280000Y220037D01*
D02*
G37*
G36*
X254250Y235000D02*
X245750D01*
Y225000D01*
X254250D01*
Y235000D01*
D02*
G37*
G36*
X352500Y244743D02*
X351642Y244572D01*
X350914Y244086D01*
X350876Y244029D01*
X135000D01*
X134415Y243913D01*
X133919Y243581D01*
X131419Y241081D01*
X131087Y240585D01*
X130971Y240000D01*
Y234717D01*
X130357Y234462D01*
X129469Y233781D01*
X128788Y232893D01*
X128359Y231859D01*
X128213Y230750D01*
Y229250D01*
X128359Y228140D01*
X128788Y227107D01*
X129469Y226219D01*
X130357Y225538D01*
X131391Y225109D01*
X132500Y224963D01*
X133609Y225109D01*
X134643Y225538D01*
X135531Y226219D01*
X136212Y227107D01*
X136641Y228140D01*
X136787Y229250D01*
Y230750D01*
X136641Y231859D01*
X136212Y232893D01*
X135531Y233781D01*
X134643Y234462D01*
X134029Y234717D01*
Y239367D01*
X135634Y240971D01*
X183289D01*
X183564Y240471D01*
X183471Y240000D01*
Y234717D01*
X182857Y234462D01*
X181969Y233781D01*
X181288Y232893D01*
X180859Y231859D01*
X180713Y230750D01*
Y229250D01*
X180859Y228140D01*
X181288Y227107D01*
X181969Y226219D01*
X182857Y225538D01*
X183890Y225109D01*
X185000Y224963D01*
X186109Y225109D01*
X187143Y225538D01*
X188031Y226219D01*
X188712Y227107D01*
X189141Y228140D01*
X189287Y229250D01*
Y230750D01*
X189141Y231859D01*
X188712Y232893D01*
X188031Y233781D01*
X187143Y234462D01*
X186529Y234717D01*
Y239367D01*
X188134Y240971D01*
X235789D01*
X236064Y240471D01*
X235971Y240000D01*
Y234717D01*
X235357Y234462D01*
X234469Y233781D01*
X233788Y232893D01*
X233359Y231859D01*
X233213Y230750D01*
Y229250D01*
X233359Y228140D01*
X233788Y227107D01*
X234469Y226219D01*
X235357Y225538D01*
X236390Y225109D01*
X237500Y224963D01*
X238610Y225109D01*
X239643Y225538D01*
X240531Y226219D01*
X241212Y227107D01*
X241641Y228140D01*
X241787Y229250D01*
Y230750D01*
X241641Y231859D01*
X241212Y232893D01*
X240531Y233781D01*
X239643Y234462D01*
X239029Y234717D01*
Y239367D01*
X240634Y240971D01*
X288289D01*
X288564Y240471D01*
X288471Y240000D01*
Y234717D01*
X287857Y234462D01*
X286969Y233781D01*
X286288Y232893D01*
X285859Y231859D01*
X285713Y230750D01*
Y229250D01*
X285859Y228140D01*
X286288Y227107D01*
X286969Y226219D01*
X287857Y225538D01*
X288891Y225109D01*
X290000Y224963D01*
X291109Y225109D01*
X292143Y225538D01*
X293031Y226219D01*
X293712Y227107D01*
X294141Y228140D01*
X294287Y229250D01*
Y230750D01*
X294141Y231859D01*
X293712Y232893D01*
X293031Y233781D01*
X292143Y234462D01*
X291529Y234717D01*
Y239367D01*
X293133Y240971D01*
X350876D01*
X350914Y240914D01*
X351642Y240428D01*
X352500Y240257D01*
X353358Y240428D01*
X354086Y240914D01*
X354572Y241642D01*
X354743Y242500D01*
X354572Y243358D01*
X354086Y244086D01*
X353358Y244572D01*
X352500Y244743D01*
D02*
G37*
G36*
X355500Y249743D02*
X354642Y249572D01*
X353914Y249086D01*
X353876Y249029D01*
X281624D01*
X281586Y249086D01*
X280858Y249572D01*
X280000Y249743D01*
X279142Y249572D01*
X278414Y249086D01*
X278376Y249029D01*
X229124D01*
X229086Y249086D01*
X228358Y249572D01*
X227500Y249743D01*
X226642Y249572D01*
X225914Y249086D01*
X225876Y249029D01*
X176624D01*
X176586Y249086D01*
X175858Y249572D01*
X175000Y249743D01*
X174142Y249572D01*
X173414Y249086D01*
X173376Y249029D01*
X125000D01*
X124415Y248913D01*
X123919Y248581D01*
X121419Y246081D01*
X121087Y245585D01*
X120971Y245000D01*
Y234717D01*
X120357Y234462D01*
X119469Y233781D01*
X118788Y232893D01*
X118359Y231859D01*
X118213Y230750D01*
Y229250D01*
X118359Y228140D01*
X118788Y227107D01*
X119469Y226219D01*
X120357Y225538D01*
X121390Y225109D01*
X122500Y224963D01*
X123609Y225109D01*
X124643Y225538D01*
X125531Y226219D01*
X126212Y227107D01*
X126641Y228140D01*
X126787Y229250D01*
Y230750D01*
X126641Y231859D01*
X126212Y232893D01*
X125531Y233781D01*
X124643Y234462D01*
X124029Y234717D01*
Y244367D01*
X125634Y245971D01*
X173376D01*
X173414Y245914D01*
X174142Y245428D01*
X175000Y245257D01*
X175858Y245428D01*
X176586Y245914D01*
X176624Y245971D01*
X225876D01*
X225914Y245914D01*
X226642Y245428D01*
X227500Y245257D01*
X228358Y245428D01*
X229086Y245914D01*
X229124Y245971D01*
X278376D01*
X278414Y245914D01*
X279142Y245428D01*
X280000Y245257D01*
X280858Y245428D01*
X281586Y245914D01*
X281624Y245971D01*
X353876D01*
X353914Y245914D01*
X354642Y245428D01*
X355500Y245257D01*
X356358Y245428D01*
X357086Y245914D01*
X357572Y246642D01*
X357743Y247500D01*
X357572Y248358D01*
X357086Y249086D01*
X356358Y249572D01*
X355500Y249743D01*
D02*
G37*
G36*
X280000Y235037D02*
X278890Y234891D01*
X277857Y234462D01*
X276969Y233781D01*
X276288Y232893D01*
X275859Y231859D01*
X275713Y230750D01*
Y229250D01*
X275859Y228140D01*
X276288Y227107D01*
X276969Y226219D01*
X277857Y225538D01*
X278890Y225109D01*
X280000Y224963D01*
X281109Y225109D01*
X282143Y225538D01*
X283031Y226219D01*
X283712Y227107D01*
X284141Y228140D01*
X284287Y229250D01*
Y230750D01*
X284141Y231859D01*
X283712Y232893D01*
X283031Y233781D01*
X282143Y234462D01*
X281109Y234891D01*
X280000Y235037D01*
D02*
G37*
G36*
X149250Y235000D02*
X140750D01*
Y225000D01*
X149250D01*
Y235000D01*
D02*
G37*
G36*
X201750D02*
X193250D01*
Y225000D01*
X201750D01*
Y235000D01*
D02*
G37*
G36*
X102500Y295037D02*
X101391Y294891D01*
X100357Y294462D01*
X99469Y293781D01*
X98788Y292893D01*
X98359Y291860D01*
X98213Y290750D01*
Y289250D01*
X98359Y288141D01*
X98788Y287107D01*
X99469Y286219D01*
X100357Y285538D01*
X100971Y285283D01*
Y269029D01*
X101087Y268444D01*
X101419Y267948D01*
X102948Y266419D01*
X103444Y266087D01*
X104029Y265971D01*
X153376D01*
X153414Y265914D01*
X154142Y265428D01*
X155000Y265257D01*
X155858Y265428D01*
X156586Y265914D01*
X156624Y265971D01*
X205876D01*
X205914Y265914D01*
X206642Y265428D01*
X207500Y265257D01*
X208358Y265428D01*
X209086Y265914D01*
X209124Y265971D01*
X258376D01*
X258414Y265914D01*
X259142Y265428D01*
X260000Y265257D01*
X260858Y265428D01*
X261586Y265914D01*
X261624Y265971D01*
X367876D01*
X367914Y265914D01*
X368642Y265428D01*
X369500Y265257D01*
X370358Y265428D01*
X371086Y265914D01*
X371572Y266642D01*
X371743Y267500D01*
X371572Y268358D01*
X371086Y269086D01*
X370358Y269572D01*
X369500Y269743D01*
X368642Y269572D01*
X367914Y269086D01*
X367876Y269029D01*
X261624D01*
X261586Y269086D01*
X260858Y269572D01*
X260000Y269743D01*
X259142Y269572D01*
X258414Y269086D01*
X258376Y269029D01*
X209124D01*
X209086Y269086D01*
X208358Y269572D01*
X207500Y269743D01*
X206642Y269572D01*
X205914Y269086D01*
X205876Y269029D01*
X156624D01*
X156586Y269086D01*
X155858Y269572D01*
X155000Y269743D01*
X154142Y269572D01*
X153414Y269086D01*
X153376Y269029D01*
X104663D01*
X104029Y269663D01*
Y285283D01*
X104643Y285538D01*
X105531Y286219D01*
X106212Y287107D01*
X106641Y288141D01*
X106787Y289250D01*
Y290750D01*
X106641Y291860D01*
X106212Y292893D01*
X105531Y293781D01*
X104643Y294462D01*
X103610Y294891D01*
X102500Y295037D01*
D02*
G37*
G36*
X122500D02*
X121390Y294891D01*
X120357Y294462D01*
X119469Y293781D01*
X118788Y292893D01*
X118359Y291860D01*
X118213Y290750D01*
Y289250D01*
X118359Y288141D01*
X118788Y287107D01*
X119469Y286219D01*
X120357Y285538D01*
X120971Y285283D01*
Y275000D01*
X121087Y274415D01*
X121419Y273919D01*
X123919Y271419D01*
X124415Y271087D01*
X125000Y270971D01*
X173376D01*
X173414Y270914D01*
X174142Y270428D01*
X175000Y270257D01*
X175858Y270428D01*
X176586Y270914D01*
X176624Y270971D01*
X225876D01*
X225914Y270914D01*
X226642Y270428D01*
X227500Y270257D01*
X228358Y270428D01*
X229086Y270914D01*
X229124Y270971D01*
X278376D01*
X278414Y270914D01*
X279142Y270428D01*
X280000Y270257D01*
X280858Y270428D01*
X281586Y270914D01*
X281624Y270971D01*
X371376D01*
X371414Y270914D01*
X372142Y270428D01*
X373000Y270257D01*
X373858Y270428D01*
X374586Y270914D01*
X375072Y271642D01*
X375243Y272500D01*
X375072Y273358D01*
X374586Y274086D01*
X373858Y274572D01*
X373000Y274743D01*
X372142Y274572D01*
X371414Y274086D01*
X371376Y274029D01*
X281624D01*
X281586Y274086D01*
X280858Y274572D01*
X280000Y274743D01*
X279142Y274572D01*
X278414Y274086D01*
X278376Y274029D01*
X229124D01*
X229086Y274086D01*
X228358Y274572D01*
X227500Y274743D01*
X226642Y274572D01*
X225914Y274086D01*
X225876Y274029D01*
X176624D01*
X176586Y274086D01*
X175858Y274572D01*
X175000Y274743D01*
X174142Y274572D01*
X173414Y274086D01*
X173376Y274029D01*
X125634D01*
X124029Y275634D01*
Y285283D01*
X124643Y285538D01*
X125531Y286219D01*
X126212Y287107D01*
X126641Y288141D01*
X126787Y289250D01*
Y290750D01*
X126641Y291860D01*
X126212Y292893D01*
X125531Y293781D01*
X124643Y294462D01*
X123609Y294891D01*
X122500Y295037D01*
D02*
G37*
G36*
X290000D02*
X288891Y294891D01*
X287857Y294462D01*
X286969Y293781D01*
X286288Y292893D01*
X285859Y291860D01*
X285713Y290750D01*
Y289250D01*
X285859Y288141D01*
X286288Y287107D01*
X286969Y286219D01*
X287857Y285538D01*
X288471Y285283D01*
Y280000D01*
X288564Y279529D01*
X288289Y279029D01*
X240634D01*
X239029Y280633D01*
Y285283D01*
X239643Y285538D01*
X240531Y286219D01*
X241212Y287107D01*
X241641Y288141D01*
X241787Y289250D01*
Y290750D01*
X241641Y291860D01*
X241212Y292893D01*
X240531Y293781D01*
X239643Y294462D01*
X238610Y294891D01*
X237500Y295037D01*
X236390Y294891D01*
X235357Y294462D01*
X234469Y293781D01*
X233788Y292893D01*
X233359Y291860D01*
X233213Y290750D01*
Y289250D01*
X233359Y288141D01*
X233788Y287107D01*
X234469Y286219D01*
X235357Y285538D01*
X235971Y285283D01*
Y280000D01*
X236064Y279529D01*
X235789Y279029D01*
X188134D01*
X186529Y280633D01*
Y285283D01*
X187143Y285538D01*
X188031Y286219D01*
X188712Y287107D01*
X189141Y288141D01*
X189287Y289250D01*
Y290750D01*
X189141Y291860D01*
X188712Y292893D01*
X188031Y293781D01*
X187143Y294462D01*
X186109Y294891D01*
X185000Y295037D01*
X183890Y294891D01*
X182857Y294462D01*
X181969Y293781D01*
X181288Y292893D01*
X180859Y291860D01*
X180713Y290750D01*
Y289250D01*
X180859Y288141D01*
X181288Y287107D01*
X181969Y286219D01*
X182857Y285538D01*
X183471Y285283D01*
Y280000D01*
X183564Y279529D01*
X183289Y279029D01*
X135634D01*
X134029Y280633D01*
Y285283D01*
X134643Y285538D01*
X135531Y286219D01*
X136212Y287107D01*
X136641Y288141D01*
X136787Y289250D01*
Y290750D01*
X136641Y291860D01*
X136212Y292893D01*
X135531Y293781D01*
X134643Y294462D01*
X133609Y294891D01*
X132500Y295037D01*
X131391Y294891D01*
X130357Y294462D01*
X129469Y293781D01*
X128788Y292893D01*
X128359Y291860D01*
X128213Y290750D01*
Y289250D01*
X128359Y288141D01*
X128788Y287107D01*
X129469Y286219D01*
X130357Y285538D01*
X130971Y285283D01*
Y280000D01*
X131087Y279415D01*
X131419Y278919D01*
X133919Y276419D01*
X134415Y276087D01*
X135000Y275971D01*
X374876D01*
X374914Y275914D01*
X375642Y275428D01*
X376500Y275257D01*
X377358Y275428D01*
X378086Y275914D01*
X378572Y276642D01*
X378743Y277500D01*
X378572Y278358D01*
X378086Y279086D01*
X377358Y279572D01*
X376500Y279743D01*
X375642Y279572D01*
X374914Y279086D01*
X374876Y279029D01*
X293133D01*
X291529Y280633D01*
Y285283D01*
X292143Y285538D01*
X293031Y286219D01*
X293712Y287107D01*
X294141Y288141D01*
X294287Y289250D01*
Y290750D01*
X294141Y291860D01*
X293712Y292893D01*
X293031Y293781D01*
X292143Y294462D01*
X291109Y294891D01*
X290000Y295037D01*
D02*
G37*
G36*
X359000Y254743D02*
X358142Y254572D01*
X357414Y254086D01*
X357376Y254029D01*
X261624D01*
X261586Y254086D01*
X260858Y254572D01*
X260000Y254743D01*
X259142Y254572D01*
X258414Y254086D01*
X258376Y254029D01*
X209124D01*
X209086Y254086D01*
X208358Y254572D01*
X207500Y254743D01*
X206642Y254572D01*
X205914Y254086D01*
X205876Y254029D01*
X156624D01*
X156586Y254086D01*
X155858Y254572D01*
X155000Y254743D01*
X154142Y254572D01*
X153414Y254086D01*
X153376Y254029D01*
X105000D01*
X104415Y253913D01*
X103919Y253581D01*
X101419Y251081D01*
X101087Y250585D01*
X100971Y250000D01*
Y234717D01*
X100357Y234462D01*
X99469Y233781D01*
X98788Y232893D01*
X98359Y231859D01*
X98213Y230750D01*
Y229250D01*
X98359Y228140D01*
X98788Y227107D01*
X99469Y226219D01*
X100357Y225538D01*
X101391Y225109D01*
X102500Y224963D01*
X103610Y225109D01*
X104643Y225538D01*
X105531Y226219D01*
X106212Y227107D01*
X106641Y228140D01*
X106787Y229250D01*
Y230750D01*
X106641Y231859D01*
X106212Y232893D01*
X105531Y233781D01*
X104643Y234462D01*
X104029Y234717D01*
Y249366D01*
X105633Y250971D01*
X153376D01*
X153414Y250914D01*
X154142Y250428D01*
X155000Y250257D01*
X155858Y250428D01*
X156586Y250914D01*
X156624Y250971D01*
X205876D01*
X205914Y250914D01*
X206642Y250428D01*
X207500Y250257D01*
X208358Y250428D01*
X209086Y250914D01*
X209124Y250971D01*
X258376D01*
X258414Y250914D01*
X259142Y250428D01*
X260000Y250257D01*
X260858Y250428D01*
X261586Y250914D01*
X261624Y250971D01*
X357376D01*
X357414Y250914D01*
X358142Y250428D01*
X359000Y250257D01*
X359858Y250428D01*
X360586Y250914D01*
X361072Y251642D01*
X361243Y252500D01*
X361072Y253358D01*
X360586Y254086D01*
X359858Y254572D01*
X359000Y254743D01*
D02*
G37*
G36*
X362500Y259743D02*
X361642Y259572D01*
X360914Y259086D01*
X360876Y259029D01*
X251624D01*
X251586Y259086D01*
X250858Y259572D01*
X250000Y259743D01*
X249142Y259572D01*
X248414Y259086D01*
X248376Y259029D01*
X199124D01*
X199086Y259086D01*
X198358Y259572D01*
X197500Y259743D01*
X196642Y259572D01*
X195914Y259086D01*
X195876Y259029D01*
X146624D01*
X146586Y259086D01*
X145858Y259572D01*
X145000Y259743D01*
X144142Y259572D01*
X143414Y259086D01*
X143376Y259029D01*
X95000D01*
X94415Y258913D01*
X93919Y258581D01*
X91419Y256081D01*
X91087Y255585D01*
X90971Y255000D01*
Y235000D01*
X88250D01*
Y225000D01*
X96750D01*
Y235000D01*
X94029D01*
Y254366D01*
X95634Y255971D01*
X143376D01*
X143414Y255914D01*
X144142Y255428D01*
X145000Y255257D01*
X145858Y255428D01*
X146586Y255914D01*
X146624Y255971D01*
X195876D01*
X195914Y255914D01*
X196642Y255428D01*
X197500Y255257D01*
X198358Y255428D01*
X199086Y255914D01*
X199124Y255971D01*
X248376D01*
X248414Y255914D01*
X249142Y255428D01*
X250000Y255257D01*
X250858Y255428D01*
X251586Y255914D01*
X251624Y255971D01*
X360876D01*
X360914Y255914D01*
X361642Y255428D01*
X362500Y255257D01*
X363358Y255428D01*
X364086Y255914D01*
X364572Y256642D01*
X364743Y257500D01*
X364572Y258358D01*
X364086Y259086D01*
X363358Y259572D01*
X362500Y259743D01*
D02*
G37*
G36*
X92500Y295037D02*
X91391Y294891D01*
X90357Y294462D01*
X89469Y293781D01*
X88788Y292893D01*
X88359Y291860D01*
X88213Y290750D01*
Y289250D01*
X88359Y288141D01*
X88788Y287107D01*
X89469Y286219D01*
X90357Y285538D01*
X90971Y285283D01*
Y265000D01*
X91087Y264415D01*
X91419Y263919D01*
X91915Y263587D01*
X91923Y263585D01*
X94090Y261419D01*
X94586Y261087D01*
X95172Y260971D01*
X143376D01*
X143414Y260914D01*
X144142Y260428D01*
X145000Y260257D01*
X145858Y260428D01*
X146586Y260914D01*
X146624Y260971D01*
X195876D01*
X195914Y260914D01*
X196642Y260428D01*
X197500Y260257D01*
X198358Y260428D01*
X199086Y260914D01*
X199124Y260971D01*
X248376D01*
X248414Y260914D01*
X249142Y260428D01*
X250000Y260257D01*
X250858Y260428D01*
X251586Y260914D01*
X251624Y260971D01*
X364376D01*
X364414Y260914D01*
X365142Y260428D01*
X366000Y260257D01*
X366858Y260428D01*
X367586Y260914D01*
X368072Y261642D01*
X368243Y262500D01*
X368072Y263358D01*
X367586Y264086D01*
X366858Y264572D01*
X366000Y264743D01*
X365142Y264572D01*
X364414Y264086D01*
X364376Y264029D01*
X251624D01*
X251586Y264086D01*
X250858Y264572D01*
X250000Y264743D01*
X249142Y264572D01*
X248414Y264086D01*
X248376Y264029D01*
X199124D01*
X199086Y264086D01*
X198358Y264572D01*
X197500Y264743D01*
X196642Y264572D01*
X195914Y264086D01*
X195876Y264029D01*
X146624D01*
X146586Y264086D01*
X145858Y264572D01*
X145000Y264743D01*
X144142Y264572D01*
X143414Y264086D01*
X143376Y264029D01*
X95805D01*
X94029Y265805D01*
Y285283D01*
X94643Y285538D01*
X95531Y286219D01*
X96212Y287107D01*
X96641Y288141D01*
X96787Y289250D01*
Y290750D01*
X96641Y291860D01*
X96212Y292893D01*
X95531Y293781D01*
X94643Y294462D01*
X93609Y294891D01*
X92500Y295037D01*
D02*
G37*
G36*
X270000Y235037D02*
X268891Y234891D01*
X267857Y234462D01*
X266969Y233781D01*
X266288Y232893D01*
X265859Y231859D01*
X265713Y230750D01*
Y229250D01*
X265859Y228140D01*
X266288Y227107D01*
X266969Y226219D01*
X267857Y225538D01*
X268891Y225109D01*
X270000Y224963D01*
X271110Y225109D01*
X272143Y225538D01*
X273031Y226219D01*
X273712Y227107D01*
X274141Y228140D01*
X274287Y229250D01*
Y230750D01*
X274141Y231859D01*
X273712Y232893D01*
X273031Y233781D01*
X272143Y234462D01*
X271110Y234891D01*
X270000Y235037D01*
D02*
G37*
G36*
X332500Y220037D02*
X331391Y219891D01*
X330357Y219462D01*
X329469Y218781D01*
X328788Y217893D01*
X328359Y216860D01*
X328213Y215750D01*
Y214250D01*
X328359Y213141D01*
X328788Y212107D01*
X329469Y211219D01*
X330357Y210538D01*
X331391Y210109D01*
X332500Y209963D01*
X333610Y210109D01*
X334643Y210538D01*
X335531Y211219D01*
X336212Y212107D01*
X336641Y213141D01*
X336787Y214250D01*
Y215750D01*
X336641Y216860D01*
X336212Y217893D01*
X335531Y218781D01*
X334643Y219462D01*
X333610Y219891D01*
X332500Y220037D01*
D02*
G37*
G36*
X112500Y235037D02*
X111390Y234891D01*
X110357Y234462D01*
X109469Y233781D01*
X108788Y232893D01*
X108359Y231859D01*
X108213Y230750D01*
Y229250D01*
X108359Y228140D01*
X108788Y227107D01*
X109469Y226219D01*
X110357Y225538D01*
X111390Y225109D01*
X112500Y224963D01*
X113610Y225109D01*
X114643Y225538D01*
X115531Y226219D01*
X116212Y227107D01*
X116641Y228140D01*
X116787Y229250D01*
Y230750D01*
X116641Y231859D01*
X116212Y232893D01*
X115531Y233781D01*
X114643Y234462D01*
X113610Y234891D01*
X112500Y235037D01*
D02*
G37*
G36*
X155000D02*
X153891Y234891D01*
X152857Y234462D01*
X151969Y233781D01*
X151288Y232893D01*
X150859Y231859D01*
X150713Y230750D01*
Y229250D01*
X150859Y228140D01*
X151288Y227107D01*
X151969Y226219D01*
X152857Y225538D01*
X153891Y225109D01*
X155000Y224963D01*
X156109Y225109D01*
X157143Y225538D01*
X158031Y226219D01*
X158712Y227107D01*
X159141Y228140D01*
X159287Y229250D01*
Y230750D01*
X159141Y231859D01*
X158712Y232893D01*
X158031Y233781D01*
X157143Y234462D01*
X156109Y234891D01*
X155000Y235037D01*
D02*
G37*
G36*
X302500Y220037D02*
X301391Y219891D01*
X300357Y219462D01*
X299469Y218781D01*
X298788Y217893D01*
X298359Y216860D01*
X298213Y215750D01*
Y214250D01*
X298359Y213141D01*
X298788Y212107D01*
X299469Y211219D01*
X300357Y210538D01*
X301391Y210109D01*
X302500Y209963D01*
X303609Y210109D01*
X304643Y210538D01*
X305531Y211219D01*
X306212Y212107D01*
X306641Y213141D01*
X306787Y214250D01*
Y215750D01*
X306641Y216860D01*
X306212Y217893D01*
X305531Y218781D01*
X304643Y219462D01*
X303609Y219891D01*
X302500Y220037D01*
D02*
G37*
G36*
X312500D02*
X311390Y219891D01*
X310357Y219462D01*
X309469Y218781D01*
X308788Y217893D01*
X308359Y216860D01*
X308213Y215750D01*
Y214250D01*
X308359Y213141D01*
X308788Y212107D01*
X309469Y211219D01*
X310357Y210538D01*
X311390Y210109D01*
X312500Y209963D01*
X313610Y210109D01*
X314643Y210538D01*
X315531Y211219D01*
X316212Y212107D01*
X316641Y213141D01*
X316787Y214250D01*
Y215750D01*
X316641Y216860D01*
X316212Y217893D01*
X315531Y218781D01*
X314643Y219462D01*
X313610Y219891D01*
X312500Y220037D01*
D02*
G37*
G36*
X322500D02*
X321391Y219891D01*
X320357Y219462D01*
X319469Y218781D01*
X318788Y217893D01*
X318359Y216860D01*
X318213Y215750D01*
Y214250D01*
X318359Y213141D01*
X318788Y212107D01*
X319469Y211219D01*
X320357Y210538D01*
X321391Y210109D01*
X322500Y209963D01*
X323609Y210109D01*
X324643Y210538D01*
X325531Y211219D01*
X326212Y212107D01*
X326641Y213141D01*
X326787Y214250D01*
Y215750D01*
X326641Y216860D01*
X326212Y217893D01*
X325531Y218781D01*
X324643Y219462D01*
X323609Y219891D01*
X322500Y220037D01*
D02*
G37*
G36*
X217500Y235037D02*
X216390Y234891D01*
X215357Y234462D01*
X214469Y233781D01*
X213788Y232893D01*
X213359Y231859D01*
X213213Y230750D01*
Y229250D01*
X213359Y228140D01*
X213788Y227107D01*
X214469Y226219D01*
X215357Y225538D01*
X216390Y225109D01*
X217500Y224963D01*
X218609Y225109D01*
X219643Y225538D01*
X220531Y226219D01*
X221212Y227107D01*
X221641Y228140D01*
X221787Y229250D01*
Y230750D01*
X221641Y231859D01*
X221212Y232893D01*
X220531Y233781D01*
X219643Y234462D01*
X218609Y234891D01*
X217500Y235037D01*
D02*
G37*
G36*
X227500D02*
X226391Y234891D01*
X225357Y234462D01*
X224469Y233781D01*
X223788Y232893D01*
X223359Y231859D01*
X223213Y230750D01*
Y229250D01*
X223359Y228140D01*
X223788Y227107D01*
X224469Y226219D01*
X225357Y225538D01*
X226391Y225109D01*
X227500Y224963D01*
X228609Y225109D01*
X229643Y225538D01*
X230531Y226219D01*
X231212Y227107D01*
X231641Y228140D01*
X231787Y229250D01*
Y230750D01*
X231641Y231859D01*
X231212Y232893D01*
X230531Y233781D01*
X229643Y234462D01*
X228609Y234891D01*
X227500Y235037D01*
D02*
G37*
G36*
X260000D02*
X258891Y234891D01*
X257857Y234462D01*
X256969Y233781D01*
X256288Y232893D01*
X255859Y231859D01*
X255713Y230750D01*
Y229250D01*
X255859Y228140D01*
X256288Y227107D01*
X256969Y226219D01*
X257857Y225538D01*
X258891Y225109D01*
X260000Y224963D01*
X261109Y225109D01*
X262143Y225538D01*
X263031Y226219D01*
X263712Y227107D01*
X264141Y228140D01*
X264287Y229250D01*
Y230750D01*
X264141Y231859D01*
X263712Y232893D01*
X263031Y233781D01*
X262143Y234462D01*
X261109Y234891D01*
X260000Y235037D01*
D02*
G37*
G36*
X165000D02*
X163891Y234891D01*
X162857Y234462D01*
X161969Y233781D01*
X161288Y232893D01*
X160859Y231859D01*
X160713Y230750D01*
Y229250D01*
X160859Y228140D01*
X161288Y227107D01*
X161969Y226219D01*
X162857Y225538D01*
X163891Y225109D01*
X165000Y224963D01*
X166110Y225109D01*
X167143Y225538D01*
X168031Y226219D01*
X168712Y227107D01*
X169141Y228140D01*
X169287Y229250D01*
Y230750D01*
X169141Y231859D01*
X168712Y232893D01*
X168031Y233781D01*
X167143Y234462D01*
X166110Y234891D01*
X165000Y235037D01*
D02*
G37*
G36*
X175000D02*
X173890Y234891D01*
X172857Y234462D01*
X171969Y233781D01*
X171288Y232893D01*
X170859Y231859D01*
X170713Y230750D01*
Y229250D01*
X170859Y228140D01*
X171288Y227107D01*
X171969Y226219D01*
X172857Y225538D01*
X173890Y225109D01*
X175000Y224963D01*
X176110Y225109D01*
X177143Y225538D01*
X178031Y226219D01*
X178712Y227107D01*
X179141Y228140D01*
X179287Y229250D01*
Y230750D01*
X179141Y231859D01*
X178712Y232893D01*
X178031Y233781D01*
X177143Y234462D01*
X176110Y234891D01*
X175000Y235037D01*
D02*
G37*
G36*
X207500D02*
X206391Y234891D01*
X205357Y234462D01*
X204469Y233781D01*
X203788Y232893D01*
X203359Y231859D01*
X203213Y230750D01*
Y229250D01*
X203359Y228140D01*
X203788Y227107D01*
X204469Y226219D01*
X205357Y225538D01*
X206391Y225109D01*
X207500Y224963D01*
X208610Y225109D01*
X209643Y225538D01*
X210531Y226219D01*
X211212Y227107D01*
X211641Y228140D01*
X211787Y229250D01*
Y230750D01*
X211641Y231859D01*
X211212Y232893D01*
X210531Y233781D01*
X209643Y234462D01*
X208610Y234891D01*
X207500Y235037D01*
D02*
G37*
%LPD*%
D11*
X205000Y110000D02*
X297500D01*
X27500D02*
X205000D01*
X207500Y112500D01*
Y125000D01*
X300000Y112500D02*
Y125000D01*
X297500Y110000D02*
X300000Y112500D01*
X25000D02*
X27500Y110000D01*
X25000Y112500D02*
Y125000D01*
X40000Y155000D02*
Y180000D01*
X42500Y182500D01*
X80000Y165000D02*
X82500Y167500D01*
X80000Y155000D02*
Y165000D01*
X70000Y170000D02*
X72500Y172500D01*
X70000Y155000D02*
Y170000D01*
X50000Y175000D02*
X52500Y177500D01*
X50000Y155000D02*
Y175000D01*
X80000Y205000D02*
Y215000D01*
Y205000D02*
X82500Y202500D01*
X70000Y200000D02*
Y215000D01*
Y200000D02*
X72500Y197500D01*
X50000Y194029D02*
Y215000D01*
Y194029D02*
X51529Y192500D01*
X40000Y190000D02*
Y215000D01*
Y190000D02*
X40172D01*
X42672Y187500D01*
X42500Y182500D02*
X92500D01*
X52500Y177500D02*
X102500D01*
X72500Y172500D02*
X122500D01*
X132500Y155000D02*
Y165000D01*
X135000Y167500D01*
X82500D02*
X135000D01*
X185000Y155000D02*
Y165000D01*
X187500Y167500D01*
X135000D02*
X187500D01*
X342500Y155000D02*
Y165000D01*
X345000Y167500D01*
X352500D01*
X290000Y155000D02*
Y165000D01*
X292500Y167500D01*
X345000D01*
X237500Y155000D02*
Y165000D01*
X240000Y167500D01*
X187500D02*
X240000D01*
X292500D01*
X42672Y187500D02*
X92500D01*
X51529Y192500D02*
X102500D01*
X72500Y197500D02*
X122500D01*
X342500Y205000D02*
Y215000D01*
Y205000D02*
X345000Y202500D01*
X290000Y205000D02*
Y215000D01*
Y205000D02*
X292500Y202500D01*
X345000D01*
X237500Y205000D02*
Y215000D01*
Y205000D02*
X240000Y202500D01*
X292500D01*
X185000Y205000D02*
Y215000D01*
Y205000D02*
X187500Y202500D01*
X240000D01*
X132500Y205000D02*
Y215000D01*
Y205000D02*
X135000Y202500D01*
X82500D02*
X135000D01*
X187500D01*
Y277500D02*
X240000D01*
X135000D02*
X187500D01*
X185000Y280000D02*
X187500Y277500D01*
X185000Y280000D02*
Y290000D01*
X240000Y277500D02*
X292500D01*
X237500Y280000D02*
X240000Y277500D01*
X237500Y280000D02*
Y290000D01*
X290000Y280000D02*
X292500Y277500D01*
X290000Y280000D02*
Y290000D01*
X125000Y272500D02*
X175000D01*
X104029Y267500D02*
X155000D01*
X95172Y262500D02*
X145000D01*
X240000Y242500D02*
X292500D01*
X290000Y240000D02*
X292500Y242500D01*
X290000Y230000D02*
Y240000D01*
X187500Y242500D02*
X240000D01*
X237500Y240000D02*
X240000Y242500D01*
X237500Y230000D02*
Y240000D01*
X135000Y242500D02*
X187500D01*
X185000Y240000D02*
X187500Y242500D01*
X185000Y230000D02*
Y240000D01*
X125000Y247500D02*
X175000D01*
X105000Y252500D02*
X155000D01*
X95000Y257500D02*
X145000D01*
X92672Y265000D02*
X95172Y262500D01*
X92500Y265000D02*
X92672D01*
X92500D02*
Y290000D01*
X102500Y269029D02*
X104029Y267500D01*
X102500Y269029D02*
Y290000D01*
X122500Y275000D02*
X125000Y272500D01*
X122500Y275000D02*
Y290000D01*
X132500Y280000D02*
X135000Y277500D01*
X132500Y280000D02*
Y290000D01*
X102500Y230000D02*
Y250000D01*
X105000Y252500D01*
X122500Y230000D02*
Y245000D01*
X125000Y247500D01*
X132500Y230000D02*
Y240000D01*
X135000Y242500D01*
X92500Y255000D02*
X95000Y257500D01*
X92500Y230000D02*
Y255000D01*
X100000Y347500D02*
X150000D01*
X79029Y342500D02*
X130000D01*
X70172Y337500D02*
X120000D01*
X110000Y317500D02*
X162500D01*
X160000Y315000D02*
X162500Y317500D01*
X160000Y305000D02*
Y315000D01*
X100000Y322500D02*
X150000D01*
X80000Y327500D02*
X130000D01*
X70000Y332500D02*
X120000D01*
X67672Y340000D02*
X70172Y337500D01*
X67500Y340000D02*
X67672D01*
X67500D02*
Y365000D01*
X77500Y344029D02*
X79029Y342500D01*
X77500Y344029D02*
Y365000D01*
X97500Y350000D02*
X100000Y347500D01*
X97500Y350000D02*
Y365000D01*
X107500Y355000D02*
X110000Y352500D01*
X107500Y355000D02*
Y365000D01*
X77500Y305000D02*
Y325000D01*
X80000Y327500D01*
X97500Y305000D02*
Y320000D01*
X100000Y322500D01*
X107500Y305000D02*
Y315000D01*
X110000Y317500D01*
X67500Y330000D02*
X70000Y332500D01*
X67500Y305000D02*
Y330000D01*
X267500Y305000D02*
Y315000D01*
X270000Y317500D01*
X267500Y355000D02*
Y365000D01*
Y355000D02*
X270000Y352500D01*
X320000Y305000D02*
Y315000D01*
X257500Y322500D02*
X310000D01*
X237500Y327500D02*
X290000D01*
X227500Y332500D02*
X280000D01*
X227500Y337500D02*
X280000D01*
X120000D02*
X165000D01*
X182000Y320500D01*
X120000Y332500D02*
X167172D01*
X181172Y318500D01*
X130000Y327500D02*
X169343D01*
X180343Y316500D01*
X150000Y322500D02*
X171515D01*
X179515Y314500D01*
X162500Y317500D02*
X173686D01*
X178686Y312500D01*
X182000Y320500D02*
X205500D01*
X222500Y337500D01*
X227500D01*
X206328Y318500D02*
X220328Y332500D01*
X227500D01*
X207157Y316500D02*
X218157Y327500D01*
X237500D01*
X207985Y314500D02*
X215985Y322500D01*
X257500D01*
X208814Y312500D02*
X213814Y317500D01*
X270000D01*
X181172Y318500D02*
X206328D01*
X180343Y316500D02*
X207157D01*
X179515Y314500D02*
X207985D01*
X178686Y312500D02*
X208814D01*
X130000Y342500D02*
X162828D01*
X182828Y322500D01*
X204672D01*
X224672Y342500D01*
X237500D01*
X290000D01*
X150000Y347500D02*
X160657D01*
X183657Y324500D01*
X203843D01*
X226843Y347500D01*
X257500D01*
X310000D01*
X158485Y352500D02*
X184485Y326500D01*
X203015D01*
X229015Y352500D01*
X110000D02*
X158485D01*
X229015D02*
X270000D01*
X160000Y354015D02*
Y365000D01*
X158485Y352500D02*
X160000Y354015D01*
X292500Y242500D02*
X352500D01*
X345000Y202500D02*
X376500D01*
X292500Y277500D02*
X376500D01*
X122500Y172500D02*
X175000D01*
X227500D01*
X280000D01*
X332500D01*
X355500D01*
X175000Y247500D02*
X227500D01*
X280000D01*
X355500D01*
X102500Y177500D02*
X155000D01*
X207500D01*
X260000D01*
X312500D01*
X359000D01*
X155000Y252500D02*
X207500D01*
X260000D01*
X359000D01*
X92500Y182500D02*
X145000D01*
X197500D01*
X250000D01*
X302500D01*
X362500D01*
X145000Y257500D02*
X197500D01*
X250000D01*
X362500D01*
X92500Y187500D02*
X145000D01*
X197500D01*
X250000D01*
X302500D01*
X366000D01*
X145000Y262500D02*
X197500D01*
X250000D01*
X366000D01*
X102500Y192500D02*
X155000D01*
X207500D01*
X260000D01*
X312500D01*
X369500D01*
X155000Y267500D02*
X207500D01*
X260000D01*
X369500D01*
X122500Y197500D02*
X175000D01*
X227500D01*
X280000D01*
X332500D01*
X373000D01*
X175000Y272500D02*
X227500D01*
X280000D01*
X373000D01*
X320000Y355000D02*
Y365000D01*
X317500Y352500D02*
X320000Y355000D01*
X270000Y352500D02*
X317500D01*
Y317500D02*
X320000Y315000D01*
X270000Y317500D02*
X317500D01*
X60000Y132500D02*
Y155000D01*
Y132500D02*
X62500Y130000D01*
X132500D01*
X137500Y125000D01*
X112500Y135000D02*
Y155000D01*
Y135000D02*
X115000Y132500D01*
X140000D01*
X147500Y125000D01*
X165000Y140000D02*
X167500Y137500D01*
X195000D01*
X197500Y135000D01*
X165000Y140000D02*
Y155000D01*
X197500Y125000D02*
Y135000D01*
X270000Y125000D02*
Y155000D01*
X290000Y125000D02*
Y135000D01*
X292500Y137500D01*
X320000D01*
X322500Y140000D01*
Y155000D01*
X240000Y125000D02*
Y135000D01*
X237500Y137500D02*
X240000Y135000D01*
X220000Y137500D02*
X237500D01*
X217500Y140000D02*
X220000Y137500D01*
X217500Y140000D02*
Y155000D01*
X35000Y67500D02*
Y95000D01*
Y67500D02*
X72500Y30000D01*
Y12500D02*
Y30000D01*
X45000Y60328D02*
Y95000D01*
X55000Y53157D02*
Y95000D01*
Y53157D02*
X68157Y40000D01*
X90000D01*
X92500Y37500D01*
Y12500D02*
Y37500D01*
X67828D02*
X80000D01*
X82500Y35000D01*
Y12500D02*
Y35000D01*
X45000Y60328D02*
X67828Y37500D01*
X65000Y47500D02*
Y95000D01*
Y47500D02*
X70000Y42500D01*
X100000D02*
X102500Y40000D01*
Y12500D02*
Y40000D01*
X70000Y42500D02*
X100000D01*
X75000Y82500D02*
Y95000D01*
Y82500D02*
X77500Y80000D01*
X111039D01*
X112500Y78539D01*
Y72500D02*
Y78539D01*
X85000Y85000D02*
Y95000D01*
Y85000D02*
X87500Y82500D01*
X120000D01*
X122500Y80000D01*
Y72500D02*
Y80000D01*
X95000Y87500D02*
Y95000D01*
Y87500D02*
X97500Y85000D01*
X130000D01*
X132500Y82500D01*
Y72500D02*
Y82500D01*
X105000Y90000D02*
Y95000D01*
Y90000D02*
X107500Y87500D01*
X140000D01*
X142500Y85000D01*
Y72500D02*
Y85000D01*
X167500Y82500D02*
Y95000D01*
Y82500D02*
X170000Y80000D01*
X181039D01*
X182500Y78539D01*
Y72500D02*
Y78539D01*
X177500Y85000D02*
Y95000D01*
Y85000D02*
X180000Y82500D01*
X190000D01*
X192500Y80000D01*
Y72500D02*
Y80000D01*
X187500Y87500D02*
Y95000D01*
Y87500D02*
X190000Y85000D01*
X200000D01*
X202500Y82500D01*
Y72500D02*
Y82500D01*
X197500Y90000D02*
Y95000D01*
Y90000D02*
X200000Y87500D01*
X210000D01*
X212500Y85000D01*
Y72500D02*
Y85000D01*
X222500Y72500D02*
Y87500D01*
X230000Y95000D01*
X172500Y12500D02*
Y57500D01*
X175000Y60000D01*
X270000D01*
X272500Y62500D01*
Y77500D01*
X270000Y80000D02*
X272500Y77500D01*
X242500Y80000D02*
X270000D01*
X240000Y82500D02*
X242500Y80000D01*
X240000Y82500D02*
Y95000D01*
X182500Y12500D02*
Y55000D01*
X185000Y57500D01*
X272500D01*
X275000Y60000D01*
Y80000D01*
X272500Y82500D02*
X275000Y80000D01*
X252500Y82500D02*
X272500D01*
X250000Y85000D02*
X252500Y82500D01*
X250000Y85000D02*
Y95000D01*
X192500Y12500D02*
Y52500D01*
X195000Y55000D01*
X275000D01*
X277500Y57500D01*
Y82500D01*
X275000Y85000D02*
X277500Y82500D01*
X262500Y85000D02*
X275000D01*
X260000Y87500D02*
X262500Y85000D01*
X260000Y87500D02*
Y95000D01*
X202500Y12500D02*
Y50000D01*
X205000Y52500D01*
X277500D01*
X280000Y55000D01*
Y85000D01*
X277500Y87500D02*
X280000Y85000D01*
X272500Y87500D02*
X277500D01*
X270000Y90000D02*
X272500Y87500D01*
X270000Y90000D02*
Y95000D01*
X212500Y12500D02*
Y47500D01*
X215000Y50000D01*
X280000D01*
X282500Y52500D01*
Y85328D01*
X280000Y87828D02*
X282500Y85328D01*
X280000Y87828D02*
Y95000D01*
X222500Y12500D02*
Y45000D01*
X225000Y47500D01*
X282500D01*
X285000Y50000D01*
Y90000D01*
X290000Y95000D01*
X297500Y110000D02*
X307500D01*
X310000Y107500D01*
Y90000D02*
Y107500D01*
X307500Y87500D02*
X310000Y90000D01*
X290000Y87500D02*
X307500D01*
X287500Y85000D02*
X290000Y87500D01*
X287500Y47500D02*
Y85000D01*
X285000Y45000D02*
X287500Y47500D01*
X245000Y45000D02*
X285000D01*
X242500Y42500D02*
X245000Y45000D01*
X242500Y12500D02*
Y42500D01*
X358268Y98425D02*
Y116142D01*
Y64961D02*
Y82677D01*
X295079Y46654D02*
Y58858D01*
X291425Y43000D02*
X295079Y46654D01*
X265047Y43000D02*
X291425D01*
X262500Y40453D02*
X265047Y43000D01*
X262500Y12500D02*
Y40453D01*
X385827Y346457D02*
G03*
X346457Y385827I-39370J0D01*
G01*
X346457Y-0D02*
G03*
X385827Y39370I0J39370D01*
G01*
X0Y39370D02*
G03*
X39370Y0I39370J0D01*
G01*
X39370Y385827D02*
G03*
X-0Y346457I0J-39370D01*
G01*
D12*
X39370Y385827D02*
X346457D01*
X385827Y39370D02*
Y346457D01*
X39370Y0D02*
X346457D01*
X0Y39370D02*
Y346457D01*
D13*
X80000Y215000D02*
D03*
X70000D02*
D03*
X60000D02*
D03*
X50000D02*
D03*
X40000D02*
D03*
X80000Y155000D02*
D03*
X70000D02*
D03*
X60000D02*
D03*
X50000D02*
D03*
X132500Y215000D02*
D03*
X122500D02*
D03*
X112500D02*
D03*
X102500D02*
D03*
X92500D02*
D03*
X132500Y155000D02*
D03*
X122500D02*
D03*
X112500D02*
D03*
X102500D02*
D03*
X185000Y215000D02*
D03*
X175000D02*
D03*
X165000D02*
D03*
X155000D02*
D03*
X145000D02*
D03*
X185000Y155000D02*
D03*
X175000D02*
D03*
X165000D02*
D03*
X155000D02*
D03*
X237500Y215000D02*
D03*
X227500D02*
D03*
X217500D02*
D03*
X207500D02*
D03*
X197500D02*
D03*
X237500Y155000D02*
D03*
X227500D02*
D03*
X217500D02*
D03*
X207500D02*
D03*
X290000Y215000D02*
D03*
X280000D02*
D03*
X270000D02*
D03*
X260000D02*
D03*
X250000D02*
D03*
X290000Y155000D02*
D03*
X280000D02*
D03*
X270000D02*
D03*
X260000D02*
D03*
X342500Y215000D02*
D03*
X332500D02*
D03*
X322500D02*
D03*
X312500D02*
D03*
X302500D02*
D03*
X342500Y155000D02*
D03*
X332500D02*
D03*
X322500D02*
D03*
X312500D02*
D03*
X107500Y365000D02*
D03*
X97500D02*
D03*
X87500D02*
D03*
X77500D02*
D03*
X67500D02*
D03*
X107500Y305000D02*
D03*
X97500D02*
D03*
X87500D02*
D03*
X77500D02*
D03*
X160000Y365000D02*
D03*
X150000D02*
D03*
X140000D02*
D03*
X130000D02*
D03*
X120000D02*
D03*
X160000Y305000D02*
D03*
X150000D02*
D03*
X140000D02*
D03*
X130000D02*
D03*
X267500Y365000D02*
D03*
X257500D02*
D03*
X247500D02*
D03*
X237500D02*
D03*
X227500D02*
D03*
X267500Y305000D02*
D03*
X257500D02*
D03*
X247500D02*
D03*
X237500D02*
D03*
X320000Y365000D02*
D03*
X310000D02*
D03*
X300000D02*
D03*
X290000D02*
D03*
X280000D02*
D03*
X320000Y305000D02*
D03*
X310000D02*
D03*
X300000D02*
D03*
X290000D02*
D03*
X132500Y290000D02*
D03*
X122500D02*
D03*
X112500D02*
D03*
X102500D02*
D03*
X92500D02*
D03*
X132500Y230000D02*
D03*
X122500D02*
D03*
X112500D02*
D03*
X102500D02*
D03*
X185000Y290000D02*
D03*
X175000D02*
D03*
X165000D02*
D03*
X155000D02*
D03*
X145000D02*
D03*
X185000Y230000D02*
D03*
X175000D02*
D03*
X165000D02*
D03*
X155000D02*
D03*
X237500Y290000D02*
D03*
X227500D02*
D03*
X217500D02*
D03*
X207500D02*
D03*
X197500D02*
D03*
X237500Y230000D02*
D03*
X227500D02*
D03*
X217500D02*
D03*
X207500D02*
D03*
X290000Y290000D02*
D03*
X280000D02*
D03*
X270000D02*
D03*
X260000D02*
D03*
X250000D02*
D03*
X290000Y230000D02*
D03*
X280000D02*
D03*
X270000D02*
D03*
X260000D02*
D03*
D14*
X40000Y155000D02*
D03*
X92500D02*
D03*
X145000D02*
D03*
X197500D02*
D03*
X250000D02*
D03*
X302500D02*
D03*
X67500Y305000D02*
D03*
X120000D02*
D03*
X227500D02*
D03*
X280000D02*
D03*
X92500Y230000D02*
D03*
X145000D02*
D03*
X197500D02*
D03*
X250000D02*
D03*
D15*
X230000Y95000D02*
D03*
X137500D02*
D03*
X25000D02*
D03*
D16*
X240000D02*
D03*
X250000D02*
D03*
X260000D02*
D03*
X270000D02*
D03*
X280000D02*
D03*
X290000D02*
D03*
X300000D02*
D03*
X230000Y125000D02*
D03*
X240000D02*
D03*
X250000D02*
D03*
X260000D02*
D03*
X270000D02*
D03*
X280000D02*
D03*
X290000D02*
D03*
X300000D02*
D03*
X147500Y95000D02*
D03*
X157500D02*
D03*
X167500D02*
D03*
X177500D02*
D03*
X187500D02*
D03*
X197500D02*
D03*
X207500D02*
D03*
X137500Y125000D02*
D03*
X147500D02*
D03*
X157500D02*
D03*
X167500D02*
D03*
X177500D02*
D03*
X187500D02*
D03*
X197500D02*
D03*
X207500D02*
D03*
X35000Y95000D02*
D03*
X45000D02*
D03*
X55000D02*
D03*
X65000D02*
D03*
X75000D02*
D03*
X85000D02*
D03*
X95000D02*
D03*
X105000D02*
D03*
X115000D02*
D03*
X25000Y125000D02*
D03*
X35000D02*
D03*
X45000D02*
D03*
X55000D02*
D03*
X65000D02*
D03*
X75000D02*
D03*
X85000D02*
D03*
X95000D02*
D03*
X105000D02*
D03*
X115000D02*
D03*
D17*
X39370Y39370D02*
D03*
Y346457D02*
D03*
X346457D02*
D03*
Y39370D02*
D03*
X192913Y346457D02*
D03*
D18*
X72500Y12500D02*
D03*
D19*
X82500D02*
D03*
X92500D02*
D03*
X102500D02*
D03*
X112500D02*
D03*
X122500D02*
D03*
X132500D02*
D03*
X142500D02*
D03*
X152500D02*
D03*
X162500D02*
D03*
X172500D02*
D03*
X182500D02*
D03*
X192500D02*
D03*
X202500D02*
D03*
X212500D02*
D03*
X222500D02*
D03*
X232500D02*
D03*
X242500D02*
D03*
X252500D02*
D03*
X262500D02*
D03*
X72500Y72500D02*
D03*
X82500D02*
D03*
X92500D02*
D03*
X102500D02*
D03*
X112500D02*
D03*
X122500D02*
D03*
X132500D02*
D03*
X142500D02*
D03*
X152500D02*
D03*
X162500D02*
D03*
X172500D02*
D03*
X182500D02*
D03*
X192500D02*
D03*
X202500D02*
D03*
X212500D02*
D03*
X222500D02*
D03*
X232500D02*
D03*
X242500D02*
D03*
X252500D02*
D03*
X262500D02*
D03*
D20*
X358268Y116142D02*
D03*
X332677D02*
D03*
X358268Y98425D02*
D03*
X332677D02*
D03*
X358268Y82677D02*
D03*
X332677D02*
D03*
X358268Y64961D02*
D03*
X332677D02*
D03*
D21*
X92500Y182500D02*
D03*
X102500Y177500D02*
D03*
X122500Y172500D02*
D03*
X92500Y187500D02*
D03*
X102500Y192500D02*
D03*
X122500Y197500D02*
D03*
X175000D02*
D03*
X155000Y192500D02*
D03*
X145000Y187500D02*
D03*
X175000Y172500D02*
D03*
X155000Y177500D02*
D03*
X145000Y182500D02*
D03*
X227500Y197500D02*
D03*
X207500Y192500D02*
D03*
X197500Y187500D02*
D03*
X227500Y172500D02*
D03*
X207500Y177500D02*
D03*
X197500Y182500D02*
D03*
X280000Y197500D02*
D03*
X260000Y192500D02*
D03*
X250000Y187500D02*
D03*
X280000Y172500D02*
D03*
X260000Y177500D02*
D03*
X250000Y182500D02*
D03*
X332500Y197500D02*
D03*
X312500Y192500D02*
D03*
X302500Y187500D02*
D03*
X332500Y172500D02*
D03*
X312500Y177500D02*
D03*
X302500Y182500D02*
D03*
X250000Y257500D02*
D03*
X260000Y252500D02*
D03*
X280000Y247500D02*
D03*
X250000Y262500D02*
D03*
X260000Y267500D02*
D03*
X280000Y272500D02*
D03*
X197500Y257500D02*
D03*
X207500Y252500D02*
D03*
X227500Y247500D02*
D03*
X197500Y262500D02*
D03*
X207500Y267500D02*
D03*
X227500Y272500D02*
D03*
X175000D02*
D03*
X155000Y267500D02*
D03*
X145000Y262500D02*
D03*
X175000Y247500D02*
D03*
X155000Y252500D02*
D03*
X145000Y257500D02*
D03*
X150000Y347500D02*
D03*
X130000Y342500D02*
D03*
X120000Y337500D02*
D03*
X150000Y322500D02*
D03*
X130000Y327500D02*
D03*
X120000Y332500D02*
D03*
X227500D02*
D03*
X237500Y327500D02*
D03*
X257500Y322500D02*
D03*
X227500Y337500D02*
D03*
X237500Y342500D02*
D03*
X257500Y347500D02*
D03*
X280000Y332500D02*
D03*
X290000Y327500D02*
D03*
X310000Y322500D02*
D03*
X280000Y337500D02*
D03*
X290000Y342500D02*
D03*
X310000Y347500D02*
D03*
X352500Y167500D02*
D03*
X355500Y172500D02*
D03*
X359000Y177500D02*
D03*
X362500Y182500D02*
D03*
X366000Y187500D02*
D03*
X369500Y192500D02*
D03*
X373000Y197500D02*
D03*
X376500Y202500D02*
D03*
Y277500D02*
D03*
X373000Y272500D02*
D03*
X369500Y267500D02*
D03*
X366000Y262500D02*
D03*
X362500Y257500D02*
D03*
X359000Y252500D02*
D03*
X355500Y247500D02*
D03*
X352500Y242500D02*
D03*
X295079Y58858D02*
D03*
M02*
